#N canvas 971 284 743 401 10;
#N canvas 990 358 483 463 triangle 1;
#X obj 3 20 inlet;
#X msg 63 125 clearvertex;
#X msg 48 145 addvertex -0.01 0;
#X msg 33 165 addvertex 0.01 0;
#X msg 18 184 addvertex 0 0.03;
#X obj 255 142 nop;
#X obj 255 162 nop;
#X obj 255 182 nop;
#X obj 255 201 nop;
#X obj 255 419 outlet;
#X obj 255 388 mtcf-polygon;
#X obj 3 46 route init position;
#X obj 30 303 mtcf-translate;
#X obj 329 236 unpack f f f;
#X obj 30 338 mtcf-rotate;
#X msg 30 231 transform;
#X obj 302 63 nop;
#X obj 70 253 nop;
#X obj 363 259 nop;
#X obj 398 321 nop;
#X obj 3 71 t b b b b b b;
#X obj 255 122 nop;
#X obj 78 105 mtcf-color 255 255 255 255;
#X obj 70 276 pack f f;
#X obj 30 371 mtcf-wait-transform;
#X obj 3 206 t b b;
#X obj 3 354 nop;
#X obj 302 157 t b a;
#X obj 302 354 nop;
#X connect 0 0 11 0;
#X connect 1 0 5 0;
#X connect 2 0 6 0;
#X connect 3 0 7 0;
#X connect 4 0 8 0;
#X connect 5 0 6 0;
#X connect 6 0 7 0;
#X connect 7 0 8 0;
#X connect 8 0 10 0;
#X connect 10 0 9 0;
#X connect 11 0 20 0;
#X connect 11 1 16 0;
#X connect 12 0 14 0;
#X connect 13 0 17 0;
#X connect 13 1 18 0;
#X connect 13 2 19 0;
#X connect 14 0 24 0;
#X connect 15 0 12 0;
#X connect 16 0 27 0;
#X connect 17 0 23 0;
#X connect 18 0 23 1;
#X connect 19 0 14 1;
#X connect 20 0 25 0;
#X connect 20 1 4 0;
#X connect 20 2 3 0;
#X connect 20 3 2 0;
#X connect 20 4 1 0;
#X connect 20 5 22 0;
#X connect 21 0 5 0;
#X connect 22 0 21 0;
#X connect 23 0 12 1;
#X connect 24 0 10 0;
#X connect 25 0 26 0;
#X connect 25 1 15 0;
#X connect 26 0 24 0;
#X connect 27 0 28 0;
#X connect 27 1 13 0;
#X connect 28 0 24 0;
#X restore 91 133 pd triangle;
#X msg 91 108 init;
#X floatatom 142 207 5 0 0 0 - - -;
#X floatatom 188 208 5 0 0 0 - - -;
#X text 145 183 x;
#X text 189 184 y;
#X obj 196 146 pol2cart;
#X floatatom 239 113 5 0 0 0 - - -;
#X floatatom 235 207 5 0 0 0 - - -;
#X text 234 186 angle;
#X obj 274 163 rad2deg;
#X obj 172 320 pack f f f;
#X obj 128 233 f;
#X msg 174 345 position \$1 \$2 \$3;
#X obj 164 174 +;
#X obj 202 173 +;
#X obj 276 186 - 90;
#N canvas 0 0 450 300 decimal 0;
#X obj 117 116 i;
#X obj 103 140 -;
#X obj 94 89 t f f;
#X obj 125 37 inlet;
#X obj 204 242 outlet;
#X obj 165 163 moses 0;
#X obj 164 198 + 1;
#X connect 0 0 1 1;
#X connect 1 0 5 0;
#X connect 2 0 1 0;
#X connect 2 1 0 0;
#X connect 3 0 2 0;
#X connect 5 0 6 0;
#X connect 5 1 4 0;
#X connect 6 0 4 0;
#X restore 151 266 pd decimal;
#N canvas 0 0 450 300 decimal 0;
#X obj 121 118 i;
#X obj 107 142 -;
#X obj 98 91 t f f;
#X obj 129 39 inlet;
#X obj 208 244 outlet;
#X obj 169 165 moses 0;
#X obj 168 200 + 1;
#X connect 0 0 1 1;
#X connect 1 0 5 0;
#X connect 2 0 1 0;
#X connect 2 1 0 0;
#X connect 3 0 2 0;
#X connect 5 0 6 0;
#X connect 5 1 4 0;
#X connect 6 0 4 0;
#X restore 220 265 pd decimal;
#X msg 189 117 0.01;
#X obj 361 102 random 1000;
#X obj 362 169 line;
#X msg 362 52 1;
#X obj 361 77 metro 1000;
#X obj 362 124 maxlib/scale 0 1000 0 7;
#X msg 362 146 \$1 1000;
#X text 365 24 random direction;
#X obj 567 60 mtcf-object 1;
#X floatatom 606 90 5 0 0 0 - - -;
#X obj 447 267 *;
#X text 566 27 defined direction;
#X text 462 161 direction mixer;
#X obj 446 225 hsl 128 15 0 1 0 0 empty empty empty -2 -8 0 10 -262144
-1 -1 0 1;
#X obj 483 307 +;
#X obj 512 286 *;
#X obj 457 244 expr 1 - $f1;
#X obj 443 204 line;
#X msg 444 180 \$1 500;
#X obj 513 266 t b f;
#X obj 47 203 r birdupdate;
#X obj 87 37 mtcf-init;
#X msg 488 72 0;
#X connect 1 0 0 0;
#X connect 2 0 12 1;
#X connect 2 0 14 1;
#X connect 3 0 15 1;
#X connect 3 0 18 0;
#X connect 6 0 14 0;
#X connect 6 1 15 0;
#X connect 7 0 10 0;
#X connect 7 0 6 1;
#X connect 8 0 11 2;
#X connect 10 0 16 0;
#X connect 11 0 13 0;
#X connect 12 0 17 0;
#X connect 13 0 0 0;
#X connect 14 0 2 0;
#X connect 15 0 3 0;
#X connect 16 0 8 0;
#X connect 17 0 11 0;
#X connect 18 0 11 1;
#X connect 19 0 6 0;
#X connect 20 0 24 0;
#X connect 21 0 29 0;
#X connect 22 0 23 0;
#X connect 23 0 20 0;
#X connect 24 0 25 0;
#X connect 25 0 21 0;
#X connect 27 0 37 0;
#X connect 27 3 28 0;
#X connect 28 0 34 0;
#X connect 29 0 33 0;
#X connect 32 0 35 0;
#X connect 32 0 38 0;
#X connect 33 0 7 0;
#X connect 34 0 33 1;
#X connect 35 0 29 1;
#X connect 36 0 32 0;
#X connect 37 0 36 0;
#X connect 38 0 34 0;
#X connect 38 1 34 1;
#X connect 39 0 12 0;
#X connect 39 0 19 0;
#X connect 40 0 1 0;
#X connect 40 0 22 0;
#X connect 40 0 41 0;
#X connect 41 0 37 0;
