#N canvas 620 229 425 424 10;
#X obj 234 37 loadbang;
#X msg 234 58 \; pd dsp 1;
#X obj 34 59 s initparameters;
#X obj 34 37 basicTangibleTabletop localhost;
#X text 27 338 Musical Tabletop Coding Framework PD Client;
#X text 26 353 (C) Carles F. Julia carles.fernandez@upf.edu;
#X text 27 368 This software is released under the MIT license;
#X obj 15 37 bng 15 250 50 0 empty empty empty 17 7 0 10 -262144 -1
-1;
#X obj 38 119 Fingers;
#N canvas 1120 609 783 399 myoscfinger 0;
#X obj 43 33 inlet;
#X obj 43 237 outlet;
#X obj 88 56 tgl 15 0 empty empty empty 17 7 0 10 -262144 -1 -1 0 1
;
#X floatatom 106 55 5 0 0 0 - - -;
#X floatatom 143 56 5 0 0 0 - - -;
#X obj 43 54 finger;
#X obj 218 170 osc~;
#X obj 218 101 * 1000;
#X obj 278 121 osc~;
#X obj 218 141 +~;
#X obj 204 201 *~;
#X obj 203 228 throw~ audiofingers;
#X obj 273 148 *~ 200;
#X obj 278 102 * 20;
#X obj 317 121 * 10;
#X connect 0 0 5 0;
#X connect 2 0 10 0;
#X connect 3 0 7 0;
#X connect 4 0 13 0;
#X connect 5 0 1 0;
#X connect 5 1 2 0;
#X connect 5 2 3 0;
#X connect 5 3 4 0;
#X connect 6 0 10 1;
#X connect 7 0 9 0;
#X connect 8 0 12 0;
#X connect 9 0 6 0;
#X connect 10 0 11 0;
#X connect 12 0 9 1;
#X connect 13 0 8 0;
#X connect 13 0 14 0;
#X connect 14 0 12 1;
#X restore 38 143 pd myoscfinger;
#X obj 276 125 catch~ audiofingers;
#N canvas 1120 609 783 399 myoscfinger 0;
#X obj 43 33 inlet;
#X obj 43 237 outlet;
#X obj 88 56 tgl 15 0 empty empty empty 17 7 0 10 -262144 -1 -1 0 1
;
#X floatatom 106 55 5 0 0 0 - - -;
#X floatatom 143 56 5 0 0 0 - - -;
#X obj 43 54 finger;
#X obj 218 170 osc~;
#X obj 218 101 * 1000;
#X obj 278 121 osc~;
#X obj 218 141 +~;
#X obj 204 201 *~;
#X obj 203 228 throw~ audiofingers;
#X obj 273 148 *~ 200;
#X obj 278 102 * 20;
#X obj 317 121 * 10;
#X connect 0 0 5 0;
#X connect 2 0 10 0;
#X connect 3 0 7 0;
#X connect 4 0 13 0;
#X connect 5 0 1 0;
#X connect 5 1 2 0;
#X connect 5 2 3 0;
#X connect 5 3 4 0;
#X connect 6 0 10 1;
#X connect 7 0 9 0;
#X connect 8 0 12 0;
#X connect 9 0 6 0;
#X connect 10 0 11 0;
#X connect 12 0 9 1;
#X connect 13 0 8 0;
#X connect 13 0 14 0;
#X connect 14 0 12 1;
#X restore 38 163 pd myoscfinger;
#N canvas 1120 609 783 399 myoscfinger 0;
#X obj 43 33 inlet;
#X obj 43 237 outlet;
#X obj 88 56 tgl 15 0 empty empty empty 17 7 0 10 -262144 -1 -1 0 1
;
#X floatatom 106 55 5 0 0 0 - - -;
#X floatatom 143 56 5 0 0 0 - - -;
#X obj 43 54 finger;
#X obj 218 170 osc~;
#X obj 218 101 * 1000;
#X obj 278 121 osc~;
#X obj 218 141 +~;
#X obj 204 201 *~;
#X obj 203 228 throw~ audiofingers;
#X obj 273 148 *~ 200;
#X obj 278 102 * 20;
#X obj 317 121 * 10;
#X connect 0 0 5 0;
#X connect 2 0 10 0;
#X connect 3 0 7 0;
#X connect 4 0 13 0;
#X connect 5 0 1 0;
#X connect 5 1 2 0;
#X connect 5 2 3 0;
#X connect 5 3 4 0;
#X connect 6 0 10 1;
#X connect 7 0 9 0;
#X connect 8 0 12 0;
#X connect 9 0 6 0;
#X connect 10 0 11 0;
#X connect 12 0 9 1;
#X connect 13 0 8 0;
#X connect 13 0 14 0;
#X connect 14 0 12 1;
#X restore 38 183 pd myoscfinger;
#N canvas 1120 609 783 399 myoscfinger 0;
#X obj 43 33 inlet;
#X obj 43 237 outlet;
#X obj 88 56 tgl 15 0 empty empty empty 17 7 0 10 -262144 -1 -1 0 1
;
#X floatatom 106 55 5 0 0 0 - - -;
#X floatatom 143 56 5 0 0 0 - - -;
#X obj 43 54 finger;
#X obj 218 170 osc~;
#X obj 218 101 * 1000;
#X obj 278 121 osc~;
#X obj 218 141 +~;
#X obj 204 201 *~;
#X obj 203 228 throw~ audiofingers;
#X obj 273 148 *~ 200;
#X obj 278 102 * 20;
#X obj 317 121 * 10;
#X connect 0 0 5 0;
#X connect 2 0 10 0;
#X connect 3 0 7 0;
#X connect 4 0 13 0;
#X connect 5 0 1 0;
#X connect 5 1 2 0;
#X connect 5 2 3 0;
#X connect 5 3 4 0;
#X connect 6 0 10 1;
#X connect 7 0 9 0;
#X connect 8 0 12 0;
#X connect 9 0 6 0;
#X connect 10 0 11 0;
#X connect 12 0 9 1;
#X connect 13 0 8 0;
#X connect 13 0 14 0;
#X connect 14 0 12 1;
#X restore 38 203 pd myoscfinger;
#N canvas 1120 609 783 399 myoscfinger 0;
#X obj 43 33 inlet;
#X obj 43 237 outlet;
#X obj 88 56 tgl 15 0 empty empty empty 17 7 0 10 -262144 -1 -1 0 1
;
#X floatatom 106 55 5 0 0 0 - - -;
#X floatatom 143 56 5 0 0 0 - - -;
#X obj 43 54 finger;
#X obj 218 170 osc~;
#X obj 218 101 * 1000;
#X obj 278 121 osc~;
#X obj 218 141 +~;
#X obj 204 201 *~;
#X obj 203 228 throw~ audiofingers;
#X obj 273 148 *~ 200;
#X obj 278 102 * 20;
#X obj 317 121 * 10;
#X connect 0 0 5 0;
#X connect 2 0 10 0;
#X connect 3 0 7 0;
#X connect 4 0 13 0;
#X connect 5 0 1 0;
#X connect 5 1 2 0;
#X connect 5 2 3 0;
#X connect 5 3 4 0;
#X connect 6 0 10 1;
#X connect 7 0 9 0;
#X connect 8 0 12 0;
#X connect 9 0 6 0;
#X connect 10 0 11 0;
#X connect 12 0 9 1;
#X connect 13 0 8 0;
#X connect 13 0 14 0;
#X connect 14 0 12 1;
#X restore 38 223 pd myoscfinger;
#N canvas 1120 609 783 399 myoscfinger 0;
#X obj 43 33 inlet;
#X obj 43 237 outlet;
#X obj 88 56 tgl 15 0 empty empty empty 17 7 0 10 -262144 -1 -1 0 1
;
#X floatatom 106 55 5 0 0 0 - - -;
#X floatatom 143 56 5 0 0 0 - - -;
#X obj 43 54 finger;
#X obj 218 170 osc~;
#X obj 218 101 * 1000;
#X obj 278 121 osc~;
#X obj 218 141 +~;
#X obj 204 201 *~;
#X obj 203 228 throw~ audiofingers;
#X obj 273 148 *~ 200;
#X obj 278 102 * 20;
#X obj 317 121 * 10;
#X connect 0 0 5 0;
#X connect 2 0 10 0;
#X connect 3 0 7 0;
#X connect 4 0 13 0;
#X connect 5 0 1 0;
#X connect 5 1 2 0;
#X connect 5 2 3 0;
#X connect 5 3 4 0;
#X connect 6 0 10 1;
#X connect 7 0 9 0;
#X connect 8 0 12 0;
#X connect 9 0 6 0;
#X connect 10 0 11 0;
#X connect 12 0 9 1;
#X connect 13 0 8 0;
#X connect 13 0 14 0;
#X connect 14 0 12 1;
#X restore 38 243 pd myoscfinger;
#N canvas 1120 609 783 399 myoscfinger 0;
#X obj 43 33 inlet;
#X obj 43 237 outlet;
#X obj 88 56 tgl 15 0 empty empty empty 17 7 0 10 -262144 -1 -1 0 1
;
#X floatatom 106 55 5 0 0 0 - - -;
#X floatatom 143 56 5 0 0 0 - - -;
#X obj 43 54 finger;
#X obj 218 170 osc~;
#X obj 218 101 * 1000;
#X obj 278 121 osc~;
#X obj 218 141 +~;
#X obj 204 201 *~;
#X obj 203 228 throw~ audiofingers;
#X obj 273 148 *~ 200;
#X obj 278 102 * 20;
#X obj 317 121 * 10;
#X connect 0 0 5 0;
#X connect 2 0 10 0;
#X connect 3 0 7 0;
#X connect 4 0 13 0;
#X connect 5 0 1 0;
#X connect 5 1 2 0;
#X connect 5 2 3 0;
#X connect 5 3 4 0;
#X connect 6 0 10 1;
#X connect 7 0 9 0;
#X connect 8 0 12 0;
#X connect 9 0 6 0;
#X connect 10 0 11 0;
#X connect 12 0 9 1;
#X connect 13 0 8 0;
#X connect 13 0 14 0;
#X connect 14 0 12 1;
#X restore 38 263 pd myoscfinger;
#N canvas 1120 609 783 399 myoscfinger 0;
#X obj 43 33 inlet;
#X obj 43 237 outlet;
#X obj 88 56 tgl 15 0 empty empty empty 17 7 0 10 -262144 -1 -1 0 1
;
#X floatatom 106 55 5 0 0 0 - - -;
#X floatatom 143 56 5 0 0 0 - - -;
#X obj 43 54 finger;
#X obj 218 170 osc~;
#X obj 218 101 * 1000;
#X obj 278 121 osc~;
#X obj 218 141 +~;
#X obj 204 201 *~;
#X obj 203 228 throw~ audiofingers;
#X obj 273 148 *~ 200;
#X obj 278 102 * 20;
#X obj 317 121 * 10;
#X connect 0 0 5 0;
#X connect 2 0 10 0;
#X connect 3 0 7 0;
#X connect 4 0 13 0;
#X connect 5 0 1 0;
#X connect 5 1 2 0;
#X connect 5 2 3 0;
#X connect 5 3 4 0;
#X connect 6 0 10 1;
#X connect 7 0 9 0;
#X connect 8 0 12 0;
#X connect 9 0 6 0;
#X connect 10 0 11 0;
#X connect 12 0 9 1;
#X connect 13 0 8 0;
#X connect 13 0 14 0;
#X connect 14 0 12 1;
#X restore 38 283 pd myoscfinger;
#X obj 277 260 *~ 0.1;
#X obj 277 293 dac~;
#X obj 299 202 Object 1;
#X obj 335 228 / 10;
#X msg 299 180 param 1;
#N canvas 1120 609 783 399 myoscfinger 0;
#X obj 43 33 inlet;
#X obj 43 237 outlet;
#X obj 88 56 tgl 15 0 empty empty empty 17 7 0 10 -262144 -1 -1 0 1
;
#X floatatom 106 55 5 0 0 0 - - -;
#X floatatom 143 56 5 0 0 0 - - -;
#X obj 43 54 finger;
#X obj 218 170 osc~;
#X obj 218 101 * 1000;
#X obj 278 121 osc~;
#X obj 218 141 +~;
#X obj 204 201 *~;
#X obj 203 228 throw~ audiofingers;
#X obj 273 148 *~ 200;
#X obj 278 102 * 20;
#X obj 317 121 * 10;
#X connect 0 0 5 0;
#X connect 2 0 10 0;
#X connect 3 0 7 0;
#X connect 4 0 13 0;
#X connect 5 0 1 0;
#X connect 5 1 2 0;
#X connect 5 2 3 0;
#X connect 5 3 4 0;
#X connect 6 0 10 1;
#X connect 7 0 9 0;
#X connect 8 0 12 0;
#X connect 9 0 6 0;
#X connect 10 0 11 0;
#X connect 12 0 9 1;
#X connect 13 0 8 0;
#X connect 13 0 14 0;
#X connect 14 0 12 1;
#X restore 134 143 pd myoscfinger;
#N canvas 1120 609 783 399 myoscfinger 0;
#X obj 43 33 inlet;
#X obj 43 237 outlet;
#X obj 88 56 tgl 15 0 empty empty empty 17 7 0 10 -262144 -1 -1 0 1
;
#X floatatom 106 55 5 0 0 0 - - -;
#X floatatom 143 56 5 0 0 0 - - -;
#X obj 43 54 finger;
#X obj 218 170 osc~;
#X obj 218 101 * 1000;
#X obj 278 121 osc~;
#X obj 218 141 +~;
#X obj 204 201 *~;
#X obj 203 228 throw~ audiofingers;
#X obj 273 148 *~ 200;
#X obj 278 102 * 20;
#X obj 317 121 * 10;
#X connect 0 0 5 0;
#X connect 2 0 10 0;
#X connect 3 0 7 0;
#X connect 4 0 13 0;
#X connect 5 0 1 0;
#X connect 5 1 2 0;
#X connect 5 2 3 0;
#X connect 5 3 4 0;
#X connect 6 0 10 1;
#X connect 7 0 9 0;
#X connect 8 0 12 0;
#X connect 9 0 6 0;
#X connect 10 0 11 0;
#X connect 12 0 9 1;
#X connect 13 0 8 0;
#X connect 13 0 14 0;
#X connect 14 0 12 1;
#X restore 134 163 pd myoscfinger;
#N canvas 1120 609 783 399 myoscfinger 0;
#X obj 43 33 inlet;
#X obj 43 237 outlet;
#X obj 88 56 tgl 15 0 empty empty empty 17 7 0 10 -262144 -1 -1 0 1
;
#X floatatom 106 55 5 0 0 0 - - -;
#X floatatom 143 56 5 0 0 0 - - -;
#X obj 43 54 finger;
#X obj 218 170 osc~;
#X obj 218 101 * 1000;
#X obj 278 121 osc~;
#X obj 218 141 +~;
#X obj 204 201 *~;
#X obj 203 228 throw~ audiofingers;
#X obj 273 148 *~ 200;
#X obj 278 102 * 20;
#X obj 317 121 * 10;
#X connect 0 0 5 0;
#X connect 2 0 10 0;
#X connect 3 0 7 0;
#X connect 4 0 13 0;
#X connect 5 0 1 0;
#X connect 5 1 2 0;
#X connect 5 2 3 0;
#X connect 5 3 4 0;
#X connect 6 0 10 1;
#X connect 7 0 9 0;
#X connect 8 0 12 0;
#X connect 9 0 6 0;
#X connect 10 0 11 0;
#X connect 12 0 9 1;
#X connect 13 0 8 0;
#X connect 13 0 14 0;
#X connect 14 0 12 1;
#X restore 134 183 pd myoscfinger;
#N canvas 1120 609 783 399 myoscfinger 0;
#X obj 43 33 inlet;
#X obj 43 237 outlet;
#X obj 88 56 tgl 15 0 empty empty empty 17 7 0 10 -262144 -1 -1 0 1
;
#X floatatom 106 55 5 0 0 0 - - -;
#X floatatom 143 56 5 0 0 0 - - -;
#X obj 43 54 finger;
#X obj 218 170 osc~;
#X obj 218 101 * 1000;
#X obj 278 121 osc~;
#X obj 218 141 +~;
#X obj 204 201 *~;
#X obj 203 228 throw~ audiofingers;
#X obj 273 148 *~ 200;
#X obj 278 102 * 20;
#X obj 317 121 * 10;
#X connect 0 0 5 0;
#X connect 2 0 10 0;
#X connect 3 0 7 0;
#X connect 4 0 13 0;
#X connect 5 0 1 0;
#X connect 5 1 2 0;
#X connect 5 2 3 0;
#X connect 5 3 4 0;
#X connect 6 0 10 1;
#X connect 7 0 9 0;
#X connect 8 0 12 0;
#X connect 9 0 6 0;
#X connect 10 0 11 0;
#X connect 12 0 9 1;
#X connect 13 0 8 0;
#X connect 13 0 14 0;
#X connect 14 0 12 1;
#X restore 134 203 pd myoscfinger;
#N canvas 1120 609 783 399 myoscfinger 0;
#X obj 43 33 inlet;
#X obj 43 237 outlet;
#X obj 88 56 tgl 15 0 empty empty empty 17 7 0 10 -262144 -1 -1 0 1
;
#X floatatom 106 55 5 0 0 0 - - -;
#X floatatom 143 56 5 0 0 0 - - -;
#X obj 43 54 finger;
#X obj 218 170 osc~;
#X obj 218 101 * 1000;
#X obj 278 121 osc~;
#X obj 218 141 +~;
#X obj 204 201 *~;
#X obj 203 228 throw~ audiofingers;
#X obj 273 148 *~ 200;
#X obj 278 102 * 20;
#X obj 317 121 * 10;
#X connect 0 0 5 0;
#X connect 2 0 10 0;
#X connect 3 0 7 0;
#X connect 4 0 13 0;
#X connect 5 0 1 0;
#X connect 5 1 2 0;
#X connect 5 2 3 0;
#X connect 5 3 4 0;
#X connect 6 0 10 1;
#X connect 7 0 9 0;
#X connect 8 0 12 0;
#X connect 9 0 6 0;
#X connect 10 0 11 0;
#X connect 12 0 9 1;
#X connect 13 0 8 0;
#X connect 13 0 14 0;
#X connect 14 0 12 1;
#X restore 134 223 pd myoscfinger;
#N canvas 1120 609 783 399 myoscfinger 0;
#X obj 43 33 inlet;
#X obj 43 237 outlet;
#X obj 88 56 tgl 15 0 empty empty empty 17 7 0 10 -262144 -1 -1 0 1
;
#X floatatom 106 55 5 0 0 0 - - -;
#X floatatom 143 56 5 0 0 0 - - -;
#X obj 43 54 finger;
#X obj 218 170 osc~;
#X obj 218 101 * 1000;
#X obj 278 121 osc~;
#X obj 218 141 +~;
#X obj 204 201 *~;
#X obj 203 228 throw~ audiofingers;
#X obj 273 148 *~ 200;
#X obj 278 102 * 20;
#X obj 317 121 * 10;
#X connect 0 0 5 0;
#X connect 2 0 10 0;
#X connect 3 0 7 0;
#X connect 4 0 13 0;
#X connect 5 0 1 0;
#X connect 5 1 2 0;
#X connect 5 2 3 0;
#X connect 5 3 4 0;
#X connect 6 0 10 1;
#X connect 7 0 9 0;
#X connect 8 0 12 0;
#X connect 9 0 6 0;
#X connect 10 0 11 0;
#X connect 12 0 9 1;
#X connect 13 0 8 0;
#X connect 13 0 14 0;
#X connect 14 0 12 1;
#X restore 134 243 pd myoscfinger;
#N canvas 1120 609 783 399 myoscfinger 0;
#X obj 43 33 inlet;
#X obj 43 237 outlet;
#X obj 88 56 tgl 15 0 empty empty empty 17 7 0 10 -262144 -1 -1 0 1
;
#X floatatom 106 55 5 0 0 0 - - -;
#X floatatom 143 56 5 0 0 0 - - -;
#X obj 43 54 finger;
#X obj 218 170 osc~;
#X obj 218 101 * 1000;
#X obj 278 121 osc~;
#X obj 218 141 +~;
#X obj 204 201 *~;
#X obj 203 228 throw~ audiofingers;
#X obj 273 148 *~ 200;
#X obj 278 102 * 20;
#X obj 317 121 * 10;
#X connect 0 0 5 0;
#X connect 2 0 10 0;
#X connect 3 0 7 0;
#X connect 4 0 13 0;
#X connect 5 0 1 0;
#X connect 5 1 2 0;
#X connect 5 2 3 0;
#X connect 5 3 4 0;
#X connect 6 0 10 1;
#X connect 7 0 9 0;
#X connect 8 0 12 0;
#X connect 9 0 6 0;
#X connect 10 0 11 0;
#X connect 12 0 9 1;
#X connect 13 0 8 0;
#X connect 13 0 14 0;
#X connect 14 0 12 1;
#X restore 134 263 pd myoscfinger;
#N canvas 1120 609 783 399 myoscfinger 0;
#X obj 43 33 inlet;
#X obj 43 237 outlet;
#X obj 88 56 tgl 15 0 empty empty empty 17 7 0 10 -262144 -1 -1 0 1
;
#X floatatom 106 55 5 0 0 0 - - -;
#X floatatom 143 56 5 0 0 0 - - -;
#X obj 43 54 finger;
#X obj 218 170 osc~;
#X obj 218 101 * 1000;
#X obj 278 121 osc~;
#X obj 218 141 +~;
#X obj 204 201 *~;
#X obj 203 228 throw~ audiofingers;
#X obj 273 148 *~ 200;
#X obj 278 102 * 20;
#X obj 317 121 * 10;
#X connect 0 0 5 0;
#X connect 2 0 10 0;
#X connect 3 0 7 0;
#X connect 4 0 13 0;
#X connect 5 0 1 0;
#X connect 5 1 2 0;
#X connect 5 2 3 0;
#X connect 5 3 4 0;
#X connect 6 0 10 1;
#X connect 7 0 9 0;
#X connect 8 0 12 0;
#X connect 9 0 6 0;
#X connect 10 0 11 0;
#X connect 12 0 9 1;
#X connect 13 0 8 0;
#X connect 13 0 14 0;
#X connect 14 0 12 1;
#X restore 134 283 pd myoscfinger;
#X obj 300 154 r initparameters;
#X connect 0 0 1 0;
#X connect 3 0 2 0;
#X connect 7 0 2 0;
#X connect 8 0 9 0;
#X connect 9 0 11 0;
#X connect 10 0 18 0;
#X connect 11 0 12 0;
#X connect 12 0 13 0;
#X connect 13 0 14 0;
#X connect 14 0 15 0;
#X connect 15 0 16 0;
#X connect 16 0 17 0;
#X connect 17 0 23 0;
#X connect 18 0 19 0;
#X connect 18 0 19 1;
#X connect 20 4 21 0;
#X connect 21 0 18 1;
#X connect 22 0 20 0;
#X connect 23 0 24 0;
#X connect 24 0 25 0;
#X connect 25 0 26 0;
#X connect 26 0 27 0;
#X connect 27 0 28 0;
#X connect 28 0 29 0;
#X connect 29 0 30 0;
#X connect 31 0 22 0;
