#N canvas 1017 395 343 494 10;
#X text 23 435 Musical Tabletop Coding Framework PD Client;
#X text 22 450 (C) Carles F. Julia carles.fernandez@upf.edu;
#X text 23 465 This software is released under the MIT license;
#X obj 25 20 mtcf-comm;
#X obj 243 178 bng 15 250 50 0 empty empty empty 17 7 0 10 -262144
-1 -1;
#X obj 243 200 mtcf-reset;
#X obj 28 190 bird;
#X msg 244 256 1;
#X obj 244 230 loadbang;
#X obj 243 307 s birdupdate;
#X obj 28 211 bird;
#X obj 60 190 bird;
#X obj 60 211 bird;
#X obj 92 190 bird;
#X obj 92 211 bird;
#X obj 124 190 bird;
#X obj 124 211 bird;
#X obj 28 231 bird;
#X obj 28 252 bird;
#X obj 60 231 bird;
#X obj 60 252 bird;
#X obj 92 231 bird;
#X obj 92 252 bird;
#X obj 124 231 bird;
#X obj 124 252 bird;
#X obj 244 279 metro 100;
#X msg 274 256 25;
#X msg 304 257 100;
#X connect 4 0 5 0;
#X connect 7 0 25 0;
#X connect 8 0 7 0;
#X connect 25 0 9 0;
#X connect 26 0 25 1;
#X connect 27 0 25 1;
