#N canvas 691 136 450 451 10;
#X obj 320 32 loadbang;
#X msg 320 53 \; pd dsp 1;
#X text 60 359 Musical Tabletop Coding Framework PD Client;
#X text 59 374 (C) Carles F. Julia carles.fernandez@upf.edu;
#X text 60 389 This software is released under the MIT license;
#X obj 63 28 mtcf-comm;
#X obj 64 189 runningbutton;
#X obj 334 145 mtcf-reset;
#X obj 334 115 bng 15 250 50 0 empty empty empty 17 7 0 10 -262144
-1 -1;
#X obj 64 209 runningbutton;
#X obj 64 229 runningbutton;
#X obj 64 249 runningbutton;
#X obj 64 269 runningbutton;
#X obj 64 289 runningbutton;
#X obj 64 309 runningbutton;
#X obj 64 329 runningbutton;
#X obj 154 189 runningbutton;
#X obj 154 209 runningbutton;
#X obj 154 229 runningbutton;
#X obj 154 249 runningbutton;
#X obj 154 269 runningbutton;
#X obj 154 289 runningbutton;
#X obj 154 309 runningbutton;
#X obj 154 329 runningbutton;
#X connect 0 0 1 0;
#X connect 8 0 7 0;
