#N canvas 962 183 609 646 10;
#X obj 539 32 loadbang;
#X msg 539 53 \; pd dsp 1;
#X obj 537 420 tgl 15 0 empty empty empty 17 7 0 10 -262144 -1 -1 1
1;
#X obj 174 194 noise~;
#X obj 536 356 == 0;
#X obj 280 231 connectWave 1 2;
#X obj 281 378 bp~ 400 10;
#X obj 309 334 * 10000;
#X obj 338 354 * 10;
#X obj 81 400 bp~ 400 10;
#X obj 74 366 * 10000;
#X obj 170 387 * 10;
#X obj 481 356 == 0;
#X obj 536 396 &&;
#X obj 536 375 t b f;
#X obj 74 347 - 0.1;
#X obj 170 367 - 0.1;
#X text 78 576 Musical Tabletop Coding Framework PD Client;
#X text 77 591 (C) Carles F. Julia carles.fernandez@upf.edu;
#X text 78 606 This software is released under the MIT license;
#X obj 127 322 objDistance 1 4;
#X obj 127 346 objDistance 4 3;
#X obj 280 463 connectWave 2 3;
#X obj 450 460 connectWave 1 3;
#X obj 80 230 connectWave 1 4;
#X obj 80 464 connectWave 4 3;
#X obj 536 336 Object 2;
#X obj 273 312 Object 2;
#X obj 481 336 Object 4;
#X text 168 171 Object 1;
#X obj 338 521 nop~;
#X obj 337 544 dac~;
#X text 291 283 Object 2;
#X text 328 493 Object 3;
#X text 113 295 Object 4;
#X obj 451 226 nop~;
#X obj 32 16 mtcf-comm;
#X obj 312 32 bng 15 250 50 0 empty empty empty 17 7 0 10 -262144 -1
-1;
#X obj 312 63 mtcf-reset;
#X obj 408 81 Object 2;
#X msg 466 52 param 1;
#X msg 404 51 slider 1;
#X obj 404 23 mtcf-init;
#X connect 0 0 1 0;
#X connect 2 0 23 1;
#X connect 3 0 5 0;
#X connect 3 0 24 0;
#X connect 3 0 35 0;
#X connect 4 0 14 0;
#X connect 5 0 6 0;
#X connect 6 0 22 0;
#X connect 7 0 6 1;
#X connect 8 0 6 2;
#X connect 9 0 25 0;
#X connect 10 0 9 1;
#X connect 11 0 9 2;
#X connect 12 0 13 0;
#X connect 13 0 2 0;
#X connect 14 0 13 0;
#X connect 14 1 13 1;
#X connect 15 0 10 0;
#X connect 16 0 11 0;
#X connect 20 1 15 0;
#X connect 21 1 16 0;
#X connect 22 0 30 0;
#X connect 23 0 30 0;
#X connect 24 0 9 0;
#X connect 25 0 30 0;
#X connect 26 0 4 0;
#X connect 27 4 7 0;
#X connect 27 5 8 0;
#X connect 28 0 12 0;
#X connect 30 0 31 0;
#X connect 30 0 31 1;
#X connect 35 0 23 0;
#X connect 37 0 38 0;
#X connect 40 0 39 0;
#X connect 41 0 39 0;
#X connect 42 0 41 0;
#X connect 42 0 40 0;
