#N canvas 1199 346 347 431 10;
#N canvas 1007 110 701 612 button 1;
#X msg 112 221 clearvertex;
#X obj 151 418 change;
#X obj 156 474 bng 15 250 50 0 empty empty empty 17 7 0 10 -262144
-1 -1;
#X obj 134 49 inlet;
#X obj 133 98 t b b b b b;
#X obj 184 518 outlet;
#X obj 153 446 sel 0 1;
#X obj 279 256 mtcf-polygon;
#X obj 351 212 mtcf-circle 0.05 50;
#X obj 278 320 finger 0 0 0 0;
#X floatatom 315 349 5 0 0 0 - - -;
#X floatatom 349 349 5 0 0 0 - - -;
#X floatatom 383 349 5 0 0 0 - - -;
#X obj 298 350 tgl 15 0 empty empty empty 17 7 0 10 -262144 -1 -1 0
1;
#X msg 206 187 color 255 0 0 255;
#X msg 326 187 color 255 255 255 255;
#X obj 231 158 mtcf-translate 0.5 0.5;
#X msg 232 129 transform;
#X obj 134 71 route init position;
#X obj 307 115 unpack f f;
#X obj 278 285 route finger;
#X obj 304 136 change;
#X obj 362 136 change;
#X connect 0 0 7 0;
#X connect 1 0 6 0;
#X connect 2 0 5 0;
#X connect 3 0 18 0;
#X connect 4 0 17 0;
#X connect 4 1 14 0;
#X connect 4 3 8 0;
#X connect 4 4 0 0;
#X connect 6 0 2 0;
#X connect 6 0 14 0;
#X connect 6 1 15 0;
#X connect 7 0 20 0;
#X connect 8 0 7 0;
#X connect 9 1 13 0;
#X connect 9 2 10 0;
#X connect 9 3 11 0;
#X connect 9 4 12 0;
#X connect 13 0 1 0;
#X connect 14 0 7 0;
#X connect 15 0 7 0;
#X connect 16 0 7 0;
#X connect 17 0 16 0;
#X connect 18 0 4 0;
#X connect 18 1 19 0;
#X connect 19 0 21 0;
#X connect 19 1 22 0;
#X connect 20 0 9 0;
#X connect 21 0 16 1;
#X connect 22 0 16 2;
#X restore 76 126 pd button;
#X msg 194 92 init;
#X obj 76 156 bng 15 250 50 0 empty empty empty 17 7 0 10 -262144 -1
-1;
#X obj 77 209 random 100;
#X obj 77 235 / 100;
#X obj 148 209 random 100;
#X obj 148 235 / 100;
#X obj 77 311 pack f f;
#X obj 77 182 t b b;
#X msg 194 69 position \$1 \$2;
#X obj 77 286 line;
#X msg 77 261 \$1 1000;
#X obj 147 286 line;
#X msg 147 261 \$1 1000;
#X obj 82 355 list;
#X obj 60 64 t b b b;
#X msg 211 285 1;
#X obj 58 36 mtcf-init;
#X obj 211 310 metro 50;
#X obj 197 146 change;
#X connect 0 0 2 0;
#X connect 1 0 0 0;
#X connect 2 0 8 0;
#X connect 3 0 4 0;
#X connect 4 0 11 0;
#X connect 5 0 6 0;
#X connect 6 0 13 0;
#X connect 7 0 14 1;
#X connect 8 0 3 0;
#X connect 8 1 5 0;
#X connect 9 0 0 0;
#X connect 10 0 7 0;
#X connect 11 0 10 0;
#X connect 12 0 7 1;
#X connect 13 0 12 0;
#X connect 14 0 9 0;
#X connect 15 0 2 0;
#X connect 15 1 1 0;
#X connect 15 2 16 0;
#X connect 16 0 18 0;
#X connect 17 0 15 0;
#X connect 18 0 14 0;
