#N canvas 525 95 754 316 10;
#X obj -3 282 bng 15 250 50 0 empty empty empty 17 7 0 10 -262144 -1
-1;
#X obj -3 19 bng 15 250 50 0 empty empty empty 17 7 0 10 -262144 -1
-1;
#X obj 300 4 bng 15 250 50 0 empty empty empty 17 7 0 10 -262144 -1
-1;
#X obj 300 267 bng 15 250 50 0 empty empty empty 17 7 0 10 -262144
-1 -1;
#X text 25 2 MTCF Connection Manager:;
#X obj 42 50 mtcf-comm;
#X obj 140 218 bng 15 250 50 0 empty empty empty 17 7 0 10 -262144
-1 -1;
#X text 328 233 MTCF mobile PD Client;
#X text 326 248 (C) Daniel Gallardo Grassot daniel.gallardo@upf.edu
;
#X text 327 265 This software (client) is released under the MIT licence
;
#X obj 140 242 mtcf-reset;
#X obj 361 58 mtcf-sensors-help;
#N canvas -135 293 1196 642 Example_Interface 0;
#X obj 125 13 bng 15 250 50 0 empty empty empty 17 7 0 10 -262144 -1
-1;
#X obj 125 44 t b b b b b;
#X obj 130 142 mtcf-translate 0.2 0.5;
#X floatatom 98 260 5 0 0 0 - - -;
#X obj 98 224 mtcf-slider;
#X obj 111 79 t b b b;
#X floatatom 332 263 5 0 0 0 - - -;
#X obj 345 82 t b b b;
#X floatatom 561 269 5 0 0 0 - - -;
#X obj 574 88 t b b b;
#X floatatom 787 274 5 0 0 0 - - -;
#X obj 800 93 t b b b;
#X floatatom 1017 278 5 0 0 0 - - -;
#X obj 1030 97 t b b b;
#X obj 370 151 mtcf-translate 0.4 0.5;
#X obj 593 153 mtcf-translate 0.6 0.5;
#X msg 957 210 value 0.9;
#X msg 727 206 value 0.7;
#X msg 501 201 value 0.5;
#X msg 272 195 value 0.3;
#X msg 38 192 value 0.1;
#X obj 130 111 delay 50;
#X obj 386 116 delay 50;
#X obj 616 119 delay 50;
#X obj 851 129 delay 50;
#X obj 1083 130 delay 50;
#X obj 819 158 mtcf-translate 0.8 0.5;
#X obj 1049 162 mtcf-translate 1 0.5;
#X obj 38 161 delay 300;
#X obj 272 164 delay 300;
#X obj 501 170 delay 300;
#X obj 727 175 delay 300;
#X obj 957 179 delay 300;
#X obj 77 635 route pressed;
#X obj 77 660 tgl 15 0 empty empty empty 17 7 0 10 -262144 -1 -1 0
1;
#X obj 50 516 t b b;
#X obj 50 549 mtcf-translate 1.2 0.8;
#X obj 223 635 route pressed;
#X obj 223 660 tgl 15 0 empty empty empty 17 7 0 10 -262144 -1 -1 0
1;
#X obj 196 516 t b b;
#X obj 371 635 route pressed;
#X obj 371 660 tgl 15 0 empty empty empty 17 7 0 10 -262144 -1 -1 0
1;
#X obj 344 516 t b b;
#X obj 196 549 mtcf-translate 1.4 0.8;
#X obj 344 549 mtcf-translate 1.6 0.8;
#X obj 50 482 t b b b;
#X obj 332 227 mtcf-slider;
#X obj 561 233 mtcf-slider;
#X obj 787 238 mtcf-slider;
#X obj 1017 242 mtcf-slider;
#X obj 571 635 route pressed;
#X obj 571 660 tgl 15 0 empty empty empty 17 7 0 10 -262144 -1 -1 0
1;
#X obj 544 516 t b b;
#X obj 717 635 route pressed;
#X obj 717 660 tgl 15 0 empty empty empty 17 7 0 10 -262144 -1 -1 0
1;
#X obj 690 516 t b b;
#X obj 865 635 route pressed;
#X obj 865 660 tgl 15 0 empty empty empty 17 7 0 10 -262144 -1 -1 0
1;
#X obj 838 516 t b b;
#X obj 544 482 t b b b;
#X obj 544 549 mtcf-translate 1.2 0.4;
#X obj 690 549 mtcf-translate 1.4 0.4;
#X obj 838 549 mtcf-translate 1.6 0.4;
#X msg 1006 554 set 0;
#X msg 1054 556 set 1;
#X obj 50 458 delay 300;
#X obj 544 457 delay 350;
#X obj 30 -68 inlet;
#X text 640 -47 MTCF mobile PD Client;
#X text 638 -32 (C) Daniel Gallardo Grassot daniel.gallardo@upf.edu
;
#X text 639 -15 This software (client) is released under the MIT licence
;
#X obj 381 13 mtcf-visibility;
#X obj 470 -27 bng 15 250 50 0 empty empty empty 17 7 0 10 -262144
-1 -1;
#X obj 98 328 list prepend write;
#X obj 98 285 * 100;
#X obj 98 307 int;
#X obj 119 346 mtcf-translate 0.12 0.9;
#X obj 332 330 list prepend write;
#X obj 332 287 * 100;
#X obj 332 309 int;
#X obj 561 334 list prepend write;
#X obj 561 291 * 100;
#X obj 561 313 int;
#X obj 787 344 list prepend write;
#X obj 787 301 * 100;
#X obj 787 323 int;
#X obj 1017 348 list prepend write;
#X obj 1017 305 * 100;
#X obj 1017 327 int;
#X obj 353 348 mtcf-translate 0.32 0.9;
#X obj 582 352 mtcf-translate 0.52 0.9;
#X obj 808 362 mtcf-translate 0.72 0.9;
#X obj 1038 366 mtcf-translate 0.92 0.9;
#X obj 188 255 t b b b b b;
#X obj 188 223 delay 400;
#X obj 30 -41 t b b b b;
#X obj 77 608 mtcf-button;
#X obj 223 608 mtcf-button;
#X obj 371 608 mtcf-button;
#X obj 865 608 mtcf-toggle;
#X obj 571 608 mtcf-toggle;
#X obj 717 608 mtcf-toggle;
#X obj 109 372 mtcf-text;
#X obj 343 374 mtcf-text;
#X obj 572 378 mtcf-text;
#X obj 798 388 mtcf-text;
#X obj 1028 392 mtcf-text;
#X connect 0 0 1 0;
#X connect 1 0 5 0;
#X connect 1 1 7 0;
#X connect 1 2 9 0;
#X connect 1 3 11 0;
#X connect 1 4 13 0;
#X connect 2 0 4 0;
#X connect 3 0 74 0;
#X connect 4 0 3 0;
#X connect 5 0 28 0;
#X connect 5 1 21 0;
#X connect 5 2 4 0;
#X connect 6 0 78 0;
#X connect 7 0 29 0;
#X connect 7 1 22 0;
#X connect 7 2 46 0;
#X connect 8 0 81 0;
#X connect 9 0 30 0;
#X connect 9 1 23 0;
#X connect 9 2 47 0;
#X connect 10 0 84 0;
#X connect 11 0 31 0;
#X connect 11 1 24 0;
#X connect 11 2 48 0;
#X connect 12 0 87 0;
#X connect 13 0 32 0;
#X connect 13 1 25 0;
#X connect 13 2 49 0;
#X connect 14 0 46 0;
#X connect 15 0 47 0;
#X connect 16 0 49 0;
#X connect 17 0 48 0;
#X connect 18 0 47 0;
#X connect 19 0 46 0;
#X connect 20 0 4 0;
#X connect 21 0 2 0;
#X connect 22 0 14 0;
#X connect 23 0 15 0;
#X connect 24 0 26 0;
#X connect 25 0 27 0;
#X connect 26 0 48 0;
#X connect 27 0 49 0;
#X connect 28 0 20 0;
#X connect 29 0 19 0;
#X connect 30 0 18 0;
#X connect 31 0 17 0;
#X connect 32 0 16 0;
#X connect 33 0 34 0;
#X connect 35 0 36 0;
#X connect 35 1 96 0;
#X connect 36 0 96 0;
#X connect 37 0 38 0;
#X connect 39 0 43 0;
#X connect 39 1 97 0;
#X connect 40 0 41 0;
#X connect 42 0 44 0;
#X connect 42 1 98 0;
#X connect 43 0 97 0;
#X connect 44 0 98 0;
#X connect 45 0 35 0;
#X connect 45 1 39 0;
#X connect 45 2 42 0;
#X connect 46 0 6 0;
#X connect 47 0 8 0;
#X connect 48 0 10 0;
#X connect 49 0 12 0;
#X connect 50 0 51 0;
#X connect 52 0 60 0;
#X connect 52 1 100 0;
#X connect 53 0 54 0;
#X connect 55 0 61 0;
#X connect 55 1 101 0;
#X connect 56 0 57 0;
#X connect 58 0 62 0;
#X connect 58 1 99 0;
#X connect 59 0 52 0;
#X connect 59 1 55 0;
#X connect 59 2 58 0;
#X connect 60 0 100 0;
#X connect 61 0 101 0;
#X connect 62 0 99 0;
#X connect 63 0 99 0;
#X connect 64 0 99 0;
#X connect 65 0 45 0;
#X connect 66 0 59 0;
#X connect 67 0 95 0;
#X connect 71 0 4 0;
#X connect 72 0 71 2;
#X connect 73 0 102 0;
#X connect 74 0 75 0;
#X connect 75 0 73 0;
#X connect 76 0 102 0;
#X connect 77 0 103 0;
#X connect 78 0 79 0;
#X connect 79 0 77 0;
#X connect 80 0 104 0;
#X connect 81 0 82 0;
#X connect 82 0 80 0;
#X connect 83 0 105 0;
#X connect 84 0 85 0;
#X connect 85 0 83 0;
#X connect 86 0 106 0;
#X connect 87 0 88 0;
#X connect 88 0 86 0;
#X connect 89 0 103 0;
#X connect 90 0 104 0;
#X connect 91 0 105 0;
#X connect 92 0 106 0;
#X connect 93 0 76 0;
#X connect 93 1 89 0;
#X connect 93 2 90 0;
#X connect 93 3 91 0;
#X connect 93 4 92 0;
#X connect 94 0 93 0;
#X connect 95 0 66 0;
#X connect 95 1 65 0;
#X connect 95 2 0 0;
#X connect 95 3 94 0;
#X connect 96 0 33 0;
#X connect 97 0 37 0;
#X connect 98 0 40 0;
#X connect 99 0 56 0;
#X connect 100 0 50 0;
#X connect 101 0 53 0;
#X restore 554 61 pd Example_Interface;
#X obj 554 37 bng 15 250 50 0 empty empty empty 17 7 0 10 -262144 -1
-1;
#X obj 361 37 mtcf-basics-help;
#X obj 361 80 mtcf-graphics-help;
#X obj 361 102 mtcf-fingers-help;
#X obj 361 124 mtcf-composedwidgets-help;
#X obj 363 213 mtcf-help;
#X connect 1 0 0 0;
#X connect 2 0 3 0;
#X connect 2 0 1 0;
#X connect 3 0 0 0;
#X connect 6 0 10 0;
#X connect 13 0 12 0;
