#N canvas 791 436 796 331 10;
#X obj 13 28 mtcf-comm;
#X msg 13 6 ip localhost;
#X obj 16 176 bng 15 250 50 0 empty empty empty 17 7 0 10 -262144 -1
-1;
#X obj 16 200 mtcf-reset;
#X obj 97 202 mtcf-help;
#X obj 471 98 mtcf-translate 0.3 0.3;
#X msg 471 74 transform;
#X obj 379 36 bng 15 250 50 0 empty empty empty 17 7 0 10 -262144 -1
-1;
#X obj 488 277 mtcf-rgbcolor 255 255 255;
#X obj 315 135 mtcf-square 0.1;
#X obj 471 298 mtcf-polygon;
#X obj 513 183 mtcf-rgbcolor 255 255 255;
#X obj 501 207 mtcf-polygon;
#X obj 489 253 mtcf-polygon;
#X obj 489 118 mtcf-translate 0.05 0.05;
#X obj 501 138 mtcf-translate 0.05 0.05;
#X obj 500 230 mtcf-rgbcolor 0 0 0;
#X obj 677 183 mtcf-visibility;
#X msg 719 160 0;
#X obj 629 230 mtcf-visibility;
#X obj 655 276 mtcf-visibility;
#X msg 671 207 1;
#X msg 697 253 2;
#X connect 1 0 0 0;
#X connect 2 0 3 0;
#X connect 5 0 10 0;
#X connect 5 0 14 0;
#X connect 6 0 5 0;
#X connect 7 0 8 0;
#X connect 7 0 6 0;
#X connect 7 0 9 0;
#X connect 7 0 11 0;
#X connect 7 0 16 0;
#X connect 8 0 10 0;
#X connect 9 0 10 0;
#X connect 9 0 13 0;
#X connect 9 0 12 0;
#X connect 11 0 12 0;
#X connect 14 0 15 0;
#X connect 14 0 13 0;
#X connect 15 0 12 0;
#X connect 16 0 13 0;
#X connect 17 0 12 0;
#X connect 18 0 17 1;
#X connect 19 0 13 0;
#X connect 20 0 10 0;
#X connect 21 0 19 1;
#X connect 22 0 20 1;
