#N canvas 793 433 796 365 10;
#X obj 13 28 mtcf-comm;
#X msg 13 6 ip localhost;
#X obj 16 176 bng 15 250 50 0 empty empty empty 17 7 0 10 -262144 -1
-1;
#X obj 16 200 mtcf-reset;
#X obj 97 202 mtcf-help;
#X obj 293 157 mtcf-square 0.5;
#X obj 396 154 mtcf-translate 0.3 0.3;
#X msg 390 110 transform;
#X obj 543 201 mtcf-text;
#X obj 444 11 bng 15 250 50 0 empty empty empty 17 7 0 10 -262144 -1
-1;
#X obj 519 229 mtcf-rgbcolor 255 255 255;
#X obj 288 258 mtcf-visibility;
#X obj 412 233 mtcf-square 0.1;
#X msg 306 64 hidden 0;
#X obj 160 204 mtcf-rgbcolor 100 10 10;
#X msg 325 226 0;
#X obj 413 265 mtcf-polygon;
#X obj 310 191 mtcf-polygon;
#X obj 518 85 mtcf-rgbcolor 255 255 10;
#X msg 555 129 write 12345abcde92847 9.28472e+08 7.49284e+07 92 7;
#X obj 561 170 mtcf-scale 3 3;
#X obj 706 222 bng 15 250 50 0 empty empty empty 17 7 0 10 -262144
-1 -1;
#X floatatom 645 201 5 0 0 0 - - -;
#X obj 361 226 bng 15 250 50 0 empty empty empty 17 7 0 10 -262144
-1 -1;
#X floatatom 16 236 5 0 0 0 - - -;
#X obj 16 266 mtcf-textsize;
#X obj 662 172 mtcf-visibility;
#X connect 1 0 0 0;
#X connect 2 0 3 0;
#X connect 5 0 17 0;
#X connect 6 0 16 0;
#X connect 6 0 17 0;
#X connect 6 0 8 0;
#X connect 7 0 6 0;
#X connect 9 0 10 0;
#X connect 9 0 7 0;
#X connect 9 0 5 0;
#X connect 9 0 12 0;
#X connect 9 0 14 0;
#X connect 9 0 18 0;
#X connect 10 0 16 0;
#X connect 11 0 16 0;
#X connect 12 0 16 0;
#X connect 13 0 8 0;
#X connect 13 0 17 0;
#X connect 14 0 17 0;
#X connect 15 0 11 1;
#X connect 18 0 8 0;
#X connect 19 0 8 0;
#X connect 21 0 26 2;
#X connect 22 0 20 2;
#X connect 22 0 20 1;
#X connect 23 0 11 2;
#X connect 24 0 25 0;
#X connect 26 0 8 0;
