#N canvas 1041 426 578 266 10;
#X obj 41 31 dumpOSC 1235;
#X obj 41 60 s basicTangibleTabletop1235messageBus;
#X obj 41 84 r basicTangibleTabletop1234messageBus;
#X obj 41 112 prepend send;
#X msg 48 174 connect localhost 1234;
#X obj 41 202 sendOSC;
#X obj 48 149 loadbang;
#X obj 305 130 s basicTangibleTabletopInit;
#X obj 278 69 loadbang;
#X obj 337 48 route /init;
#X msg 337 69 bang;
#X obj 278 240 outlet;
#X obj 278 109 t b b;
#X text 324 230 this is a loadbang after initializing;
#X text 324 243 the tabletop externals;
#N canvas 1320 502 450 300 config 0;
#X text 33 136 wave FPS;
#X floatatom 33 115 5 0 0 0 - - -;
#X obj 33 16 loadbang;
#X obj 33 37 t b b b b b b b b b b b b b b b b b b b;
#X obj 33 266 s basicTangibleTabletopUpdateConfig;
#X obj 42 218 v basicTangibleTabletopWaveFps;
#X obj 33 165 expr 1000 / $f1;
#X msg 33 89 40;
#X obj 33 192 t b f;
#X connect 1 0 6 0;
#X connect 2 0 3 0;
#X connect 3 0 7 0;
#X connect 6 0 8 0;
#X connect 7 0 1 0;
#X connect 8 0 4 0;
#X connect 8 1 5 0;
#X restore 473 49 pd config;
#N canvas 3 99 450 300 debug 0;
#X obj 29 16 r basicTangibleTabletop1235messageBus;
#X obj 28 39 spigot;
#X obj 75 41 tgl 15 0 empty empty empty 17 7 0 10 -262144 -1 -1 0 1
;
#X obj 29 63 print received;
#X obj 29 124 spigot;
#X obj 76 126 tgl 15 0 empty empty empty 17 7 0 10 -262144 -1 -1 0
1;
#X obj 30 148 print sent;
#X obj 30 101 r basicTangibleTabletop1234messageBus;
#X connect 0 0 1 0;
#X connect 1 0 3 0;
#X connect 2 0 1 1;
#X connect 4 0 6 0;
#X connect 5 0 4 1;
#X connect 7 0 4 0;
#X restore 473 70 pd debug;
#X obj 455 20 bng 15 250 50 0 empty empty empty 17 7 0 10 -262144 -1
-1;
#X obj 539 35 bng 15 250 50 0 empty empty empty 17 7 0 10 -262144 -1
-1;
#X obj 539 107 bng 15 250 50 0 empty empty empty 17 7 0 10 -262144
-1 -1;
#X obj 455 92 bng 15 250 50 0 empty empty empty 17 7 0 10 -262144 -1
-1;
#X connect 0 0 1 0;
#X connect 0 0 9 0;
#X connect 2 0 3 0;
#X connect 3 0 5 0;
#X connect 4 0 5 0;
#X connect 6 0 4 0;
#X connect 8 0 12 0;
#X connect 9 0 10 0;
#X connect 10 0 12 0;
#X connect 12 0 11 0;
#X connect 12 1 7 0;
#X connect 17 0 20 0;
#X connect 17 0 18 0;
#X connect 18 0 19 0;
#X connect 20 0 19 0;
