#N canvas 155 305 1353 685 10;
#X obj 586 176 s basicTangibleTabletop1235messageBus;
#X obj 2 384 r basicTangibleTabletop1234messageBus;
#X obj 223 102 loadbang;
#X obj 475 170 route /init;
#X msg 475 191 bang;
#X obj 760 250 outlet;
#X obj 760 119 t b b;
#X text 806 240 this is a loadbang after initializing;
#X text 806 253 the tabletop externals;
#N canvas 1318 508 450 300 config 0;
#X text 33 136 wave FPS;
#X floatatom 33 115 5 0 0 0 - - -;
#X obj 33 16 loadbang;
#X obj 33 37 t b b b b b b b b b b b b b b b b b b b;
#X obj 33 266 s basicTangibleTabletopUpdateConfig;
#X obj 42 218 v basicTangibleTabletopWaveFps;
#X obj 33 165 expr 1000 / $f1;
#X msg 33 89 40;
#X obj 33 192 t b f;
#X connect 1 0 6 0;
#X connect 2 0 3 0;
#X connect 3 0 7 0;
#X connect 6 0 8 0;
#X connect 7 0 1 0;
#X connect 8 0 4 0;
#X connect 8 1 5 0;
#X restore 1028 152 pd config;
#N canvas 164 542 450 300 debug 0;
#X obj 29 16 r basicTangibleTabletop1235messageBus;
#X obj 28 39 spigot;
#X obj 75 41 tgl 15 0 empty empty empty 17 7 0 10 -262144 -1 -1 0 1
;
#X obj 30 149 spigot;
#X obj 77 151 tgl 15 0 empty empty empty 17 7 0 10 -262144 -1 -1 0
1;
#X obj 31 173 print sent;
#X obj 30 101 r basicTangibleTabletop1234messageBus;
#X obj 29 63 print rcvd;
#X obj 30 124 route /wave;
#X connect 0 0 1 0;
#X connect 1 0 7 0;
#X connect 2 0 1 1;
#X connect 3 0 5 0;
#X connect 4 0 3 1;
#X connect 6 0 8 0;
#X connect 8 1 3 0;
#X restore 1028 173 pd debug;
#X obj 1010 123 bng 15 250 50 0 empty empty empty 17 7 0 10 -262144
-1 -1;
#X obj 1094 138 bng 15 250 50 0 empty empty empty 17 7 0 10 -262144
-1 -1;
#X obj 1094 210 bng 15 250 50 0 empty empty empty 17 7 0 10 -262144
-1 -1;
#X obj 1010 195 bng 15 250 50 0 empty empty empty 17 7 0 10 -262144
-1 -1;
#X obj 215 308 s loadbang-\$0;
#X obj 760 65 r loadbang-\$0;
#N canvas 356 720 623 274 dumpOSC 0;
#X obj 101 11 outlet;
#X obj 101 -35 mrpeach/udpreceive 1235;
#X obj 101 -15 mrpeach/unpackOSC;
#X msg 236 26 \$1.\$2.\$3.\$4;
#X obj 236 56 outlet;
#X obj 236 -6 route from;
#X connect 1 0 2 0;
#X connect 1 1 5 0;
#X connect 2 0 0 0;
#X connect 3 0 4 0;
#X connect 5 0 3 0;
#X restore 475 114 pd dumpOSC;
#X obj 2 454 mrpeach/packOSC;
#X obj 2 528 mrpeach/udpsend;
#X msg 268 382 connect \$1 1234;
#X obj 330 295 symbol \$1;
#X obj 215 133 t b b;
#X obj 215 282 delay 100;
#X text 959 32 Musical Tabletop Coding Framework PD Client;
#X text 958 47 (C) Carles F. Julia carles.fernandez@upf.edu;
#X text 959 62 This software is released under the MIT license;
#X obj 475 240 t b b;
#X msg 295 441 disconnect;
#X obj 268 409 t a b;
#X obj 502 274 symbol;
#X obj 107 530 print messages_to_udp:;
#X obj 215 74 inlet;
#X text 253 72 Reset bang;
#X obj 14 425 print msg:;
#X obj 475 215 spigot;
#X obj 507 75 inlet;
#X text 548 73 Automatic IP;
#X obj 535 134 l2s;
#X obj 368 140 tgl 15 0 empty empty empty 17 7 0 10 -262144 -1 -1 0
1;
#X obj 335 241 spigot;
#X obj 296 178 select 0;
#X msg 297 199 1;
#X msg 341 199 0;
#X obj 292 241 spigot;
#X obj 242 186 bng 15 250 50 0 empty empty empty 17 7 0 10 -262144
-1 -1;
#X obj 339 75 inlet;
#X text 382 74 Disconnect;
#X obj 650 368 print;
#X obj 331 642 tgl 15 0 empty empty empty 17 7 0 10 -262144 -1 -1 0
1;
#X obj 650 315 spigot;
#X obj 678 234 select 0;
#X msg 678 271 1;
#X msg 723 271 0;
#X msg 644 107 0;
#X obj 644 84 loadbang;
#X obj 788 140 s basicTangibleTabletopInit;
#X connect 1 0 18 0;
#X connect 2 0 22 0;
#X connect 3 0 4 0;
#X connect 4 0 35 0;
#X connect 6 0 5 0;
#X connect 6 1 56 0;
#X connect 11 0 14 0;
#X connect 11 0 12 0;
#X connect 12 0 13 0;
#X connect 14 0 13 0;
#X connect 16 0 6 0;
#X connect 17 0 0 0;
#X connect 17 0 3 0;
#X connect 17 1 38 0;
#X connect 17 1 50 0;
#X connect 18 0 19 0;
#X connect 19 0 49 0;
#X connect 20 0 29 0;
#X connect 21 0 20 0;
#X connect 22 0 23 0;
#X connect 22 1 45 0;
#X connect 23 0 15 0;
#X connect 27 0 23 0;
#X connect 27 1 30 0;
#X connect 28 0 19 0;
#X connect 28 0 31 0;
#X connect 29 0 19 0;
#X connect 29 0 31 0;
#X connect 29 1 28 0;
#X connect 30 0 20 0;
#X connect 32 0 22 0;
#X connect 35 0 27 0;
#X connect 36 0 35 1;
#X connect 36 0 39 0;
#X connect 38 0 30 1;
#X connect 39 0 40 1;
#X connect 39 0 41 0;
#X connect 40 0 30 0;
#X connect 41 0 42 0;
#X connect 41 1 43 0;
#X connect 42 0 44 1;
#X connect 43 0 44 1;
#X connect 44 0 21 0;
#X connect 45 0 44 0;
#X connect 45 0 40 0;
#X connect 46 0 28 0;
#X connect 49 0 51 0;
#X connect 50 0 48 0;
#X connect 51 0 52 0;
#X connect 51 1 53 0;
#X connect 52 0 50 1;
#X connect 53 0 50 1;
#X connect 54 0 39 0;
#X connect 54 0 35 1;
#X connect 55 0 54 0;
#X coords 0 685 1 684 85 60 0;
