#N canvas 497 187 450 300 10;
#X obj 106 -48 inlet;
#X obj 195 -49 inlet;
#X msg 150 150 /background \$1 \$2 \$3;
#X obj 150 103 pack i i i;
#X obj 269 -50 inlet;
#X msg 106 60 51;
#X msg 174 58 102;
#X msg 231 58 153;
#X obj 198 198 s basicTangibleTabletop1234messageBus;
#X obj 260 -16 r basicTangibleTabletopInit;
#X obj 149 -12 t b f;
#X obj 191 -13 t b f;
#X obj 257 11 t b b b;
#X connect 0 0 3 0;
#X connect 1 0 10 0;
#X connect 2 0 8 0;
#X connect 3 0 2 0;
#X connect 4 0 11 0;
#X connect 5 0 3 0;
#X connect 6 0 3 1;
#X connect 7 0 3 2;
#X connect 9 0 12 0;
#X connect 10 0 3 0;
#X connect 10 1 3 1;
#X connect 11 0 3 0;
#X connect 11 1 3 2;
#X connect 12 0 5 0;
#X connect 12 1 6 0;
#X connect 12 2 7 0;
