#N canvas 498 212 530 287 10;
#X obj 17 -45 inlet;
#X obj 106 -46 inlet;
#X msg 61 153 /background \$1 \$2 \$3;
#X obj 180 -47 inlet;
#X msg 71 87 51;
#X msg 98 88 102;
#X msg 129 88 153;
#X obj 109 201 s basicTangibleTabletop1234messageBus;
#X obj 146 8 r basicTangibleTabletopInit;
#X obj 60 -9 t b f;
#X obj 102 -10 t b f;
#X obj 146 31 t b b b;
#X text 230 -48 Musical Tabletop Coding Framework PD Client;
#X text 229 -33 (C) Carles F. Julia carles.fernandez@upf.edu;
#X text 230 -18 This software is released under the MIT license;
#X obj 61 106 pack f f f;
#X connect 0 0 15 0;
#X connect 1 0 9 0;
#X connect 2 0 7 0;
#X connect 3 0 10 0;
#X connect 4 0 15 0;
#X connect 5 0 15 1;
#X connect 6 0 15 2;
#X connect 8 0 11 0;
#X connect 9 0 15 0;
#X connect 9 1 15 1;
#X connect 10 0 15 0;
#X connect 10 1 15 2;
#X connect 11 0 4 0;
#X connect 11 1 5 0;
#X connect 11 2 6 0;
#X connect 15 0 2 0;
