#N canvas 447 372 450 300 10;
#X obj 289 146 Polygon 0 0 0 0 0 0;
#X obj 122 90 CircleCoords;
#X msg 191 64 0.1;
#X msg 132 50 0;
#X obj 108 124 pack f f;
#X obj 148 -39 for++ 0 30;
#X obj 232 -66 pi;
#X obj 232 -31 * 2;
#X obj 232 7 / 30;
#X obj 168 13 *;
#X obj 161 -89 t b b;
#X obj 157 -108 bng 15 250 50 0 empty empty empty 17 7 0 10 -262144
-1 -1;
#X obj 386 90 bng 15 250 50 0 empty empty empty 17 7 0 10 -262144 -1
-1;
#X obj 45 -130 inlet;
#X obj 105 6 loadbang;
#X obj 270 -96 inlet;
#X obj 309 -96 inlet;
#X obj 348 -96 inlet;
#X obj 386 -96 inlet;
#X obj 426 -97 inlet;
#X obj 60 -68 t b f b;
#X obj 8 -84 inlet;
#X connect 1 0 4 0;
#X connect 1 1 4 1;
#X connect 2 0 1 3;
#X connect 3 0 1 0;
#X connect 3 0 1 1;
#X connect 4 0 0 0;
#X connect 5 0 9 0;
#X connect 6 0 7 0;
#X connect 7 0 8 0;
#X connect 8 0 9 1;
#X connect 9 0 1 2;
#X connect 10 0 5 0;
#X connect 10 1 6 0;
#X connect 11 0 10 0;
#X connect 12 0 0 7;
#X connect 13 0 20 0;
#X connect 14 0 3 0;
#X connect 15 0 0 1;
#X connect 16 0 0 2;
#X connect 17 0 0 4;
#X connect 18 0 0 5;
#X connect 19 0 0 6;
#X connect 20 0 11 0;
#X connect 20 1 1 3;
#X connect 20 2 12 0;
#X connect 21 0 12 0;
