#N canvas 820 69 778 445 10;
#X obj 100 -86 inlet;
#X obj 8 -84 inlet;
#X obj 207 128 Circle2;
#X msg 11 3 clearvertex;
#X obj 11 -21 bang;
#X msg 99 3 radius \$1;
#X obj 182 -92 inlet;
#X obj 225 -91 inlet;
#X obj 272 -91 inlet;
#X obj 225 -56 t b f;
#X obj 272 -56 t b f;
#X obj 182 4 pack f f f;
#X obj 313 -91 inlet;
#X obj 356 -90 inlet;
#X obj 403 -90 inlet;
#X obj 356 -55 t b f;
#X obj 403 -55 t b f;
#X obj 313 5 pack f f f;
#X msg 180 37 position \$1 \$2 \$3;
#X msg 315 39 color \$1 \$2 \$3;
#X obj 119 283 outlet;
#X obj 171 283 outlet;
#X obj 216 283 outlet;
#X obj 66 283 outlet;
#X obj 317 284 outlet;
#X obj 363 284 outlet;
#X obj 408 284 outlet;
#X obj 267 283 outlet;
#X obj 90 184 route onFinger coordFinger onObject coordObject;
#X obj 119 257 unpack f f f;
#X obj 317 261 unpack f f f;
#X obj 457 -90 inlet;
#X obj 444 39 prepend texture;
#X connect 0 0 5 0;
#X connect 1 0 4 0;
#X connect 2 0 28 0;
#X connect 3 0 2 0;
#X connect 4 0 3 0;
#X connect 5 0 2 0;
#X connect 6 0 11 0;
#X connect 7 0 9 0;
#X connect 8 0 10 0;
#X connect 9 0 11 0;
#X connect 9 1 11 1;
#X connect 10 0 11 0;
#X connect 10 1 11 2;
#X connect 11 0 18 0;
#X connect 12 0 17 0;
#X connect 13 0 15 0;
#X connect 14 0 16 0;
#X connect 15 0 17 0;
#X connect 15 1 17 1;
#X connect 16 0 17 0;
#X connect 16 1 17 2;
#X connect 17 0 19 0;
#X connect 18 0 2 0;
#X connect 19 0 2 0;
#X connect 28 0 23 0;
#X connect 28 1 29 0;
#X connect 28 2 27 0;
#X connect 28 3 30 0;
#X connect 29 0 20 0;
#X connect 29 1 21 0;
#X connect 29 2 22 0;
#X connect 30 0 24 0;
#X connect 30 1 25 0;
#X connect 30 2 26 0;
#X connect 31 0 32 0;
#X connect 32 0 2 0;
