#N canvas 885 132 691 586 10;
#X obj 306 489 Polygon2;
#X obj 306 518 outlet;
#X obj 307 4 inlet;
#X obj 307 37 route radius;
#X obj 212 78 t b f b;
#X msg 251 358 clearvertex;
#X obj 116 153 pi;
#X obj 116 175 * 2;
#X obj 116 196 / 30;
#X obj 116 131 loadbang;
#X obj 19 130 for++ 0 30;
#X obj 101 220 *;
#X obj 124 301 CircleCoords;
#X msg 72 275 0;
#X msg 100 275 0;
#X obj 60 247 loadbang;
#X obj 138 335 pack f f;
#X msg 138 358 addvertex \$1 \$2;
#X connect 0 0 1 0;
#X connect 2 0 3 0;
#X connect 3 0 4 0;
#X connect 3 1 0 0;
#X connect 4 0 10 0;
#X connect 4 1 12 3;
#X connect 4 2 5 0;
#X connect 5 0 0 0;
#X connect 6 0 7 0;
#X connect 7 0 8 0;
#X connect 8 0 11 1;
#X connect 9 0 6 0;
#X connect 10 0 11 0;
#X connect 11 0 12 2;
#X connect 12 0 16 0;
#X connect 12 1 16 1;
#X connect 13 0 12 0;
#X connect 14 0 12 1;
#X connect 15 0 13 0;
#X connect 15 0 14 0;
#X connect 16 0 17 0;
#X connect 17 0 0 0;
