#N canvas 65 203 450 300 10;
#X obj 156 164 sin;
#X floatatom 275 87 5 0 0 0 radius - -;
#X floatatom 190 85 5 0 0 0 angle - -;
#X obj 156 188 *;
#X obj 156 211 * -1;
#X obj 300 165 cos;
#X obj 300 190 *;
#X obj 274 118 t b f;
#X obj 34 27 inlet;
#X obj 86 26 inlet;
#X obj 145 26 inlet;
#X obj 198 25 inlet;
#X text 32 9 CenterX;
#X text 80 9 CenterY;
#X text 145 8 Angle;
#X text 196 8 Radius;
#X obj 156 251 +;
#X obj 300 250 +;
#X obj 87 58 t b f;
#X obj 34 59 t b f;
#X obj 156 280 outlet;
#X obj 300 280 outlet;
#X obj 182 117 t f f;
#X connect 0 0 3 0;
#X connect 1 0 7 0;
#X connect 2 0 22 0;
#X connect 3 0 4 0;
#X connect 4 0 16 0;
#X connect 5 0 6 0;
#X connect 6 0 17 0;
#X connect 7 0 2 0;
#X connect 7 1 6 1;
#X connect 7 1 3 1;
#X connect 8 0 19 0;
#X connect 9 0 18 0;
#X connect 10 0 2 0;
#X connect 11 0 1 0;
#X connect 16 0 20 0;
#X connect 17 0 21 0;
#X connect 18 0 2 0;
#X connect 18 1 16 1;
#X connect 19 0 2 0;
#X connect 19 1 17 1;
#X connect 22 0 0 0;
#X connect 22 1 5 0;
