#N canvas 692 541 858 473 10;
#X obj 54 120 inlet~;
#X obj 23 83 objDistance \$1 \$2;
#X obj 150 76 Object \$1;
#X obj 175 103 Object \$2;
#X obj 20 15 r basicTangibleTabletopInit;
#X obj 33 37 loadbang;
#X msg 23 62 0;
#X obj 132 232 drawWave;
#X obj 105 122 inlet;
#X obj 105 149 t b f;
#X obj 103 173 && 1;
#X obj 73 289 outlet~;
#X obj 73 253 *~;
#X connect 0 0 7 1;
#X connect 0 0 12 0;
#X connect 1 0 10 0;
#X connect 2 1 7 2;
#X connect 2 2 7 3;
#X connect 3 1 7 4;
#X connect 3 2 7 5;
#X connect 4 0 6 0;
#X connect 5 0 6 0;
#X connect 6 0 1 0;
#X connect 8 0 9 0;
#X connect 9 0 10 0;
#X connect 9 1 10 1;
#X connect 10 0 7 0;
#X connect 10 0 12 1;
#X connect 12 0 11 0;
