#N canvas 166 217 953 635 10;
#X obj 48 119 until;
#X obj 48 146 f;
#X msg 91 96 0;
#X obj 76 147 + 1;
#X obj 48 172 t f f;
#N canvas 878 573 450 300 average 0;
#X obj 59 27 inlet;
#X obj 184 266 outlet;
#X obj 121 114 % \$1;
#X obj 59 113 f;
#X obj 89 114 + 1;
#X obj 59 138 == 0;
#X obj 184 186 / \$1;
#X obj 59 187 t b b b;
#X obj 59 163 sel 1;
#X obj 59 53 t b f;
#X msg 198 80 0;
#X obj 183 109 +;
#X obj 209 110 f;
#X obj 184 157 f;
#X obj 230 22 inlet;
#X obj 230 45 t f f b b;
#X msg 73 87 0;
#X connect 0 0 9 0;
#X connect 2 0 3 1;
#X connect 2 0 5 0;
#X connect 3 0 4 0;
#X connect 4 0 2 0;
#X connect 5 0 8 0;
#X connect 6 0 1 0;
#X connect 7 1 10 0;
#X connect 7 2 13 0;
#X connect 8 0 7 0;
#X connect 9 0 3 0;
#X connect 9 1 11 0;
#X connect 10 0 11 1;
#X connect 11 0 12 0;
#X connect 11 0 13 1;
#X connect 12 0 11 1;
#X connect 13 0 6 0;
#X connect 14 0 15 0;
#X connect 15 0 2 1;
#X connect 15 1 6 1;
#X connect 15 2 10 0;
#X connect 15 3 16 0;
#X connect 16 0 3 1;
#X restore 48 259 pd average;
#X obj 111 303 f;
#X obj 48 284 t f b;
#X obj 111 322 / 2;
#X msg 48 95 400;
#X msg 136 236 4;
#X obj 48 374 i;
#X obj 31 49 t b b b b;
#X obj 33 530 s basicTangibleTabletop1234messageBus;
#X obj 48 349 expr ( $f1 + 1 ) / 2 * 999;
#X obj 31 28 metro 25;
#X obj 197 44 t b b;
#X obj 117 -28 inlet~;
#X obj 126 136 table prova-\$0 400;
#X obj 125 163 table prova2-\$0 100;
#X obj 126 96 tabwrite~ prova-\$0;
#X obj 48 223 tabread prova-\$0;
#X obj 48 398 tabwrite prova2-\$0;
#X obj 33 434 tabdump prova2-\$0;
#X obj 332 -28 inlet;
#X obj 370 -28 inlet;
#X obj 370 -4 t b f;
#X obj 455 -27 inlet;
#X obj 493 -27 inlet;
#X obj 493 -3 t b f;
#X obj 332 135 s basicTangibleTabletop1234messageBus;
#X obj 531 -3 r id-\$0;
#X obj 562 255 s id-\$0;
#X obj 332 29 pack f f f;
#X obj 455 25 pack f f f;
#X msg 332 71 /wave \$3 p1 \$1 \$2;
#X msg 455 72 /wave \$3 p2 \$1 \$2;
#X obj 408 -4 r id-\$0;
#X msg 72 479 /wave \$1 wav;
#X obj 33 506 prepend;
#X obj 72 459 r id-\$0;
#X obj 270 442 closebang;
#X obj 270 486 f;
#X obj 285 464 r id-\$0;
#X obj 270 530 s basicTangibleTabletop1234messageBus;
#X msg 270 509 /wave \$1 rm;
#X obj 197 20 r loadbang2-\$0;
#X obj 418 282 s loadbang2-\$0;
#X obj 418 192 t b b;
#X obj 418 169 loadbang;
#X obj 561 215 + 1;
#X obj 445 215 v drawWaveRefCount;
#X obj 736 61 r id-\$0;
#X floatatom 736 88 5 0 0 0 - - -;
#X text 682 90 Wave ID;
#X obj 47 -28 inlet;
#X obj 225 365 select 0;
#X obj 333 102 spigot;
#X obj 135 21 t f f f f;
#X obj 259 45 select 1;
#X obj 630 457 v basicTangibleTabletopWaveFps;
#X obj 630 434 r basicTangibleTabletopUpdateConfig;
#X obj 630 479 s metrorate-\$0;
#X obj 31 5 r metrorate-\$0;
#X connect 0 0 1 0;
#X connect 1 0 3 0;
#X connect 1 0 4 0;
#X connect 2 0 1 1;
#X connect 3 0 1 1;
#X connect 4 0 21 0;
#X connect 4 1 6 1;
#X connect 5 0 7 0;
#X connect 6 0 8 0;
#X connect 7 0 14 0;
#X connect 7 1 6 0;
#X connect 8 0 22 1;
#X connect 9 0 0 0;
#X connect 10 0 5 1;
#X connect 10 0 8 1;
#X connect 11 0 22 0;
#X connect 12 0 23 0;
#X connect 12 1 9 0;
#X connect 12 2 2 0;
#X connect 12 3 20 0;
#X connect 14 0 11 0;
#X connect 15 0 12 0;
#X connect 16 1 10 0;
#X connect 17 0 20 0;
#X connect 21 0 5 0;
#X connect 23 0 39 0;
#X connect 24 0 33 0;
#X connect 25 0 26 0;
#X connect 26 0 33 0;
#X connect 26 1 33 1;
#X connect 27 0 34 0;
#X connect 28 0 29 0;
#X connect 29 0 34 0;
#X connect 29 1 34 1;
#X connect 31 0 34 2;
#X connect 33 0 35 0;
#X connect 34 0 36 0;
#X connect 35 0 57 0;
#X connect 36 0 57 0;
#X connect 37 0 33 2;
#X connect 38 0 39 1;
#X connect 39 0 13 0;
#X connect 40 0 38 0;
#X connect 41 0 42 0;
#X connect 42 0 45 0;
#X connect 43 0 42 1;
#X connect 45 0 44 0;
#X connect 46 0 16 0;
#X connect 48 0 47 0;
#X connect 48 1 51 0;
#X connect 49 0 48 0;
#X connect 50 0 51 0;
#X connect 50 0 32 0;
#X connect 51 0 50 0;
#X connect 52 0 53 0;
#X connect 55 0 58 0;
#X connect 56 0 42 0;
#X connect 57 0 30 0;
#X connect 58 0 59 0;
#X connect 58 1 56 0;
#X connect 58 2 15 0;
#X connect 58 3 57 1;
#X connect 59 0 33 0;
#X connect 59 0 34 0;
#X connect 60 0 62 0;
#X connect 61 0 60 0;
#X connect 63 0 15 1;
