#N canvas 436 256 953 635 10;
#X obj 33 559 s basicTangibleTabletop1234messageBus;
#X obj 114 -27 inlet~;
#X obj 332 -28 inlet;
#X obj 370 -28 inlet;
#X obj 370 -4 t b f;
#X obj 455 -27 inlet;
#X obj 493 -27 inlet;
#X obj 493 -3 t b f;
#X obj 332 135 s basicTangibleTabletop1234messageBus;
#X obj 531 -3 r id-\$0;
#X obj 562 255 s id-\$0;
#X obj 332 29 pack f f f;
#X obj 455 25 pack f f f;
#X msg 332 71 /wave \$3 p1 \$1 \$2;
#X msg 455 72 /wave \$3 p2 \$1 \$2;
#X obj 408 -4 r id-\$0;
#X msg 72 479 /wave \$1 wav;
#X obj 72 459 r id-\$0;
#X obj 270 442 closebang;
#X obj 270 486 f;
#X obj 285 464 r id-\$0;
#X obj 270 530 s basicTangibleTabletop1234messageBus;
#X msg 270 509 /wave \$1 rm;
#X obj 418 282 s loadbang2-\$0;
#X obj 418 192 t b b;
#X obj 561 215 + 1;
#X obj 445 215 v drawWaveRefCount;
#X obj 736 61 r id-\$0;
#X floatatom 736 88 5 0 0 0 - - -;
#X text 682 90 Wave ID;
#X obj 47 -28 inlet;
#X obj 244 395 select 0;
#X obj 333 102 spigot;
#X obj 228 -14 select 1;
#X obj 630 457 v basicTangibleTabletopWaveFps;
#X obj 630 434 r basicTangibleTabletopUpdateConfig;
#X obj 630 479 s metrorate-\$0;
#X obj 78 181 r metrorate-\$0;
#X obj 33 506 cyclone/prepend;
#X obj 416 166 r basicTangibleTabletopInit;
#X obj 365 244 loadbang;
#X obj 115 231 expr~ ($v1 + 1) / 2 * 999;
#N canvas 581 441 450 439 audoio2list 0;
#X obj 151 45 inlet~;
#X obj 80 43 inlet;
#X text 75 12 bang;
#X msg 180 146 1;
#X msg 206 146 0;
#X obj 150 189 t l b;
#X obj 150 290 outlet;
#X obj 150 83 zexy/pack~;
#X obj 150 241 list-abs/list-filter;
#X obj 291 258 == 0;
#X obj 292 233 f;
#X obj 322 233 + 1;
#X obj 292 209 t b;
#X obj 301 43 block~ 1024;
#X obj 150 166 spigot;
#X obj 351 233 mod 8;
#X connect 0 0 7 0;
#X connect 1 0 3 0;
#X connect 3 0 14 1;
#X connect 4 0 14 1;
#X connect 5 0 8 0;
#X connect 5 1 4 0;
#X connect 7 0 14 0;
#X connect 8 0 6 0;
#X connect 8 1 12 0;
#X connect 9 0 8 1;
#X connect 10 0 11 0;
#X connect 10 0 9 0;
#X connect 11 0 15 0;
#X connect 12 0 10 0;
#X connect 14 0 5 0;
#X connect 15 0 10 1;
#X restore 33 263 pd audoio2list;
#X obj 33 228 metro 25;
#X obj 33 435 list split 100;
#X obj 89 364 list length;
#X floatatom 92 393 5 0 0 0 - - -;
#X obj 33 342 list-abs/list-apply i;
#X obj 33 533 spigot;
#X obj 47 31 t f f f f f;
#X connect 1 0 41 0;
#X connect 2 0 11 0;
#X connect 3 0 4 0;
#X connect 4 0 11 0;
#X connect 4 1 11 1;
#X connect 5 0 12 0;
#X connect 6 0 7 0;
#X connect 7 0 12 0;
#X connect 7 1 12 1;
#X connect 9 0 12 2;
#X connect 11 0 13 0;
#X connect 12 0 14 0;
#X connect 13 0 32 0;
#X connect 14 0 32 0;
#X connect 15 0 11 2;
#X connect 16 0 38 1;
#X connect 17 0 16 0;
#X connect 18 0 19 0;
#X connect 19 0 22 0;
#X connect 20 0 19 1;
#X connect 22 0 21 0;
#X connect 24 0 23 0;
#X connect 24 1 26 0;
#X connect 25 0 26 0;
#X connect 25 0 10 0;
#X connect 26 0 25 0;
#X connect 27 0 28 0;
#X connect 30 0 49 0;
#X connect 31 0 19 0;
#X connect 32 0 8 0;
#X connect 33 0 11 0;
#X connect 33 0 12 0;
#X connect 34 0 36 0;
#X connect 35 0 34 0;
#X connect 37 0 43 1;
#X connect 38 0 48 0;
#X connect 39 0 24 0;
#X connect 40 0 24 0;
#X connect 41 0 42 1;
#X connect 42 0 47 0;
#X connect 43 0 42 0;
#X connect 44 0 38 0;
#X connect 45 0 46 0;
#X connect 47 0 44 0;
#X connect 48 0 0 0;
#X connect 49 0 33 0;
#X connect 49 1 31 0;
#X connect 49 2 43 0;
#X connect 49 3 32 1;
#X connect 49 4 48 1;
