#N canvas 914 58 953 744 10;
#X obj 33 559 s basicTangibleTabletop1234messageBus;
#X obj 114 -27 inlet~;
#X obj 504 179 s basicTangibleTabletop1234messageBus;
#X obj 778 401 s id-\$0;
#X msg 72 479 /wave \$1 wav;
#X obj 72 459 r id-\$0;
#X obj 270 442 closebang;
#X obj 270 486 f;
#X obj 285 464 r id-\$0;
#X obj 270 530 s basicTangibleTabletop1234messageBus;
#X msg 270 509 /wave \$1 rm;
#X obj 635 402 s loadbang2-\$0;
#X obj 635 354 t b b;
#X obj 778 377 + 1;
#X obj 662 377 v drawWaveRefCount;
#X obj 890 372 r id-\$0;
#X floatatom 890 399 5 0 0 0 - - -;
#X text 836 401 Wave ID;
#X obj 189 56 select 0;
#X obj 630 457 v basicTangibleTabletopWaveFps;
#X obj 630 434 r basicTangibleTabletopUpdateConfig;
#X obj 630 479 s metrorate-\$0;
#X obj 78 181 r metrorate-\$0;
#X obj 33 506 cyclone/prepend;
#X obj 691 327 r basicTangibleTabletopInit;
#X obj 115 231 expr~ ($v1 + 1) / 2 * 999;
#N canvas 581 265 450 439 audoio2list 0;
#X obj 151 45 inlet~;
#X obj 80 43 inlet;
#X text 75 12 bang;
#X msg 180 146 1;
#X msg 206 146 0;
#X obj 150 189 t l b;
#X obj 150 290 outlet;
#X obj 150 83 zexy/pack~;
#X obj 150 241 list-abs/list-filter;
#X obj 291 258 == 0;
#X obj 292 233 f;
#X obj 322 233 + 1;
#X obj 292 209 t b;
#X obj 301 43 block~ 1024;
#X obj 150 166 spigot;
#X obj 351 233 mod 8;
#X connect 0 0 7 0;
#X connect 1 0 3 0;
#X connect 3 0 14 1;
#X connect 4 0 14 1;
#X connect 5 0 8 0;
#X connect 5 1 4 0;
#X connect 7 0 14 0;
#X connect 8 0 6 0;
#X connect 8 1 12 0;
#X connect 9 0 8 1;
#X connect 10 0 11 0;
#X connect 10 0 9 0;
#X connect 11 0 15 0;
#X connect 12 0 10 0;
#X connect 14 0 5 0;
#X connect 15 0 10 1;
#X restore 33 263 pd audoio2list;
#X obj 33 228 metro 25;
#X obj 33 435 list split 100;
#X obj 33 342 list-abs/list-apply i;
#X obj 33 533 spigot;
#X obj 635 327 loadbang;
#X obj 149 -195 inlet;
#X obj 156 -157 route enable disable from to;
#X msg 46 -97 1;
#X msg 80 -97 0;
#X obj 43 -51 tgl 15 0 empty empty empty 17 7 0 10 -262144 -1 -1 0
1;
#X obj 602 25 r id-\$0;
#X obj 588 68 prepend /nothing;
#X obj 605 324 bng 15 250 50 0 empty empty empty 17 7 0 10 -262144
-1 -1;
#X msg 602 46 set sendtyped /wave isff \$1 p2;
#X obj 364 24 r id-\$0;
#X obj 350 67 prepend /nothing;
#X msg 364 45 set sendtyped /wave isff \$1 p1;
#N canvas 467 322 450 300 basics 1;
#X obj 25 24 inlet;
#X obj 25 266 outlet;
#X obj 402 276 outlet;
#X obj 233 26 inlet;
#X obj 25 212 prepend;
#X obj 159 193 l2s :;
#X obj 159 219 prepend;
#X msg 198 193 iss \$1 transform;
#X obj 25 47 route color transform linewidth;
#X obj 315 219 prepend;
#X msg 354 194 isf \$1 linewidth;
#X msg 64 189 isiii \$1 color;
#X connect 0 0 8 0;
#X connect 3 0 11 0;
#X connect 3 0 7 0;
#X connect 3 0 10 0;
#X connect 4 0 1 0;
#X connect 5 0 6 0;
#X connect 6 0 1 0;
#X connect 7 0 6 1;
#X connect 8 0 4 0;
#X connect 8 1 5 0;
#X connect 8 2 9 0;
#X connect 8 3 2 0;
#X connect 9 0 1 0;
#X connect 10 0 9 1;
#X connect 11 0 4 1;
#X restore 805 30 pd basics;
#X obj 856 4 r id-\$0;
#X obj 805 53 prepend sendtyped /wave;
#X msg 189 135 /wave \$1 hide;
#X obj 189 107 f;
#X obj 204 79 r id-\$0;
#X obj 282 105 f;
#X obj 297 77 r id-\$0;
#X obj 282 54 select 1;
#X msg 282 133 /wave \$1 unhide;
#X obj 47 31 t f f f f;
#X connect 1 0 25 0;
#X connect 4 0 23 1;
#X connect 5 0 4 0;
#X connect 6 0 7 0;
#X connect 7 0 10 0;
#X connect 8 0 7 1;
#X connect 10 0 9 0;
#X connect 12 0 11 0;
#X connect 12 1 14 0;
#X connect 13 0 14 0;
#X connect 13 0 3 0;
#X connect 14 0 13 0;
#X connect 15 0 16 0;
#X connect 18 0 48 0;
#X connect 19 0 21 0;
#X connect 20 0 19 0;
#X connect 22 0 27 1;
#X connect 23 0 30 0;
#X connect 25 0 26 1;
#X connect 26 0 29 0;
#X connect 27 0 26 0;
#X connect 28 0 23 0;
#X connect 29 0 28 0;
#X connect 30 0 0 0;
#X connect 31 0 12 0;
#X connect 32 0 33 0;
#X connect 33 0 34 0;
#X connect 33 1 35 0;
#X connect 33 2 42 0;
#X connect 33 3 38 0;
#X connect 33 4 44 0;
#X connect 34 0 36 0;
#X connect 35 0 36 0;
#X connect 36 0 54 0;
#X connect 37 0 40 0;
#X connect 38 0 2 0;
#X connect 39 0 12 0;
#X connect 40 0 38 0;
#X connect 41 0 43 0;
#X connect 42 0 2 0;
#X connect 43 0 42 0;
#X connect 44 0 46 0;
#X connect 45 0 44 1;
#X connect 46 0 2 0;
#X connect 47 0 2 0;
#X connect 48 0 47 0;
#X connect 49 0 48 1;
#X connect 50 0 53 0;
#X connect 51 0 50 1;
#X connect 52 0 50 0;
#X connect 53 0 2 0;
#X connect 54 0 52 0;
#X connect 54 1 18 0;
#X connect 54 2 27 0;
#X connect 54 3 30 1;
