#N canvas 726 393 445 311 10;
#X obj 9 -34 inlet;
#X obj 50 -33 inlet;
#X obj 94 -33 inlet;
#X obj 101 212 s basicTangibleTabletop1234messageBus;
#X obj 134 27 r basicTangibleTabletopInit;
#X obj 52 2 t b f;
#X obj 94 1 t b f;
#X msg 53 164 /fingercolor \$1 \$2 \$3;
#X msg 117 91 172;
#X msg 148 91 124;
#X msg 178 91 110;
#X obj 131 58 t b b b;
#X text 136 -33 Musical Tabletop Coding Framework PD Client;
#X text 135 -18 (C) Carles F. Julia carles.fernandez@upf.edu;
#X text 136 -3 This software is released under the MIT license;
#X obj 53 117 pack f f f;
#X connect 0 0 15 0;
#X connect 1 0 5 0;
#X connect 2 0 6 0;
#X connect 4 0 11 0;
#X connect 5 0 15 0;
#X connect 5 1 15 1;
#X connect 6 0 15 0;
#X connect 6 1 15 2;
#X connect 7 0 3 0;
#X connect 8 0 15 0;
#X connect 9 0 15 1;
#X connect 10 0 15 2;
#X connect 11 0 8 0;
#X connect 11 1 9 0;
#X connect 11 2 10 0;
#X connect 15 0 7 0;
