#N canvas 725 368 450 300 10;
#X obj 116 -38 inlet;
#X obj 205 -39 inlet;
#X obj 160 113 pack i i i;
#X obj 279 -40 inlet;
#X obj 208 208 s basicTangibleTabletop1234messageBus;
#X obj 270 -6 r basicTangibleTabletopInit;
#X obj 159 -2 t b f;
#X obj 201 -3 t b f;
#X msg 160 160 /fingercolor \$1 \$2 \$3;
#X msg 253 58 172;
#X msg 284 58 124;
#X msg 314 58 110;
#X obj 267 25 t b b b;
#X connect 0 0 2 0;
#X connect 1 0 6 0;
#X connect 2 0 8 0;
#X connect 3 0 7 0;
#X connect 5 0 12 0;
#X connect 6 0 2 0;
#X connect 6 1 2 1;
#X connect 7 0 2 0;
#X connect 7 1 2 2;
#X connect 8 0 4 0;
#X connect 9 0 2 0;
#X connect 10 0 2 1;
#X connect 11 0 2 2;
#X connect 12 0 9 0;
#X connect 12 1 10 0;
#X connect 12 2 11 0;
