#N canvas 472 185 859 860 10;
#X obj 39 23 inlet;
#X obj 462 54 loadbang;
#X obj 462 80 i -1;
#X obj 26 639 outlet;
#X obj 462 102 == -1;
#X obj 367 18 spigot;
#X obj 71 203 t f f;
#X obj 111 204 f;
#X obj 143 204 f;
#X obj 103 640 outlet;
#X obj 103 618 == 0;
#X obj 71 236 select -1;
#X obj 158 640 outlet;
#X obj 205 641 outlet;
#X obj 122 259 t b;
#X obj 26 597 list;
#X obj 408 229 f;
#X obj 437 230 f;
#X obj 368 261 select -1;
#X obj 419 286 t b;
#X obj 368 228 f;
#X msg 501 80 -1;
#X obj 733 234 f;
#X obj 759 234 f;
#X obj 693 266 select -1;
#X obj 744 291 t b;
#X obj 693 233 f;
#X obj 37 57 t a a;
#X obj 71 96 OSCroute /in /out /move;
#X obj 26 618 route list;
#X text 538 48 Musical Tabletop Coding Framework PD Client;
#X text 537 63 (C) Carles F. Julia carles.fernandez@upf.edu;
#X text 538 78 This software is released under the MIT license;
#X obj 71 173 unpack f f f f;
#X obj 368 198 unpack f f f f;
#X obj 693 203 unpack f f f f;
#X obj 178 205 f;
#X obj 71 260 t b b b;
#X obj 272 641 outlet;
#X obj 352 164 t b b b b;
#X obj 465 231 f;
#X obj 663 146 t b b b b;
#X obj 791 234 f;
#X connect 0 0 27 0;
#X connect 1 0 21 0;
#X connect 2 0 4 0;
#X connect 2 0 11 1;
#X connect 2 0 18 1;
#X connect 2 0 24 1;
#X connect 4 0 5 1;
#X connect 4 0 10 0;
#X connect 5 0 2 0;
#X connect 6 0 11 0;
#X connect 6 1 5 0;
#X connect 7 0 12 0;
#X connect 8 0 13 0;
#X connect 10 0 9 0;
#X connect 11 0 37 0;
#X connect 11 1 14 0;
#X connect 14 0 15 0;
#X connect 15 0 29 0;
#X connect 16 0 12 0;
#X connect 17 0 13 0;
#X connect 18 0 39 0;
#X connect 18 1 19 0;
#X connect 19 0 15 0;
#X connect 20 0 18 0;
#X connect 21 0 2 0;
#X connect 22 0 12 0;
#X connect 23 0 13 0;
#X connect 24 0 41 0;
#X connect 24 1 25 0;
#X connect 25 0 15 0;
#X connect 26 0 24 0;
#X connect 27 0 28 0;
#X connect 27 1 15 1;
#X connect 28 0 33 0;
#X connect 28 1 34 0;
#X connect 28 2 35 0;
#X connect 29 0 3 0;
#X connect 33 0 6 0;
#X connect 33 1 7 1;
#X connect 33 2 8 1;
#X connect 33 3 36 1;
#X connect 34 0 20 0;
#X connect 34 1 16 1;
#X connect 34 2 17 1;
#X connect 34 3 40 1;
#X connect 35 0 26 0;
#X connect 35 1 22 1;
#X connect 35 2 23 1;
#X connect 35 3 42 1;
#X connect 36 0 38 0;
#X connect 37 0 7 0;
#X connect 37 1 8 0;
#X connect 37 2 36 0;
#X connect 39 0 21 0;
#X connect 39 1 16 0;
#X connect 39 2 17 0;
#X connect 39 3 40 0;
#X connect 40 0 38 0;
#X connect 41 1 22 0;
#X connect 41 2 23 0;
#X connect 41 3 42 0;
#X connect 42 0 38 0;
