#N canvas 337 121 677 492 10;
#X obj 276 183 CircleCoords;
#X msg 276 154 0;
#X obj 262 217 pack f f;
#X obj 331 15 pi;
#X obj 331 39 * 2;
#X obj 316 91 *;
#X obj 611 180 bng 15 250 50 0 empty empty empty 17 7 0 10 -262144
-1 -1;
#X obj 237 134 loadbang;
#X obj 495 -6 inlet;
#X obj 534 -6 inlet;
#X obj 573 -6 inlet;
#X obj 611 -6 inlet;
#X obj 651 -7 inlet;
#X obj 21 -92 inlet;
#X obj 514 236 Polygon 0 0 0 0 0 0;
#X obj 189 -372 inlet;
#X obj 248 -199 int;
#X obj 197 -203 >;
#X obj 225 -261 loadbang;
#X msg 248 -224 -1;
#X obj 165 -180 spigot;
#X obj 165 -227 t f f;
#X obj 331 -9 loadbang;
#X obj 331 64 / 100;
#X obj 165 -157 t f f;
#X obj 159 -113 spigot;
#X obj 59 -92 loadbang;
#X floatatom 238 -154 5 0 0 0 - - -;
#X floatatom 267 -344 5 0 0 0 - - -;
#X obj 30 -16 t b b b;
#X obj 11 -54 t b b;
#X obj 294 48 int;
#X msg 431 -38 0.1;
#X obj 424 -69 loadbang;
#X floatatom 288 109 5 0 0 0 - - -;
#X msg 453 192 0 0;
#X obj 192 -135 <= 100;
#X floatatom 368 -206 5 0 0 0 - - -;
#X obj 401 -240 int;
#X floatatom 427 -147 5 0 0 0 - - -;
#X msg 297 -13 0;
#X obj 419 -183 for++ 0 0 10;
#X obj 403 -287 t b b f;
#X obj 44 51 s reset-\$0;
#X obj 25 -129 bng 15 250 50 0 empty empty empty 17 7 0 10 -262144
-1 -1;
#X obj 285 -260 r reset-\$0;
#X connect 0 0 2 0;
#X connect 0 1 2 1;
#X connect 1 0 0 0;
#X connect 1 0 0 1;
#X connect 2 0 14 0;
#X connect 3 0 4 0;
#X connect 4 0 23 0;
#X connect 5 0 0 2;
#X connect 6 0 14 7;
#X connect 7 0 1 0;
#X connect 8 0 14 1;
#X connect 9 0 14 2;
#X connect 10 0 14 4;
#X connect 11 0 14 5;
#X connect 12 0 14 6;
#X connect 13 0 30 0;
#X connect 15 0 28 0;
#X connect 15 0 42 0;
#X connect 16 0 17 1;
#X connect 16 0 27 0;
#X connect 17 0 20 1;
#X connect 18 0 19 0;
#X connect 19 0 16 0;
#X connect 20 0 16 0;
#X connect 20 0 24 0;
#X connect 21 0 20 0;
#X connect 21 1 17 0;
#X connect 22 0 3 0;
#X connect 23 0 5 1;
#X connect 24 0 25 0;
#X connect 24 1 36 0;
#X connect 25 0 31 0;
#X connect 26 0 30 0;
#X connect 29 0 35 0;
#X connect 29 1 43 0;
#X connect 29 2 6 0;
#X connect 30 0 40 0;
#X connect 30 1 29 0;
#X connect 31 0 5 0;
#X connect 31 0 34 0;
#X connect 32 0 0 3;
#X connect 33 0 32 0;
#X connect 34 0 38 1;
#X connect 35 0 14 0;
#X connect 36 0 25 1;
#X connect 38 0 37 0;
#X connect 38 0 41 0;
#X connect 40 0 31 0;
#X connect 41 0 39 0;
#X connect 41 0 21 0;
#X connect 42 0 41 0;
#X connect 42 1 38 0;
#X connect 42 2 41 1;
#X connect 44 0 30 0;
#X connect 45 0 19 0;
