#N canvas 2292 146 929 534 10;
#X obj 275 6 loadbang;
#X msg 275 27 \; pd dsp 1;
#X obj 28 57 s initparameters;
#X obj 28 5 bng 15 250 50 0 empty empty empty 17 7 0 10 -262144 -1
-1;
#X obj 28 33 basicTangibleTabletop 192.168.2.167;
#X text 46 3 Reset;
#X obj 235 7 tgl 15 0 empty empty empty 17 7 0 10 -262144 -1 -1 0 1
;
#N canvas 861 75 862 584 text 0;
#X msg 28 67 test;
#X msg 28 93 yahuu!;
#X obj 120 50 hsl 128 15 0 1 0 0 empty empty empty -2 -8 0 10 -262144
-1 -1 0 1;
#X floatatom 123 135 5 0 0 0 - - -;
#X obj 120 69 hsl 128 15 0 1 0 0 empty empty empty -2 -8 0 10 -262144
-1 -1 0 1;
#X floatatom 157 135 5 0 0 0 - - -;
#X obj 120 88 hsl 128 15 0 360 0 0 empty empty empty -2 -8 0 10 -262144
-1 -1 0 1;
#X floatatom 191 135 5 0 0 0 - - -;
#X msg 29 120 tes tes test;
#X obj 160 213 Text 0 0 0 0;
#X obj 260 50 hsl 128 15 0 255 0 0 empty empty empty -2 -8 0 10 -262144
-1 -1 0 1;
#X obj 226 113 int;
#X floatatom 226 135 5 0 0 0 - - -;
#X obj 261 69 hsl 128 15 0 255 0 0 empty empty empty -2 -8 0 10 -262144
-1 -1 0 1;
#X obj 261 113 int;
#X floatatom 261 135 5 0 0 0 - - -;
#X obj 261 88 hsl 128 15 0 255 0 0 empty empty empty -2 -8 0 10 -262144
-1 -1 0 1;
#X obj 296 113 int;
#X floatatom 296 135 5 0 0 0 - - -;
#X text 158 31 position;
#X text 307 32 color;
#X text 28 35 text;
#X msg 431 50 write Hola hola Caracola;
#X msg 441 69 write adeu adeu andreu;
#X msg 468 120 color 255 0 0;
#X msg 456 97 position 0.5 0.5 1;
#X obj 460 209 Text2;
#X msg 410 15 clear;
#X obj 691 223 Translate;
#X obj 750 319 Scale;
#X obj 649 155 Rotate;
#X obj 824 140 vsl 15 128 0 1 0 0 empty empty empty 0 -9 0 10 -262144
-1 -1 0 1;
#X floatatom 824 276 5 0 0 0 - - -;
#X obj 788 140 vsl 15 128 0 1 0 0 empty empty empty 0 -9 0 10 -262144
-1 -1 0 1;
#X floatatom 788 276 5 0 0 0 - - -;
#X obj 752 55 vsl 15 128 0 1 0 0 empty empty empty 0 -9 0 10 -262144
-1 -1 0 1;
#X floatatom 752 191 5 0 0 0 - - -;
#X obj 716 55 vsl 15 128 0 1 0 0 empty empty empty 0 -9 0 10 -262144
-1 -1 0 1;
#X floatatom 716 191 5 0 0 0 - - -;
#X obj 680 -33 vsl 15 128 0 360 0 0 empty empty empty 0 -9 0 10 -262144
-1 -1 0 1;
#X floatatom 680 103 5 0 0 0 - - -;
#X msg 606 331 transform *;
#X connect 0 0 9 0;
#X connect 1 0 9 0;
#X connect 2 0 3 0;
#X connect 3 0 9 1;
#X connect 4 0 5 0;
#X connect 5 0 9 2;
#X connect 6 0 7 0;
#X connect 7 0 9 3;
#X connect 8 0 9 0;
#X connect 10 0 11 0;
#X connect 11 0 12 0;
#X connect 12 0 9 4;
#X connect 13 0 14 0;
#X connect 14 0 15 0;
#X connect 15 0 9 5;
#X connect 16 0 17 0;
#X connect 17 0 18 0;
#X connect 18 0 9 6;
#X connect 22 0 26 0;
#X connect 23 0 26 0;
#X connect 24 0 26 0;
#X connect 25 0 26 0;
#X connect 27 0 26 0;
#X connect 28 0 29 0;
#X connect 29 0 26 0;
#X connect 30 0 28 0;
#X connect 31 0 32 0;
#X connect 32 0 29 2;
#X connect 33 0 34 0;
#X connect 34 0 29 1;
#X connect 35 0 36 0;
#X connect 36 0 28 2;
#X connect 37 0 38 0;
#X connect 38 0 28 1;
#X connect 39 0 40 0;
#X connect 40 0 30 1;
#X connect 41 0 26 0;
#X restore 52 155 pd text;
#N canvas 67 93 866 401 polygons 1;
#X msg 414 92 addvertex -0.1 -0.1;
#X msg 425 115 addvertex -0.1 0.1;
#X msg 438 135 addvertex 0.1 0.1;
#X msg 447 155 addvertex 0.1 -0.1;
#X msg 595 73 color 255 0 0;
#X msg 605 98 clearvertex;
#X msg 613 120 texture texturepathexample.png;
#X obj 434 236 tgl 15 0 empty empty empty 17 7 0 10 -262144 -1 -1 0
1;
#X obj 434 214 route onFinger coordFinger;
#X obj 510 239 unpack f f f;
#X floatatom 510 282 5 0 0 0 - - -;
#X floatatom 548 282 5 0 0 0 - - -;
#X floatatom 584 282 5 0 0 0 - - -;
#X obj 607 236 tgl 15 0 empty empty empty 17 7 0 10 -262144 -1 -1 0
1;
#X obj 683 239 unpack f f f;
#X floatatom 683 282 5 0 0 0 - - -;
#X floatatom 721 282 5 0 0 0 - - -;
#X floatatom 757 282 5 0 0 0 - - -;
#X obj 607 214 route onObject coordObject;
#X msg 583 50 position 0.5 0.5 1;
#X obj 583 180 Polygon2;
#X text 428 62 constructing;
#X msg 22 71 -0.1 -0.1;
#X msg 21 98 -0.1 0.1;
#X msg 20 122 0.1 0.1;
#X msg 20 145 0.1 -0.1;
#X obj 334 134 bng 15 250 50 0 empty empty empty 17 7 0 10 -262144
-1 -1;
#X msg 327 184 exemple.jpg;
#X msg 326 209 none;
#X floatatom 112 290 5 0 0 0 - - -;
#X floatatom 156 290 5 0 0 0 - - -;
#X floatatom 199 290 5 0 0 0 - - -;
#X obj 70 291 tgl 15 0 empty empty empty 17 7 0 10 -262144 -1 -1 0
1;
#X obj 125 234 Polygon 0 0 0 0 0 0 0;
#X obj 264 291 tgl 15 0 empty empty empty 17 7 0 10 -262144 -1 -1 0
1;
#X floatatom 304 291 5 0 0 0 - - -;
#X floatatom 341 291 5 0 0 0 - - -;
#X floatatom 381 291 5 0 0 0 - - -;
#X obj 101 72 hsl 128 15 0 1 0 0 empty empty empty -2 -8 0 10 -262144
-1 -1 5000 1;
#X floatatom 104 157 5 0 0 0 - - -;
#X obj 101 91 hsl 128 15 0 1 0 0 empty empty empty -2 -8 0 10 -262144
-1 -1 5600 1;
#X floatatom 138 157 5 0 0 0 - - -;
#X obj 101 110 hsl 128 15 0 360 0 0 empty empty empty -2 -8 0 10 -262144
-1 -1 3600 1;
#X floatatom 172 157 5 0 0 0 - - -;
#X obj 242 72 hsl 128 15 0 255 0 0 empty empty empty -2 -8 0 10 -262144
-1 -1 0 1;
#X obj 207 135 int;
#X floatatom 207 157 5 0 0 0 - - -;
#X obj 242 91 hsl 128 15 0 255 0 0 empty empty empty -2 -8 0 10 -262144
-1 -1 0 1;
#X obj 242 135 int;
#X floatatom 242 157 5 0 0 0 - - -;
#X obj 242 110 hsl 128 15 0 255 0 0 empty empty empty -2 -8 0 10 -262144
-1 -1 0 1;
#X obj 277 135 int;
#X floatatom 277 157 5 0 0 0 - - -;
#X text 139 53 position;
#X text 288 54 color;
#X text 22 45 constructing;
#X text 361 138 clear;
#X text 334 164 textures;
#X text 119 321 finger collisions;
#X text 297 316 object collisions;
#X text 488 314 finger collisions;
#X text 666 309 object collisions;
#X connect 0 0 20 0;
#X connect 1 0 20 0;
#X connect 2 0 20 0;
#X connect 3 0 20 0;
#X connect 4 0 20 0;
#X connect 5 0 20 0;
#X connect 6 0 20 0;
#X connect 8 0 7 0;
#X connect 8 1 9 0;
#X connect 8 2 18 0;
#X connect 9 0 10 0;
#X connect 9 1 11 0;
#X connect 9 2 12 0;
#X connect 14 0 15 0;
#X connect 14 1 16 0;
#X connect 14 2 17 0;
#X connect 18 0 13 0;
#X connect 18 1 14 0;
#X connect 19 0 20 0;
#X connect 20 0 8 0;
#X connect 22 0 33 0;
#X connect 23 0 33 0;
#X connect 24 0 33 0;
#X connect 25 0 33 0;
#X connect 26 0 33 7;
#X connect 27 0 33 8;
#X connect 28 0 33 8;
#X connect 30 0 33 1;
#X connect 31 0 33 2;
#X connect 33 0 32 0;
#X connect 33 1 29 0;
#X connect 33 2 30 0;
#X connect 33 3 31 0;
#X connect 33 4 34 0;
#X connect 33 5 35 0;
#X connect 33 6 36 0;
#X connect 33 7 37 0;
#X connect 38 0 39 0;
#X connect 39 0 33 1;
#X connect 40 0 41 0;
#X connect 41 0 33 2;
#X connect 42 0 43 0;
#X connect 43 0 33 3;
#X connect 44 0 45 0;
#X connect 45 0 46 0;
#X connect 46 0 33 4;
#X connect 47 0 48 0;
#X connect 48 0 49 0;
#X connect 49 0 33 5;
#X connect 50 0 51 0;
#X connect 51 0 52 0;
#X connect 52 0 33 6;
#X restore 131 156 pd polygons;
#N canvas 0 0 721 322 circles 0;
#X msg 66 125 0.5;
#X msg 31 125 0.01;
#X obj 27 14 tgl 15 0 empty empty empty 17 7 0 10 -262144 -1 -1 0 1
;
#X obj 31 96 t b b;
#X obj 30 47 route 1 0;
#X obj 31 160 Ccircle 0 0 0 0 0 0 0;
#X obj 373 143 Circle2;
#X msg 293 57 radius 0.1;
#X msg 324 78 radius 0.01;
#X msg 405 48 color 255 0 0;
#X msg 415 73 clearvertex;
#X msg 393 25 position 0.5 0.5 1;
#X msg 423 95 texture exemple.jpg;
#X obj 312 224 tgl 15 0 empty empty empty 17 7 0 10 -262144 -1 -1 0
1;
#X obj 312 202 route onFinger coordFinger;
#X obj 388 227 unpack f f f;
#X floatatom 388 270 5 0 0 0 - - -;
#X floatatom 426 270 5 0 0 0 - - -;
#X floatatom 462 270 5 0 0 0 - - -;
#X obj 485 224 tgl 15 0 empty empty empty 17 7 0 10 -262144 -1 -1 0
1;
#X obj 561 227 unpack f f f;
#X floatatom 561 270 5 0 0 0 - - -;
#X floatatom 599 270 5 0 0 0 - - -;
#X floatatom 635 270 5 0 0 0 - - -;
#X obj 485 202 route onObject coordObject;
#X connect 0 0 5 2;
#X connect 1 0 5 1;
#X connect 2 0 4 0;
#X connect 3 0 1 0;
#X connect 3 1 0 0;
#X connect 4 0 3 0;
#X connect 4 1 5 0;
#X connect 6 0 14 0;
#X connect 6 0 24 0;
#X connect 7 0 6 0;
#X connect 8 0 6 0;
#X connect 9 0 6 0;
#X connect 10 0 6 0;
#X connect 11 0 6 0;
#X connect 12 0 6 0;
#X connect 14 0 13 0;
#X connect 14 1 15 0;
#X connect 15 0 16 0;
#X connect 15 1 17 0;
#X connect 15 2 18 0;
#X connect 20 0 21 0;
#X connect 20 1 22 0;
#X connect 20 2 23 0;
#X connect 24 0 19 0;
#X connect 24 1 20 0;
#X restore 228 157 pd circles;
#X text 180 4 Reuse IP;
#X obj 467 120 Fingers;
#X obj 468 151 finger 0 0 0 0;
#X floatatom 489 194 5 0 0 0 - - -;
#X floatatom 523 194 5 0 0 0 - - -;
#X floatatom 555 195 5 0 0 0 - - -;
#X floatatom 593 196 5 0 0 0 - - -;
#X obj 468 218 finger 0 0 0 0;
#X floatatom 510 258 5 0 0 0 - - -;
#X floatatom 544 258 5 0 0 0 - - -;
#X floatatom 576 259 5 0 0 0 - - -;
#X floatatom 614 260 5 0 0 0 - - -;
#X obj 454 290 finger 0 0 0 0;
#X floatatom 475 333 5 0 0 0 - - -;
#X floatatom 509 333 5 0 0 0 - - -;
#X floatatom 541 334 5 0 0 0 - - -;
#X floatatom 579 335 5 0 0 0 - - -;
#X obj 456 400 finger 0 0 0 0;
#X floatatom 477 443 5 0 0 0 - - -;
#X floatatom 511 443 5 0 0 0 - - -;
#X floatatom 543 444 5 0 0 0 - - -;
#X floatatom 581 445 5 0 0 0 - - -;
#X obj 670 263 autoscale 0 127;
#X obj 698 322 hsl 128 15 0 127 0 0 empty empty empty -2 -8 0 10 -262144
-1 -1 0 1;
#X msg 41 221 addvertex -0.1 -0.1;
#X msg 52 244 addvertex -0.1 0.1;
#X msg 65 264 addvertex 0.1 0.1;
#X msg 74 284 addvertex 0.1 -0.1;
#X obj 222 337 Scale;
#X obj 285 249 snapshot~;
#X obj 349 166 tgl 15 0 empty empty empty 17 7 0 10 -262144 -1 -1 1
1;
#X obj 296 295 hsl 128 15 0 2 0 0 empty empty empty -2 -8 0 10 -262144
-1 -1 5100 1;
#X obj 157 415 Polygon2;
#X obj 291 430 Translate;
#X obj 341 399 hsl 128 15 0 2 0 0 empty empty empty -2 -8 0 10 -262144
-1 -1 4100 1;
#X obj 343 208 metro 300;
#X floatatom 400 153 5 0 0 0 - - -;
#X obj 247 207 osc~ 0.1;
#X msg 133 326 texture /sdcard/hipocranc.png;
#X obj 318 368 line;
#X msg 324 323 1 1000;
#X msg 342 342 0 1000;
#X connect 0 0 1 0;
#X connect 3 0 4 0;
#X connect 4 0 2 0;
#X connect 6 0 4 1;
#X connect 11 0 12 0;
#X connect 12 0 17 0;
#X connect 12 1 13 0;
#X connect 12 2 14 0;
#X connect 12 3 15 0;
#X connect 12 4 16 0;
#X connect 16 0 32 0;
#X connect 17 0 22 0;
#X connect 17 1 18 0;
#X connect 17 2 19 0;
#X connect 17 3 20 0;
#X connect 17 4 21 0;
#X connect 22 0 27 0;
#X connect 22 1 23 0;
#X connect 22 2 24 0;
#X connect 22 3 25 0;
#X connect 22 4 26 0;
#X connect 27 1 28 0;
#X connect 27 2 29 0;
#X connect 27 3 30 0;
#X connect 27 4 31 0;
#X connect 32 0 33 0;
#X connect 34 0 42 0;
#X connect 35 0 42 0;
#X connect 36 0 42 0;
#X connect 37 0 42 0;
#X connect 38 0 42 0;
#X connect 39 0 38 2;
#X connect 39 0 38 1;
#X connect 40 0 45 0;
#X connect 41 0 38 1;
#X connect 43 0 38 0;
#X connect 44 0 43 2;
#X connect 45 0 39 0;
#X connect 46 0 45 1;
#X connect 47 0 39 0;
#X connect 48 0 42 0;
#X connect 49 0 43 1;
#X connect 50 0 49 0;
#X connect 51 0 49 0;
