#N canvas 97 71 657 495 10;
#X declare -lib mrpeach;
#X obj 34 37 basicTangibleTabletop;
#X obj 222 398 tgl 15 0 empty empty empty 17 7 0 10 -262144 -1 -1 1
1;
#X floatatom 221 417 5 0 0 0 - - -;
#X floatatom 221 437 5 0 0 0 - - -;
#X obj 222 377 objDistance 1 3;
#X obj 185 36 loadbang;
#X msg 185 57 \; pd dsp 1;
#X obj 222 350 tgl 15 0 empty empty empty 17 7 0 10 -262144 -1 -1 0
1;
#X obj 36 173 r initparameters;
#X obj 34 59 s initparameters;
#X msg 36 240 param \$1;
#X msg 93 240 slider \$1;
#X obj 37 222 tgl 15 0 empty empty empty 17 7 0 10 -262144 -1 -1 1
1;
#X obj 93 222 tgl 15 0 empty empty empty 17 7 0 10 -262144 -1 -1 1
1;
#X msg 36 197 1;
#X obj 34 373 objDistance 2 3;
#X obj 34 353 tgl 15 0 empty empty empty 17 7 0 10 -262144 -1 -1 0
1;
#X msg 34 330 0;
#X obj 34 306 r initparameters;
#X obj 178 130 bng 15 250 50 0 empty empty empty 17 7 0 10 -262144
-1 -1;
#X obj 178 450 bng 15 250 50 0 empty empty empty 17 7 0 10 -262144
-1 -1;
#X floatatom 240 244 5 0 0 0 - - -;
#X floatatom 240 263 5 0 0 0 - - -;
#X floatatom 240 282 5 0 0 0 - - -;
#X text 226 243 x;
#X text 226 261 y;
#X text 206 282 angle;
#X text 337 246 presence;
#X text 336 266 parameter;
#X floatatom 300 264 5 0 0 0 - - -;
#X text 337 286 slider;
#X floatatom 300 283 5 0 0 0 - - -;
#X obj 300 246 tgl 15 0 empty empty empty 17 7 0 10 -262144 -1 -1 1
1;
#X msg 238 158 param \$1;
#X msg 239 178 slider \$1;
#X obj 220 160 tgl 15 0 empty empty empty 17 7 0 10 -262144 -1 -1 0
1;
#X obj 220 179 tgl 15 0 empty empty empty 17 7 0 10 -262144 -1 -1 0
1;
#X text 308 163 parameter;
#X text 309 183 slider;
#X text 244 350 draw;
#X text 268 400 presence;
#X text 266 420 distance;
#X text 266 438 angle;
#X obj 398 130 bng 15 250 50 0 empty empty empty 17 7 0 10 -262144
-1 -1;
#X obj 398 450 bng 15 250 50 0 empty empty empty 17 7 0 10 -262144
-1 -1;
#X obj 534 242 BGchanger;
#X obj 471 242 osc~ 440;
#X obj 424 358 *~ 0.1;
#X obj 420 393 dac~;
#X obj 36 265 Object 2;
#X obj 239 213 Object 1;
#X obj 492 187 Object 2;
#X obj 471 214 * 1000;
#X obj 537 213 * 255;
#X obj 437 137 noise~;
#X obj 417 242 adc~;
#X obj 421 314 *~ 10;
#X obj 486 275 connectWave 2 3;
#X obj 438 329 connectWave 3 1;
#X obj 476 304 connectWave 2 4;
#X obj 443 160 connectWave 1 4;
#X obj 422 295 *~;
#X connect 0 0 9 0;
#X connect 4 0 1 0;
#X connect 4 1 2 0;
#X connect 4 2 3 0;
#X connect 5 0 6 0;
#X connect 7 0 4 0;
#X connect 8 0 14 0;
#X connect 10 0 49 0;
#X connect 11 0 49 0;
#X connect 12 0 10 0;
#X connect 13 0 11 0;
#X connect 14 0 12 0;
#X connect 14 0 13 0;
#X connect 16 0 15 0;
#X connect 17 0 16 0;
#X connect 18 0 17 0;
#X connect 19 0 20 0;
#X connect 33 0 50 0;
#X connect 34 0 50 0;
#X connect 35 0 33 0;
#X connect 36 0 34 0;
#X connect 43 0 44 0;
#X connect 46 0 57 0;
#X connect 46 0 59 0;
#X connect 46 0 61 1;
#X connect 47 0 48 0;
#X connect 47 0 48 1;
#X connect 50 0 32 0;
#X connect 50 1 21 0;
#X connect 50 2 22 0;
#X connect 50 3 23 0;
#X connect 50 4 29 0;
#X connect 50 5 31 0;
#X connect 51 5 52 0;
#X connect 51 5 53 0;
#X connect 52 0 46 0;
#X connect 53 0 45 1;
#X connect 54 0 60 0;
#X connect 55 0 61 0;
#X connect 56 0 47 0;
#X connect 56 0 58 0;
#X connect 61 0 56 0;
