#N canvas 635 150 1128 582 10;
#X obj 275 6 loadbang;
#X msg 275 27 \; pd dsp 1;
#X obj 28 57 s initparameters;
#X obj 28 5 bng 15 250 50 0 empty empty empty 17 7 0 10 -262144 -1
-1;
#X text 46 3 Reset;
#X obj 235 7 tgl 15 0 empty empty empty 17 7 0 10 -262144 -1 -1 1 1
;
#N canvas 857 89 862 584 text 1;
#X msg 28 67 test;
#X msg 28 93 yahuu!;
#X obj 120 50 hsl 128 15 0 1 0 0 empty empty empty -2 -8 0 10 -262144
-1 -1 5700 1;
#X floatatom 123 135 5 0 0 0 - - -;
#X obj 120 69 hsl 128 15 0 1 0 0 empty empty empty -2 -8 0 10 -262144
-1 -1 5800 1;
#X floatatom 157 135 5 0 0 0 - - -;
#X obj 120 88 hsl 128 15 0 360 0 0 empty empty empty -2 -8 0 10 -262144
-1 -1 1400 1;
#X floatatom 191 135 5 0 0 0 - - -;
#X msg 29 120 tes tes test;
#X obj 160 213 Text 0 0 0 0;
#X obj 260 50 hsl 128 15 0 255 0 0 empty empty empty -2 -8 0 10 -262144
-1 -1 7200 1;
#X obj 226 113 int;
#X floatatom 226 135 5 0 0 0 - - -;
#X obj 261 69 hsl 128 15 0 255 0 0 empty empty empty -2 -8 0 10 -262144
-1 -1 11400 1;
#X obj 261 113 int;
#X floatatom 261 135 5 0 0 0 - - -;
#X obj 261 88 hsl 128 15 0 255 0 0 empty empty empty -2 -8 0 10 -262144
-1 -1 2500 1;
#X obj 296 113 int;
#X floatatom 296 135 5 0 0 0 - - -;
#X text 158 31 position;
#X text 307 32 color;
#X text 28 35 text;
#X msg 431 50 write Hola hola Caracola;
#X msg 441 69 write adeu adeu andreu;
#X msg 468 120 color 255 0 0;
#X msg 456 97 position 0.5 0.5 1;
#X obj 460 209 Text2;
#X msg 410 15 clear;
#X obj 691 223 Translate;
#X obj 750 319 Scale;
#X obj 824 140 vsl 15 128 0 1 0 0 empty empty empty 0 -9 0 10 -262144
-1 -1 12700 1;
#X floatatom 824 276 5 0 0 0 - - -;
#X obj 788 140 vsl 15 128 0 1 0 0 empty empty empty 0 -9 0 10 -262144
-1 -1 9100 1;
#X floatatom 788 276 5 0 0 0 - - -;
#X obj 752 55 vsl 15 128 0 1 0 0 empty empty empty 0 -9 0 10 -262144
-1 -1 4800 1;
#X floatatom 752 191 5 0 0 0 - - -;
#X obj 716 55 vsl 15 128 0 1 0 0 empty empty empty 0 -9 0 10 -262144
-1 -1 4200 1;
#X floatatom 716 191 5 0 0 0 - - -;
#X obj 680 -33 vsl 15 128 0 360 0 0 empty empty empty 0 -9 0 10 -262144
-1 -1 400 1;
#X floatatom 680 103 5 0 0 0 - - -;
#X msg 606 331 transform *;
#X obj 649 155 Rotate;
#X msg 409 295 layer 0;
#X msg 417 327 layer 1;
#X connect 0 0 9 0;
#X connect 1 0 9 0;
#X connect 2 0 3 0;
#X connect 3 0 9 1;
#X connect 4 0 5 0;
#X connect 5 0 9 2;
#X connect 6 0 7 0;
#X connect 7 0 9 3;
#X connect 8 0 9 0;
#X connect 10 0 11 0;
#X connect 11 0 12 0;
#X connect 12 0 9 4;
#X connect 13 0 14 0;
#X connect 14 0 15 0;
#X connect 15 0 9 5;
#X connect 16 0 17 0;
#X connect 17 0 18 0;
#X connect 18 0 9 6;
#X connect 22 0 26 0;
#X connect 23 0 26 0;
#X connect 24 0 26 0;
#X connect 25 0 26 0;
#X connect 27 0 26 0;
#X connect 28 0 29 0;
#X connect 29 0 26 0;
#X connect 30 0 31 0;
#X connect 31 0 29 2;
#X connect 32 0 33 0;
#X connect 33 0 29 1;
#X connect 34 0 35 0;
#X connect 35 0 28 2;
#X connect 36 0 37 0;
#X connect 37 0 28 1;
#X connect 38 0 39 0;
#X connect 39 0 41 1;
#X connect 40 0 26 0;
#X connect 41 0 28 0;
#X connect 42 0 26 0;
#X connect 43 0 26 0;
#X restore 52 155 pd text;
#N canvas 293 484 866 401 polygons 0;
#X msg 414 92 addvertex -0.1 -0.1;
#X msg 425 115 addvertex -0.1 0.1;
#X msg 438 135 addvertex 0.1 0.1;
#X msg 447 155 addvertex 0.1 -0.1;
#X msg 595 73 color 255 0 0;
#X msg 605 98 clearvertex;
#X msg 613 120 texture texturepathexample.png;
#X obj 434 236 tgl 15 0 empty empty empty 17 7 0 10 -262144 -1 -1 0
1;
#X obj 434 214 route onFinger coordFinger;
#X obj 510 239 unpack f f f;
#X floatatom 510 282 5 0 0 0 - - -;
#X floatatom 548 282 5 0 0 0 - - -;
#X floatatom 584 282 5 0 0 0 - - -;
#X obj 607 236 tgl 15 0 empty empty empty 17 7 0 10 -262144 -1 -1 0
1;
#X obj 683 239 unpack f f f;
#X floatatom 683 282 5 0 0 0 - - -;
#X floatatom 721 282 5 0 0 0 - - -;
#X floatatom 757 282 5 0 0 0 - - -;
#X obj 607 214 route onObject coordObject;
#X msg 583 50 position 0.5 0.5 1;
#X obj 583 180 Polygon2;
#X text 428 62 constructing;
#X msg 22 71 -0.1 -0.1;
#X msg 21 98 -0.1 0.1;
#X msg 20 122 0.1 0.1;
#X msg 20 145 0.1 -0.1;
#X obj 334 134 bng 15 250 50 0 empty empty empty 17 7 0 10 -262144
-1 -1;
#X msg 327 184 exemple.jpg;
#X msg 326 209 none;
#X floatatom 112 290 5 0 0 0 - - -;
#X floatatom 156 290 5 0 0 0 - - -;
#X floatatom 199 290 5 0 0 0 - - -;
#X obj 70 291 tgl 15 0 empty empty empty 17 7 0 10 -262144 -1 -1 0
1;
#X obj 125 234 Polygon 0 0 0 0 0 0 0;
#X obj 264 291 tgl 15 0 empty empty empty 17 7 0 10 -262144 -1 -1 0
1;
#X floatatom 304 291 5 0 0 0 - - -;
#X floatatom 341 291 5 0 0 0 - - -;
#X floatatom 381 291 5 0 0 0 - - -;
#X obj 101 72 hsl 128 15 0 1 0 0 empty empty empty -2 -8 0 10 -262144
-1 -1 4500 1;
#X floatatom 104 157 5 0 0 0 - - -;
#X obj 101 91 hsl 128 15 0 1 0 0 empty empty empty -2 -8 0 10 -262144
-1 -1 6500 1;
#X floatatom 138 157 5 0 0 0 - - -;
#X obj 101 110 hsl 128 15 0 360 0 0 empty empty empty -2 -8 0 10 -262144
-1 -1 0 1;
#X floatatom 172 157 5 0 0 0 - - -;
#X obj 242 72 hsl 128 15 0 255 0 0 empty empty empty -2 -8 0 10 -262144
-1 -1 0 1;
#X obj 207 135 int;
#X floatatom 207 157 5 0 0 0 - - -;
#X obj 242 91 hsl 128 15 0 255 0 0 empty empty empty -2 -8 0 10 -262144
-1 -1 0 1;
#X obj 242 135 int;
#X floatatom 242 157 5 0 0 0 - - -;
#X obj 242 110 hsl 128 15 0 255 0 0 empty empty empty -2 -8 0 10 -262144
-1 -1 0 1;
#X obj 277 135 int;
#X floatatom 277 157 5 0 0 0 - - -;
#X text 139 53 position;
#X text 288 54 color;
#X text 22 45 constructing;
#X text 361 138 clear;
#X text 334 164 textures;
#X text 119 321 finger collisions;
#X text 297 316 object collisions;
#X text 488 314 finger collisions;
#X text 666 309 object collisions;
#X connect 0 0 20 0;
#X connect 1 0 20 0;
#X connect 2 0 20 0;
#X connect 3 0 20 0;
#X connect 4 0 20 0;
#X connect 5 0 20 0;
#X connect 6 0 20 0;
#X connect 8 0 7 0;
#X connect 8 1 9 0;
#X connect 8 2 18 0;
#X connect 9 0 10 0;
#X connect 9 1 11 0;
#X connect 9 2 12 0;
#X connect 14 0 15 0;
#X connect 14 1 16 0;
#X connect 14 2 17 0;
#X connect 18 0 13 0;
#X connect 18 1 14 0;
#X connect 19 0 20 0;
#X connect 20 0 8 0;
#X connect 22 0 33 0;
#X connect 23 0 33 0;
#X connect 24 0 33 0;
#X connect 25 0 33 0;
#X connect 26 0 33 7;
#X connect 27 0 33 8;
#X connect 28 0 33 8;
#X connect 30 0 33 1;
#X connect 31 0 33 2;
#X connect 33 0 32 0;
#X connect 33 1 29 0;
#X connect 33 2 30 0;
#X connect 33 3 31 0;
#X connect 33 4 34 0;
#X connect 33 5 35 0;
#X connect 33 6 36 0;
#X connect 33 7 37 0;
#X connect 38 0 39 0;
#X connect 39 0 33 1;
#X connect 40 0 41 0;
#X connect 41 0 33 2;
#X connect 42 0 43 0;
#X connect 43 0 33 3;
#X connect 44 0 45 0;
#X connect 45 0 46 0;
#X connect 46 0 33 4;
#X connect 47 0 48 0;
#X connect 48 0 49 0;
#X connect 49 0 33 5;
#X connect 50 0 51 0;
#X connect 51 0 52 0;
#X connect 52 0 33 6;
#X restore 131 156 pd polygons;
#N canvas 969 619 721 322 circles 1;
#X msg 66 125 0.5;
#X msg 31 125 0.01;
#X obj 27 14 tgl 15 0 empty empty empty 17 7 0 10 -262144 -1 -1 0 1
;
#X obj 31 96 t b b;
#X obj 30 47 route 1 0;
#X obj 31 160 Ccircle 0 0 0 0 0 0 0;
#X obj 373 143 Circle2;
#X msg 293 57 radius 0.1;
#X msg 324 78 radius 0.01;
#X msg 405 48 color 255 0 0;
#X msg 415 73 clearvertex;
#X msg 393 25 position 0.5 0.5 1;
#X obj 312 224 tgl 15 0 empty empty empty 17 7 0 10 -262144 -1 -1 0
1;
#X obj 312 202 route onFinger coordFinger;
#X obj 388 227 unpack f f f;
#X floatatom 388 270 5 0 0 0 - - -;
#X floatatom 426 270 5 0 0 0 - - -;
#X floatatom 462 270 5 0 0 0 - - -;
#X obj 485 224 tgl 15 0 empty empty empty 17 7 0 10 -262144 -1 -1 0
1;
#X obj 561 227 unpack f f f;
#X floatatom 561 270 5 0 0 0 - - -;
#X floatatom 599 270 5 0 0 0 - - -;
#X floatatom 635 270 5 0 0 0 - - -;
#X obj 485 202 route onObject coordObject;
#X msg 251 21 radius 1;
#X msg 423 95 texture /sdcard/hipocranc.png;
#X msg 254 124 bring_top;
#X connect 0 0 5 2;
#X connect 1 0 5 1;
#X connect 2 0 4 0;
#X connect 3 0 1 0;
#X connect 3 1 0 0;
#X connect 4 0 3 0;
#X connect 4 1 5 0;
#X connect 6 0 13 0;
#X connect 6 0 23 0;
#X connect 7 0 6 0;
#X connect 8 0 6 0;
#X connect 9 0 6 0;
#X connect 10 0 6 0;
#X connect 11 0 6 0;
#X connect 13 0 12 0;
#X connect 13 1 14 0;
#X connect 14 0 15 0;
#X connect 14 1 16 0;
#X connect 14 2 17 0;
#X connect 19 0 20 0;
#X connect 19 1 21 0;
#X connect 19 2 22 0;
#X connect 23 0 18 0;
#X connect 23 1 19 0;
#X connect 24 0 6 0;
#X connect 25 0 6 0;
#X connect 26 0 6 0;
#X restore 228 157 pd circles;
#X text 180 4 Reuse IP;
#X obj 827 10 Fingers;
#X obj 827 41 finger 0 0 0 0;
#X floatatom 864 70 5 0 0 0 - - -;
#X floatatom 898 70 5 0 0 0 - - -;
#X floatatom 932 70 5 0 0 0 - - -;
#X msg -45 228 addvertex -0.1 -0.1;
#X msg -34 251 addvertex -0.1 0.1;
#X msg -21 271 addvertex 0.1 0.1;
#X msg -12 291 addvertex 0.1 -0.1;
#X obj 388 347 snapshot~;
#X obj 454 277 tgl 15 0 empty empty empty 17 7 0 10 -262144 -1 -1 0
1;
#X obj 135 536 Polygon2;
#X obj 196 426 Translate;
#X obj 256 395 hsl 128 15 0 2 0 0 empty empty empty -2 -8 0 10 -262144
-1 -1 3238 1;
#X obj 454 305 metro 300;
#X floatatom 505 264 5 0 0 0 - - -;
#X obj 388 304 osc~ 0.1;
#X msg 21 336 texture /sdcard/hipocranc.png;
#X obj 221 394 line;
#X msg 229 319 1 1000;
#X msg 247 338 0 1000;
#X obj 28 33 basicTangibleTabletop 192.168.0.16;
#X obj 196 489 ScaleXY;
#X msg 81 358 clearvertex;
#X msg 3 314 color 255 255 255;
#X obj 387 423 + 1;
#X obj 299 438 * 360;
#X obj 196 455 Rotate;
#X msg 196 375 transform;
#X obj 827 92 finger 0 0 0 0;
#X floatatom 865 121 5 0 0 0 - - -;
#X floatatom 899 121 5 0 0 0 - - -;
#X floatatom 933 121 5 0 0 0 - - -;
#X obj 827 144 finger 0 0 0 0;
#X floatatom 864 173 5 0 0 0 - - -;
#X floatatom 898 173 5 0 0 0 - - -;
#X floatatom 932 173 5 0 0 0 - - -;
#X obj 827 197 finger 0 0 0 0;
#X floatatom 865 226 5 0 0 0 - - -;
#X floatatom 899 226 5 0 0 0 - - -;
#X floatatom 933 226 5 0 0 0 - - -;
#X obj 827 252 finger 0 0 0 0;
#X floatatom 866 281 5 0 0 0 - - -;
#X floatatom 900 281 5 0 0 0 - - -;
#X floatatom 934 281 5 0 0 0 - - -;
#X obj 847 71 tgl 15 0 empty empty empty 17 7 0 10 -262144 -1 -1 0
1;
#X obj 846 120 tgl 15 0 empty empty empty 17 7 0 10 -262144 -1 -1 0
1;
#X obj 847 173 tgl 15 0 empty empty empty 17 7 0 10 -262144 -1 -1 0
1;
#X obj 847 227 tgl 15 0 empty empty empty 17 7 0 10 -262144 -1 -1 0
1;
#X obj 847 282 tgl 15 0 empty empty empty 17 7 0 10 -262144 -1 -1 0
1;
#X msg 75 508 layer 0;
#X msg 38 469 bring_top;
#X obj 404 502 unpack f f f;
#X obj 244 546 route coordFinger;
#X obj 353 40 MTCFReset;
#X obj 353 16 bng 15 250 50 0 empty empty empty 17 7 0 10 -262144 -1
-1;
#X connect 0 0 1 0;
#X connect 3 0 31 0;
#X connect 5 0 31 1;
#X connect 10 0 11 0;
#X connect 11 0 39 0;
#X connect 11 1 55 0;
#X connect 11 2 12 0;
#X connect 11 3 13 0;
#X connect 11 4 14 0;
#X connect 15 0 21 0;
#X connect 16 0 21 0;
#X connect 17 0 21 0;
#X connect 18 0 21 0;
#X connect 19 0 35 0;
#X connect 20 0 24 0;
#X connect 21 0 63 0;
#X connect 22 0 37 0;
#X connect 23 0 22 2;
#X connect 24 0 19 0;
#X connect 25 0 24 1;
#X connect 26 0 19 0;
#X connect 27 0 21 0;
#X connect 28 0 22 1;
#X connect 29 0 28 0;
#X connect 30 0 28 0;
#X connect 31 0 2 0;
#X connect 32 0 21 0;
#X connect 33 0 21 0;
#X connect 34 0 21 0;
#X connect 35 0 32 1;
#X connect 35 0 36 0;
#X connect 36 0 37 1;
#X connect 37 0 32 0;
#X connect 38 0 22 0;
#X connect 39 0 43 0;
#X connect 39 1 56 0;
#X connect 39 2 40 0;
#X connect 39 3 41 0;
#X connect 39 4 42 0;
#X connect 43 0 47 0;
#X connect 43 1 57 0;
#X connect 43 2 44 0;
#X connect 43 3 45 0;
#X connect 43 4 46 0;
#X connect 47 0 51 0;
#X connect 47 1 58 0;
#X connect 47 2 48 0;
#X connect 47 3 49 0;
#X connect 47 4 50 0;
#X connect 51 1 59 0;
#X connect 51 2 52 0;
#X connect 51 3 53 0;
#X connect 51 4 54 0;
#X connect 60 0 21 0;
#X connect 61 0 21 0;
#X connect 62 2 23 0;
#X connect 63 0 62 0;
#X connect 65 0 64 0;
