#N canvas 261 186 928 495 10;
#X obj 223 379 tgl 15 0 empty empty empty 17 7 0 10 -262144 -1 -1 0
1;
#X floatatom 222 398 5 0 0 0 - - -;
#X floatatom 222 418 5 0 0 0 - - -;
#X obj 234 37 loadbang;
#X msg 234 58 \; pd dsp 1;
#X obj 223 331 tgl 15 0 empty empty empty 17 7 0 10 -262144 -1 -1 0
1;
#X obj 36 173 r initparameters;
#X obj 34 59 s initparameters;
#X msg 36 240 param \$1;
#X msg 93 240 slider \$1;
#X obj 37 222 tgl 15 0 empty empty empty 17 7 0 10 -262144 -1 -1 1
1;
#X obj 93 222 tgl 15 0 empty empty empty 17 7 0 10 -262144 -1 -1 1
1;
#X msg 36 197 1;
#X obj 34 353 tgl 15 0 empty empty empty 17 7 0 10 -262144 -1 -1 0
1;
#X msg 34 330 0;
#X obj 34 306 r initparameters;
#X obj 178 130 bng 15 250 50 0 empty empty empty 17 7 0 10 -262144
-1 -1;
#X obj 178 450 bng 15 250 50 0 empty empty empty 17 7 0 10 -262144
-1 -1;
#X floatatom 240 244 5 0 0 0 - - -;
#X floatatom 240 263 5 0 0 0 - - -;
#X floatatom 240 282 5 0 0 0 - - -;
#X text 226 243 x;
#X text 226 261 y;
#X text 206 282 angle;
#X text 337 246 presence;
#X text 336 266 parameter;
#X floatatom 300 264 5 0 0 0 - - -;
#X text 337 286 slider;
#X floatatom 300 283 5 0 0 0 - - -;
#X obj 300 246 tgl 15 0 empty empty empty 17 7 0 10 -262144 -1 -1 0
1;
#X msg 238 158 param \$1;
#X msg 239 178 slider \$1;
#X obj 220 160 tgl 15 0 empty empty empty 17 7 0 10 -262144 -1 -1 0
1;
#X obj 220 179 tgl 15 0 empty empty empty 17 7 0 10 -262144 -1 -1 0
1;
#X text 308 163 parameter;
#X text 309 183 slider;
#X text 245 331 draw;
#X text 269 381 presence;
#X text 267 401 distance;
#X text 267 419 angle;
#X obj 398 130 bng 15 250 50 0 empty empty empty 17 7 0 10 -262144
-1 -1;
#X obj 398 450 bng 15 250 50 0 empty empty empty 17 7 0 10 -262144
-1 -1;
#X obj 811 191 BGchanger;
#X obj 36 265 Object 2;
#X obj 239 213 Object 1;
#X obj 34 37 basicTangibleTabletop localhost;
#X obj 568 389 tgl 15 0 empty empty empty 17 7 0 10 -262144 -1 -1 0
1;
#X obj 472 147 noise~;
#X obj 567 305 Object 2;
#X obj 567 325 == 0;
#X obj 700 268 dac~;
#X obj 684 129 connectWave 1 2;
#X obj 862 169 * 255;
#X obj 710 215 bp~ 400 10;
#X obj 702 149 Object 2;
#X obj 738 171 * 10000;
#X obj 767 191 * 10;
#X obj 470 449 dac~;
#X obj 826 146 Object 2;
#X obj 710 235 connectWave 2 3;
#X obj 481 411 connectWave 1 3;
#X obj 718 455 dac~;
#X obj 728 402 bp~ 400 10;
#X obj 731 346 * 10000;
#X obj 827 367 * 10;
#X obj 685 302 connectWave 1 4;
#X obj 728 422 connectWave 4 3;
#X obj 784 302 objDistance 1 4;
#X obj 223 358 objDistance 1 3;
#X obj 34 373 objDistance 0 1;
#X obj 784 326 objDistance 4 3;
#X obj 512 325 == 0;
#X obj 512 305 Object 4;
#X obj 567 365 &&;
#X obj 567 344 t b f;
#X obj 731 327 - 0.1;
#X obj 827 347 - 0.1;
#X connect 3 0 4 0;
#X connect 5 0 68 0;
#X connect 6 0 12 0;
#X connect 8 0 43 0;
#X connect 9 0 43 0;
#X connect 10 0 8 0;
#X connect 11 0 9 0;
#X connect 12 0 10 0;
#X connect 12 0 11 0;
#X connect 13 0 69 0;
#X connect 14 0 13 0;
#X connect 15 0 14 0;
#X connect 16 0 17 0;
#X connect 30 0 44 0;
#X connect 31 0 44 0;
#X connect 32 0 30 0;
#X connect 33 0 31 0;
#X connect 40 0 41 0;
#X connect 44 0 29 0;
#X connect 44 1 18 0;
#X connect 44 2 19 0;
#X connect 44 3 20 0;
#X connect 44 4 26 0;
#X connect 44 5 28 0;
#X connect 45 0 7 0;
#X connect 46 0 60 1;
#X connect 47 0 51 0;
#X connect 47 0 60 0;
#X connect 47 0 65 0;
#X connect 48 0 49 0;
#X connect 49 0 74 0;
#X connect 51 0 53 0;
#X connect 52 0 42 2;
#X connect 53 0 59 0;
#X connect 54 4 55 0;
#X connect 54 5 56 0;
#X connect 55 0 53 1;
#X connect 56 0 53 2;
#X connect 58 4 52 0;
#X connect 59 0 50 0;
#X connect 59 0 50 1;
#X connect 60 0 57 0;
#X connect 60 0 57 1;
#X connect 62 0 66 0;
#X connect 63 0 62 1;
#X connect 64 0 62 2;
#X connect 65 0 62 0;
#X connect 66 0 61 0;
#X connect 66 0 61 1;
#X connect 67 1 75 0;
#X connect 68 0 0 0;
#X connect 68 1 1 0;
#X connect 68 2 2 0;
#X connect 70 1 76 0;
#X connect 71 0 73 0;
#X connect 72 0 71 0;
#X connect 73 0 46 0;
#X connect 74 0 73 0;
#X connect 74 1 73 1;
#X connect 75 0 63 0;
#X connect 76 0 64 0;
