#N canvas 260 411 929 531 10;
#X obj 234 37 loadbang;
#X msg 234 58 \; pd dsp 1;
#X obj 34 59 s initparameters;
#X obj 34 37 basicTangibleTabletop localhost;
#X obj 568 389 tgl 15 0 empty empty empty 17 7 0 10 -262144 -1 -1 0
1;
#X obj 479 102 noise~;
#X obj 567 325 == 0;
#X obj 700 268 dac~;
#X obj 684 129 connectWave 1 2;
#X obj 710 215 bp~ 400 10;
#X obj 738 171 * 10000;
#X obj 767 191 * 10;
#X obj 470 449 dac~;
#X obj 718 440 dac~;
#X obj 728 387 bp~ 400 10;
#X obj 731 346 * 10000;
#X obj 827 367 * 10;
#X obj 512 325 == 0;
#X obj 567 365 &&;
#X obj 567 344 t b f;
#X obj 731 327 - 0.1;
#X obj 827 347 - 0.1;
#X text 565 29 Musical Tabletop Coding Framework PD Client;
#X text 564 44 (C) Carles F. Julia carles.fernandez@upf.edu;
#X text 565 59 This software is released under the MIT license;
#X obj 784 302 objDistance 1 4;
#X obj 784 326 objDistance 4 3;
#X obj 710 235 connectWave 2 3;
#X obj 481 411 connectWave 1 3;
#X obj 685 302 connectWave 1 4;
#X obj 728 407 connectWave 4 3;
#X obj 567 305 Object 2;
#X obj 702 149 Object 2;
#X obj 512 305 Object 4;
#X obj 9 109 cnv 15 200 300 empty empty empty 20 12 0 14 -203904 -66577
0;
#X obj 36 164 r initparameters;
#X msg 36 188 1;
#X obj 34 353 tgl 15 0 empty empty visibility 17 7 0 10 -262144 -1
-1 0 1;
#X msg 34 330 0;
#X obj 34 306 r initparameters;
#X obj 51 273 Object 2;
#X obj 34 373 objDistance 0 1;
#X obj 216 110 cnv 15 200 300 empty empty empty 20 12 0 14 -261234
-66577 0;
#X obj 258 319 tgl 15 0 empty empty empty 17 7 0 10 -262144 -1 -1 0
1;
#X floatatom 257 338 5 0 0 0 - - -;
#X floatatom 257 358 5 0 0 0 - - -;
#X obj 258 271 tgl 15 0 empty empty empty 17 7 0 10 -262144 -1 -1 0
1;
#X floatatom 255 206 5 0 0 0 - - -;
#X floatatom 255 225 5 0 0 0 - - -;
#X floatatom 255 244 5 0 0 0 - - -;
#X text 241 205 x;
#X text 241 223 y;
#X text 221 244 angle;
#X text 352 208 presence;
#X text 351 228 parameter;
#X floatatom 315 226 5 0 0 0 - - -;
#X text 352 248 slider;
#X floatatom 315 245 5 0 0 0 - - -;
#X obj 315 208 tgl 15 0 empty empty empty 17 7 0 10 -262144 -1 -1 0
1;
#X msg 50 220 param \$1;
#X msg 51 240 slider \$1;
#X obj 32 222 tgl 15 0 empty empty empty 17 7 0 10 -262144 -1 -1 1
1;
#X obj 32 241 tgl 15 0 empty empty empty 17 7 0 10 -262144 -1 -1 1
1;
#X text 120 225 parameter;
#X text 121 245 slider;
#X text 280 271 draw;
#X text 304 321 presence;
#X text 302 341 distance;
#X text 302 359 angle;
#X obj 258 298 objDistance 1 3;
#X text 37 123 Defining Objects;
#X text 37 134 properties;
#X text 221 115 Sending and Receiving data;
#X obj 254 175 Object 2;
#X floatatom 354 147 5 0 1 0 set_slider_position - -;
#N canvas 674 114 606 228 extras 0;
#X obj 39 127 BGchanger;
#X obj 43 70 hsl 128 15 0 255 0 0 empty empty empty -2 -8 0 10 -262144
-1 -1 0 1;
#X obj 43 88 hsl 128 15 0 255 0 0 empty empty empty -2 -8 0 10 -262144
-1 -1 0 1;
#X obj 43 106 hsl 128 15 0 255 0 0 empty empty empty -2 -8 0 10 -262144
-1 -1 0 1;
#X text 40 41 Change Background color;
#X obj 203 14 bng 15 250 50 0 empty empty empty 17 7 0 10 -262144 -1
-1;
#X obj 203 184 bng 15 250 50 0 empty empty empty 17 7 0 10 -262144
-1 -1;
#X obj 245 46 Fingers;
#X obj 290 73 tgl 15 0 empty empty empty 17 7 0 10 -262144 -1 -1 0
1;
#X floatatom 308 72 5 0 0 0 - - -;
#X floatatom 345 73 5 0 0 0 - - -;
#X obj 245 71 finger;
#X obj 290 94 tgl 15 0 empty empty empty 17 7 0 10 -262144 -1 -1 0
1;
#X floatatom 308 93 5 0 0 0 - - -;
#X floatatom 345 94 5 0 0 0 - - -;
#X obj 290 114 tgl 15 0 empty empty empty 17 7 0 10 -262144 -1 -1 0
1;
#X floatatom 308 113 5 0 0 0 - - -;
#X floatatom 345 114 5 0 0 0 - - -;
#X obj 290 133 tgl 15 0 empty empty empty 17 7 0 10 -262144 -1 -1 0
1;
#X floatatom 308 132 5 0 0 0 - - -;
#X floatatom 345 133 5 0 0 0 - - -;
#X obj 290 152 tgl 15 0 empty empty empty 17 7 0 10 -262144 -1 -1 0
1;
#X floatatom 308 151 5 0 0 0 - - -;
#X floatatom 345 152 5 0 0 0 - - -;
#X obj 290 173 tgl 15 0 empty empty empty 17 7 0 10 -262144 -1 -1 0
1;
#X floatatom 308 172 5 0 0 0 - - -;
#X floatatom 345 173 5 0 0 0 - - -;
#X obj 403 14 bng 15 250 50 0 empty empty empty 17 7 0 10 -262144 -1
-1;
#X obj 403 184 bng 15 250 50 0 empty empty empty 17 7 0 10 -262144
-1 -1;
#X obj 425 72 hsl 128 15 0 255 0 0 empty empty empty -2 -8 0 10 -262144
-1 -1 0 1;
#X obj 425 90 hsl 128 15 0 255 0 0 empty empty empty -2 -8 0 10 -262144
-1 -1 0 1;
#X obj 425 108 hsl 128 15 0 255 0 0 empty empty empty -2 -8 0 10 -262144
-1 -1 0 1;
#X obj 421 129 FCchanger;
#X text 422 43 Change Finger color;
#X obj 245 92 finger;
#X obj 245 112 finger;
#X obj 245 131 finger;
#X obj 245 150 finger;
#X obj 245 171 finger;
#X text 266 14 receive fingers;
#X connect 1 0 0 0;
#X connect 2 0 0 1;
#X connect 3 0 0 2;
#X connect 5 0 6 0;
#X connect 7 0 11 0;
#X connect 11 0 34 0;
#X connect 11 1 8 0;
#X connect 11 2 9 0;
#X connect 11 3 10 0;
#X connect 27 0 28 0;
#X connect 29 0 32 0;
#X connect 30 0 32 1;
#X connect 31 0 32 2;
#X connect 34 0 35 0;
#X connect 34 1 12 0;
#X connect 34 2 13 0;
#X connect 34 3 14 0;
#X connect 35 0 36 0;
#X connect 35 1 15 0;
#X connect 35 2 16 0;
#X connect 35 3 17 0;
#X connect 36 0 37 0;
#X connect 36 1 18 0;
#X connect 36 2 19 0;
#X connect 36 3 20 0;
#X connect 37 0 38 0;
#X connect 37 1 21 0;
#X connect 37 2 22 0;
#X connect 37 3 23 0;
#X connect 38 1 24 0;
#X connect 38 2 25 0;
#X connect 38 3 26 0;
#X restore 281 387 pd extras;
#N canvas 0 0 342 241 painting 0;
#N canvas 92 172 598 265 text 0;
#X msg 28 67 test;
#X msg 28 93 yahuu!;
#X obj 120 50 hsl 128 15 0 1 0 0 empty empty empty -2 -8 0 10 -262144
-1 -1 0 1;
#X floatatom 123 135 5 0 0 0 - - -;
#X obj 120 69 hsl 128 15 0 1 0 0 empty empty empty -2 -8 0 10 -262144
-1 -1 0 1;
#X floatatom 157 135 5 0 0 0 - - -;
#X obj 120 88 hsl 128 15 0 360 0 0 empty empty empty -2 -8 0 10 -262144
-1 -1 0 1;
#X floatatom 191 135 5 0 0 0 - - -;
#X msg 29 120 tes tes test;
#X obj 160 213 Text 0 0 0 0;
#X obj 261 50 hsl 128 15 0 255 0 0 empty empty empty -2 -8 0 10 -262144
-1 -1 0 1;
#X obj 226 113 int;
#X floatatom 226 135 5 0 0 0 - - -;
#X obj 261 69 hsl 128 15 0 255 0 0 empty empty empty -2 -8 0 10 -262144
-1 -1 0 1;
#X obj 261 113 int;
#X floatatom 261 135 5 0 0 0 - - -;
#X obj 261 88 hsl 128 15 0 255 0 0 empty empty empty -2 -8 0 10 -262144
-1 -1 0 1;
#X obj 296 113 int;
#X floatatom 296 135 5 0 0 0 - - -;
#X text 158 31 position;
#X text 307 32 color;
#X text 28 35 text;
#X msg 431 50 write Hola hola Caracola;
#X msg 441 69 write adeu adeu andreu;
#X msg 468 120 color 255 0 0;
#X msg 456 97 position 0.5 0.5 1;
#X obj 460 209 Text2;
#X connect 0 0 9 0;
#X connect 1 0 9 0;
#X connect 2 0 3 0;
#X connect 3 0 9 1;
#X connect 4 0 5 0;
#X connect 5 0 9 2;
#X connect 6 0 7 0;
#X connect 7 0 9 3;
#X connect 8 0 9 0;
#X connect 10 0 11 0;
#X connect 11 0 12 0;
#X connect 12 0 9 4;
#X connect 13 0 14 0;
#X connect 14 0 15 0;
#X connect 15 0 9 5;
#X connect 16 0 17 0;
#X connect 17 0 18 0;
#X connect 18 0 9 6;
#X connect 22 0 26 0;
#X connect 23 0 26 0;
#X connect 24 0 26 0;
#X connect 25 0 26 0;
#X restore 124 68 pd text;
#N canvas 42 81 866 401 polygons 0;
#X msg 414 92 addvertex -0.1 -0.1;
#X msg 425 115 addvertex -0.1 0.1;
#X msg 438 135 addvertex 0.1 0.1;
#X msg 447 155 addvertex 0.1 -0.1;
#X msg 595 73 color 255 0 0;
#X msg 605 98 clearvertex;
#X msg 613 120 texture texturepathexample.png;
#X obj 434 236 tgl 15 0 empty empty empty 17 7 0 10 -262144 -1 -1 0
1;
#X obj 434 214 route onFinger coordFinger;
#X obj 510 239 unpack f f f;
#X floatatom 510 282 5 0 0 0 - - -;
#X floatatom 548 282 5 0 0 0 - - -;
#X floatatom 584 282 5 0 0 0 - - -;
#X obj 607 236 tgl 15 0 empty empty empty 17 7 0 10 -262144 -1 -1 0
1;
#X obj 683 239 unpack f f f;
#X floatatom 683 282 5 0 0 0 - - -;
#X floatatom 721 282 5 0 0 0 - - -;
#X floatatom 757 282 5 0 0 0 - - -;
#X obj 607 214 route onObject coordObject;
#X msg 583 50 position 0.5 0.5 1;
#X obj 583 180 Polygon2;
#X text 428 62 constructing;
#X msg 22 71 -0.1 -0.1;
#X msg 21 98 -0.1 0.1;
#X msg 20 122 0.1 0.1;
#X msg 20 145 0.1 -0.1;
#X obj 334 134 bng 15 250 50 0 empty empty empty 17 7 0 10 -262144
-1 -1;
#X msg 327 184 exemple.jpg;
#X msg 326 209 none;
#X floatatom 112 290 5 0 0 0 - - -;
#X floatatom 156 290 5 0 0 0 - - -;
#X floatatom 199 290 5 0 0 0 - - -;
#X obj 70 291 tgl 15 0 empty empty empty 17 7 0 10 -262144 -1 -1 0
1;
#X obj 125 234 Polygon 0 0 0 0 0 0 0;
#X obj 264 291 tgl 15 0 empty empty empty 17 7 0 10 -262144 -1 -1 0
1;
#X floatatom 304 291 5 0 0 0 - - -;
#X floatatom 341 291 5 0 0 0 - - -;
#X floatatom 381 291 5 0 0 0 - - -;
#X obj 101 72 hsl 128 15 0 1 0 0 empty empty empty -2 -8 0 10 -262144
-1 -1 0 1;
#X floatatom 104 157 5 0 0 0 - - -;
#X obj 101 91 hsl 128 15 0 1 0 0 empty empty empty -2 -8 0 10 -262144
-1 -1 0 1;
#X floatatom 138 157 5 0 0 0 - - -;
#X obj 101 110 hsl 128 15 0 360 0 0 empty empty empty -2 -8 0 10 -262144
-1 -1 0 1;
#X floatatom 172 157 5 0 0 0 - - -;
#X obj 242 72 hsl 128 15 0 255 0 0 empty empty empty -2 -8 0 10 -262144
-1 -1 0 1;
#X obj 207 135 int;
#X floatatom 207 157 5 0 0 0 - - -;
#X obj 242 91 hsl 128 15 0 255 0 0 empty empty empty -2 -8 0 10 -262144
-1 -1 0 1;
#X obj 242 135 int;
#X floatatom 242 157 5 0 0 0 - - -;
#X obj 242 110 hsl 128 15 0 255 0 0 empty empty empty -2 -8 0 10 -262144
-1 -1 0 1;
#X obj 277 135 int;
#X floatatom 277 157 5 0 0 0 - - -;
#X text 139 53 position;
#X text 288 54 color;
#X text 22 45 constructing;
#X text 361 138 clear;
#X text 334 164 textures;
#X text 119 321 finger collisions;
#X text 297 316 object collisions;
#X text 488 314 finger collisions;
#X text 666 309 object collisions;
#X connect 0 0 20 0;
#X connect 1 0 20 0;
#X connect 2 0 20 0;
#X connect 3 0 20 0;
#X connect 4 0 20 0;
#X connect 5 0 20 0;
#X connect 6 0 20 0;
#X connect 8 0 7 0;
#X connect 8 1 9 0;
#X connect 8 2 18 0;
#X connect 9 0 10 0;
#X connect 9 1 11 0;
#X connect 9 2 12 0;
#X connect 14 0 15 0;
#X connect 14 1 16 0;
#X connect 14 2 17 0;
#X connect 18 0 13 0;
#X connect 18 1 14 0;
#X connect 19 0 20 0;
#X connect 20 0 8 0;
#X connect 22 0 33 0;
#X connect 23 0 33 0;
#X connect 24 0 33 0;
#X connect 25 0 33 0;
#X connect 26 0 33 7;
#X connect 27 0 33 8;
#X connect 28 0 33 8;
#X connect 30 0 33 1;
#X connect 31 0 33 2;
#X connect 33 0 32 0;
#X connect 33 1 29 0;
#X connect 33 2 30 0;
#X connect 33 3 31 0;
#X connect 33 4 34 0;
#X connect 33 5 35 0;
#X connect 33 6 36 0;
#X connect 33 7 37 0;
#X connect 38 0 39 0;
#X connect 39 0 33 1;
#X connect 40 0 41 0;
#X connect 41 0 33 2;
#X connect 42 0 43 0;
#X connect 43 0 33 3;
#X connect 44 0 45 0;
#X connect 45 0 46 0;
#X connect 46 0 33 4;
#X connect 47 0 48 0;
#X connect 48 0 49 0;
#X connect 49 0 33 5;
#X connect 50 0 51 0;
#X connect 51 0 52 0;
#X connect 52 0 33 6;
#X restore 125 98 pd polygons;
#N canvas 0 0 721 322 circles 0;
#X msg 66 125 0.5;
#X msg 31 125 0.01;
#X obj 27 14 tgl 15 0 empty empty empty 17 7 0 10 -262144 -1 -1 0 1
;
#X obj 31 96 t b b;
#X obj 30 47 route 1 0;
#X obj 31 160 Ccircle 0 0 0 0 0 0 0;
#X obj 373 143 Circle2;
#X msg 293 57 radius 0.1;
#X msg 324 78 radius 0.01;
#X msg 405 48 color 255 0 0;
#X msg 415 73 clearvertex;
#X msg 393 25 position 0.5 0.5 1;
#X msg 423 95 texture exemple.jpg;
#X obj 312 224 tgl 15 0 empty empty empty 17 7 0 10 -262144 -1 -1 0
1;
#X obj 312 202 route onFinger coordFinger;
#X obj 388 227 unpack f f f;
#X floatatom 388 270 5 0 0 0 - - -;
#X floatatom 426 270 5 0 0 0 - - -;
#X floatatom 462 270 5 0 0 0 - - -;
#X obj 485 224 tgl 15 0 empty empty empty 17 7 0 10 -262144 -1 -1 0
1;
#X obj 561 227 unpack f f f;
#X floatatom 561 270 5 0 0 0 - - -;
#X floatatom 599 270 5 0 0 0 - - -;
#X floatatom 635 270 5 0 0 0 - - -;
#X obj 485 202 route onObject coordObject;
#X connect 0 0 5 2;
#X connect 1 0 5 1;
#X connect 2 0 4 0;
#X connect 3 0 1 0;
#X connect 3 1 0 0;
#X connect 4 0 3 0;
#X connect 4 1 5 0;
#X connect 6 0 14 0;
#X connect 6 0 24 0;
#X connect 7 0 6 0;
#X connect 8 0 6 0;
#X connect 9 0 6 0;
#X connect 10 0 6 0;
#X connect 11 0 6 0;
#X connect 12 0 6 0;
#X connect 14 0 13 0;
#X connect 14 1 15 0;
#X connect 15 0 16 0;
#X connect 15 1 17 0;
#X connect 15 2 18 0;
#X connect 20 0 21 0;
#X connect 20 1 22 0;
#X connect 20 2 23 0;
#X connect 24 0 19 0;
#X connect 24 1 20 0;
#X restore 127 131 pd circles;
#X restore 19 433 pd painting and virtual objects;
#X obj 15 37 bng 15 250 50 0 empty empty empty 17 7 0 10 -262144 -1
-1;
#X connect 0 0 1 0;
#X connect 3 0 2 0;
#X connect 4 0 28 1;
#X connect 5 0 8 0;
#X connect 5 0 28 0;
#X connect 5 0 29 0;
#X connect 6 0 19 0;
#X connect 8 0 9 0;
#X connect 9 0 27 0;
#X connect 10 0 9 1;
#X connect 11 0 9 2;
#X connect 14 0 30 0;
#X connect 15 0 14 1;
#X connect 16 0 14 2;
#X connect 17 0 18 0;
#X connect 18 0 4 0;
#X connect 19 0 18 0;
#X connect 19 1 18 1;
#X connect 20 0 15 0;
#X connect 21 0 16 0;
#X connect 25 1 20 0;
#X connect 26 1 21 0;
#X connect 27 0 7 0;
#X connect 27 0 7 1;
#X connect 28 0 12 0;
#X connect 28 0 12 1;
#X connect 29 0 14 0;
#X connect 30 0 13 0;
#X connect 30 0 13 1;
#X connect 31 0 6 0;
#X connect 32 4 10 0;
#X connect 32 5 11 0;
#X connect 33 0 17 0;
#X connect 35 0 36 0;
#X connect 36 0 61 0;
#X connect 36 0 62 0;
#X connect 37 0 41 0;
#X connect 38 0 37 0;
#X connect 39 0 38 0;
#X connect 46 0 69 0;
#X connect 59 0 40 0;
#X connect 60 0 40 0;
#X connect 61 0 59 0;
#X connect 62 0 60 0;
#X connect 69 0 43 0;
#X connect 69 1 44 0;
#X connect 69 2 45 0;
#X connect 73 0 58 0;
#X connect 73 1 47 0;
#X connect 73 2 48 0;
#X connect 73 3 49 0;
#X connect 73 4 55 0;
#X connect 73 5 57 0;
#X connect 74 0 73 1;
#X connect 77 0 2 0;
