#N canvas 714 188 329 531 10;
#X obj 234 37 loadbang;
#X msg 234 58 \; pd dsp 1;
#X obj 34 59 s initparameters;
#X obj 34 37 basicTangibleTabletop localhost;
#X text 17 470 Musical Tabletop Coding Framework PD Client;
#X text 16 485 (C) Carles F. Julia carles.fernandez@upf.edu;
#X text 17 500 This software is released under the MIT license;
#N canvas 0 0 353 423 runningbutton 0;
#N canvas 1017 95 701 612 button 0;
#X obj 144 234 Circle2;
#X msg 212 166 color 255 0 0;
#X msg 222 191 clearvertex;
#X msg 200 143 position 0.5 0.5 1;
#X obj 83 315 tgl 15 0 empty empty empty 17 7 0 10 -262144 -1 -1 0
1;
#X obj 83 293 route onFinger coordFinger;
#X obj 159 318 unpack f f f;
#X floatatom 159 361 5 0 0 0 - - -;
#X floatatom 197 361 5 0 0 0 - - -;
#X floatatom 233 361 5 0 0 0 - - -;
#X obj 256 315 tgl 15 0 empty empty empty 17 7 0 10 -262144 -1 -1 0
1;
#X obj 332 318 unpack f f f;
#X floatatom 332 361 5 0 0 0 - - -;
#X floatatom 370 361 5 0 0 0 - - -;
#X floatatom 406 361 5 0 0 0 - - -;
#X obj 256 293 route onObject coordObject;
#X msg 95 169 radius 0.05;
#X obj 151 418 change;
#X obj 156 474 bng 15 250 50 0 empty empty empty 17 7 0 10 -262144
-1 -1;
#X obj 134 71 route init;
#X obj 134 49 inlet;
#X obj 133 98 t b b b b b;
#X obj 184 518 outlet;
#X msg 306 164 color 255 255 255;
#X obj 153 446 sel 0 1;
#X connect 0 0 5 0;
#X connect 0 0 15 0;
#X connect 1 0 0 0;
#X connect 2 0 0 0;
#X connect 3 0 0 0;
#X connect 4 0 17 0;
#X connect 5 0 4 0;
#X connect 5 1 6 0;
#X connect 6 0 7 0;
#X connect 6 1 8 0;
#X connect 6 2 9 0;
#X connect 11 0 12 0;
#X connect 11 1 13 0;
#X connect 11 2 14 0;
#X connect 15 0 10 0;
#X connect 15 1 11 0;
#X connect 16 0 0 0;
#X connect 17 0 24 0;
#X connect 18 0 22 0;
#X connect 19 0 21 0;
#X connect 19 1 0 0;
#X connect 20 0 19 0;
#X connect 21 1 16 0;
#X connect 21 2 3 0;
#X connect 21 3 1 0;
#X connect 21 4 2 0;
#X connect 23 0 0 0;
#X connect 24 0 18 0;
#X connect 24 0 1 0;
#X connect 24 1 23 0;
#X restore 66 116 pd button;
#X msg 184 82 init;
#X obj 66 146 bng 15 250 50 0 empty empty empty 17 7 0 10 -262144 -1
-1;
#X obj 48 26 r initparameters;
#X obj 67 199 random 100;
#X obj 67 225 / 100;
#X obj 138 199 random 100;
#X obj 138 225 / 100;
#X obj 67 301 pack f f;
#X obj 67 172 t b b;
#X msg 184 59 position \$1 \$2;
#X obj 67 276 line;
#X msg 67 251 \$1 1000;
#X obj 137 276 line;
#X msg 137 251 \$1 1000;
#X obj 72 345 list;
#X obj 201 300 metro 25;
#X obj 50 54 t b b b;
#X msg 201 275 1;
#X connect 0 0 2 0;
#X connect 1 0 0 0;
#X connect 2 0 9 0;
#X connect 3 0 17 0;
#X connect 4 0 5 0;
#X connect 5 0 12 0;
#X connect 6 0 7 0;
#X connect 7 0 14 0;
#X connect 8 0 15 1;
#X connect 9 0 4 0;
#X connect 9 1 6 0;
#X connect 10 0 0 0;
#X connect 11 0 8 0;
#X connect 12 0 11 0;
#X connect 13 0 8 1;
#X connect 14 0 13 0;
#X connect 15 0 10 0;
#X connect 16 0 15 0;
#X connect 17 0 2 0;
#X connect 17 1 1 0;
#X connect 17 2 18 0;
#X connect 18 0 16 0;
#X restore 78 93 pd runningbutton;
#X obj 11 36 bng 15 250 50 0 empty empty empty 17 7 0 10 -262144 -1
-1;
#N canvas 0 0 353 423 runningbutton 0;
#N canvas 1017 95 701 612 button 0;
#X obj 144 234 Circle2;
#X msg 212 166 color 255 0 0;
#X msg 222 191 clearvertex;
#X msg 200 143 position 0.5 0.5 1;
#X obj 83 315 tgl 15 0 empty empty empty 17 7 0 10 -262144 -1 -1 0
1;
#X obj 83 293 route onFinger coordFinger;
#X obj 159 318 unpack f f f;
#X floatatom 159 361 5 0 0 0 - - -;
#X floatatom 197 361 5 0 0 0 - - -;
#X floatatom 233 361 5 0 0 0 - - -;
#X obj 256 315 tgl 15 0 empty empty empty 17 7 0 10 -262144 -1 -1 0
1;
#X obj 332 318 unpack f f f;
#X floatatom 332 361 5 0 0 0 - - -;
#X floatatom 370 361 5 0 0 0 - - -;
#X floatatom 406 361 5 0 0 0 - - -;
#X obj 256 293 route onObject coordObject;
#X msg 95 169 radius 0.05;
#X obj 151 418 change;
#X obj 156 474 bng 15 250 50 0 empty empty empty 17 7 0 10 -262144
-1 -1;
#X obj 134 71 route init;
#X obj 134 49 inlet;
#X obj 133 98 t b b b b b;
#X obj 184 518 outlet;
#X msg 306 164 color 255 255 255;
#X obj 153 446 sel 0 1;
#X connect 0 0 5 0;
#X connect 0 0 15 0;
#X connect 1 0 0 0;
#X connect 2 0 0 0;
#X connect 3 0 0 0;
#X connect 4 0 17 0;
#X connect 5 0 4 0;
#X connect 5 1 6 0;
#X connect 6 0 7 0;
#X connect 6 1 8 0;
#X connect 6 2 9 0;
#X connect 11 0 12 0;
#X connect 11 1 13 0;
#X connect 11 2 14 0;
#X connect 15 0 10 0;
#X connect 15 1 11 0;
#X connect 16 0 0 0;
#X connect 17 0 24 0;
#X connect 18 0 22 0;
#X connect 19 0 21 0;
#X connect 19 1 0 0;
#X connect 20 0 19 0;
#X connect 21 1 16 0;
#X connect 21 2 3 0;
#X connect 21 3 1 0;
#X connect 21 4 2 0;
#X connect 23 0 0 0;
#X connect 24 0 18 0;
#X connect 24 0 1 0;
#X connect 24 1 23 0;
#X restore 66 116 pd button;
#X msg 184 82 init;
#X obj 66 146 bng 15 250 50 0 empty empty empty 17 7 0 10 -262144 -1
-1;
#X obj 48 26 r initparameters;
#X obj 67 199 random 100;
#X obj 67 225 / 100;
#X obj 138 199 random 100;
#X obj 138 225 / 100;
#X obj 67 301 pack f f;
#X obj 67 172 t b b;
#X msg 184 59 position \$1 \$2;
#X obj 67 276 line;
#X msg 67 251 \$1 1000;
#X obj 137 276 line;
#X msg 137 251 \$1 1000;
#X obj 72 345 list;
#X obj 201 300 metro 25;
#X obj 50 54 t b b b;
#X msg 201 275 1;
#X connect 0 0 2 0;
#X connect 1 0 0 0;
#X connect 2 0 9 0;
#X connect 3 0 17 0;
#X connect 4 0 5 0;
#X connect 5 0 12 0;
#X connect 6 0 7 0;
#X connect 7 0 14 0;
#X connect 8 0 15 1;
#X connect 9 0 4 0;
#X connect 9 1 6 0;
#X connect 10 0 0 0;
#X connect 11 0 8 0;
#X connect 12 0 11 0;
#X connect 13 0 8 1;
#X connect 14 0 13 0;
#X connect 15 0 10 0;
#X connect 16 0 15 0;
#X connect 17 0 2 0;
#X connect 17 1 1 0;
#X connect 17 2 18 0;
#X connect 18 0 16 0;
#X restore 78 116 pd runningbutton;
#N canvas 0 0 353 423 runningbutton 0;
#N canvas 1017 95 701 612 button 0;
#X obj 144 234 Circle2;
#X msg 212 166 color 255 0 0;
#X msg 222 191 clearvertex;
#X msg 200 143 position 0.5 0.5 1;
#X obj 83 315 tgl 15 0 empty empty empty 17 7 0 10 -262144 -1 -1 0
1;
#X obj 83 293 route onFinger coordFinger;
#X obj 159 318 unpack f f f;
#X floatatom 159 361 5 0 0 0 - - -;
#X floatatom 197 361 5 0 0 0 - - -;
#X floatatom 233 361 5 0 0 0 - - -;
#X obj 256 315 tgl 15 0 empty empty empty 17 7 0 10 -262144 -1 -1 0
1;
#X obj 332 318 unpack f f f;
#X floatatom 332 361 5 0 0 0 - - -;
#X floatatom 370 361 5 0 0 0 - - -;
#X floatatom 406 361 5 0 0 0 - - -;
#X obj 256 293 route onObject coordObject;
#X msg 95 169 radius 0.05;
#X obj 151 418 change;
#X obj 156 474 bng 15 250 50 0 empty empty empty 17 7 0 10 -262144
-1 -1;
#X obj 134 71 route init;
#X obj 134 49 inlet;
#X obj 133 98 t b b b b b;
#X obj 184 518 outlet;
#X msg 306 164 color 255 255 255;
#X obj 153 446 sel 0 1;
#X connect 0 0 5 0;
#X connect 0 0 15 0;
#X connect 1 0 0 0;
#X connect 2 0 0 0;
#X connect 3 0 0 0;
#X connect 4 0 17 0;
#X connect 5 0 4 0;
#X connect 5 1 6 0;
#X connect 6 0 7 0;
#X connect 6 1 8 0;
#X connect 6 2 9 0;
#X connect 11 0 12 0;
#X connect 11 1 13 0;
#X connect 11 2 14 0;
#X connect 15 0 10 0;
#X connect 15 1 11 0;
#X connect 16 0 0 0;
#X connect 17 0 24 0;
#X connect 18 0 22 0;
#X connect 19 0 21 0;
#X connect 19 1 0 0;
#X connect 20 0 19 0;
#X connect 21 1 16 0;
#X connect 21 2 3 0;
#X connect 21 3 1 0;
#X connect 21 4 2 0;
#X connect 23 0 0 0;
#X connect 24 0 18 0;
#X connect 24 0 1 0;
#X connect 24 1 23 0;
#X restore 66 116 pd button;
#X msg 184 82 init;
#X obj 66 146 bng 15 250 50 0 empty empty empty 17 7 0 10 -262144 -1
-1;
#X obj 48 26 r initparameters;
#X obj 67 199 random 100;
#X obj 67 225 / 100;
#X obj 138 199 random 100;
#X obj 138 225 / 100;
#X obj 67 301 pack f f;
#X obj 67 172 t b b;
#X msg 184 59 position \$1 \$2;
#X obj 67 276 line;
#X msg 67 251 \$1 1000;
#X obj 137 276 line;
#X msg 137 251 \$1 1000;
#X obj 72 345 list;
#X obj 201 300 metro 25;
#X obj 50 54 t b b b;
#X msg 201 275 1;
#X connect 0 0 2 0;
#X connect 1 0 0 0;
#X connect 2 0 9 0;
#X connect 3 0 17 0;
#X connect 4 0 5 0;
#X connect 5 0 12 0;
#X connect 6 0 7 0;
#X connect 7 0 14 0;
#X connect 8 0 15 1;
#X connect 9 0 4 0;
#X connect 9 1 6 0;
#X connect 10 0 0 0;
#X connect 11 0 8 0;
#X connect 12 0 11 0;
#X connect 13 0 8 1;
#X connect 14 0 13 0;
#X connect 15 0 10 0;
#X connect 16 0 15 0;
#X connect 17 0 2 0;
#X connect 17 1 1 0;
#X connect 17 2 18 0;
#X connect 18 0 16 0;
#X restore 78 139 pd runningbutton;
#N canvas 0 0 353 423 runningbutton 0;
#N canvas 1017 95 701 612 button 0;
#X obj 144 234 Circle2;
#X msg 212 166 color 255 0 0;
#X msg 222 191 clearvertex;
#X msg 200 143 position 0.5 0.5 1;
#X obj 83 315 tgl 15 0 empty empty empty 17 7 0 10 -262144 -1 -1 0
1;
#X obj 83 293 route onFinger coordFinger;
#X obj 159 318 unpack f f f;
#X floatatom 159 361 5 0 0 0 - - -;
#X floatatom 197 361 5 0 0 0 - - -;
#X floatatom 233 361 5 0 0 0 - - -;
#X obj 256 315 tgl 15 0 empty empty empty 17 7 0 10 -262144 -1 -1 0
1;
#X obj 332 318 unpack f f f;
#X floatatom 332 361 5 0 0 0 - - -;
#X floatatom 370 361 5 0 0 0 - - -;
#X floatatom 406 361 5 0 0 0 - - -;
#X obj 256 293 route onObject coordObject;
#X msg 95 169 radius 0.05;
#X obj 151 418 change;
#X obj 156 474 bng 15 250 50 0 empty empty empty 17 7 0 10 -262144
-1 -1;
#X obj 134 71 route init;
#X obj 134 49 inlet;
#X obj 133 98 t b b b b b;
#X obj 184 518 outlet;
#X msg 306 164 color 255 255 255;
#X obj 153 446 sel 0 1;
#X connect 0 0 5 0;
#X connect 0 0 15 0;
#X connect 1 0 0 0;
#X connect 2 0 0 0;
#X connect 3 0 0 0;
#X connect 4 0 17 0;
#X connect 5 0 4 0;
#X connect 5 1 6 0;
#X connect 6 0 7 0;
#X connect 6 1 8 0;
#X connect 6 2 9 0;
#X connect 11 0 12 0;
#X connect 11 1 13 0;
#X connect 11 2 14 0;
#X connect 15 0 10 0;
#X connect 15 1 11 0;
#X connect 16 0 0 0;
#X connect 17 0 24 0;
#X connect 18 0 22 0;
#X connect 19 0 21 0;
#X connect 19 1 0 0;
#X connect 20 0 19 0;
#X connect 21 1 16 0;
#X connect 21 2 3 0;
#X connect 21 3 1 0;
#X connect 21 4 2 0;
#X connect 23 0 0 0;
#X connect 24 0 18 0;
#X connect 24 0 1 0;
#X connect 24 1 23 0;
#X restore 66 116 pd button;
#X msg 184 82 init;
#X obj 66 146 bng 15 250 50 0 empty empty empty 17 7 0 10 -262144 -1
-1;
#X obj 48 26 r initparameters;
#X obj 67 199 random 100;
#X obj 67 225 / 100;
#X obj 138 199 random 100;
#X obj 138 225 / 100;
#X obj 67 301 pack f f;
#X obj 67 172 t b b;
#X msg 184 59 position \$1 \$2;
#X obj 67 276 line;
#X msg 67 251 \$1 1000;
#X obj 137 276 line;
#X msg 137 251 \$1 1000;
#X obj 72 345 list;
#X obj 201 300 metro 25;
#X obj 50 54 t b b b;
#X msg 201 275 1;
#X connect 0 0 2 0;
#X connect 1 0 0 0;
#X connect 2 0 9 0;
#X connect 3 0 17 0;
#X connect 4 0 5 0;
#X connect 5 0 12 0;
#X connect 6 0 7 0;
#X connect 7 0 14 0;
#X connect 8 0 15 1;
#X connect 9 0 4 0;
#X connect 9 1 6 0;
#X connect 10 0 0 0;
#X connect 11 0 8 0;
#X connect 12 0 11 0;
#X connect 13 0 8 1;
#X connect 14 0 13 0;
#X connect 15 0 10 0;
#X connect 16 0 15 0;
#X connect 17 0 2 0;
#X connect 17 1 1 0;
#X connect 17 2 18 0;
#X connect 18 0 16 0;
#X restore 78 162 pd runningbutton;
#N canvas 0 0 353 423 runningbutton 0;
#N canvas 1017 95 701 612 button 0;
#X obj 144 234 Circle2;
#X msg 212 166 color 255 0 0;
#X msg 222 191 clearvertex;
#X msg 200 143 position 0.5 0.5 1;
#X obj 83 315 tgl 15 0 empty empty empty 17 7 0 10 -262144 -1 -1 0
1;
#X obj 83 293 route onFinger coordFinger;
#X obj 159 318 unpack f f f;
#X floatatom 159 361 5 0 0 0 - - -;
#X floatatom 197 361 5 0 0 0 - - -;
#X floatatom 233 361 5 0 0 0 - - -;
#X obj 256 315 tgl 15 0 empty empty empty 17 7 0 10 -262144 -1 -1 0
1;
#X obj 332 318 unpack f f f;
#X floatatom 332 361 5 0 0 0 - - -;
#X floatatom 370 361 5 0 0 0 - - -;
#X floatatom 406 361 5 0 0 0 - - -;
#X obj 256 293 route onObject coordObject;
#X msg 95 169 radius 0.05;
#X obj 151 418 change;
#X obj 156 474 bng 15 250 50 0 empty empty empty 17 7 0 10 -262144
-1 -1;
#X obj 134 71 route init;
#X obj 134 49 inlet;
#X obj 133 98 t b b b b b;
#X obj 184 518 outlet;
#X msg 306 164 color 255 255 255;
#X obj 153 446 sel 0 1;
#X connect 0 0 5 0;
#X connect 0 0 15 0;
#X connect 1 0 0 0;
#X connect 2 0 0 0;
#X connect 3 0 0 0;
#X connect 4 0 17 0;
#X connect 5 0 4 0;
#X connect 5 1 6 0;
#X connect 6 0 7 0;
#X connect 6 1 8 0;
#X connect 6 2 9 0;
#X connect 11 0 12 0;
#X connect 11 1 13 0;
#X connect 11 2 14 0;
#X connect 15 0 10 0;
#X connect 15 1 11 0;
#X connect 16 0 0 0;
#X connect 17 0 24 0;
#X connect 18 0 22 0;
#X connect 19 0 21 0;
#X connect 19 1 0 0;
#X connect 20 0 19 0;
#X connect 21 1 16 0;
#X connect 21 2 3 0;
#X connect 21 3 1 0;
#X connect 21 4 2 0;
#X connect 23 0 0 0;
#X connect 24 0 18 0;
#X connect 24 0 1 0;
#X connect 24 1 23 0;
#X restore 66 116 pd button;
#X msg 184 82 init;
#X obj 66 146 bng 15 250 50 0 empty empty empty 17 7 0 10 -262144 -1
-1;
#X obj 48 26 r initparameters;
#X obj 67 199 random 100;
#X obj 67 225 / 100;
#X obj 138 199 random 100;
#X obj 138 225 / 100;
#X obj 67 301 pack f f;
#X obj 67 172 t b b;
#X msg 184 59 position \$1 \$2;
#X obj 67 276 line;
#X msg 67 251 \$1 1000;
#X obj 137 276 line;
#X msg 137 251 \$1 1000;
#X obj 72 345 list;
#X obj 201 300 metro 25;
#X obj 50 54 t b b b;
#X msg 201 275 1;
#X connect 0 0 2 0;
#X connect 1 0 0 0;
#X connect 2 0 9 0;
#X connect 3 0 17 0;
#X connect 4 0 5 0;
#X connect 5 0 12 0;
#X connect 6 0 7 0;
#X connect 7 0 14 0;
#X connect 8 0 15 1;
#X connect 9 0 4 0;
#X connect 9 1 6 0;
#X connect 10 0 0 0;
#X connect 11 0 8 0;
#X connect 12 0 11 0;
#X connect 13 0 8 1;
#X connect 14 0 13 0;
#X connect 15 0 10 0;
#X connect 16 0 15 0;
#X connect 17 0 2 0;
#X connect 17 1 1 0;
#X connect 17 2 18 0;
#X connect 18 0 16 0;
#X restore 79 184 pd runningbutton;
#N canvas 0 0 353 423 runningbutton 0;
#N canvas 1017 95 701 612 button 0;
#X obj 144 234 Circle2;
#X msg 212 166 color 255 0 0;
#X msg 222 191 clearvertex;
#X msg 200 143 position 0.5 0.5 1;
#X obj 83 315 tgl 15 0 empty empty empty 17 7 0 10 -262144 -1 -1 0
1;
#X obj 83 293 route onFinger coordFinger;
#X obj 159 318 unpack f f f;
#X floatatom 159 361 5 0 0 0 - - -;
#X floatatom 197 361 5 0 0 0 - - -;
#X floatatom 233 361 5 0 0 0 - - -;
#X obj 256 315 tgl 15 0 empty empty empty 17 7 0 10 -262144 -1 -1 0
1;
#X obj 332 318 unpack f f f;
#X floatatom 332 361 5 0 0 0 - - -;
#X floatatom 370 361 5 0 0 0 - - -;
#X floatatom 406 361 5 0 0 0 - - -;
#X obj 256 293 route onObject coordObject;
#X msg 95 169 radius 0.05;
#X obj 151 418 change;
#X obj 156 474 bng 15 250 50 0 empty empty empty 17 7 0 10 -262144
-1 -1;
#X obj 134 71 route init;
#X obj 134 49 inlet;
#X obj 133 98 t b b b b b;
#X obj 184 518 outlet;
#X msg 306 164 color 255 255 255;
#X obj 153 446 sel 0 1;
#X connect 0 0 5 0;
#X connect 0 0 15 0;
#X connect 1 0 0 0;
#X connect 2 0 0 0;
#X connect 3 0 0 0;
#X connect 4 0 17 0;
#X connect 5 0 4 0;
#X connect 5 1 6 0;
#X connect 6 0 7 0;
#X connect 6 1 8 0;
#X connect 6 2 9 0;
#X connect 11 0 12 0;
#X connect 11 1 13 0;
#X connect 11 2 14 0;
#X connect 15 0 10 0;
#X connect 15 1 11 0;
#X connect 16 0 0 0;
#X connect 17 0 24 0;
#X connect 18 0 22 0;
#X connect 19 0 21 0;
#X connect 19 1 0 0;
#X connect 20 0 19 0;
#X connect 21 1 16 0;
#X connect 21 2 3 0;
#X connect 21 3 1 0;
#X connect 21 4 2 0;
#X connect 23 0 0 0;
#X connect 24 0 18 0;
#X connect 24 0 1 0;
#X connect 24 1 23 0;
#X restore 66 116 pd button;
#X msg 184 82 init;
#X obj 66 146 bng 15 250 50 0 empty empty empty 17 7 0 10 -262144 -1
-1;
#X obj 48 26 r initparameters;
#X obj 67 199 random 100;
#X obj 67 225 / 100;
#X obj 138 199 random 100;
#X obj 138 225 / 100;
#X obj 67 301 pack f f;
#X obj 67 172 t b b;
#X msg 184 59 position \$1 \$2;
#X obj 67 276 line;
#X msg 67 251 \$1 1000;
#X obj 137 276 line;
#X msg 137 251 \$1 1000;
#X obj 72 345 list;
#X obj 201 300 metro 25;
#X obj 50 54 t b b b;
#X msg 201 275 1;
#X connect 0 0 2 0;
#X connect 1 0 0 0;
#X connect 2 0 9 0;
#X connect 3 0 17 0;
#X connect 4 0 5 0;
#X connect 5 0 12 0;
#X connect 6 0 7 0;
#X connect 7 0 14 0;
#X connect 8 0 15 1;
#X connect 9 0 4 0;
#X connect 9 1 6 0;
#X connect 10 0 0 0;
#X connect 11 0 8 0;
#X connect 12 0 11 0;
#X connect 13 0 8 1;
#X connect 14 0 13 0;
#X connect 15 0 10 0;
#X connect 16 0 15 0;
#X connect 17 0 2 0;
#X connect 17 1 1 0;
#X connect 17 2 18 0;
#X connect 18 0 16 0;
#X restore 79 207 pd runningbutton;
#N canvas 0 0 353 423 runningbutton 0;
#N canvas 1017 95 701 612 button 0;
#X obj 144 234 Circle2;
#X msg 212 166 color 255 0 0;
#X msg 222 191 clearvertex;
#X msg 200 143 position 0.5 0.5 1;
#X obj 83 315 tgl 15 0 empty empty empty 17 7 0 10 -262144 -1 -1 0
1;
#X obj 83 293 route onFinger coordFinger;
#X obj 159 318 unpack f f f;
#X floatatom 159 361 5 0 0 0 - - -;
#X floatatom 197 361 5 0 0 0 - - -;
#X floatatom 233 361 5 0 0 0 - - -;
#X obj 256 315 tgl 15 0 empty empty empty 17 7 0 10 -262144 -1 -1 0
1;
#X obj 332 318 unpack f f f;
#X floatatom 332 361 5 0 0 0 - - -;
#X floatatom 370 361 5 0 0 0 - - -;
#X floatatom 406 361 5 0 0 0 - - -;
#X obj 256 293 route onObject coordObject;
#X msg 95 169 radius 0.05;
#X obj 151 418 change;
#X obj 156 474 bng 15 250 50 0 empty empty empty 17 7 0 10 -262144
-1 -1;
#X obj 134 71 route init;
#X obj 134 49 inlet;
#X obj 133 98 t b b b b b;
#X obj 184 518 outlet;
#X msg 306 164 color 255 255 255;
#X obj 153 446 sel 0 1;
#X connect 0 0 5 0;
#X connect 0 0 15 0;
#X connect 1 0 0 0;
#X connect 2 0 0 0;
#X connect 3 0 0 0;
#X connect 4 0 17 0;
#X connect 5 0 4 0;
#X connect 5 1 6 0;
#X connect 6 0 7 0;
#X connect 6 1 8 0;
#X connect 6 2 9 0;
#X connect 11 0 12 0;
#X connect 11 1 13 0;
#X connect 11 2 14 0;
#X connect 15 0 10 0;
#X connect 15 1 11 0;
#X connect 16 0 0 0;
#X connect 17 0 24 0;
#X connect 18 0 22 0;
#X connect 19 0 21 0;
#X connect 19 1 0 0;
#X connect 20 0 19 0;
#X connect 21 1 16 0;
#X connect 21 2 3 0;
#X connect 21 3 1 0;
#X connect 21 4 2 0;
#X connect 23 0 0 0;
#X connect 24 0 18 0;
#X connect 24 0 1 0;
#X connect 24 1 23 0;
#X restore 66 116 pd button;
#X msg 184 82 init;
#X obj 66 146 bng 15 250 50 0 empty empty empty 17 7 0 10 -262144 -1
-1;
#X obj 48 26 r initparameters;
#X obj 67 199 random 100;
#X obj 67 225 / 100;
#X obj 138 199 random 100;
#X obj 138 225 / 100;
#X obj 67 301 pack f f;
#X obj 67 172 t b b;
#X msg 184 59 position \$1 \$2;
#X obj 67 276 line;
#X msg 67 251 \$1 1000;
#X obj 137 276 line;
#X msg 137 251 \$1 1000;
#X obj 72 345 list;
#X obj 201 300 metro 25;
#X obj 50 54 t b b b;
#X msg 201 275 1;
#X connect 0 0 2 0;
#X connect 1 0 0 0;
#X connect 2 0 9 0;
#X connect 3 0 17 0;
#X connect 4 0 5 0;
#X connect 5 0 12 0;
#X connect 6 0 7 0;
#X connect 7 0 14 0;
#X connect 8 0 15 1;
#X connect 9 0 4 0;
#X connect 9 1 6 0;
#X connect 10 0 0 0;
#X connect 11 0 8 0;
#X connect 12 0 11 0;
#X connect 13 0 8 1;
#X connect 14 0 13 0;
#X connect 15 0 10 0;
#X connect 16 0 15 0;
#X connect 17 0 2 0;
#X connect 17 1 1 0;
#X connect 17 2 18 0;
#X connect 18 0 16 0;
#X restore 80 230 pd runningbutton;
#N canvas 0 0 353 423 runningbutton 0;
#N canvas 1017 95 701 612 button 0;
#X obj 144 234 Circle2;
#X msg 212 166 color 255 0 0;
#X msg 222 191 clearvertex;
#X msg 200 143 position 0.5 0.5 1;
#X obj 83 315 tgl 15 0 empty empty empty 17 7 0 10 -262144 -1 -1 0
1;
#X obj 83 293 route onFinger coordFinger;
#X obj 159 318 unpack f f f;
#X floatatom 159 361 5 0 0 0 - - -;
#X floatatom 197 361 5 0 0 0 - - -;
#X floatatom 233 361 5 0 0 0 - - -;
#X obj 256 315 tgl 15 0 empty empty empty 17 7 0 10 -262144 -1 -1 0
1;
#X obj 332 318 unpack f f f;
#X floatatom 332 361 5 0 0 0 - - -;
#X floatatom 370 361 5 0 0 0 - - -;
#X floatatom 406 361 5 0 0 0 - - -;
#X obj 256 293 route onObject coordObject;
#X msg 95 169 radius 0.05;
#X obj 151 418 change;
#X obj 156 474 bng 15 250 50 0 empty empty empty 17 7 0 10 -262144
-1 -1;
#X obj 134 71 route init;
#X obj 134 49 inlet;
#X obj 133 98 t b b b b b;
#X obj 184 518 outlet;
#X msg 306 164 color 255 255 255;
#X obj 153 446 sel 0 1;
#X connect 0 0 5 0;
#X connect 0 0 15 0;
#X connect 1 0 0 0;
#X connect 2 0 0 0;
#X connect 3 0 0 0;
#X connect 4 0 17 0;
#X connect 5 0 4 0;
#X connect 5 1 6 0;
#X connect 6 0 7 0;
#X connect 6 1 8 0;
#X connect 6 2 9 0;
#X connect 11 0 12 0;
#X connect 11 1 13 0;
#X connect 11 2 14 0;
#X connect 15 0 10 0;
#X connect 15 1 11 0;
#X connect 16 0 0 0;
#X connect 17 0 24 0;
#X connect 18 0 22 0;
#X connect 19 0 21 0;
#X connect 19 1 0 0;
#X connect 20 0 19 0;
#X connect 21 1 16 0;
#X connect 21 2 3 0;
#X connect 21 3 1 0;
#X connect 21 4 2 0;
#X connect 23 0 0 0;
#X connect 24 0 18 0;
#X connect 24 0 1 0;
#X connect 24 1 23 0;
#X restore 66 116 pd button;
#X msg 184 82 init;
#X obj 66 146 bng 15 250 50 0 empty empty empty 17 7 0 10 -262144 -1
-1;
#X obj 48 26 r initparameters;
#X obj 67 199 random 100;
#X obj 67 225 / 100;
#X obj 138 199 random 100;
#X obj 138 225 / 100;
#X obj 67 301 pack f f;
#X obj 67 172 t b b;
#X msg 184 59 position \$1 \$2;
#X obj 67 276 line;
#X msg 67 251 \$1 1000;
#X obj 137 276 line;
#X msg 137 251 \$1 1000;
#X obj 72 345 list;
#X obj 201 300 metro 25;
#X obj 50 54 t b b b;
#X msg 201 275 1;
#X connect 0 0 2 0;
#X connect 1 0 0 0;
#X connect 2 0 9 0;
#X connect 3 0 17 0;
#X connect 4 0 5 0;
#X connect 5 0 12 0;
#X connect 6 0 7 0;
#X connect 7 0 14 0;
#X connect 8 0 15 1;
#X connect 9 0 4 0;
#X connect 9 1 6 0;
#X connect 10 0 0 0;
#X connect 11 0 8 0;
#X connect 12 0 11 0;
#X connect 13 0 8 1;
#X connect 14 0 13 0;
#X connect 15 0 10 0;
#X connect 16 0 15 0;
#X connect 17 0 2 0;
#X connect 17 1 1 0;
#X connect 17 2 18 0;
#X connect 18 0 16 0;
#X restore 80 253 pd runningbutton;
#N canvas 0 0 353 423 runningbutton 0;
#N canvas 1017 95 701 612 button 0;
#X obj 144 234 Circle2;
#X msg 212 166 color 255 0 0;
#X msg 222 191 clearvertex;
#X msg 200 143 position 0.5 0.5 1;
#X obj 83 315 tgl 15 0 empty empty empty 17 7 0 10 -262144 -1 -1 0
1;
#X obj 83 293 route onFinger coordFinger;
#X obj 159 318 unpack f f f;
#X floatatom 159 361 5 0 0 0 - - -;
#X floatatom 197 361 5 0 0 0 - - -;
#X floatatom 233 361 5 0 0 0 - - -;
#X obj 256 315 tgl 15 0 empty empty empty 17 7 0 10 -262144 -1 -1 0
1;
#X obj 332 318 unpack f f f;
#X floatatom 332 361 5 0 0 0 - - -;
#X floatatom 370 361 5 0 0 0 - - -;
#X floatatom 406 361 5 0 0 0 - - -;
#X obj 256 293 route onObject coordObject;
#X msg 95 169 radius 0.05;
#X obj 151 418 change;
#X obj 156 474 bng 15 250 50 0 empty empty empty 17 7 0 10 -262144
-1 -1;
#X obj 134 71 route init;
#X obj 134 49 inlet;
#X obj 133 98 t b b b b b;
#X obj 184 518 outlet;
#X msg 306 164 color 255 255 255;
#X obj 153 446 sel 0 1;
#X connect 0 0 5 0;
#X connect 0 0 15 0;
#X connect 1 0 0 0;
#X connect 2 0 0 0;
#X connect 3 0 0 0;
#X connect 4 0 17 0;
#X connect 5 0 4 0;
#X connect 5 1 6 0;
#X connect 6 0 7 0;
#X connect 6 1 8 0;
#X connect 6 2 9 0;
#X connect 11 0 12 0;
#X connect 11 1 13 0;
#X connect 11 2 14 0;
#X connect 15 0 10 0;
#X connect 15 1 11 0;
#X connect 16 0 0 0;
#X connect 17 0 24 0;
#X connect 18 0 22 0;
#X connect 19 0 21 0;
#X connect 19 1 0 0;
#X connect 20 0 19 0;
#X connect 21 1 16 0;
#X connect 21 2 3 0;
#X connect 21 3 1 0;
#X connect 21 4 2 0;
#X connect 23 0 0 0;
#X connect 24 0 18 0;
#X connect 24 0 1 0;
#X connect 24 1 23 0;
#X restore 66 116 pd button;
#X msg 184 82 init;
#X obj 66 146 bng 15 250 50 0 empty empty empty 17 7 0 10 -262144 -1
-1;
#X obj 48 26 r initparameters;
#X obj 67 199 random 100;
#X obj 67 225 / 100;
#X obj 138 199 random 100;
#X obj 138 225 / 100;
#X obj 67 301 pack f f;
#X obj 67 172 t b b;
#X msg 184 59 position \$1 \$2;
#X obj 67 276 line;
#X msg 67 251 \$1 1000;
#X obj 137 276 line;
#X msg 137 251 \$1 1000;
#X obj 72 345 list;
#X obj 201 300 metro 25;
#X obj 50 54 t b b b;
#X msg 201 275 1;
#X connect 0 0 2 0;
#X connect 1 0 0 0;
#X connect 2 0 9 0;
#X connect 3 0 17 0;
#X connect 4 0 5 0;
#X connect 5 0 12 0;
#X connect 6 0 7 0;
#X connect 7 0 14 0;
#X connect 8 0 15 1;
#X connect 9 0 4 0;
#X connect 9 1 6 0;
#X connect 10 0 0 0;
#X connect 11 0 8 0;
#X connect 12 0 11 0;
#X connect 13 0 8 1;
#X connect 14 0 13 0;
#X connect 15 0 10 0;
#X connect 16 0 15 0;
#X connect 17 0 2 0;
#X connect 17 1 1 0;
#X connect 17 2 18 0;
#X connect 18 0 16 0;
#X restore 80 274 pd runningbutton;
#N canvas 0 0 353 423 runningbutton 0;
#N canvas 1017 95 701 612 button 0;
#X obj 144 234 Circle2;
#X msg 212 166 color 255 0 0;
#X msg 222 191 clearvertex;
#X msg 200 143 position 0.5 0.5 1;
#X obj 83 315 tgl 15 0 empty empty empty 17 7 0 10 -262144 -1 -1 0
1;
#X obj 83 293 route onFinger coordFinger;
#X obj 159 318 unpack f f f;
#X floatatom 159 361 5 0 0 0 - - -;
#X floatatom 197 361 5 0 0 0 - - -;
#X floatatom 233 361 5 0 0 0 - - -;
#X obj 256 315 tgl 15 0 empty empty empty 17 7 0 10 -262144 -1 -1 0
1;
#X obj 332 318 unpack f f f;
#X floatatom 332 361 5 0 0 0 - - -;
#X floatatom 370 361 5 0 0 0 - - -;
#X floatatom 406 361 5 0 0 0 - - -;
#X obj 256 293 route onObject coordObject;
#X msg 95 169 radius 0.05;
#X obj 151 418 change;
#X obj 156 474 bng 15 250 50 0 empty empty empty 17 7 0 10 -262144
-1 -1;
#X obj 134 71 route init;
#X obj 134 49 inlet;
#X obj 133 98 t b b b b b;
#X obj 184 518 outlet;
#X msg 306 164 color 255 255 255;
#X obj 153 446 sel 0 1;
#X connect 0 0 5 0;
#X connect 0 0 15 0;
#X connect 1 0 0 0;
#X connect 2 0 0 0;
#X connect 3 0 0 0;
#X connect 4 0 17 0;
#X connect 5 0 4 0;
#X connect 5 1 6 0;
#X connect 6 0 7 0;
#X connect 6 1 8 0;
#X connect 6 2 9 0;
#X connect 11 0 12 0;
#X connect 11 1 13 0;
#X connect 11 2 14 0;
#X connect 15 0 10 0;
#X connect 15 1 11 0;
#X connect 16 0 0 0;
#X connect 17 0 24 0;
#X connect 18 0 22 0;
#X connect 19 0 21 0;
#X connect 19 1 0 0;
#X connect 20 0 19 0;
#X connect 21 1 16 0;
#X connect 21 2 3 0;
#X connect 21 3 1 0;
#X connect 21 4 2 0;
#X connect 23 0 0 0;
#X connect 24 0 18 0;
#X connect 24 0 1 0;
#X connect 24 1 23 0;
#X restore 66 116 pd button;
#X msg 184 82 init;
#X obj 66 146 bng 15 250 50 0 empty empty empty 17 7 0 10 -262144 -1
-1;
#X obj 48 26 r initparameters;
#X obj 67 199 random 100;
#X obj 67 225 / 100;
#X obj 138 199 random 100;
#X obj 138 225 / 100;
#X obj 67 301 pack f f;
#X obj 67 172 t b b;
#X msg 184 59 position \$1 \$2;
#X obj 67 276 line;
#X msg 67 251 \$1 1000;
#X obj 137 276 line;
#X msg 137 251 \$1 1000;
#X obj 72 345 list;
#X obj 201 300 metro 25;
#X obj 50 54 t b b b;
#X msg 201 275 1;
#X connect 0 0 2 0;
#X connect 1 0 0 0;
#X connect 2 0 9 0;
#X connect 3 0 17 0;
#X connect 4 0 5 0;
#X connect 5 0 12 0;
#X connect 6 0 7 0;
#X connect 7 0 14 0;
#X connect 8 0 15 1;
#X connect 9 0 4 0;
#X connect 9 1 6 0;
#X connect 10 0 0 0;
#X connect 11 0 8 0;
#X connect 12 0 11 0;
#X connect 13 0 8 1;
#X connect 14 0 13 0;
#X connect 15 0 10 0;
#X connect 16 0 15 0;
#X connect 17 0 2 0;
#X connect 17 1 1 0;
#X connect 17 2 18 0;
#X connect 18 0 16 0;
#X restore 80 297 pd runningbutton;
#N canvas 0 0 353 423 runningbutton 0;
#N canvas 1017 95 701 612 button 0;
#X obj 144 234 Circle2;
#X msg 212 166 color 255 0 0;
#X msg 222 191 clearvertex;
#X msg 200 143 position 0.5 0.5 1;
#X obj 83 315 tgl 15 0 empty empty empty 17 7 0 10 -262144 -1 -1 0
1;
#X obj 83 293 route onFinger coordFinger;
#X obj 159 318 unpack f f f;
#X floatatom 159 361 5 0 0 0 - - -;
#X floatatom 197 361 5 0 0 0 - - -;
#X floatatom 233 361 5 0 0 0 - - -;
#X obj 256 315 tgl 15 0 empty empty empty 17 7 0 10 -262144 -1 -1 0
1;
#X obj 332 318 unpack f f f;
#X floatatom 332 361 5 0 0 0 - - -;
#X floatatom 370 361 5 0 0 0 - - -;
#X floatatom 406 361 5 0 0 0 - - -;
#X obj 256 293 route onObject coordObject;
#X msg 95 169 radius 0.05;
#X obj 151 418 change;
#X obj 156 474 bng 15 250 50 0 empty empty empty 17 7 0 10 -262144
-1 -1;
#X obj 134 71 route init;
#X obj 134 49 inlet;
#X obj 133 98 t b b b b b;
#X obj 184 518 outlet;
#X msg 306 164 color 255 255 255;
#X obj 153 446 sel 0 1;
#X connect 0 0 5 0;
#X connect 0 0 15 0;
#X connect 1 0 0 0;
#X connect 2 0 0 0;
#X connect 3 0 0 0;
#X connect 4 0 17 0;
#X connect 5 0 4 0;
#X connect 5 1 6 0;
#X connect 6 0 7 0;
#X connect 6 1 8 0;
#X connect 6 2 9 0;
#X connect 11 0 12 0;
#X connect 11 1 13 0;
#X connect 11 2 14 0;
#X connect 15 0 10 0;
#X connect 15 1 11 0;
#X connect 16 0 0 0;
#X connect 17 0 24 0;
#X connect 18 0 22 0;
#X connect 19 0 21 0;
#X connect 19 1 0 0;
#X connect 20 0 19 0;
#X connect 21 1 16 0;
#X connect 21 2 3 0;
#X connect 21 3 1 0;
#X connect 21 4 2 0;
#X connect 23 0 0 0;
#X connect 24 0 18 0;
#X connect 24 0 1 0;
#X connect 24 1 23 0;
#X restore 66 116 pd button;
#X msg 184 82 init;
#X obj 66 146 bng 15 250 50 0 empty empty empty 17 7 0 10 -262144 -1
-1;
#X obj 48 26 r initparameters;
#X obj 67 199 random 100;
#X obj 67 225 / 100;
#X obj 138 199 random 100;
#X obj 138 225 / 100;
#X obj 67 301 pack f f;
#X obj 67 172 t b b;
#X msg 184 59 position \$1 \$2;
#X obj 67 276 line;
#X msg 67 251 \$1 1000;
#X obj 137 276 line;
#X msg 137 251 \$1 1000;
#X obj 72 345 list;
#X obj 201 300 metro 25;
#X obj 50 54 t b b b;
#X msg 201 275 1;
#X connect 0 0 2 0;
#X connect 1 0 0 0;
#X connect 2 0 9 0;
#X connect 3 0 17 0;
#X connect 4 0 5 0;
#X connect 5 0 12 0;
#X connect 6 0 7 0;
#X connect 7 0 14 0;
#X connect 8 0 15 1;
#X connect 9 0 4 0;
#X connect 9 1 6 0;
#X connect 10 0 0 0;
#X connect 11 0 8 0;
#X connect 12 0 11 0;
#X connect 13 0 8 1;
#X connect 14 0 13 0;
#X connect 15 0 10 0;
#X connect 16 0 15 0;
#X connect 17 0 2 0;
#X connect 17 1 1 0;
#X connect 17 2 18 0;
#X connect 18 0 16 0;
#X restore 81 320 pd runningbutton;
#N canvas 0 0 353 423 runningbutton 0;
#N canvas 1017 95 701 612 button 0;
#X obj 144 234 Circle2;
#X msg 212 166 color 255 0 0;
#X msg 222 191 clearvertex;
#X msg 200 143 position 0.5 0.5 1;
#X obj 83 315 tgl 15 0 empty empty empty 17 7 0 10 -262144 -1 -1 0
1;
#X obj 83 293 route onFinger coordFinger;
#X obj 159 318 unpack f f f;
#X floatatom 159 361 5 0 0 0 - - -;
#X floatatom 197 361 5 0 0 0 - - -;
#X floatatom 233 361 5 0 0 0 - - -;
#X obj 256 315 tgl 15 0 empty empty empty 17 7 0 10 -262144 -1 -1 0
1;
#X obj 332 318 unpack f f f;
#X floatatom 332 361 5 0 0 0 - - -;
#X floatatom 370 361 5 0 0 0 - - -;
#X floatatom 406 361 5 0 0 0 - - -;
#X obj 256 293 route onObject coordObject;
#X msg 95 169 radius 0.05;
#X obj 151 418 change;
#X obj 156 474 bng 15 250 50 0 empty empty empty 17 7 0 10 -262144
-1 -1;
#X obj 134 71 route init;
#X obj 134 49 inlet;
#X obj 133 98 t b b b b b;
#X obj 184 518 outlet;
#X msg 306 164 color 255 255 255;
#X obj 153 446 sel 0 1;
#X connect 0 0 5 0;
#X connect 0 0 15 0;
#X connect 1 0 0 0;
#X connect 2 0 0 0;
#X connect 3 0 0 0;
#X connect 4 0 17 0;
#X connect 5 0 4 0;
#X connect 5 1 6 0;
#X connect 6 0 7 0;
#X connect 6 1 8 0;
#X connect 6 2 9 0;
#X connect 11 0 12 0;
#X connect 11 1 13 0;
#X connect 11 2 14 0;
#X connect 15 0 10 0;
#X connect 15 1 11 0;
#X connect 16 0 0 0;
#X connect 17 0 24 0;
#X connect 18 0 22 0;
#X connect 19 0 21 0;
#X connect 19 1 0 0;
#X connect 20 0 19 0;
#X connect 21 1 16 0;
#X connect 21 2 3 0;
#X connect 21 3 1 0;
#X connect 21 4 2 0;
#X connect 23 0 0 0;
#X connect 24 0 18 0;
#X connect 24 0 1 0;
#X connect 24 1 23 0;
#X restore 66 116 pd button;
#X msg 184 82 init;
#X obj 66 146 bng 15 250 50 0 empty empty empty 17 7 0 10 -262144 -1
-1;
#X obj 48 26 r initparameters;
#X obj 67 199 random 100;
#X obj 67 225 / 100;
#X obj 138 199 random 100;
#X obj 138 225 / 100;
#X obj 67 301 pack f f;
#X obj 67 172 t b b;
#X msg 184 59 position \$1 \$2;
#X obj 67 276 line;
#X msg 67 251 \$1 1000;
#X obj 137 276 line;
#X msg 137 251 \$1 1000;
#X obj 72 345 list;
#X obj 201 300 metro 25;
#X obj 50 54 t b b b;
#X msg 201 275 1;
#X connect 0 0 2 0;
#X connect 1 0 0 0;
#X connect 2 0 9 0;
#X connect 3 0 17 0;
#X connect 4 0 5 0;
#X connect 5 0 12 0;
#X connect 6 0 7 0;
#X connect 7 0 14 0;
#X connect 8 0 15 1;
#X connect 9 0 4 0;
#X connect 9 1 6 0;
#X connect 10 0 0 0;
#X connect 11 0 8 0;
#X connect 12 0 11 0;
#X connect 13 0 8 1;
#X connect 14 0 13 0;
#X connect 15 0 10 0;
#X connect 16 0 15 0;
#X connect 17 0 2 0;
#X connect 17 1 1 0;
#X connect 17 2 18 0;
#X connect 18 0 16 0;
#X restore 81 343 pd runningbutton;
#N canvas 0 0 353 423 runningbutton 0;
#N canvas 1017 95 701 612 button 0;
#X obj 144 234 Circle2;
#X msg 212 166 color 255 0 0;
#X msg 222 191 clearvertex;
#X msg 200 143 position 0.5 0.5 1;
#X obj 83 315 tgl 15 0 empty empty empty 17 7 0 10 -262144 -1 -1 0
1;
#X obj 83 293 route onFinger coordFinger;
#X obj 159 318 unpack f f f;
#X floatatom 159 361 5 0 0 0 - - -;
#X floatatom 197 361 5 0 0 0 - - -;
#X floatatom 233 361 5 0 0 0 - - -;
#X obj 256 315 tgl 15 0 empty empty empty 17 7 0 10 -262144 -1 -1 0
1;
#X obj 332 318 unpack f f f;
#X floatatom 332 361 5 0 0 0 - - -;
#X floatatom 370 361 5 0 0 0 - - -;
#X floatatom 406 361 5 0 0 0 - - -;
#X obj 256 293 route onObject coordObject;
#X msg 95 169 radius 0.05;
#X obj 151 418 change;
#X obj 156 474 bng 15 250 50 0 empty empty empty 17 7 0 10 -262144
-1 -1;
#X obj 134 71 route init;
#X obj 134 49 inlet;
#X obj 133 98 t b b b b b;
#X obj 184 518 outlet;
#X msg 306 164 color 255 255 255;
#X obj 153 446 sel 0 1;
#X connect 0 0 5 0;
#X connect 0 0 15 0;
#X connect 1 0 0 0;
#X connect 2 0 0 0;
#X connect 3 0 0 0;
#X connect 4 0 17 0;
#X connect 5 0 4 0;
#X connect 5 1 6 0;
#X connect 6 0 7 0;
#X connect 6 1 8 0;
#X connect 6 2 9 0;
#X connect 11 0 12 0;
#X connect 11 1 13 0;
#X connect 11 2 14 0;
#X connect 15 0 10 0;
#X connect 15 1 11 0;
#X connect 16 0 0 0;
#X connect 17 0 24 0;
#X connect 18 0 22 0;
#X connect 19 0 21 0;
#X connect 19 1 0 0;
#X connect 20 0 19 0;
#X connect 21 1 16 0;
#X connect 21 2 3 0;
#X connect 21 3 1 0;
#X connect 21 4 2 0;
#X connect 23 0 0 0;
#X connect 24 0 18 0;
#X connect 24 0 1 0;
#X connect 24 1 23 0;
#X restore 66 116 pd button;
#X msg 184 82 init;
#X obj 66 146 bng 15 250 50 0 empty empty empty 17 7 0 10 -262144 -1
-1;
#X obj 48 26 r initparameters;
#X obj 67 199 random 100;
#X obj 67 225 / 100;
#X obj 138 199 random 100;
#X obj 138 225 / 100;
#X obj 67 301 pack f f;
#X obj 67 172 t b b;
#X msg 184 59 position \$1 \$2;
#X obj 67 276 line;
#X msg 67 251 \$1 1000;
#X obj 137 276 line;
#X msg 137 251 \$1 1000;
#X obj 72 345 list;
#X obj 201 300 metro 25;
#X obj 50 54 t b b b;
#X msg 201 275 1;
#X connect 0 0 2 0;
#X connect 1 0 0 0;
#X connect 2 0 9 0;
#X connect 3 0 17 0;
#X connect 4 0 5 0;
#X connect 5 0 12 0;
#X connect 6 0 7 0;
#X connect 7 0 14 0;
#X connect 8 0 15 1;
#X connect 9 0 4 0;
#X connect 9 1 6 0;
#X connect 10 0 0 0;
#X connect 11 0 8 0;
#X connect 12 0 11 0;
#X connect 13 0 8 1;
#X connect 14 0 13 0;
#X connect 15 0 10 0;
#X connect 16 0 15 0;
#X connect 17 0 2 0;
#X connect 17 1 1 0;
#X connect 17 2 18 0;
#X connect 18 0 16 0;
#X restore 82 365 pd runningbutton;
#N canvas 0 0 353 423 runningbutton 0;
#N canvas 1017 95 701 612 button 0;
#X obj 144 234 Circle2;
#X msg 212 166 color 255 0 0;
#X msg 222 191 clearvertex;
#X msg 200 143 position 0.5 0.5 1;
#X obj 83 315 tgl 15 0 empty empty empty 17 7 0 10 -262144 -1 -1 0
1;
#X obj 83 293 route onFinger coordFinger;
#X obj 159 318 unpack f f f;
#X floatatom 159 361 5 0 0 0 - - -;
#X floatatom 197 361 5 0 0 0 - - -;
#X floatatom 233 361 5 0 0 0 - - -;
#X obj 256 315 tgl 15 0 empty empty empty 17 7 0 10 -262144 -1 -1 0
1;
#X obj 332 318 unpack f f f;
#X floatatom 332 361 5 0 0 0 - - -;
#X floatatom 370 361 5 0 0 0 - - -;
#X floatatom 406 361 5 0 0 0 - - -;
#X obj 256 293 route onObject coordObject;
#X msg 95 169 radius 0.05;
#X obj 151 418 change;
#X obj 156 474 bng 15 250 50 0 empty empty empty 17 7 0 10 -262144
-1 -1;
#X obj 134 71 route init;
#X obj 134 49 inlet;
#X obj 133 98 t b b b b b;
#X obj 184 518 outlet;
#X msg 306 164 color 255 255 255;
#X obj 153 446 sel 0 1;
#X connect 0 0 5 0;
#X connect 0 0 15 0;
#X connect 1 0 0 0;
#X connect 2 0 0 0;
#X connect 3 0 0 0;
#X connect 4 0 17 0;
#X connect 5 0 4 0;
#X connect 5 1 6 0;
#X connect 6 0 7 0;
#X connect 6 1 8 0;
#X connect 6 2 9 0;
#X connect 11 0 12 0;
#X connect 11 1 13 0;
#X connect 11 2 14 0;
#X connect 15 0 10 0;
#X connect 15 1 11 0;
#X connect 16 0 0 0;
#X connect 17 0 24 0;
#X connect 18 0 22 0;
#X connect 19 0 21 0;
#X connect 19 1 0 0;
#X connect 20 0 19 0;
#X connect 21 1 16 0;
#X connect 21 2 3 0;
#X connect 21 3 1 0;
#X connect 21 4 2 0;
#X connect 23 0 0 0;
#X connect 24 0 18 0;
#X connect 24 0 1 0;
#X connect 24 1 23 0;
#X restore 66 116 pd button;
#X msg 184 82 init;
#X obj 66 146 bng 15 250 50 0 empty empty empty 17 7 0 10 -262144 -1
-1;
#X obj 48 26 r initparameters;
#X obj 67 199 random 100;
#X obj 67 225 / 100;
#X obj 138 199 random 100;
#X obj 138 225 / 100;
#X obj 67 301 pack f f;
#X obj 67 172 t b b;
#X msg 184 59 position \$1 \$2;
#X obj 67 276 line;
#X msg 67 251 \$1 1000;
#X obj 137 276 line;
#X msg 137 251 \$1 1000;
#X obj 72 345 list;
#X obj 201 300 metro 25;
#X obj 50 54 t b b b;
#X msg 201 275 1;
#X connect 0 0 2 0;
#X connect 1 0 0 0;
#X connect 2 0 9 0;
#X connect 3 0 17 0;
#X connect 4 0 5 0;
#X connect 5 0 12 0;
#X connect 6 0 7 0;
#X connect 7 0 14 0;
#X connect 8 0 15 1;
#X connect 9 0 4 0;
#X connect 9 1 6 0;
#X connect 10 0 0 0;
#X connect 11 0 8 0;
#X connect 12 0 11 0;
#X connect 13 0 8 1;
#X connect 14 0 13 0;
#X connect 15 0 10 0;
#X connect 16 0 15 0;
#X connect 17 0 2 0;
#X connect 17 1 1 0;
#X connect 17 2 18 0;
#X connect 18 0 16 0;
#X restore 82 388 pd runningbutton;
#N canvas 0 0 353 423 runningbutton 0;
#N canvas 1017 95 701 612 button 0;
#X obj 144 234 Circle2;
#X msg 212 166 color 255 0 0;
#X msg 222 191 clearvertex;
#X msg 200 143 position 0.5 0.5 1;
#X obj 83 315 tgl 15 0 empty empty empty 17 7 0 10 -262144 -1 -1 0
1;
#X obj 83 293 route onFinger coordFinger;
#X obj 159 318 unpack f f f;
#X floatatom 159 361 5 0 0 0 - - -;
#X floatatom 197 361 5 0 0 0 - - -;
#X floatatom 233 361 5 0 0 0 - - -;
#X obj 256 315 tgl 15 0 empty empty empty 17 7 0 10 -262144 -1 -1 0
1;
#X obj 332 318 unpack f f f;
#X floatatom 332 361 5 0 0 0 - - -;
#X floatatom 370 361 5 0 0 0 - - -;
#X floatatom 406 361 5 0 0 0 - - -;
#X obj 256 293 route onObject coordObject;
#X msg 95 169 radius 0.05;
#X obj 151 418 change;
#X obj 156 474 bng 15 250 50 0 empty empty empty 17 7 0 10 -262144
-1 -1;
#X obj 134 71 route init;
#X obj 134 49 inlet;
#X obj 133 98 t b b b b b;
#X obj 184 518 outlet;
#X msg 306 164 color 255 255 255;
#X obj 153 446 sel 0 1;
#X connect 0 0 5 0;
#X connect 0 0 15 0;
#X connect 1 0 0 0;
#X connect 2 0 0 0;
#X connect 3 0 0 0;
#X connect 4 0 17 0;
#X connect 5 0 4 0;
#X connect 5 1 6 0;
#X connect 6 0 7 0;
#X connect 6 1 8 0;
#X connect 6 2 9 0;
#X connect 11 0 12 0;
#X connect 11 1 13 0;
#X connect 11 2 14 0;
#X connect 15 0 10 0;
#X connect 15 1 11 0;
#X connect 16 0 0 0;
#X connect 17 0 24 0;
#X connect 18 0 22 0;
#X connect 19 0 21 0;
#X connect 19 1 0 0;
#X connect 20 0 19 0;
#X connect 21 1 16 0;
#X connect 21 2 3 0;
#X connect 21 3 1 0;
#X connect 21 4 2 0;
#X connect 23 0 0 0;
#X connect 24 0 18 0;
#X connect 24 0 1 0;
#X connect 24 1 23 0;
#X restore 66 116 pd button;
#X msg 184 82 init;
#X obj 66 146 bng 15 250 50 0 empty empty empty 17 7 0 10 -262144 -1
-1;
#X obj 48 26 r initparameters;
#X obj 67 199 random 100;
#X obj 67 225 / 100;
#X obj 138 199 random 100;
#X obj 138 225 / 100;
#X obj 67 301 pack f f;
#X obj 67 172 t b b;
#X msg 184 59 position \$1 \$2;
#X obj 67 276 line;
#X msg 67 251 \$1 1000;
#X obj 137 276 line;
#X msg 137 251 \$1 1000;
#X obj 72 345 list;
#X obj 201 300 metro 25;
#X obj 50 54 t b b b;
#X msg 201 275 1;
#X connect 0 0 2 0;
#X connect 1 0 0 0;
#X connect 2 0 9 0;
#X connect 3 0 17 0;
#X connect 4 0 5 0;
#X connect 5 0 12 0;
#X connect 6 0 7 0;
#X connect 7 0 14 0;
#X connect 8 0 15 1;
#X connect 9 0 4 0;
#X connect 9 1 6 0;
#X connect 10 0 0 0;
#X connect 11 0 8 0;
#X connect 12 0 11 0;
#X connect 13 0 8 1;
#X connect 14 0 13 0;
#X connect 15 0 10 0;
#X connect 16 0 15 0;
#X connect 17 0 2 0;
#X connect 17 1 1 0;
#X connect 17 2 18 0;
#X connect 18 0 16 0;
#X restore 83 411 pd runningbutton;
#N canvas 0 0 353 423 runningbutton 0;
#N canvas 1017 95 701 612 button 0;
#X obj 144 234 Circle2;
#X msg 212 166 color 255 0 0;
#X msg 222 191 clearvertex;
#X msg 200 143 position 0.5 0.5 1;
#X obj 83 315 tgl 15 0 empty empty empty 17 7 0 10 -262144 -1 -1 0
1;
#X obj 83 293 route onFinger coordFinger;
#X obj 159 318 unpack f f f;
#X floatatom 159 361 5 0 0 0 - - -;
#X floatatom 197 361 5 0 0 0 - - -;
#X floatatom 233 361 5 0 0 0 - - -;
#X obj 256 315 tgl 15 0 empty empty empty 17 7 0 10 -262144 -1 -1 0
1;
#X obj 332 318 unpack f f f;
#X floatatom 332 361 5 0 0 0 - - -;
#X floatatom 370 361 5 0 0 0 - - -;
#X floatatom 406 361 5 0 0 0 - - -;
#X obj 256 293 route onObject coordObject;
#X msg 95 169 radius 0.05;
#X obj 151 418 change;
#X obj 156 474 bng 15 250 50 0 empty empty empty 17 7 0 10 -262144
-1 -1;
#X obj 134 71 route init;
#X obj 134 49 inlet;
#X obj 133 98 t b b b b b;
#X obj 184 518 outlet;
#X msg 306 164 color 255 255 255;
#X obj 153 446 sel 0 1;
#X connect 0 0 5 0;
#X connect 0 0 15 0;
#X connect 1 0 0 0;
#X connect 2 0 0 0;
#X connect 3 0 0 0;
#X connect 4 0 17 0;
#X connect 5 0 4 0;
#X connect 5 1 6 0;
#X connect 6 0 7 0;
#X connect 6 1 8 0;
#X connect 6 2 9 0;
#X connect 11 0 12 0;
#X connect 11 1 13 0;
#X connect 11 2 14 0;
#X connect 15 0 10 0;
#X connect 15 1 11 0;
#X connect 16 0 0 0;
#X connect 17 0 24 0;
#X connect 18 0 22 0;
#X connect 19 0 21 0;
#X connect 19 1 0 0;
#X connect 20 0 19 0;
#X connect 21 1 16 0;
#X connect 21 2 3 0;
#X connect 21 3 1 0;
#X connect 21 4 2 0;
#X connect 23 0 0 0;
#X connect 24 0 18 0;
#X connect 24 0 1 0;
#X connect 24 1 23 0;
#X restore 66 116 pd button;
#X msg 184 82 init;
#X obj 66 146 bng 15 250 50 0 empty empty empty 17 7 0 10 -262144 -1
-1;
#X obj 48 26 r initparameters;
#X obj 67 199 random 100;
#X obj 67 225 / 100;
#X obj 138 199 random 100;
#X obj 138 225 / 100;
#X obj 67 301 pack f f;
#X obj 67 172 t b b;
#X msg 184 59 position \$1 \$2;
#X obj 67 276 line;
#X msg 67 251 \$1 1000;
#X obj 137 276 line;
#X msg 137 251 \$1 1000;
#X obj 72 345 list;
#X obj 201 300 metro 25;
#X obj 50 54 t b b b;
#X msg 201 275 1;
#X connect 0 0 2 0;
#X connect 1 0 0 0;
#X connect 2 0 9 0;
#X connect 3 0 17 0;
#X connect 4 0 5 0;
#X connect 5 0 12 0;
#X connect 6 0 7 0;
#X connect 7 0 14 0;
#X connect 8 0 15 1;
#X connect 9 0 4 0;
#X connect 9 1 6 0;
#X connect 10 0 0 0;
#X connect 11 0 8 0;
#X connect 12 0 11 0;
#X connect 13 0 8 1;
#X connect 14 0 13 0;
#X connect 15 0 10 0;
#X connect 16 0 15 0;
#X connect 17 0 2 0;
#X connect 17 1 1 0;
#X connect 17 2 18 0;
#X connect 18 0 16 0;
#X restore 83 434 pd runningbutton;
#X connect 0 0 1 0;
#X connect 3 0 2 0;
#X connect 8 0 2 0;
