#N canvas 791 207 1128 872 10;
#X obj 244 38 loadbang;
#X msg 244 59 \; pd dsp 1;
#N canvas 660 118 862 584 text 0;
#X msg 28 67 test;
#X msg 28 93 yahuu!;
#X obj 120 50 hsl 128 15 0 1 0 0 empty empty empty -2 -8 0 10 -262144
-1 -1 0 1;
#X floatatom 123 135 5 0 0 0 - - -;
#X obj 120 69 hsl 128 15 0 1 0 0 empty empty empty -2 -8 0 10 -262144
-1 -1 0 1;
#X floatatom 157 135 5 0 0 0 - - -;
#X obj 120 88 hsl 128 15 0 360 0 0 empty empty empty -2 -8 0 10 -262144
-1 -1 0 1;
#X floatatom 191 135 5 0 0 0 - - -;
#X msg 29 120 tes tes test;
#X obj 160 213 Text 0 0 0 0;
#X obj 260 50 hsl 128 15 0 255 0 0 empty empty empty -2 -8 0 10 -262144
-1 -1 0 1;
#X obj 226 113 int;
#X floatatom 226 135 5 0 0 0 - - -;
#X obj 261 69 hsl 128 15 0 255 0 0 empty empty empty -2 -8 0 10 -262144
-1 -1 0 1;
#X obj 261 113 int;
#X floatatom 261 135 5 0 0 0 - - -;
#X obj 261 88 hsl 128 15 0 255 0 0 empty empty empty -2 -8 0 10 -262144
-1 -1 0 1;
#X obj 296 113 int;
#X floatatom 296 135 5 0 0 0 - - -;
#X text 158 31 position;
#X text 307 32 color;
#X text 28 35 text;
#X msg 431 50 write Hola hola Caracola;
#X msg 441 69 write adeu adeu andreu;
#X msg 468 120 color 255 0 0;
#X msg 456 97 position 0.5 0.5 1;
#X msg 410 15 clear;
#X obj 824 140 vsl 15 128 0 1 0 0 empty empty empty 0 -9 0 10 -262144
-1 -1 0 1;
#X floatatom 824 276 5 0 0 0 - - -;
#X obj 788 140 vsl 15 128 0 1 0 0 empty empty empty 0 -9 0 10 -262144
-1 -1 0 1;
#X floatatom 788 276 5 0 0 0 - - -;
#X obj 752 55 vsl 15 128 0 1 0 0 empty empty empty 0 -9 0 10 -262144
-1 -1 0 1;
#X floatatom 752 191 5 0 0 0 - - -;
#X obj 716 55 vsl 15 128 0 1 0 0 empty empty empty 0 -9 0 10 -262144
-1 -1 0 1;
#X floatatom 716 191 5 0 0 0 - - -;
#X obj 680 -33 vsl 15 128 0 360 0 0 empty empty empty 0 -9 0 10 -262144
-1 -1 0 1;
#X floatatom 680 103 5 0 0 0 - - -;
#X msg 606 331 transform *;
#X msg 409 295 layer 0;
#X msg 417 327 layer 1;
#X obj 691 223 Translate;
#X obj 750 319 Scale;
#X obj 649 155 Rotate;
#X obj 460 209 Text2;
#X connect 0 0 9 0;
#X connect 1 0 9 0;
#X connect 2 0 3 0;
#X connect 3 0 9 1;
#X connect 4 0 5 0;
#X connect 5 0 9 2;
#X connect 6 0 7 0;
#X connect 7 0 9 3;
#X connect 8 0 9 0;
#X connect 10 0 11 0;
#X connect 11 0 12 0;
#X connect 12 0 9 4;
#X connect 13 0 14 0;
#X connect 14 0 15 0;
#X connect 15 0 9 5;
#X connect 16 0 17 0;
#X connect 17 0 18 0;
#X connect 18 0 9 6;
#X connect 22 0 43 0;
#X connect 23 0 43 0;
#X connect 24 0 43 0;
#X connect 25 0 43 0;
#X connect 26 0 43 0;
#X connect 27 0 28 0;
#X connect 28 0 41 2;
#X connect 29 0 30 0;
#X connect 30 0 41 1;
#X connect 31 0 32 0;
#X connect 32 0 40 2;
#X connect 33 0 34 0;
#X connect 34 0 40 1;
#X connect 35 0 36 0;
#X connect 36 0 42 1;
#X connect 37 0 43 0;
#X connect 38 0 43 0;
#X connect 39 0 43 0;
#X connect 40 0 41 0;
#X connect 41 0 43 0;
#X connect 42 0 40 0;
#X restore 266 114 pd text;
#N canvas 293 484 866 401 polygons 0;
#X msg 414 92 addvertex -0.1 -0.1;
#X msg 425 115 addvertex -0.1 0.1;
#X msg 438 135 addvertex 0.1 0.1;
#X msg 447 155 addvertex 0.1 -0.1;
#X msg 595 73 color 255 0 0;
#X msg 605 98 clearvertex;
#X msg 613 120 texture texturepathexample.png;
#X obj 434 236 tgl 15 0 empty empty empty 17 7 0 10 -262144 -1 -1 0
1;
#X obj 434 214 route onFinger coordFinger;
#X obj 510 239 unpack f f f;
#X floatatom 510 282 5 0 0 0 - - -;
#X floatatom 548 282 5 0 0 0 - - -;
#X floatatom 584 282 5 0 0 0 - - -;
#X obj 607 236 tgl 15 0 empty empty empty 17 7 0 10 -262144 -1 -1 0
1;
#X obj 683 239 unpack f f f;
#X floatatom 683 282 5 0 0 0 - - -;
#X floatatom 721 282 5 0 0 0 - - -;
#X floatatom 757 282 5 0 0 0 - - -;
#X obj 607 214 route onObject coordObject;
#X msg 583 50 position 0.5 0.5 1;
#X text 428 62 constructing;
#X msg 22 71 -0.1 -0.1;
#X msg 21 98 -0.1 0.1;
#X msg 20 122 0.1 0.1;
#X msg 20 145 0.1 -0.1;
#X obj 334 134 bng 15 250 50 0 empty empty empty 17 7 0 10 -262144
-1 -1;
#X msg 327 184 exemple.jpg;
#X msg 326 209 none;
#X floatatom 112 290 5 0 0 0 - - -;
#X floatatom 156 290 5 0 0 0 - - -;
#X floatatom 199 290 5 0 0 0 - - -;
#X obj 70 291 tgl 15 0 empty empty empty 17 7 0 10 -262144 -1 -1 0
1;
#X obj 125 234 Polygon 0 0 0 0 0 0 0;
#X obj 264 291 tgl 15 0 empty empty empty 17 7 0 10 -262144 -1 -1 0
1;
#X floatatom 304 291 5 0 0 0 - - -;
#X floatatom 341 291 5 0 0 0 - - -;
#X floatatom 381 291 5 0 0 0 - - -;
#X obj 101 72 hsl 128 15 0 1 0 0 empty empty empty -2 -8 0 10 -262144
-1 -1 0 1;
#X floatatom 104 157 5 0 0 0 - - -;
#X obj 101 91 hsl 128 15 0 1 0 0 empty empty empty -2 -8 0 10 -262144
-1 -1 0 1;
#X floatatom 138 157 5 0 0 0 - - -;
#X obj 101 110 hsl 128 15 0 360 0 0 empty empty empty -2 -8 0 10 -262144
-1 -1 0 1;
#X floatatom 172 157 5 0 0 0 - - -;
#X obj 242 72 hsl 128 15 0 255 0 0 empty empty empty -2 -8 0 10 -262144
-1 -1 0 1;
#X obj 207 135 int;
#X floatatom 207 157 5 0 0 0 - - -;
#X obj 242 91 hsl 128 15 0 255 0 0 empty empty empty -2 -8 0 10 -262144
-1 -1 0 1;
#X obj 242 135 int;
#X floatatom 242 157 5 0 0 0 - - -;
#X obj 242 110 hsl 128 15 0 255 0 0 empty empty empty -2 -8 0 10 -262144
-1 -1 0 1;
#X obj 277 135 int;
#X floatatom 277 157 5 0 0 0 - - -;
#X text 139 53 position;
#X text 288 54 color;
#X text 22 45 constructing;
#X text 361 138 clear;
#X text 334 164 textures;
#X text 119 321 finger collisions;
#X text 297 316 object collisions;
#X text 488 314 finger collisions;
#X text 666 309 object collisions;
#X obj 583 180 Polygon2;
#X connect 0 0 61 0;
#X connect 1 0 61 0;
#X connect 2 0 61 0;
#X connect 3 0 61 0;
#X connect 4 0 61 0;
#X connect 5 0 61 0;
#X connect 6 0 61 0;
#X connect 8 0 7 0;
#X connect 8 1 9 0;
#X connect 8 2 18 0;
#X connect 9 0 10 0;
#X connect 9 1 11 0;
#X connect 9 2 12 0;
#X connect 14 0 15 0;
#X connect 14 1 16 0;
#X connect 14 2 17 0;
#X connect 18 0 13 0;
#X connect 18 1 14 0;
#X connect 19 0 61 0;
#X connect 21 0 32 0;
#X connect 22 0 32 0;
#X connect 23 0 32 0;
#X connect 24 0 32 0;
#X connect 25 0 32 7;
#X connect 26 0 32 8;
#X connect 27 0 32 8;
#X connect 29 0 32 1;
#X connect 30 0 32 2;
#X connect 32 0 31 0;
#X connect 32 1 28 0;
#X connect 32 2 29 0;
#X connect 32 3 30 0;
#X connect 32 4 33 0;
#X connect 32 5 34 0;
#X connect 32 6 35 0;
#X connect 32 7 36 0;
#X connect 37 0 38 0;
#X connect 38 0 32 1;
#X connect 39 0 40 0;
#X connect 40 0 32 2;
#X connect 41 0 42 0;
#X connect 42 0 32 3;
#X connect 43 0 44 0;
#X connect 44 0 45 0;
#X connect 45 0 32 4;
#X connect 46 0 47 0;
#X connect 47 0 48 0;
#X connect 48 0 32 5;
#X connect 49 0 50 0;
#X connect 50 0 51 0;
#X connect 51 0 32 6;
#X connect 61 0 8 0;
#X restore 345 115 pd polygons;
#N canvas 126 411 721 322 circles 0;
#X msg 66 125 0.5;
#X msg 31 125 0.01;
#X obj 27 14 tgl 15 0 empty empty empty 17 7 0 10 -262144 -1 -1 0 1
;
#X obj 31 96 t b b;
#X obj 30 47 route 1 0;
#X obj 31 160 Ccircle 0 0 0 0 0 0 0;
#X obj 373 143 Circle2;
#X msg 293 57 radius 0.1;
#X msg 324 78 radius 0.01;
#X msg 405 48 color 255 0 0;
#X msg 415 73 clearvertex;
#X msg 393 25 position 0.5 0.5 1;
#X obj 312 224 tgl 15 0 empty empty empty 17 7 0 10 -262144 -1 -1 0
1;
#X obj 312 202 route onFinger coordFinger;
#X obj 388 227 unpack f f f;
#X floatatom 388 270 5 0 0 0 - - -;
#X floatatom 426 270 5 0 0 0 - - -;
#X floatatom 462 270 5 0 0 0 - - -;
#X obj 485 224 tgl 15 0 empty empty empty 17 7 0 10 -262144 -1 -1 0
1;
#X obj 561 227 unpack f f f;
#X floatatom 561 270 5 0 0 0 - - -;
#X floatatom 599 270 5 0 0 0 - - -;
#X floatatom 635 270 5 0 0 0 - - -;
#X obj 485 202 route onObject coordObject;
#X msg 251 21 radius 1;
#X msg 423 95 texture /sdcard/hipocranc.png;
#X msg 254 124 bring_top;
#X msg 236 163 layer 0;
#X connect 0 0 5 2;
#X connect 1 0 5 1;
#X connect 2 0 4 0;
#X connect 3 0 1 0;
#X connect 3 1 0 0;
#X connect 4 0 3 0;
#X connect 4 1 5 0;
#X connect 6 0 13 0;
#X connect 6 0 23 0;
#X connect 7 0 6 0;
#X connect 8 0 6 0;
#X connect 9 0 6 0;
#X connect 10 0 6 0;
#X connect 11 0 6 0;
#X connect 13 0 12 0;
#X connect 13 1 14 0;
#X connect 14 0 15 0;
#X connect 14 1 16 0;
#X connect 14 2 17 0;
#X connect 19 0 20 0;
#X connect 19 1 21 0;
#X connect 19 2 22 0;
#X connect 23 0 18 0;
#X connect 23 1 19 0;
#X connect 24 0 6 0;
#X connect 25 0 6 0;
#X connect 26 0 6 0;
#X connect 27 0 6 0;
#X restore 442 116 pd circles;
#X obj 927 36 Fingers;
#X obj 927 67 finger 0 0 0 0;
#X floatatom 964 96 5 0 0 0 - - -;
#X floatatom 998 96 5 0 0 0 - - -;
#X floatatom 1032 96 5 0 0 0 - - -;
#X obj 807 450 snapshot~;
#X obj 873 380 tgl 15 0 empty empty empty 17 7 0 10 -262144 -1 -1 0
1;
#X obj 873 408 metro 300;
#X floatatom 924 367 5 0 0 0 - - -;
#X obj 807 407 osc~ 0.1;
#X obj 927 118 finger 0 0 0 0;
#X floatatom 965 147 5 0 0 0 - - -;
#X floatatom 999 147 5 0 0 0 - - -;
#X floatatom 1033 147 5 0 0 0 - - -;
#X obj 927 170 finger 0 0 0 0;
#X floatatom 964 199 5 0 0 0 - - -;
#X floatatom 998 199 5 0 0 0 - - -;
#X floatatom 1032 199 5 0 0 0 - - -;
#X obj 927 223 finger 0 0 0 0;
#X floatatom 965 252 5 0 0 0 - - -;
#X floatatom 999 252 5 0 0 0 - - -;
#X floatatom 1033 252 5 0 0 0 - - -;
#X obj 927 278 finger 0 0 0 0;
#X floatatom 966 307 5 0 0 0 - - -;
#X floatatom 1000 307 5 0 0 0 - - -;
#X floatatom 1034 307 5 0 0 0 - - -;
#X obj 947 97 tgl 15 0 empty empty empty 17 7 0 10 -262144 -1 -1 0
1;
#X obj 946 146 tgl 15 0 empty empty empty 17 7 0 10 -262144 -1 -1 0
1;
#X obj 947 199 tgl 15 0 empty empty empty 17 7 0 10 -262144 -1 -1 0
1;
#X obj 947 253 tgl 15 0 empty empty empty 17 7 0 10 -262144 -1 -1 0
1;
#X obj 947 308 tgl 15 0 empty empty empty 17 7 0 10 -262144 -1 -1 0
1;
#X obj 323 63 MTCFReset;
#X obj 323 39 bng 15 250 50 0 empty empty empty 17 7 0 10 -262144 -1
-1;
#X obj 894 452 noise~;
#X obj 216 617 DrawWave2;
#X msg 209 314 enable;
#X msg 115 334 disable;
#X msg 192 346 color 255 5 0;
#X obj 457 46 Text2-help;
#N canvas 349 89 1051 850 slider 0;
#X msg -118 215 clearvertex;
#X obj -217 99 t b b b b b;
#X obj -221 65 bng 15 250 50 0 empty empty empty 17 7 0 10 -262144
-1 -1;
#X obj -34 213 mtcf-stroke;
#X obj -34 108 t b b b;
#X msg -34 187 1;
#X msg 31 194 5;
#X obj -34 75 bng 15 250 50 0 empty empty empty 17 7 0 10 -262144 -1
-1;
#X obj -3 175 mtcf-color-rgb 0 255 0;
#X msg 671 467 clearvertex;
#X obj 572 351 t b b b b b;
#X obj 568 317 bng 15 250 50 0 empty empty empty 17 7 0 10 -262144
-1 -1;
#X obj 607 303 mtcf-color-rgb 0 255 0;
#X obj 606 250 bng 15 250 50 0 empty empty empty 17 7 0 10 -262144
-1 -1;
#X obj 286 629 finger 0 0 0 0;
#X floatatom 323 658 5 0 0 0 - - -;
#X floatatom 357 658 5 0 0 0 - - -;
#X floatatom 391 658 5 0 0 0 - - -;
#X obj 306 659 tgl 15 0 empty empty empty 17 7 0 10 -262144 -1 -1 1
1;
#X obj 534 547 bng 15 250 50 0 empty empty empty 17 7 0 10 -262144
-1 -1;
#X msg -118 486 1 0 0 0 0 1 0 0 0 0 1 0 0 0 0 1;
#X obj -101 512 bng 15 250 50 0 empty empty empty 17 7 0 10 -262144
-1 -1;
#X obj -114 539 mtcf-matrix;
#X floatatom -115 739 5 0 0 0 - - -;
#X floatatom -59 739 5 0 0 0 - - -;
#X floatatom 0 737 5 0 0 0 - - -;
#X floatatom -82 599 5 0 0 0 - - -;
#X floatatom -42 600 5 0 0 0 - - -;
#X floatatom -4 599 5 0 0 0 - - -;
#X obj -113 649 mtcf-transformpoint;
#X msg -156 571 1 0 0 0 0 1 0 0 0 0 1 0 0 0 0 1;
#X msg 53 571 1 0 0 0 0 1 0 0 0 0 1 0 0 0 0 1;
#X floatatom 108 631 5 0 0 0 - - -;
#X floatatom 160 633 5 0 0 0 - - -;
#X floatatom 53 736 5 0 0 0 - - -;
#X floatatom 170 729 5 0 0 0 - - -;
#X obj 53 677 mtcf-itransformpoint;
#X obj 482 729 mtcf-itransformpoint;
#X obj 286 595 route finger matrix;
#X msg 685 539 0;
#X obj 330 530 Polygon2;
#X obj 400 528 Polygon2;
#X obj 475 638 prepend matrix;
#X obj 445 658 bng 15 250 50 0 empty empty empty 17 7 0 10 -262144
-1 -1;
#X obj 45 -36 mtcf-route layer;
#X obj 138 -9 mtcf-route bring_top;
#X obj 255 15 mtcf-route hide;
#X obj 342 37 mtcf-route unhide;
#X msg -210 128 addvertex -0.04 -0.4;
#X msg -199 150 addvertex -0.04 0.4;
#X msg -183 172 addvertex 0.04 0.4;
#X msg -163 195 addvertex 0.04 -0.4;
#X msg 626 447 addvertex 0.04 -0.02;
#X msg 606 424 addvertex 0.04 0.02;
#X msg 590 402 addvertex -0.04 0.02;
#X msg 578 381 addvertex -0.04 -0.02;
#X obj 534 574 mtcf-draw_position 0 -0.4 0;
#X obj 619 645 clip -0.4 0.4;
#X obj 441 60 mtcf-route transform;
#X obj 208 156 t a a;
#X obj -44 -74 inlet;
#X obj 533 229 t b b;
#X obj -151 16 t b b;
#X obj -157 -30 t b b;
#X obj 658 704 expr ( $f1 + 0.4 ) / 0.8;
#X obj 645 747 outlet;
#X obj -223 -62 r basicTangibleTabletopInit;
#X connect 0 0 40 0;
#X connect 1 0 51 0;
#X connect 1 1 50 0;
#X connect 1 2 49 0;
#X connect 1 3 48 0;
#X connect 1 4 0 0;
#X connect 2 0 1 0;
#X connect 3 0 40 0;
#X connect 4 0 5 0;
#X connect 4 1 8 0;
#X connect 4 2 6 0;
#X connect 5 0 3 0;
#X connect 6 0 3 2;
#X connect 7 0 4 0;
#X connect 8 0 3 1;
#X connect 9 0 41 0;
#X connect 10 0 52 0;
#X connect 10 1 53 0;
#X connect 10 2 54 0;
#X connect 10 3 55 0;
#X connect 10 4 9 0;
#X connect 11 0 10 0;
#X connect 12 0 41 0;
#X connect 13 0 12 0;
#X connect 14 1 18 0;
#X connect 14 2 15 0;
#X connect 14 3 16 0;
#X connect 14 4 17 0;
#X connect 15 0 37 1;
#X connect 16 0 37 2;
#X connect 19 0 56 0;
#X connect 20 0 22 0;
#X connect 21 0 22 0;
#X connect 26 0 29 1;
#X connect 27 0 29 2;
#X connect 28 0 29 3;
#X connect 29 0 23 0;
#X connect 29 1 24 0;
#X connect 29 2 25 0;
#X connect 30 0 29 0;
#X connect 31 0 36 0;
#X connect 32 0 36 1;
#X connect 33 0 36 2;
#X connect 36 0 34 0;
#X connect 36 1 35 0;
#X connect 37 1 57 0;
#X connect 38 0 14 0;
#X connect 38 1 37 0;
#X connect 38 1 42 0;
#X connect 38 1 43 0;
#X connect 39 0 56 2;
#X connect 39 0 56 0;
#X connect 40 0 38 0;
#X connect 42 0 41 0;
#X connect 44 0 59 0;
#X connect 44 1 45 0;
#X connect 45 0 59 0;
#X connect 45 1 46 0;
#X connect 46 0 41 0;
#X connect 46 0 40 0;
#X connect 46 1 47 0;
#X connect 47 0 40 0;
#X connect 47 0 41 0;
#X connect 47 1 58 0;
#X connect 48 0 40 0;
#X connect 49 0 40 0;
#X connect 50 0 40 0;
#X connect 51 0 40 0;
#X connect 52 0 41 0;
#X connect 53 0 41 0;
#X connect 54 0 41 0;
#X connect 55 0 41 0;
#X connect 56 0 41 0;
#X connect 57 0 56 1;
#X connect 57 0 64 0;
#X connect 58 0 40 0;
#X connect 59 0 41 0;
#X connect 59 1 40 0;
#X connect 60 0 44 0;
#X connect 61 0 13 0;
#X connect 61 1 11 0;
#X connect 62 0 7 0;
#X connect 62 1 2 0;
#X connect 63 0 61 0;
#X connect 63 1 62 0;
#X connect 64 0 65 0;
#X connect 66 0 63 0;
#X restore 306 374 pd slider;
#X obj 457 21 Polygon2-help;
#X obj 372 317 bng 15 250 50 0 empty empty empty 17 7 0 10 -262144
-1 -1;
#N canvas 347 95 1051 850 slider 0;
#X msg -118 215 clearvertex;
#X obj -217 99 t b b b b b;
#X obj -221 65 bng 15 250 50 0 empty empty empty 17 7 0 10 -262144
-1 -1;
#X obj -34 213 mtcf-stroke;
#X obj -34 108 t b b b;
#X msg -34 187 1;
#X msg 31 194 5;
#X obj -34 75 bng 15 250 50 0 empty empty empty 17 7 0 10 -262144 -1
-1;
#X obj -3 175 mtcf-color-rgb 0 255 0;
#X msg 671 467 clearvertex;
#X obj 572 351 t b b b b b;
#X obj 568 317 bng 15 250 50 0 empty empty empty 17 7 0 10 -262144
-1 -1;
#X obj 607 303 mtcf-color-rgb 0 255 0;
#X obj 606 250 bng 15 250 50 0 empty empty empty 17 7 0 10 -262144
-1 -1;
#X obj 286 629 finger 0 0 0 0;
#X floatatom 323 658 5 0 0 0 - - -;
#X floatatom 357 658 5 0 0 0 - - -;
#X floatatom 391 658 5 0 0 0 - - -;
#X obj 306 659 tgl 15 0 empty empty empty 17 7 0 10 -262144 -1 -1 0
1;
#X obj 534 547 bng 15 250 50 0 empty empty empty 17 7 0 10 -262144
-1 -1;
#X msg -118 486 1 0 0 0 0 1 0 0 0 0 1 0 0 0 0 1;
#X obj -101 512 bng 15 250 50 0 empty empty empty 17 7 0 10 -262144
-1 -1;
#X obj -114 539 mtcf-matrix;
#X floatatom -115 739 5 0 0 0 - - -;
#X floatatom -59 739 5 0 0 0 - - -;
#X floatatom 0 737 5 0 0 0 - - -;
#X floatatom -82 599 5 0 0 0 - - -;
#X floatatom -42 600 5 0 0 0 - - -;
#X floatatom -4 599 5 0 0 0 - - -;
#X obj -113 649 mtcf-transformpoint;
#X msg -156 571 1 0 0 0 0 1 0 0 0 0 1 0 0 0 0 1;
#X msg 53 571 1 0 0 0 0 1 0 0 0 0 1 0 0 0 0 1;
#X floatatom 108 631 5 0 0 0 - - -;
#X floatatom 160 633 5 0 0 0 - - -;
#X floatatom 53 736 5 0 0 0 - - -;
#X floatatom 170 729 5 0 0 0 - - -;
#X obj 53 677 mtcf-itransformpoint;
#X obj 482 729 mtcf-itransformpoint;
#X obj 286 595 route finger matrix;
#X msg 685 539 0;
#X obj 330 530 Polygon2;
#X obj 400 528 Polygon2;
#X obj 475 638 prepend matrix;
#X obj 445 658 bng 15 250 50 0 empty empty empty 17 7 0 10 -262144
-1 -1;
#X obj 45 -36 mtcf-route layer;
#X obj 138 -9 mtcf-route bring_top;
#X obj 255 15 mtcf-route hide;
#X obj 342 37 mtcf-route unhide;
#X msg -210 128 addvertex -0.04 -0.4;
#X msg -199 150 addvertex -0.04 0.4;
#X msg -183 172 addvertex 0.04 0.4;
#X msg -163 195 addvertex 0.04 -0.4;
#X msg 626 447 addvertex 0.04 -0.02;
#X msg 606 424 addvertex 0.04 0.02;
#X msg 590 402 addvertex -0.04 0.02;
#X msg 578 381 addvertex -0.04 -0.02;
#X obj 534 574 mtcf-draw_position 0 -0.4 0;
#X obj 619 645 clip -0.4 0.4;
#X obj 441 60 mtcf-route transform;
#X obj 208 156 t a a;
#X obj -44 -74 inlet;
#X obj 533 229 t b b;
#X obj -151 16 t b b;
#X obj -157 -30 t b b;
#X obj 658 704 expr ( $f1 + 0.4 ) / 0.8;
#X obj 645 747 outlet;
#X obj -223 -62 r basicTangibleTabletopInit;
#X connect 0 0 40 0;
#X connect 1 0 51 0;
#X connect 1 1 50 0;
#X connect 1 2 49 0;
#X connect 1 3 48 0;
#X connect 1 4 0 0;
#X connect 2 0 1 0;
#X connect 3 0 40 0;
#X connect 4 0 5 0;
#X connect 4 1 8 0;
#X connect 4 2 6 0;
#X connect 5 0 3 0;
#X connect 6 0 3 2;
#X connect 7 0 4 0;
#X connect 8 0 3 1;
#X connect 9 0 41 0;
#X connect 10 0 52 0;
#X connect 10 1 53 0;
#X connect 10 2 54 0;
#X connect 10 3 55 0;
#X connect 10 4 9 0;
#X connect 11 0 10 0;
#X connect 12 0 41 0;
#X connect 13 0 12 0;
#X connect 14 1 18 0;
#X connect 14 2 15 0;
#X connect 14 3 16 0;
#X connect 14 4 17 0;
#X connect 15 0 37 1;
#X connect 16 0 37 2;
#X connect 19 0 56 0;
#X connect 20 0 22 0;
#X connect 21 0 22 0;
#X connect 26 0 29 1;
#X connect 27 0 29 2;
#X connect 28 0 29 3;
#X connect 29 0 23 0;
#X connect 29 1 24 0;
#X connect 29 2 25 0;
#X connect 30 0 29 0;
#X connect 31 0 36 0;
#X connect 32 0 36 1;
#X connect 33 0 36 2;
#X connect 36 0 34 0;
#X connect 36 1 35 0;
#X connect 37 1 57 0;
#X connect 38 0 14 0;
#X connect 38 1 37 0;
#X connect 38 1 42 0;
#X connect 38 1 43 0;
#X connect 39 0 56 2;
#X connect 39 0 56 0;
#X connect 40 0 38 0;
#X connect 42 0 41 0;
#X connect 44 0 59 0;
#X connect 44 1 45 0;
#X connect 45 0 59 0;
#X connect 45 1 46 0;
#X connect 46 0 41 0;
#X connect 46 0 40 0;
#X connect 46 1 47 0;
#X connect 47 0 40 0;
#X connect 47 0 41 0;
#X connect 47 1 58 0;
#X connect 48 0 40 0;
#X connect 49 0 40 0;
#X connect 50 0 40 0;
#X connect 51 0 40 0;
#X connect 52 0 41 0;
#X connect 53 0 41 0;
#X connect 54 0 41 0;
#X connect 55 0 41 0;
#X connect 56 0 41 0;
#X connect 57 0 56 1;
#X connect 57 0 64 0;
#X connect 58 0 40 0;
#X connect 59 0 41 0;
#X connect 59 1 40 0;
#X connect 60 0 44 0;
#X connect 61 0 13 0;
#X connect 61 1 11 0;
#X connect 62 0 7 0;
#X connect 62 1 2 0;
#X connect 63 0 61 0;
#X connect 63 1 62 0;
#X connect 64 0 65 0;
#X connect 66 0 63 0;
#X restore 417 375 pd slider;
#X obj 399 317 bng 15 250 50 0 empty empty empty 17 7 0 10 -262144
-1 -1;
#X msg 304 286 bring_top;
#X obj 306 346 Translate 0.1 0.5;
#X obj 418 345 Translate 0.4 0.5;
#X obj 306 425 phasor~ 440;
#X obj 305 462 *~;
#X obj 306 401 * 500;
#X obj 23 362 Scale 1 9;
#X obj 83 288 bng 15 250 50 0 empty empty empty 17 7 0 10 -262144 -1
-1;
#X obj 7 318 Translate 1 0.5;
#X obj 175 204 r basicTangibleTabletopInit;
#X obj 175 227 t b b b b;
#X obj 372 286 t b b;
#X msg 20 8 ip 192.168.0.13;
#X obj 20 38 Test 192.168.0.13;
#X obj 20 158 s initparameters;
#X msg 127 8 ip 192.168.2.167;
#X connect 0 0 1 0;
#X connect 5 0 6 0;
#X connect 6 0 15 0;
#X connect 6 1 31 0;
#X connect 6 2 7 0;
#X connect 6 3 8 0;
#X connect 6 4 9 0;
#X connect 11 0 12 0;
#X connect 12 0 10 0;
#X connect 13 0 12 1;
#X connect 14 0 10 0;
#X connect 15 0 19 0;
#X connect 15 1 32 0;
#X connect 15 2 16 0;
#X connect 15 3 17 0;
#X connect 15 4 18 0;
#X connect 19 0 23 0;
#X connect 19 1 33 0;
#X connect 19 2 20 0;
#X connect 19 3 21 0;
#X connect 19 4 22 0;
#X connect 23 0 27 0;
#X connect 23 1 34 0;
#X connect 23 2 24 0;
#X connect 23 3 25 0;
#X connect 23 4 26 0;
#X connect 27 1 35 0;
#X connect 27 2 28 0;
#X connect 27 3 29 0;
#X connect 27 4 30 0;
#X connect 37 0 36 0;
#X connect 40 0 39 1;
#X connect 41 0 39 1;
#X connect 42 0 39 1;
#X connect 44 0 54 0;
#X connect 46 0 50 1;
#X connect 47 0 53 1;
#X connect 48 0 51 1;
#X connect 49 0 44 0;
#X connect 49 0 47 0;
#X connect 50 0 44 0;
#X connect 51 0 47 0;
#X connect 52 0 53 0;
#X connect 53 0 39 0;
#X connect 54 0 52 0;
#X connect 55 0 39 1;
#X connect 56 0 57 1;
#X connect 57 0 55 0;
#X connect 58 0 59 0;
#X connect 59 0 56 0;
#X connect 59 1 42 0;
#X connect 59 2 40 0;
#X connect 59 3 60 0;
#X connect 60 0 46 0;
#X connect 60 1 48 0;
#X connect 61 0 62 0;
#X connect 62 0 63 0;
#X connect 64 0 62 0;
