#N canvas 516 488 450 300 10;
#X obj 33 6 inlet;
#X obj -126 292 outlet;
#X msg -126 210 clearvertex;
#X obj 33 57 / 2;
#X obj 150 195 pack f f;
#X obj 95 195 pack f f;
#X obj -24 195 pack f f;
#X obj 40 195 pack f f;
#X obj 150 167 t f f;
#X obj 150 145 * -1;
#X obj 95 171 * -1;
#X obj 95 144 t f f;
#X obj 40 145 t f f;
#X obj 3 168 * -1;
#X obj -24 145 t f f;
#X obj 33 110 t f f f f b;
#X msg -24 230 addvertex \$1 \$2;
#X obj 33 30 float \$1;
#X obj 33 83 float;
#X connect 0 0 17 0;
#X connect 2 0 1 0;
#X connect 3 0 18 0;
#X connect 4 0 16 0;
#X connect 5 0 16 0;
#X connect 6 0 16 0;
#X connect 7 0 16 0;
#X connect 8 0 4 0;
#X connect 8 1 4 1;
#X connect 9 0 8 0;
#X connect 10 0 5 0;
#X connect 11 0 10 0;
#X connect 11 1 5 1;
#X connect 12 0 7 0;
#X connect 12 1 7 1;
#X connect 13 0 6 1;
#X connect 14 0 6 0;
#X connect 14 1 13 0;
#X connect 15 0 14 0;
#X connect 15 1 12 0;
#X connect 15 2 11 0;
#X connect 15 3 9 0;
#X connect 15 4 2 0;
#X connect 16 0 1 0;
#X connect 17 0 3 0;
#X connect 18 0 15 0;
