#N canvas 224 583 450 300 10;
#X obj 36 6 inlet;
#X obj 169 1 loadbang;
#X obj 36 279 outlet;
#X obj 63 84 list length;
#X obj 63 121 == 16;
#X obj 36 188 spigot;
#X obj 36 52 t a a;
#X obj 148 144 select 0;
#X msg 169 23 1 0 0 0 0 1 0 0 0 0 1 0 0 0 0 1;
#X obj 148 239 list;
#X connect 0 0 6 0;
#X connect 1 0 8 0;
#X connect 3 0 4 0;
#X connect 4 0 5 1;
#X connect 4 0 7 0;
#X connect 5 0 9 1;
#X connect 5 0 2 0;
#X connect 6 0 5 0;
#X connect 6 1 3 0;
#X connect 7 0 9 0;
#X connect 8 0 6 0;
#X connect 8 0 9 1;
#X connect 9 0 2 0;
