#N canvas 0 0 934 790 10;
#X obj 17 -50 inlet;
#X obj 17 3 mtcf-matrix;
#X obj 17 97 unpack f f f f f f f f f f f f f f f f;
#X obj 65 -25 loadbang;
#X obj 150 436 outlet;
#X obj 346 94 float \$1;
#X obj 411 94 float \$2;
#X obj 557 437 outlet;
#X obj 306 35 t b b b;
#X obj 364 -48 inlet;
#X obj 364 -24 t b f;
#X obj 429 -49 inlet;
#X obj 429 -25 t b f;
#X obj 169 -26 bang;
#X obj 78 227 f;
#X obj 104 227 f;
#X obj 130 227 f;
#X obj 156 227 f;
#X obj 90 278 *;
#X obj 148 277 *;
#X obj 118 322 -;
#X obj -10 161 t b b b b;
#X obj -10 45 t b a;
#X obj 211 324 expr ( $f2 * ( $f1 - $f3 ) ) + ( $f4 * ( $f5 - $f6 )
);
#X obj 150 407 /;
#X obj 555 323 expr ( $f2 * ( $f1 - $f3 ) ) + ( $f4 * ( $f5 - $f6 )
);
#X obj 557 411 /;
#X connect 0 0 1 0;
#X connect 1 0 13 0;
#X connect 1 0 22 0;
#X connect 2 0 14 1;
#X connect 2 1 16 1;
#X connect 2 1 25 3;
#X connect 2 4 17 1;
#X connect 2 4 23 3;
#X connect 2 5 15 1;
#X connect 2 5 23 1;
#X connect 2 5 25 1;
#X connect 2 12 23 2;
#X connect 2 12 25 4;
#X connect 2 13 23 4;
#X connect 2 13 25 2;
#X connect 3 0 1 0;
#X connect 5 0 23 0;
#X connect 5 0 25 5;
#X connect 6 0 23 5;
#X connect 6 0 25 0;
#X connect 8 0 5 0;
#X connect 8 1 6 0;
#X connect 9 0 10 0;
#X connect 10 0 8 0;
#X connect 10 1 5 1;
#X connect 11 0 12 0;
#X connect 12 0 8 0;
#X connect 12 1 6 1;
#X connect 13 0 8 0;
#X connect 14 0 18 0;
#X connect 15 0 18 1;
#X connect 16 0 19 0;
#X connect 17 0 19 1;
#X connect 18 0 20 0;
#X connect 19 0 20 1;
#X connect 20 0 24 1;
#X connect 20 0 26 1;
#X connect 21 0 14 0;
#X connect 21 1 15 0;
#X connect 21 2 16 0;
#X connect 21 3 17 0;
#X connect 22 0 21 0;
#X connect 22 1 2 0;
#X connect 23 0 24 0;
#X connect 24 0 4 0;
#X connect 25 0 26 0;
#X connect 26 0 7 0;
