#N canvas 675 262 450 365 10;
#X obj 61 25 inlet;
#X obj 156 25 inlet;
#X obj 61 177 int;
#X obj 61 153 clip 0 255;
#X obj 61 126 int \$1;
#X obj 150 126 int \$2;
#X obj 156 61 t b f;
#X obj 226 25 inlet;
#X obj 226 61 t b f;
#X obj 296 24 inlet;
#X obj 296 60 t b f;
#X obj 71 93 t b b b b;
#X obj 150 177 int;
#X obj 150 153 clip 0 255;
#X obj 220 177 int;
#X obj 220 153 clip 0 255;
#X obj 290 177 int;
#X obj 290 153 clip 0 255;
#X obj 140 282 prepend color;
#X obj 140 317 outlet;
#X obj 71 58 loadbang;
#X obj 140 252 pack f f f f;
#X obj 220 126 int \$3;
#X obj 290 125 int \$4;
#X connect 0 0 4 0;
#X connect 1 0 6 0;
#X connect 2 0 21 0;
#X connect 3 0 2 0;
#X connect 4 0 3 0;
#X connect 5 0 13 0;
#X connect 6 0 11 0;
#X connect 6 1 5 1;
#X connect 7 0 8 0;
#X connect 8 0 11 0;
#X connect 8 1 22 1;
#X connect 9 0 10 0;
#X connect 10 0 11 0;
#X connect 10 1 23 1;
#X connect 11 0 4 0;
#X connect 11 1 5 0;
#X connect 11 2 22 0;
#X connect 11 3 23 0;
#X connect 12 0 21 1;
#X connect 13 0 12 0;
#X connect 14 0 21 2;
#X connect 15 0 14 0;
#X connect 16 0 21 3;
#X connect 17 0 16 0;
#X connect 18 0 19 0;
#X connect 20 0 11 0;
#X connect 21 0 18 0;
#X connect 22 0 15 0;
#X connect 23 0 17 0;
