#N canvas 153 230 450 300 10;
#X obj 134 76 route \$1;
#X obj 110 12 inlet;
#X obj 112 222 outlet;
#X obj 113 177 prepend \$1;
#X obj 285 221 outlet;
#X connect 0 0 3 0;
#X connect 0 1 4 0;
#X connect 1 0 0 0;
#X connect 3 0 2 0;
