#N canvas 566 295 450 300 10;
#X obj 47 23 inlet;
#X obj 131 22 inlet;
#X obj 208 23 inlet;
#X obj 47 194 float \$1;
#X obj 131 195 float \$2;
#X obj 208 196 float \$3;
#X obj 88 270 pack \$1 \$2 \$3;
#X obj 47 156 t b b b;
#X obj 47 49 route bang;
#X obj 131 49 route bang;
#X obj 208 49 route bang;
#X obj 265 83 t b f;
#X obj 188 82 t b f;
#X obj 104 84 t b f;
#X obj 88 296 prepend position;
#X obj 88 321 outlet;
#X connect 0 0 8 0;
#X connect 1 0 9 0;
#X connect 2 0 10 0;
#X connect 3 0 6 0;
#X connect 4 0 6 1;
#X connect 5 0 6 2;
#X connect 6 0 14 0;
#X connect 7 0 3 0;
#X connect 7 1 4 0;
#X connect 7 2 5 0;
#X connect 8 0 7 0;
#X connect 8 1 13 0;
#X connect 9 0 7 0;
#X connect 9 1 12 0;
#X connect 10 0 7 0;
#X connect 10 1 11 0;
#X connect 11 0 7 0;
#X connect 11 1 5 1;
#X connect 12 0 7 0;
#X connect 12 1 4 1;
#X connect 13 0 7 0;
#X connect 13 1 3 1;
#X connect 14 0 15 0;
