#N canvas 354 40 817 845 10;
#X obj 7 -60 inlet;
#X obj 7 58 mtcf-matrix;
#X obj 7 87 unpack f f f f f f f f f f f f f f f f;
#X obj 72 200 *;
#X obj 117 200 *;
#X obj 174 200 *;
#X obj 128 355 +;
#X obj 55 30 loadbang;
#X obj 140 244 +;
#X obj 91 293 +;
#X obj 128 421 outlet;
#X obj 336 84 float \$1;
#X obj 401 84 float \$2;
#X obj 465 83 float \$3;
#X obj 252 199 *;
#X obj 297 199 *;
#X obj 354 199 *;
#X obj 308 354 +;
#X obj 320 243 +;
#X obj 271 292 +;
#X obj 308 420 outlet;
#X obj 454 199 *;
#X obj 499 199 *;
#X obj 556 199 *;
#X obj 510 354 +;
#X obj 522 243 +;
#X obj 473 292 +;
#X obj 510 420 outlet;
#X obj 296 25 t b b b;
#X obj 354 -58 inlet;
#X obj 354 -34 t b f;
#X obj 419 -59 inlet;
#X obj 419 -35 t b f;
#X obj 483 -59 inlet;
#X obj 483 -35 t b f;
#X obj 159 29 bang;
#X connect 0 0 1 0;
#X connect 1 0 2 0;
#X connect 1 0 35 0;
#X connect 2 0 3 1;
#X connect 2 1 14 1;
#X connect 2 2 21 1;
#X connect 2 4 4 1;
#X connect 2 5 15 1;
#X connect 2 6 22 1;
#X connect 2 8 5 1;
#X connect 2 9 16 1;
#X connect 2 10 23 1;
#X connect 2 12 6 1;
#X connect 2 13 17 1;
#X connect 2 14 24 1;
#X connect 3 0 9 0;
#X connect 4 0 8 0;
#X connect 5 0 8 1;
#X connect 6 0 10 0;
#X connect 7 0 1 0;
#X connect 8 0 9 1;
#X connect 9 0 6 0;
#X connect 11 0 3 0;
#X connect 11 0 14 0;
#X connect 11 0 21 0;
#X connect 12 0 4 0;
#X connect 12 0 15 0;
#X connect 12 0 22 0;
#X connect 13 0 5 0;
#X connect 13 0 16 0;
#X connect 13 0 23 0;
#X connect 14 0 19 0;
#X connect 15 0 18 0;
#X connect 16 0 18 1;
#X connect 17 0 20 0;
#X connect 18 0 19 1;
#X connect 19 0 17 0;
#X connect 21 0 26 0;
#X connect 22 0 25 0;
#X connect 23 0 25 1;
#X connect 24 0 27 0;
#X connect 25 0 26 1;
#X connect 26 0 24 0;
#X connect 28 0 11 0;
#X connect 28 1 12 0;
#X connect 28 2 13 0;
#X connect 29 0 30 0;
#X connect 30 0 28 0;
#X connect 30 1 11 1;
#X connect 31 0 32 0;
#X connect 32 0 28 0;
#X connect 32 1 12 1;
#X connect 33 0 34 0;
#X connect 34 0 28 0;
#X connect 34 1 13 1;
#X connect 35 0 28 0;
