#N canvas 857 482 450 300 10;
#X obj 123 36 inlet;
#X obj 185 36 inlet;
#X obj 185 63 bang;
#X obj 65 35 inlet;
#X obj 65 64 tgl 15 0 empty empty empty 17 7 0 10 -262144 -1 -1 0 1
;
#X msg 24 127 hide;
#X msg 65 127 unhide;
#X msg 185 127 bring_top;
#X msg 123 128 layer \$1;
#X obj 145 210 outlet;
#X obj 24 102 sel 0;
#X obj 65 102 sel 1;
#X connect 0 0 8 0;
#X connect 1 0 2 0;
#X connect 2 0 7 0;
#X connect 3 0 4 0;
#X connect 4 0 10 0;
#X connect 4 0 11 0;
#X connect 5 0 9 0;
#X connect 6 0 9 0;
#X connect 7 0 9 0;
#X connect 8 0 9 0;
#X connect 10 0 5 0;
#X connect 11 0 6 0;
