#N canvas 493 240 664 594 10;
#X text 517 158 f_id1;
#X text 517 182 f_id2;
#X obj 560 158 f \$1;
#X obj 560 181 f \$2;
#X obj 14 8 r basicTangibleTabletop1235messageBus;
#X obj 12 564 s basicTangibleTabletop1234messageBus;
#X msg 12 538 /distance \$1 \$2;
#X obj 12 515 pack f f;
#X obj 12 473 t b b;
#X obj 12 494 f \$1;
#X obj 57 494 f \$2;
#X text 10 284 Initialization;
#X obj 14 33 route /distance /distance/on /distance/off;
#X obj 97 231 outlet;
#X obj 142 231 outlet;
#X obj 188 231 outlet;
#N canvas 1276 598 450 300 ismine 0;
#X text 335 69 f_id1;
#X text 335 101 f_id2;
#X obj 378 69 f \$1;
#X obj 378 100 f \$2;
#X obj 31 22 inlet;
#X obj 31 212 outlet;
#X obj 58 69 unpack f f;
#X obj 31 44 t l l;
#X obj 31 148 spigot;
#X obj 58 91 == \$1;
#X obj 115 91 == \$2;
#X obj 58 117 &&;
#X connect 4 0 7 0;
#X connect 6 0 9 0;
#X connect 6 1 10 0;
#X connect 7 0 8 0;
#X connect 7 1 6 0;
#X connect 8 0 5 0;
#X connect 9 0 11 0;
#X connect 10 0 11 1;
#X connect 11 0 8 1;
#X restore 97 63 pd ismine \$1 \$2;
#N canvas 1276 598 450 300 ismine 0;
#X text 335 69 f_id1;
#X text 335 101 f_id2;
#X obj 378 69 f \$1;
#X obj 378 100 f \$2;
#X obj 31 22 inlet;
#X obj 31 212 outlet;
#X obj 58 69 unpack f f;
#X obj 31 44 t l l;
#X obj 31 148 spigot;
#X obj 58 91 == \$1;
#X obj 115 91 == \$2;
#X obj 58 117 &&;
#X connect 4 0 7 0;
#X connect 6 0 9 0;
#X connect 6 1 10 0;
#X connect 7 0 8 0;
#X connect 7 1 6 0;
#X connect 8 0 5 0;
#X connect 9 0 11 0;
#X connect 10 0 11 1;
#X connect 11 0 8 1;
#X restore 195 63 pd ismine \$1 \$2;
#X msg 97 87 1;
#X msg 195 86 0;
#N canvas 1276 598 450 300 ismine 0;
#X text 335 69 f_id1;
#X text 335 101 f_id2;
#X obj 378 69 f \$1;
#X obj 378 100 f \$2;
#X obj 31 22 inlet;
#X obj 31 212 outlet;
#X obj 58 69 unpack f f;
#X obj 31 44 t l l;
#X obj 31 148 spigot;
#X obj 58 91 == \$1;
#X obj 115 91 == \$2;
#X obj 58 117 &&;
#X connect 4 0 7 0;
#X connect 6 0 9 0;
#X connect 6 1 10 0;
#X connect 7 0 8 0;
#X connect 7 1 6 0;
#X connect 8 0 5 0;
#X connect 9 0 11 0;
#X connect 10 0 11 1;
#X connect 11 0 8 1;
#X restore 14 129 pd ismine \$1 \$2;
#X obj 14 152 unpack f f f f;
#X obj 29 402 r basicTangibleTabletopInit;
#X obj 39 348 v objDistanceRefCount\$1\$2;
#X obj 39 369 + 1;
#X obj 372 345 v objDistanceRefCount\$1\$2;
#X obj 372 366 - 1;
#X obj 372 388 f;
#X obj 372 411 == 0;
#X text 406 414 last?;
#X obj 12 304 loadbang;
#X obj 12 326 t b b;
#X obj 344 563 s basicTangibleTabletop1234messageBus;
#X obj 344 514 pack f f;
#X obj 344 472 t b b;
#X obj 344 493 f \$1;
#X obj 389 493 f \$2;
#X obj 344 451 spigot;
#X obj 344 325 t b b;
#X obj 352 431 r basicTangibleTabletopEnd;
#X obj 344 303 closebang;
#X text 342 283 Destroying;
#X obj 503 133 bng 15 250 50 0 empty empty empty 17 7 0 10 -262144
-1 -1;
#X obj 599 148 bng 15 250 50 0 empty empty empty 17 7 0 10 -262144
-1 -1;
#X obj 599 212 bng 15 250 50 0 empty empty empty 17 7 0 10 -262144
-1 -1;
#X obj 503 197 bng 15 250 50 0 empty empty empty 17 7 0 10 -262144
-1 -1;
#X text 530 129 Arguments;
#X obj 320 14 inlet;
#X msg 344 537 /distance \$1 \$2 rm;
#X obj 311 240 s basicTangibleTabletop1234messageBus;
#X obj 311 170 f \$1;
#X obj 356 170 f \$2;
#X msg 311 214 /distance \$1 \$2 draw \$3;
#X obj 311 149 t b b f;
#X obj 311 191 pack f f f;
#X obj 338 120 v objDistanceDraw\$1\$2;
#X obj 311 66 t f f;
#X obj 12 424 t b b;
#X text 366 51 Musical Tabletop Coding Framework PD Client;
#X text 365 66 (C) Carles F. Julia carles.fernandez@upf.edu;
#X text 366 81 This software is released under the MIT license;
#X connect 4 0 12 0;
#X connect 6 0 5 0;
#X connect 7 0 6 0;
#X connect 8 0 9 0;
#X connect 8 1 10 0;
#X connect 9 0 7 0;
#X connect 10 0 7 1;
#X connect 12 0 20 0;
#X connect 12 1 16 0;
#X connect 12 2 17 0;
#X connect 16 0 18 0;
#X connect 17 0 19 0;
#X connect 18 0 13 0;
#X connect 19 0 13 0;
#X connect 20 0 21 0;
#X connect 21 2 14 0;
#X connect 21 3 15 0;
#X connect 22 0 57 0;
#X connect 23 0 24 0;
#X connect 24 0 23 0;
#X connect 25 0 26 0;
#X connect 26 0 25 0;
#X connect 26 0 27 0;
#X connect 27 0 28 0;
#X connect 28 0 37 1;
#X connect 30 0 31 0;
#X connect 31 0 57 0;
#X connect 31 1 23 0;
#X connect 33 0 48 0;
#X connect 34 0 35 0;
#X connect 34 1 36 0;
#X connect 35 0 33 0;
#X connect 36 0 33 1;
#X connect 37 0 34 0;
#X connect 38 0 37 0;
#X connect 38 1 25 0;
#X connect 39 0 37 0;
#X connect 40 0 38 0;
#X connect 42 0 45 0;
#X connect 42 0 43 0;
#X connect 43 0 44 0;
#X connect 45 0 44 0;
#X connect 47 0 56 0;
#X connect 48 0 32 0;
#X connect 50 0 54 0;
#X connect 51 0 54 1;
#X connect 52 0 49 0;
#X connect 53 0 50 0;
#X connect 53 1 51 0;
#X connect 53 2 54 2;
#X connect 54 0 52 0;
#X connect 55 0 53 0;
#X connect 56 0 53 0;
#X connect 56 1 55 0;
#X connect 57 0 55 0;
#X connect 57 1 8 0;
