#N canvas 752 466 450 458 10;
#X text 325 59 f_id1;
#X text 325 91 f_id2;
#X obj 368 59 f \$1;
#X obj 368 90 f \$2;
#X obj 14 8 r basicTangibleTabletop1235messageBus;
#X obj 14 410 s basicTangibleTabletop1234messageBus;
#X msg 14 384 /distance \$1 \$2;
#X obj 14 361 pack f f;
#X obj 14 319 t b b;
#X obj 14 340 f \$1;
#X obj 59 340 f \$2;
#X obj 14 298 loadbang;
#X text 14 279 Initialization;
#X obj 14 33 route /distance /distance/on /distance/off;
#X obj 97 231 outlet;
#X obj 142 231 outlet;
#X obj 188 231 outlet;
#N canvas 1276 598 450 300 ismine 0;
#X text 335 69 f_id1;
#X text 335 101 f_id2;
#X obj 378 69 f \$1;
#X obj 378 100 f \$2;
#X obj 31 22 inlet;
#X obj 31 212 outlet;
#X obj 58 69 unpack f f;
#X obj 31 44 t l l;
#X obj 31 148 spigot;
#X obj 58 91 == \$1;
#X obj 115 91 == \$2;
#X obj 58 117 &&;
#X connect 4 0 7 0;
#X connect 6 0 9 0;
#X connect 6 1 10 0;
#X connect 7 0 8 0;
#X connect 7 1 6 0;
#X connect 8 0 5 0;
#X connect 9 0 11 0;
#X connect 10 0 11 1;
#X connect 11 0 8 1;
#X restore 97 63 pd ismine \$1 \$2;
#N canvas 1276 598 450 300 ismine 0;
#X text 335 69 f_id1;
#X text 335 101 f_id2;
#X obj 378 69 f \$1;
#X obj 378 100 f \$2;
#X obj 31 22 inlet;
#X obj 31 212 outlet;
#X obj 58 69 unpack f f;
#X obj 31 44 t l l;
#X obj 31 148 spigot;
#X obj 58 91 == \$1;
#X obj 115 91 == \$2;
#X obj 58 117 &&;
#X connect 4 0 7 0;
#X connect 6 0 9 0;
#X connect 6 1 10 0;
#X connect 7 0 8 0;
#X connect 7 1 6 0;
#X connect 8 0 5 0;
#X connect 9 0 11 0;
#X connect 10 0 11 1;
#X connect 11 0 8 1;
#X restore 195 63 pd ismine \$1 \$2;
#X msg 97 87 1;
#X msg 195 86 0;
#N canvas 1276 598 450 300 ismine 0;
#X text 335 69 f_id1;
#X text 335 101 f_id2;
#X obj 378 69 f \$1;
#X obj 378 100 f \$2;
#X obj 31 22 inlet;
#X obj 31 212 outlet;
#X obj 58 69 unpack f f;
#X obj 31 44 t l l;
#X obj 31 148 spigot;
#X obj 58 91 == \$1;
#X obj 115 91 == \$2;
#X obj 58 117 &&;
#X connect 4 0 7 0;
#X connect 6 0 9 0;
#X connect 6 1 10 0;
#X connect 7 0 8 0;
#X connect 7 1 6 0;
#X connect 8 0 5 0;
#X connect 9 0 11 0;
#X connect 10 0 11 1;
#X connect 11 0 8 1;
#X restore 14 129 pd ismine \$1 \$2;
#X obj 14 152 unpack f f f f;
#X connect 4 0 13 0;
#X connect 6 0 5 0;
#X connect 7 0 6 0;
#X connect 8 0 9 0;
#X connect 8 1 10 0;
#X connect 9 0 7 0;
#X connect 10 0 7 1;
#X connect 11 0 8 0;
#X connect 13 0 21 0;
#X connect 13 1 17 0;
#X connect 13 2 18 0;
#X connect 17 0 19 0;
#X connect 18 0 20 0;
#X connect 19 0 14 0;
#X connect 20 0 14 0;
#X connect 21 0 22 0;
#X connect 22 2 15 0;
#X connect 22 3 16 0;
