#N canvas 0 24 1280 743 10;
#X obj 551 132 f \$1;
#X text 516 132 f_id;
#X obj 24 592 s basicTangibleTabletop1234messageBus;
#X obj 24 522 f \$1;
#X text 22 312 Initialization;
#X obj 32 460 r basicTangibleTabletopInit;
#X obj 51 397 + 1;
#X obj 314 394 - 1;
#X obj 314 416 f;
#X obj 314 439 == 0;
#X text 348 442 last?;
#X obj 24 332 loadbang;
#X obj 24 354 t b b;
#X obj 286 591 s basicTangibleTabletop1234messageBus;
#X obj 286 521 f \$1;
#X obj 286 479 spigot;
#X obj 286 353 t b b;
#X obj 294 459 r basicTangibleTabletopEnd;
#X obj 286 331 closebang;
#X text 284 311 Destroying;
#X obj 504 104 bng 15 250 50 0 empty empty empty 17 7 0 10 -262144
-1 -1;
#X obj 600 119 bng 15 250 50 0 empty empty empty 17 7 0 10 -262144
-1 -1;
#X obj 600 167 bng 15 250 50 0 empty empty empty 17 7 0 10 -262144
-1 -1;
#X obj 504 152 bng 15 250 50 0 empty empty empty 17 7 0 10 -262144
-1 -1;
#X text 535 96 Arguments;
#X obj 24 18 r basicTangibleTabletop1235messageBus;
#X obj 107 241 outlet;
#X obj 152 241 outlet;
#X obj 198 241 outlet;
#X msg 91 106 1;
#X msg 172 106 0;
#X obj 24 162 unpack f f f f;
#N canvas 1278 648 450 300 ismine 0;
#X text 335 69 f_id1;
#X obj 378 69 f \$1;
#X obj 31 22 inlet;
#X obj 31 212 outlet;
#X obj 31 44 t l l;
#X obj 31 148 spigot;
#X obj 58 91 == \$1;
#X obj 58 69 unpack f;
#X connect 2 0 4 0;
#X connect 4 0 5 0;
#X connect 4 1 7 0;
#X connect 5 0 3 0;
#X connect 6 0 5 1;
#X connect 7 0 6 0;
#X restore 24 139 pd ismine \$1;
#N canvas 1278 648 450 300 ismine 0;
#X text 335 69 f_id1;
#X obj 378 69 f \$1;
#X obj 31 22 inlet;
#X obj 31 212 outlet;
#X obj 31 44 t l l;
#X obj 31 148 spigot;
#X obj 58 91 == \$1;
#X obj 58 69 unpack f;
#X connect 2 0 4 0;
#X connect 4 0 5 0;
#X connect 4 1 7 0;
#X connect 5 0 3 0;
#X connect 6 0 5 1;
#X connect 7 0 6 0;
#X restore 91 85 pd ismine \$1;
#N canvas 1278 648 450 300 ismine 0;
#X text 335 69 f_id1;
#X obj 378 69 f \$1;
#X obj 31 22 inlet;
#X obj 31 212 outlet;
#X obj 31 44 t l l;
#X obj 31 148 spigot;
#X obj 58 91 == \$1;
#X obj 58 69 unpack f;
#X connect 2 0 4 0;
#X connect 4 0 5 0;
#X connect 4 1 7 0;
#X connect 5 0 3 0;
#X connect 6 0 5 1;
#X connect 7 0 6 0;
#X restore 172 85 pd ismine \$1;
#X obj 51 376 v objRefCount\$1;
#X obj 314 373 v objRefCount\$1;
#X obj 243 241 outlet;
#N canvas 1278 648 450 300 ismine 0;
#X text 335 69 f_id1;
#X obj 378 69 f \$1;
#X obj 31 22 inlet;
#X obj 31 212 outlet;
#X obj 31 44 t l l;
#X obj 31 148 spigot;
#X obj 58 91 == \$1;
#X obj 58 69 unpack f;
#X connect 2 0 4 0;
#X connect 4 0 5 0;
#X connect 4 1 7 0;
#X connect 5 0 3 0;
#X connect 6 0 5 1;
#X connect 7 0 6 0;
#X restore 259 85 pd ismine \$1;
#X obj 289 241 outlet;
#X obj 258 296 bng 15 250 50 0 empty empty empty 17 7 0 10 -262144
-1 -1;
#X obj 258 608 bng 15 250 50 0 empty empty empty 17 7 0 10 -262144
-1 -1;
#X obj 518 296 bng 15 250 50 0 empty empty empty 17 7 0 10 -262144
-1 -1;
#X obj 518 608 bng 15 250 50 0 empty empty empty 17 7 0 10 -262144
-1 -1;
#X obj 562 333 inlet;
#X obj 562 360 route slider param;
#N canvas 535 376 303 297 onoff 0;
#X obj 58 28 inlet;
#X obj 52 233 outlet;
#X obj 48 83 route 0 1;
#X obj 99 107 route on off;
#X msg 59 157 0;
#X msg 106 157 1;
#X connect 0 0 2 0;
#X connect 2 0 4 0;
#X connect 2 1 5 0;
#X connect 2 2 3 0;
#X connect 3 0 5 0;
#X connect 3 1 4 0;
#X connect 4 0 1 0;
#X connect 5 0 1 0;
#X restore 562 401 pd onoff;
#N canvas 535 376 303 297 onoff 0;
#X obj 58 28 inlet;
#X obj 52 233 outlet;
#X obj 48 83 route 0 1;
#X obj 99 107 route on off;
#X msg 59 157 0;
#X msg 106 157 1;
#X connect 0 0 2 0;
#X connect 2 0 4 0;
#X connect 2 1 5 0;
#X connect 2 2 3 0;
#X connect 3 0 5 0;
#X connect 3 1 4 0;
#X connect 4 0 1 0;
#X connect 5 0 1 0;
#X restore 621 402 pd onoff;
#X obj 571 587 s basicTangibleTabletop1234messageBus;
#X obj 259 107 unpack f f;
#X obj 333 242 outlet;
#X obj 24 43 route /object /object/on /object/off /object/angle_report
/object/finger_report;
#N canvas 1278 648 450 300 ismine 0;
#X text 335 69 f_id1;
#X obj 378 69 f \$1;
#X obj 31 22 inlet;
#X obj 31 212 outlet;
#X obj 31 44 t l l;
#X obj 31 148 spigot;
#X obj 58 91 == \$1;
#X obj 58 69 unpack f;
#X connect 2 0 4 0;
#X connect 4 0 5 0;
#X connect 4 1 7 0;
#X connect 5 0 3 0;
#X connect 6 0 5 1;
#X connect 7 0 6 0;
#X restore 342 85 pd ismine \$1;
#X obj 342 107 unpack f f;
#X obj 57 522 v ObjectProperty1\$1;
#X obj 74 502 v ObjectProperty2\$1;
#X obj 24 543 pack f f f;
#X obj 24 501 t b b b;
#X obj 619 446 v ObjectProperty1\$1;
#X obj 561 467 v ObjectProperty2\$1;
#X obj 563 427 t b f;
#X obj 567 488 t b f;
#X obj 569 514 f \$1;
#X obj 570 541 pack f f f;
#X obj 620 421 t b f;
#X obj 617 487 t b f;
#X text 500 36 Musical Tabletop Coding Framework PD Client;
#X text 499 51 (C) Carles F. Julia carles.fernandez@upf.edu;
#X text 500 66 This software is released under the MIT license;
#X obj 868 70 inlet;
#X msg 868 209 /objects \$1 fvalue \$2;
#X obj 868 122 f \$1;
#X obj 868 97 t b f;
#X obj 868 148 pack f f;
#X msg 570 566 /objects \$1 config \$2 \$3;
#X msg 286 565 /objects \$1 config 0 0 1;
#X msg 24 566 /objects \$1 config \$2 \$3;
#X obj 867 259 s basicTangibleTabletop1234messageBus;
#X connect 3 0 56 0;
#X connect 5 0 57 0;
#X connect 6 0 35 0;
#X connect 7 0 8 0;
#X connect 7 0 36 0;
#X connect 8 0 9 0;
#X connect 9 0 15 1;
#X connect 11 0 12 0;
#X connect 12 0 57 0;
#X connect 12 1 35 0;
#X connect 14 0 75 0;
#X connect 15 0 14 0;
#X connect 16 0 15 0;
#X connect 16 1 36 0;
#X connect 17 0 15 0;
#X connect 18 0 16 0;
#X connect 20 0 23 0;
#X connect 20 0 21 0;
#X connect 21 0 22 0;
#X connect 23 0 22 0;
#X connect 25 0 51 0;
#X connect 29 0 26 0;
#X connect 30 0 26 0;
#X connect 31 1 27 0;
#X connect 31 2 28 0;
#X connect 31 3 37 0;
#X connect 32 0 31 0;
#X connect 33 0 29 0;
#X connect 34 0 30 0;
#X connect 35 0 6 0;
#X connect 36 0 7 0;
#X connect 38 0 49 0;
#X connect 40 0 41 0;
#X connect 42 0 43 0;
#X connect 44 0 45 0;
#X connect 45 0 46 0;
#X connect 45 1 47 0;
#X connect 46 0 60 0;
#X connect 47 0 64 0;
#X connect 49 1 39 0;
#X connect 51 0 32 0;
#X connect 51 1 33 0;
#X connect 51 2 34 0;
#X connect 51 3 38 0;
#X connect 51 4 52 0;
#X connect 52 0 53 0;
#X connect 53 1 50 0;
#X connect 54 0 56 1;
#X connect 55 0 56 2;
#X connect 56 0 76 0;
#X connect 57 0 3 0;
#X connect 57 1 54 0;
#X connect 57 2 55 0;
#X connect 58 0 65 0;
#X connect 59 0 61 0;
#X connect 60 0 59 0;
#X connect 60 1 59 0;
#X connect 61 0 62 0;
#X connect 61 1 63 2;
#X connect 62 0 63 0;
#X connect 63 0 74 0;
#X connect 64 0 58 0;
#X connect 64 1 58 0;
#X connect 65 0 62 0;
#X connect 65 1 63 1;
#X connect 69 0 72 0;
#X connect 70 0 77 0;
#X connect 71 0 73 0;
#X connect 72 0 71 0;
#X connect 72 1 73 1;
#X connect 73 0 70 0;
#X connect 74 0 48 0;
#X connect 75 0 13 0;
#X connect 76 0 2 0;
