#N canvas 0 0 944 975 10;
#X msg 597 -49 rm;
#X msg 609 -28 color 33 34 35;
#X msg 621 -6 color 33 34 35 23;
#X msg 631 15 position 2 3 4;
#X msg 587 -69 transform r 3 t 3 4 s 2 3 r 4;
#X msg 676 126 addvertex 3.4 2.4;
#X msg 716 187 texture /foo/bar.test;
#X msg 691 146 clearvertex;
#X msg 704 166 drawpolygon 0;
#X msg 753 242 strokecolor 34 45 255;
#X msg 766 264 strokecolor 34 45 255 50;
#X msg 779 288 strokewidth 5;
#X msg 741 219 drawstroke 1;
#X text 574 -93 Messagesn Examples:;
#X obj -69 -129 mtcf-color 22 21 24 53;
#X obj -95 -165 bng 15 250 50 0 empty empty empty 17 7 0 10 -262144
-1 -1;
#X floatatom -69 -166 5 0 0 0 - - -;
#X floatatom -26 -166 5 0 0 0 - - -;
#X floatatom 17 -167 5 0 0 0 - - -;
#X floatatom 60 -167 5 0 0 0 - - -;
#X obj -47 -106 bng 15 250 50 0 empty empty empty 17 7 0 10 -262144
-1 -1;
#X floatatom -21 -107 5 0 0 0 - - -;
#X floatatom 46 -107 5 0 0 0 - - -;
#X floatatom 114 -108 5 0 0 0 - - -;
#X obj -21 -70 mtcf-color-rgb 22 21 24;
#X obj 29 -17 mtcf-enable_layer_bringtop;
#X obj 29 -44 tgl 15 0 empty empty empty 17 7 0 10 -262144 -1 -1 0
1;
#X obj 182 -45 bng 15 250 50 0 empty empty empty 17 7 0 10 -262144
-1 -1;
#X floatatom 105 -44 5 0 0 0 - - -;
#X obj 75 7 bng 15 250 50 0 empty empty empty 17 7 0 10 -262144 -1
-1;
#X obj 75 31 mtcf-square 0.2;
#X obj 147 130 mtcf-stroke;
#X obj 147 67 tgl 15 0 empty empty empty 17 7 0 10 -262144 -1 -1 0
1;
#X floatatom 178 68 5 0 0 0 - - -;
#X floatatom 245 68 5 0 0 0 - - -;
#X floatatom 313 67 5 0 0 0 - - -;
#X obj 178 92 mtcf-color-rgb 22 21 24;
#X floatatom 210 111 5 0 0 0 - - -;
#X obj 273 350 Polygon2;
#X obj -295 -23 mtcf-Transformations-help;
#X obj 193 45 bng 15 250 50 0 empty empty empty 17 7 0 10 -262144 -1
-1;
#X obj -251 118 bng 15 250 50 0 empty empty empty 17 7 0 10 -262144
-1 -1;
#X obj -226 12 vsl 15 128 0 1.5 0 0 empty empty empty 0 -9 0 10 -262144
-1 -1 0 1;
#X obj -201 12 vsl 15 128 0 1 0 0 empty empty empty 0 -9 0 10 -262144
-1 -1 0 1;
#X obj -300 162 Translate 0.6 0.8;
#X obj -131 100 vsl 15 128 0 1.5 0 0 empty empty empty 0 -9 0 10 -262144
-1 -1 0 1;
#X obj -106 100 vsl 15 128 0 1 0 0 empty empty empty 0 -9 0 10 -262144
-1 -1 0 1;
#X obj -166 215 bng 15 250 50 0 empty empty empty 17 7 0 10 -262144
-1 -1;
#X obj -181 246 Scale 1.5 1.3;
#X obj -155 39 vsl 15 128 0 360 0 0 empty empty empty 0 -9 0 10 -262144
-1 -1 0 1;
#X obj -187 162 bng 15 250 50 0 empty empty empty 17 7 0 10 -262144
-1 -1;
#X obj -206 193 Rotate 45;
#X msg -300 76 transform;
#X text -282 -63 Transformations:;
#X text -115 -217 Basic Helpers:;
#X obj 273 398 OSCroute /finger;
#X obj 273 434 finger 0 0 0 0;
#X floatatom 310 463 5 0 0 0 - - -;
#X floatatom 344 463 5 0 0 0 - - -;
#X floatatom 378 463 5 0 0 0 - - -;
#X obj 293 464 tgl 15 0 empty empty empty 17 7 0 10 -262144 -1 -1 0
1;
#X obj 273 493 finger 0 0 0 0;
#X floatatom 310 522 5 0 0 0 - - -;
#X floatatom 344 522 5 0 0 0 - - -;
#X floatatom 378 522 5 0 0 0 - - -;
#X obj 293 523 tgl 15 0 empty empty empty 17 7 0 10 -262144 -1 -1 0
1;
#X obj 273 556 finger 0 0 0 0;
#X floatatom 310 585 5 0 0 0 - - -;
#X floatatom 344 585 5 0 0 0 - - -;
#X floatatom 378 585 5 0 0 0 - - -;
#X obj 293 586 tgl 15 0 empty empty empty 17 7 0 10 -262144 -1 -1 0
1;
#X msg 640 35 hide;
#X msg 649 54 unhide;
#X msg 659 74 bring_top;
#X msg 670 95 layer 3;
#X obj 190 155 bng 15 250 50 0 empty empty empty 17 7 0 10 -262144
-1 -1;
#X obj 190 182 mtcf-draw_position -0.5 -0.05 0;
#X connect 0 0 38 0;
#X connect 1 0 38 0;
#X connect 2 0 38 0;
#X connect 3 0 38 0;
#X connect 4 0 38 0;
#X connect 5 0 38 0;
#X connect 6 0 38 0;
#X connect 7 0 38 0;
#X connect 8 0 38 0;
#X connect 9 0 38 0;
#X connect 10 0 38 0;
#X connect 11 0 38 0;
#X connect 12 0 38 0;
#X connect 14 0 38 0;
#X connect 15 0 14 0;
#X connect 16 0 14 0;
#X connect 17 0 14 1;
#X connect 18 0 14 2;
#X connect 19 0 14 3;
#X connect 20 0 24 0;
#X connect 21 0 24 0;
#X connect 22 0 24 1;
#X connect 23 0 24 2;
#X connect 24 0 38 0;
#X connect 25 0 38 0;
#X connect 26 0 25 0;
#X connect 27 0 25 2;
#X connect 28 0 25 1;
#X connect 29 0 30 0;
#X connect 30 0 38 0;
#X connect 31 0 38 0;
#X connect 32 0 31 0;
#X connect 33 0 36 0;
#X connect 34 0 36 1;
#X connect 35 0 36 2;
#X connect 36 0 31 1;
#X connect 37 0 31 2;
#X connect 38 0 55 0;
#X connect 40 0 36 0;
#X connect 41 0 44 1;
#X connect 42 0 44 1;
#X connect 43 0 44 2;
#X connect 44 0 51 0;
#X connect 45 0 48 1;
#X connect 46 0 48 2;
#X connect 47 0 48 1;
#X connect 48 0 38 0;
#X connect 49 0 51 1;
#X connect 50 0 51 1;
#X connect 51 0 48 0;
#X connect 52 0 44 0;
#X connect 55 0 56 0;
#X connect 56 0 61 0;
#X connect 56 1 60 0;
#X connect 56 2 57 0;
#X connect 56 3 58 0;
#X connect 56 4 59 0;
#X connect 61 0 66 0;
#X connect 61 1 65 0;
#X connect 61 2 62 0;
#X connect 61 3 63 0;
#X connect 61 4 64 0;
#X connect 66 1 70 0;
#X connect 66 2 67 0;
#X connect 66 3 68 0;
#X connect 66 4 69 0;
#X connect 71 0 38 0;
#X connect 72 0 38 0;
#X connect 73 0 38 0;
#X connect 74 0 38 0;
#X connect 75 0 76 0;
#X connect 76 0 38 0;
