#N canvas 510 12 1284 455 10;
#X obj -107 23 loadbang;
#X obj -138 52 + 1;
#X obj -107 86 s idfigure-\$0;
#X obj 70 5 inlet;
#X obj 70 194 s basicTangibleTabletop1234messageBus;
#X obj 85 437 r basicTangibleTabletop1235messageBus;
#N canvas 685 126 450 300 collide 0;
#X obj 37 59 inlet;
#X obj 156 57 inlet;
#X obj 37 93 t l l;
#X obj 64 120 unpack f;
#X obj 64 153 == 0;
#X obj 37 200 spigot;
#X obj 37 244 outlet;
#X connect 0 0 2 0;
#X connect 1 0 4 1;
#X connect 2 0 5 0;
#X connect 2 1 3 0;
#X connect 3 0 4 0;
#X connect 4 0 5 1;
#X connect 5 0 6 0;
#X restore -94 542 pd collide;
#X obj -94 567 unpack f f f f;
#N canvas 685 126 450 300 collide 0;
#X obj 37 59 inlet;
#X obj 156 57 inlet;
#X obj 37 93 t l l;
#X obj 64 120 unpack f;
#X obj 64 153 == 0;
#X obj 37 200 spigot;
#X obj 37 244 outlet;
#X connect 0 0 2 0;
#X connect 1 0 4 1;
#X connect 2 0 5 0;
#X connect 2 1 3 0;
#X connect 3 0 4 0;
#X connect 4 0 5 1;
#X connect 5 0 6 0;
#X restore 70 567 pd collide;
#N canvas 685 126 450 300 collide 0;
#X obj 37 59 inlet;
#X obj 156 57 inlet;
#X obj 37 93 t l l;
#X obj 64 120 unpack f;
#X obj 64 153 == 0;
#X obj 37 200 spigot;
#X obj 37 244 outlet;
#X connect 0 0 2 0;
#X connect 1 0 4 1;
#X connect 2 0 5 0;
#X connect 2 1 3 0;
#X connect 3 0 4 0;
#X connect 4 0 5 1;
#X connect 5 0 6 0;
#X restore 164 566 pd collide;
#X msg 70 589 1;
#X msg 164 589 0;
#X obj 85 462 route /figure/finger /figure/addfinger /figure/rmfinger
/figure/object /figure/addobject /figure/rmobject;
#X obj -37 518 r idfigure-\$0;
#X obj 127 544 r idfigure-\$0;
#X obj 221 544 r idfigure-\$0;
#X obj 130 666 outlet;
#X obj -67 594 pack f f f;
#N canvas 685 126 450 300 collide 0;
#X obj 37 59 inlet;
#X obj 156 57 inlet;
#X obj 37 93 t l l;
#X obj 64 120 unpack f;
#X obj 64 153 == 0;
#X obj 37 200 spigot;
#X obj 37 244 outlet;
#X connect 0 0 2 0;
#X connect 1 0 4 1;
#X connect 2 0 5 0;
#X connect 2 1 3 0;
#X connect 3 0 4 0;
#X connect 4 0 5 1;
#X connect 5 0 6 0;
#X restore 313 544 pd collide;
#X obj 313 569 unpack f f f f;
#N canvas 685 126 450 300 collide 0;
#X obj 37 59 inlet;
#X obj 156 57 inlet;
#X obj 37 93 t l l;
#X obj 64 120 unpack f;
#X obj 64 153 == 0;
#X obj 37 200 spigot;
#X obj 37 244 outlet;
#X connect 0 0 2 0;
#X connect 1 0 4 1;
#X connect 2 0 5 0;
#X connect 2 1 3 0;
#X connect 3 0 4 0;
#X connect 4 0 5 1;
#X connect 5 0 6 0;
#X restore 477 569 pd collide;
#N canvas 685 126 450 300 collide 0;
#X obj 37 59 inlet;
#X obj 156 57 inlet;
#X obj 37 93 t l l;
#X obj 64 120 unpack f;
#X obj 64 153 == 0;
#X obj 37 200 spigot;
#X obj 37 244 outlet;
#X connect 0 0 2 0;
#X connect 1 0 4 1;
#X connect 2 0 5 0;
#X connect 2 1 3 0;
#X connect 3 0 4 0;
#X connect 4 0 5 1;
#X connect 5 0 6 0;
#X restore 571 568 pd collide;
#X msg 477 591 1;
#X msg 571 591 0;
#X obj 370 520 r idfigure-\$0;
#X obj 534 546 r idfigure-\$0;
#X obj 628 546 r idfigure-\$0;
#X msg 477 620 onObject \$1;
#X msg 340 621 coordObject \$1 \$2 \$3;
#X obj 340 596 pack f f f;
#X msg 70 618 onFinger \$1;
#X msg -67 619 coordFinger \$1 \$2 \$3;
#X obj -107 52 v polyIdGenerator;
#N canvas 603 462 972 491 mtcf_basics 0;
#X obj 25 24 inlet;
#X obj -220 132 r idfigure-\$0;
#X msg -235 172 is \$1 rm;
#X obj -235 152 int;
#X obj -235 132 bng 15 250 50 0 empty empty empty 17 7 0 10 -262144
-1 -1;
#X obj 144 414 outlet;
#X obj -121 132 r idfigure-\$0;
#X obj -136 152 int;
#X obj -136 132 bng 15 250 50 0 empty empty empty 17 7 0 10 -262144
-1 -1;
#X obj -21 132 r idfigure-\$0;
#X obj -36 152 int;
#X obj -36 132 bng 15 250 50 0 empty empty empty 17 7 0 10 -262144
-1 -1;
#X msg -136 172 is \$1 hide;
#X msg -36 172 is \$1 unhide;
#X obj 25 47 route rm hide unhide color position transform;
#X obj 86 106 t a a;
#X obj 126 156 == 3;
#X obj 126 128 list length;
#X obj 86 282 prepend color;
#X msg 94 246 set isiii \$1 color;
#X msg 212 245 set isiiii \$1 color;
#X obj 109 203 r idfigure-\$0;
#X obj 94 223 int;
#X obj 94 203 bng 15 250 50 0 empty empty empty 17 7 0 10 -262144 -1
-1;
#X obj 229 202 r idfigure-\$0;
#X obj 212 222 int;
#X obj 212 202 bng 15 250 50 0 empty empty empty 17 7 0 10 -262144
-1 -1;
#X obj 160 156 == 4;
#X obj 162 178 sel 1;
#X obj 126 178 sel 1;
#X obj -235 76 closebang;
#X obj 377 247 prepend position;
#X msg 387 219 set isfff \$1 position;
#X obj 387 192 r idfigure-\$0;
#X obj 530 174 l2s :;
#X obj 540 195 r idfigure-\$0;
#X obj 530 250 prepend transform;
#X msg 540 222 set iss \$1 transform;
#X obj 455 99 outlet;
#X connect 0 0 14 0;
#X connect 1 0 3 1;
#X connect 2 0 5 0;
#X connect 3 0 2 0;
#X connect 4 0 3 0;
#X connect 6 0 7 1;
#X connect 7 0 12 0;
#X connect 8 0 7 0;
#X connect 9 0 10 1;
#X connect 10 0 13 0;
#X connect 11 0 10 0;
#X connect 12 0 5 0;
#X connect 13 0 5 0;
#X connect 14 0 4 0;
#X connect 14 1 8 0;
#X connect 14 2 11 0;
#X connect 14 3 15 0;
#X connect 14 4 31 0;
#X connect 14 5 34 0;
#X connect 14 6 38 0;
#X connect 15 0 18 0;
#X connect 15 1 17 0;
#X connect 16 0 29 0;
#X connect 17 0 16 0;
#X connect 17 0 27 0;
#X connect 18 0 5 0;
#X connect 19 0 18 0;
#X connect 20 0 18 0;
#X connect 21 0 22 1;
#X connect 22 0 19 0;
#X connect 23 0 22 0;
#X connect 24 0 25 1;
#X connect 25 0 20 0;
#X connect 26 0 25 0;
#X connect 27 0 28 0;
#X connect 28 0 26 0;
#X connect 29 0 23 0;
#X connect 30 0 4 0;
#X connect 31 0 5 0;
#X connect 32 0 31 0;
#X connect 33 0 32 0;
#X connect 34 0 36 0;
#X connect 35 0 37 0;
#X connect 36 0 5 0;
#X connect 37 0 36 0;
#X restore 829 150 pd mtcf_basics;
#X obj -127 9 bng 15 250 50 0 empty empty empty 17 7 0 10 -262144 -1
-1;
#X obj 876 329 print;
#X msg 694 1 rm;
#X obj 829 225 prepend sendtyped /figure;
#X msg 699 20 color 33 34 35;
#X msg 706 43 color 33 34 35 23;
#X msg 713 69 position 2 3 4;
#X msg 685 -21 transform r 3 t 3 4 s 2 3 r 4;
#N canvas 598 467 1138 523 mtcf_polygon 0;
#X obj 74 23 inlet;
#X obj 74 52 route addvertex clearvertex texture drawpolygon drawstroke
strokecolor strokewidth;
#X obj -382 58 r idfigure-\$0;
#X msg -382 82 set isff \$1 addvertex;
#X obj -400 105 prepend addvertex;
#X obj 190 466 outlet;
#X obj -274 125 r idfigure-\$0;
#X obj -289 145 int;
#X obj -289 125 bng 15 250 50 0 empty empty empty 17 7 0 10 -262144
-1 -1;
#X msg -289 165 is \$1 clearvertex;
#X obj -174 181 r idfigure-\$0;
#X msg -174 205 set iss \$1 texture;
#X obj -77 232 r idfigure-\$0;
#X msg -77 256 set isi \$1 drawpolygon;
#X obj -178 228 prepend texture;
#X obj -81 279 prepend drawpolygon;
#X obj 74 193 r idfigure-\$0;
#X msg 74 217 set isi \$1 drawstroke;
#X obj 70 240 prepend drawstroke;
#X obj 245 158 t a a;
#X obj 285 208 == 3;
#X obj 285 180 list length;
#X obj 268 255 r idfigure-\$0;
#X obj 253 275 int;
#X obj 253 255 bng 15 250 50 0 empty empty empty 17 7 0 10 -262144
-1 -1;
#X obj 388 254 r idfigure-\$0;
#X obj 371 274 int;
#X obj 371 254 bng 15 250 50 0 empty empty empty 17 7 0 10 -262144
-1 -1;
#X obj 319 208 == 4;
#X obj 321 230 sel 1;
#X obj 285 230 sel 1;
#X msg 371 297 set isiiii \$1 strokecolor;
#X msg 253 298 set isiii \$1 strokecolor;
#X obj 245 334 prepend strokecolor;
#X obj 564 214 r idfigure-\$0;
#X msg 564 238 set isi \$1 strokewidth;
#X obj 560 261 prepend strokewidth;
#X obj 490 122 outlet;
#X connect 0 0 1 0;
#X connect 1 0 4 0;
#X connect 1 1 8 0;
#X connect 1 2 14 0;
#X connect 1 3 15 0;
#X connect 1 4 18 0;
#X connect 1 5 19 0;
#X connect 1 6 36 0;
#X connect 1 7 37 0;
#X connect 2 0 3 0;
#X connect 3 0 4 0;
#X connect 4 0 5 0;
#X connect 6 0 7 1;
#X connect 7 0 9 0;
#X connect 8 0 7 0;
#X connect 9 0 5 0;
#X connect 10 0 11 0;
#X connect 11 0 14 0;
#X connect 12 0 13 0;
#X connect 13 0 15 0;
#X connect 14 0 5 0;
#X connect 15 0 5 0;
#X connect 16 0 17 0;
#X connect 17 0 18 0;
#X connect 18 0 5 0;
#X connect 19 0 33 0;
#X connect 19 1 21 0;
#X connect 20 0 30 0;
#X connect 21 0 20 0;
#X connect 21 0 28 0;
#X connect 22 0 23 1;
#X connect 23 0 32 0;
#X connect 24 0 23 0;
#X connect 25 0 26 1;
#X connect 26 0 31 0;
#X connect 27 0 26 0;
#X connect 28 0 29 0;
#X connect 29 0 27 0;
#X connect 30 0 24 0;
#X connect 31 0 33 0;
#X connect 32 0 33 0;
#X connect 33 0 5 0;
#X connect 34 0 35 0;
#X connect 35 0 36 0;
#X connect 36 0 5 0;
#X restore 910 193 pd mtcf_polygon;
#X msg 879 -21 addvertex 3.4 2.4;
#X msg 903 58 texture /foo/bar.test;
#X msg 885 -1 clearvertex;
#X msg 891 19 drawpolygon 0;
#X msg 907 82 strokecolor 34 45 255;
#X msg 911 104 strokecolor 34 45 255 50;
#X msg 911 125 strokewidth 5;
#X obj 1014 244 prepend /figure;
#X obj 1025 195 r idfigure-\$0;
#X msg 1025 219 set /figure \$1;
#X msg 599 -20 anything;
#N canvas 557 440 972 491 mtcf_basics 0;
#X obj 25 24 inlet;
#X obj -220 132 r idfigure-\$0;
#X msg -235 172 is \$1 rm;
#X obj -235 152 int;
#X obj -235 132 bng 15 250 50 0 empty empty empty 17 7 0 10 -262144
-1 -1;
#X obj 144 414 outlet;
#X obj -121 132 r idfigure-\$0;
#X obj -136 152 int;
#X obj -136 132 bng 15 250 50 0 empty empty empty 17 7 0 10 -262144
-1 -1;
#X obj -21 132 r idfigure-\$0;
#X obj -36 152 int;
#X obj -36 132 bng 15 250 50 0 empty empty empty 17 7 0 10 -262144
-1 -1;
#X msg -136 172 is \$1 hide;
#X msg -36 172 is \$1 unhide;
#X obj 25 47 route rm hide unhide color position transform;
#X obj 86 106 t a a;
#X obj 126 156 == 3;
#X obj 126 128 list length;
#X obj 86 282 prepend color;
#X msg 94 246 set isiii \$1 color;
#X msg 212 245 set isiiii \$1 color;
#X obj 109 203 r idfigure-\$0;
#X obj 94 223 int;
#X obj 94 203 bng 15 250 50 0 empty empty empty 17 7 0 10 -262144 -1
-1;
#X obj 229 202 r idfigure-\$0;
#X obj 212 222 int;
#X obj 212 202 bng 15 250 50 0 empty empty empty 17 7 0 10 -262144
-1 -1;
#X obj 160 156 == 4;
#X obj 162 178 sel 1;
#X obj 126 178 sel 1;
#X obj -235 76 closebang;
#X obj 377 247 prepend position;
#X msg 387 219 set isfff \$1 position;
#X obj 387 192 r idfigure-\$0;
#X obj 530 174 l2s :;
#X obj 540 195 r idfigure-\$0;
#X obj 530 250 prepend transform;
#X msg 540 222 set iss \$1 transform;
#X obj 455 99 outlet;
#X connect 0 0 14 0;
#X connect 1 0 3 1;
#X connect 2 0 5 0;
#X connect 3 0 2 0;
#X connect 4 0 3 0;
#X connect 6 0 7 1;
#X connect 7 0 12 0;
#X connect 8 0 7 0;
#X connect 9 0 10 1;
#X connect 10 0 13 0;
#X connect 11 0 10 0;
#X connect 12 0 5 0;
#X connect 13 0 5 0;
#X connect 14 0 4 0;
#X connect 14 1 8 0;
#X connect 14 2 11 0;
#X connect 14 3 15 0;
#X connect 14 4 31 0;
#X connect 14 5 34 0;
#X connect 14 6 38 0;
#X connect 15 0 18 0;
#X connect 15 1 17 0;
#X connect 16 0 29 0;
#X connect 17 0 16 0;
#X connect 17 0 27 0;
#X connect 18 0 5 0;
#X connect 19 0 18 0;
#X connect 20 0 18 0;
#X connect 21 0 22 1;
#X connect 22 0 19 0;
#X connect 23 0 22 0;
#X connect 24 0 25 1;
#X connect 25 0 20 0;
#X connect 26 0 25 0;
#X connect 27 0 28 0;
#X connect 28 0 26 0;
#X connect 29 0 23 0;
#X connect 30 0 4 0;
#X connect 31 0 5 0;
#X connect 32 0 31 0;
#X connect 33 0 32 0;
#X connect 34 0 36 0;
#X connect 35 0 37 0;
#X connect 36 0 5 0;
#X connect 37 0 36 0;
#X restore 70 32 pd mtcf_basics;
#X obj 70 107 prepend sendtyped /figure;
#N canvas 598 467 1138 523 mtcf_polygon 0;
#X obj 74 23 inlet;
#X obj 74 52 route addvertex clearvertex texture drawpolygon drawstroke
strokecolor strokewidth;
#X obj -382 58 r idfigure-\$0;
#X msg -382 82 set isff \$1 addvertex;
#X obj -400 105 prepend addvertex;
#X obj 190 466 outlet;
#X obj -274 125 r idfigure-\$0;
#X obj -289 145 int;
#X obj -289 125 bng 15 250 50 0 empty empty empty 17 7 0 10 -262144
-1 -1;
#X msg -289 165 is \$1 clearvertex;
#X obj -174 181 r idfigure-\$0;
#X msg -174 205 set iss \$1 texture;
#X obj -77 232 r idfigure-\$0;
#X msg -77 256 set isi \$1 drawpolygon;
#X obj -178 228 prepend texture;
#X obj -81 279 prepend drawpolygon;
#X obj 74 193 r idfigure-\$0;
#X msg 74 217 set isi \$1 drawstroke;
#X obj 70 240 prepend drawstroke;
#X obj 245 158 t a a;
#X obj 285 208 == 3;
#X obj 285 180 list length;
#X obj 268 255 r idfigure-\$0;
#X obj 253 275 int;
#X obj 253 255 bng 15 250 50 0 empty empty empty 17 7 0 10 -262144
-1 -1;
#X obj 388 254 r idfigure-\$0;
#X obj 371 274 int;
#X obj 371 254 bng 15 250 50 0 empty empty empty 17 7 0 10 -262144
-1 -1;
#X obj 319 208 == 4;
#X obj 321 230 sel 1;
#X obj 285 230 sel 1;
#X msg 371 297 set isiiii \$1 strokecolor;
#X msg 253 298 set isiii \$1 strokecolor;
#X obj 245 334 prepend strokecolor;
#X obj 564 214 r idfigure-\$0;
#X msg 564 238 set isi \$1 strokewidth;
#X obj 560 261 prepend strokewidth;
#X obj 490 122 outlet;
#X connect 0 0 1 0;
#X connect 1 0 4 0;
#X connect 1 1 8 0;
#X connect 1 2 14 0;
#X connect 1 3 15 0;
#X connect 1 4 18 0;
#X connect 1 5 19 0;
#X connect 1 6 36 0;
#X connect 1 7 37 0;
#X connect 2 0 3 0;
#X connect 3 0 4 0;
#X connect 4 0 5 0;
#X connect 6 0 7 1;
#X connect 7 0 9 0;
#X connect 8 0 7 0;
#X connect 9 0 5 0;
#X connect 10 0 11 0;
#X connect 11 0 14 0;
#X connect 12 0 13 0;
#X connect 13 0 15 0;
#X connect 14 0 5 0;
#X connect 15 0 5 0;
#X connect 16 0 17 0;
#X connect 17 0 18 0;
#X connect 18 0 5 0;
#X connect 19 0 33 0;
#X connect 19 1 21 0;
#X connect 20 0 30 0;
#X connect 21 0 20 0;
#X connect 21 0 28 0;
#X connect 22 0 23 1;
#X connect 23 0 32 0;
#X connect 24 0 23 0;
#X connect 25 0 26 1;
#X connect 26 0 31 0;
#X connect 27 0 26 0;
#X connect 28 0 29 0;
#X connect 29 0 27 0;
#X connect 30 0 24 0;
#X connect 31 0 33 0;
#X connect 32 0 33 0;
#X connect 33 0 5 0;
#X connect 34 0 35 0;
#X connect 35 0 36 0;
#X connect 36 0 5 0;
#X restore 151 75 pd mtcf_polygon;
#X obj 255 126 prepend /figure;
#X obj 266 77 r idfigure-\$0;
#X msg 266 101 set /figure \$1;
#X text 497 -19 msg examples:;
#X msg 896 39 drawstroke 1;
#X connect 0 0 32 0;
#X connect 1 0 32 0;
#X connect 3 0 54 0;
#X connect 5 0 12 0;
#X connect 6 0 7 0;
#X connect 7 1 17 0;
#X connect 7 2 17 1;
#X connect 7 3 17 2;
#X connect 8 0 10 0;
#X connect 9 0 11 0;
#X connect 10 0 30 0;
#X connect 11 0 30 0;
#X connect 12 0 6 0;
#X connect 12 1 8 0;
#X connect 12 2 9 0;
#X connect 12 3 18 0;
#X connect 12 4 20 0;
#X connect 12 5 21 0;
#X connect 13 0 6 1;
#X connect 14 0 8 1;
#X connect 15 0 9 1;
#X connect 17 0 31 0;
#X connect 18 0 19 0;
#X connect 19 1 29 0;
#X connect 19 2 29 1;
#X connect 19 3 29 2;
#X connect 20 0 22 0;
#X connect 21 0 23 0;
#X connect 22 0 27 0;
#X connect 23 0 27 0;
#X connect 24 0 18 1;
#X connect 25 0 20 1;
#X connect 26 0 21 1;
#X connect 27 0 16 0;
#X connect 28 0 16 0;
#X connect 29 0 28 0;
#X connect 30 0 16 0;
#X connect 31 0 16 0;
#X connect 32 0 1 0;
#X connect 32 0 2 0;
#X connect 33 0 37 0;
#X connect 33 1 42 0;
#X connect 34 0 32 0;
#X connect 36 0 33 0;
#X connect 37 0 35 0;
#X connect 38 0 33 0;
#X connect 39 0 33 0;
#X connect 40 0 33 0;
#X connect 41 0 33 0;
#X connect 42 0 37 0;
#X connect 42 1 50 0;
#X connect 43 0 33 0;
#X connect 44 0 33 0;
#X connect 45 0 33 0;
#X connect 46 0 33 0;
#X connect 47 0 33 0;
#X connect 48 0 33 0;
#X connect 49 0 33 0;
#X connect 50 0 35 0;
#X connect 51 0 52 0;
#X connect 52 0 50 0;
#X connect 53 0 33 0;
#X connect 54 0 55 0;
#X connect 54 1 56 0;
#X connect 55 0 4 0;
#X connect 56 0 55 0;
#X connect 56 1 57 0;
#X connect 57 0 4 0;
#X connect 58 0 59 0;
#X connect 59 0 57 0;
#X connect 61 0 33 0;
