#N canvas 339 110 638 492 10;
#X obj -5 11 inlet;
#X obj 111 9 inlet;
#X obj 154 10 inlet;
#X obj 201 10 inlet;
#X obj 154 45 t b f;
#X obj 201 45 t b f;
#X obj 404 12 inlet;
#X obj 485 12 inlet;
#X obj 162 423 outlet;
#X obj 214 423 outlet;
#X obj 259 423 outlet;
#X obj 109 423 outlet;
#X obj 360 424 outlet;
#X obj 406 424 outlet;
#X obj 451 424 outlet;
#X obj 310 423 outlet;
#X msg -5 153 addvertex \$1 \$2;
#X obj 111 105 pack f f f;
#X msg 111 154 position \$1 \$2 \$3;
#X obj 248 10 inlet;
#X obj 291 11 inlet;
#X obj 338 11 inlet;
#X obj 291 46 t b f;
#X obj 338 46 t b f;
#X obj 248 106 pack f f f;
#X msg 249 156 color \$1 \$2 \$3;
#X msg 404 158 clearvertex;
#X obj 404 51 bang;
#X obj 485 159 prepend texture;
#X obj 244 258 Polygon2;
#X obj 133 324 route onFinger coordFinger onObject coordObject;
#X obj 162 397 unpack f f f;
#X obj 360 401 unpack f f f;
#X connect 0 0 16 0;
#X connect 1 0 17 0;
#X connect 2 0 4 0;
#X connect 3 0 5 0;
#X connect 4 0 17 0;
#X connect 4 1 17 1;
#X connect 5 0 17 0;
#X connect 5 1 17 2;
#X connect 6 0 27 0;
#X connect 7 0 28 0;
#X connect 16 0 29 0;
#X connect 17 0 18 0;
#X connect 18 0 29 0;
#X connect 19 0 24 0;
#X connect 20 0 22 0;
#X connect 21 0 23 0;
#X connect 22 0 24 0;
#X connect 22 1 24 1;
#X connect 23 0 24 0;
#X connect 23 1 24 2;
#X connect 24 0 25 0;
#X connect 25 0 29 0;
#X connect 26 0 29 0;
#X connect 27 0 26 0;
#X connect 28 0 29 0;
#X connect 29 0 30 0;
#X connect 30 0 11 0;
#X connect 30 1 31 0;
#X connect 30 2 15 0;
#X connect 30 3 32 0;
#X connect 31 0 8 0;
#X connect 31 1 9 0;
#X connect 31 2 10 0;
#X connect 32 0 12 0;
#X connect 32 1 13 0;
#X connect 32 2 14 0;
