#N canvas 1920 304 1280 746 10;
#X obj 428 27 loadbang;
#X obj 404 95 + 1;
#X obj 360 12 closebang;
#X obj 360 145 int;
#X msg 381 228 /figure \$1 rm;
#X obj -5 11 inlet;
#X obj -5 62 unpack f f;
#X obj -5 129 int;
#X msg -5 224 /figure \$1 addvertex \$2 \$3;
#X obj -5 186 pack f f f;
#X obj -5 92 t b f;
#X obj 98 349 s basicTangibleTabletop1234messageBus;
#X obj 161 12 inlet;
#X obj 204 13 inlet;
#X obj 251 13 inlet;
#X obj 161 79 t b f;
#X obj 204 80 t b f;
#X obj 251 80 t b f;
#X obj 172 179 pack f f f f;
#X obj 163 130 int;
#X msg 172 228 /figure \$1 position \$2 \$3 \$4;
#X obj 543 12 inlet;
#X obj 507 116 int;
#X obj 543 68 t b f;
#X obj 595 12 inlet;
#X obj 595 68 t b f;
#X obj 653 12 inlet;
#X obj 653 68 t b f;
#X obj 554 181 pack f f f f;
#X msg 554 220 /figure \$1 color \$2 \$3 \$4;
#X obj 787 11 inlet;
#X obj 787 107 int;
#X obj 787 56 bang;
#X msg 757 219 /figure \$1 clearvertex;
#X obj 916 70 l2s;
#X obj 900 156 int;
#X obj 916 113 t b s;
#X obj 913 191 pack f s;
#X obj 916 11 inlet;
#X msg 913 220 /figure \$1 texture \$2;
#X obj 110 422 r basicTangibleTabletop1235messageBus;
#N canvas 685 126 450 300 collide 0;
#X obj 37 59 inlet;
#X obj 156 57 inlet;
#X obj 37 93 t l l;
#X obj 64 120 unpack f;
#X obj 64 153 == 0;
#X obj 37 200 spigot;
#X obj 37 244 outlet;
#X connect 0 0 2 0;
#X connect 1 0 4 1;
#X connect 2 0 5 0;
#X connect 2 1 3 0;
#X connect 3 0 4 0;
#X connect 4 0 5 1;
#X connect 5 0 6 0;
#X restore -17 519 pd collide;
#X obj -22 592 outlet;
#X obj 24 592 outlet;
#X obj 69 592 outlet;
#X obj -17 549 unpack f f f f;
#N canvas 685 126 450 300 collide 0;
#X obj 37 59 inlet;
#X obj 156 57 inlet;
#X obj 37 93 t l l;
#X obj 64 120 unpack f;
#X obj 64 153 == 0;
#X obj 37 200 spigot;
#X obj 37 244 outlet;
#X connect 0 0 2 0;
#X connect 1 0 4 1;
#X connect 2 0 5 0;
#X connect 2 1 3 0;
#X connect 3 0 4 0;
#X connect 4 0 5 1;
#X connect 5 0 6 0;
#X restore 114 517 pd collide;
#N canvas 685 126 450 300 collide 0;
#X obj 37 59 inlet;
#X obj 156 57 inlet;
#X obj 37 93 t l l;
#X obj 64 120 unpack f;
#X obj 64 153 == 0;
#X obj 37 200 spigot;
#X obj 37 244 outlet;
#X connect 0 0 2 0;
#X connect 1 0 4 1;
#X connect 2 0 5 0;
#X connect 2 1 3 0;
#X connect 3 0 4 0;
#X connect 4 0 5 1;
#X connect 5 0 6 0;
#X restore 207 515 pd collide;
#X msg 114 546 1;
#X msg 207 551 0;
#X obj -82 594 outlet;
#X obj 110 447 route /figure/finger /figure/addfinger /figure/rmfinger
/figure/object /figure/addobject /figure/rmobject;
#N canvas 685 126 450 300 collide 0;
#X obj 37 59 inlet;
#X obj 156 57 inlet;
#X obj 37 93 t l l;
#X obj 64 120 unpack f;
#X obj 64 153 == 0;
#X obj 37 200 spigot;
#X obj 37 244 outlet;
#X connect 0 0 2 0;
#X connect 1 0 4 1;
#X connect 2 0 5 0;
#X connect 2 1 3 0;
#X connect 3 0 4 0;
#X connect 4 0 5 1;
#X connect 5 0 6 0;
#X restore 343 516 pd collide;
#X obj 338 589 outlet;
#X obj 384 589 outlet;
#X obj 429 589 outlet;
#X obj 343 546 unpack f f f f;
#N canvas 685 126 450 300 collide 0;
#X obj 37 59 inlet;
#X obj 156 57 inlet;
#X obj 37 93 t l l;
#X obj 64 120 unpack f;
#X obj 64 153 == 0;
#X obj 37 200 spigot;
#X obj 37 244 outlet;
#X connect 0 0 2 0;
#X connect 1 0 4 1;
#X connect 2 0 5 0;
#X connect 2 1 3 0;
#X connect 3 0 4 0;
#X connect 4 0 5 1;
#X connect 5 0 6 0;
#X restore 474 514 pd collide;
#N canvas 685 126 450 300 collide 0;
#X obj 37 59 inlet;
#X obj 156 57 inlet;
#X obj 37 93 t l l;
#X obj 64 120 unpack f;
#X obj 64 153 == 0;
#X obj 37 200 spigot;
#X obj 37 244 outlet;
#X connect 0 0 2 0;
#X connect 1 0 4 1;
#X connect 2 0 5 0;
#X connect 2 1 3 0;
#X connect 3 0 4 0;
#X connect 4 0 5 1;
#X connect 5 0 6 0;
#X restore 567 512 pd collide;
#X msg 474 543 1;
#X msg 567 548 0;
#X obj 278 591 outlet;
#X obj 51 489 r idfigure-\$0;
#X obj 144 494 r idfigure-\$0;
#X obj 227 493 r idfigure-\$0;
#X obj 411 486 r idfigure-\$0;
#X obj 504 491 r idfigure-\$0;
#X obj 587 490 r idfigure-\$0;
#X obj 269 161 s idfigure-\$0;
#X obj 457 95 v polyIdGenerator;
#X connect 0 0 69 0;
#X connect 1 0 69 0;
#X connect 2 0 3 0;
#X connect 3 0 4 0;
#X connect 4 0 11 0;
#X connect 5 0 6 0;
#X connect 6 0 10 0;
#X connect 6 1 9 2;
#X connect 7 0 9 0;
#X connect 8 0 11 0;
#X connect 9 0 8 0;
#X connect 10 0 7 0;
#X connect 10 1 9 1;
#X connect 12 0 15 0;
#X connect 13 0 16 0;
#X connect 14 0 17 0;
#X connect 15 0 19 0;
#X connect 15 1 18 1;
#X connect 16 0 19 0;
#X connect 16 1 18 2;
#X connect 17 0 19 0;
#X connect 17 1 18 3;
#X connect 18 0 20 0;
#X connect 19 0 18 0;
#X connect 20 0 11 0;
#X connect 21 0 23 0;
#X connect 22 0 28 0;
#X connect 23 0 22 0;
#X connect 23 1 28 1;
#X connect 24 0 25 0;
#X connect 25 0 22 0;
#X connect 25 1 28 2;
#X connect 26 0 27 0;
#X connect 27 0 22 0;
#X connect 27 1 28 3;
#X connect 28 0 29 0;
#X connect 29 0 11 0;
#X connect 30 0 32 0;
#X connect 31 0 33 0;
#X connect 32 0 31 0;
#X connect 33 0 11 0;
#X connect 34 0 36 0;
#X connect 35 0 37 0;
#X connect 36 0 35 0;
#X connect 36 1 37 1;
#X connect 37 0 39 0;
#X connect 38 0 34 0;
#X connect 39 0 11 0;
#X connect 40 0 51 0;
#X connect 41 0 45 0;
#X connect 45 1 42 0;
#X connect 45 2 43 0;
#X connect 45 3 44 0;
#X connect 46 0 48 0;
#X connect 47 0 49 0;
#X connect 48 0 50 0;
#X connect 49 0 50 0;
#X connect 51 0 41 0;
#X connect 51 1 46 0;
#X connect 51 2 47 0;
#X connect 51 3 52 0;
#X connect 51 4 57 0;
#X connect 51 5 58 0;
#X connect 52 0 56 0;
#X connect 56 1 53 0;
#X connect 56 2 54 0;
#X connect 56 3 55 0;
#X connect 57 0 59 0;
#X connect 58 0 60 0;
#X connect 59 0 61 0;
#X connect 60 0 61 0;
#X connect 62 0 41 1;
#X connect 63 0 46 1;
#X connect 64 0 47 1;
#X connect 65 0 52 1;
#X connect 66 0 57 1;
#X connect 67 0 58 1;
#X connect 69 0 1 0;
#X connect 69 0 3 1;
#X connect 69 0 7 1;
#X connect 69 0 19 1;
#X connect 69 0 22 1;
#X connect 69 0 31 1;
#X connect 69 0 35 1;
#X connect 69 0 68 0;
