#N canvas 463 279 1444 800 10;
#X obj -107 -23 loadbang;
#X obj -138 52 + 1;
#X obj -107 86 s idfigure-\$0;
#X obj 70 5 inlet;
#X obj 70 194 s basicTangibleTabletop1234messageBus;
#X obj 69 235 r basicTangibleTabletop1235messageBus;
#N canvas 685 126 450 300 collide 0;
#X obj 37 59 inlet;
#X obj 156 57 inlet;
#X obj 37 93 t l l;
#X obj 64 120 unpack f;
#X obj 64 153 == 0;
#X obj 37 200 spigot;
#X obj 37 244 outlet;
#X connect 0 0 2 0;
#X connect 1 0 4 1;
#X connect 2 0 5 0;
#X connect 2 1 3 0;
#X connect 3 0 4 0;
#X connect 4 0 5 1;
#X connect 5 0 6 0;
#X restore -47 344 pd collide;
#X obj -135 380 unpack f f f f;
#N canvas 685 126 450 300 collide 0;
#X obj 37 59 inlet;
#X obj 156 57 inlet;
#X obj 37 93 t l l;
#X obj 64 120 unpack f;
#X obj 64 153 == 0;
#X obj 37 200 spigot;
#X obj 37 244 outlet;
#X connect 0 0 2 0;
#X connect 1 0 4 1;
#X connect 2 0 5 0;
#X connect 2 1 3 0;
#X connect 3 0 4 0;
#X connect 4 0 5 1;
#X connect 5 0 6 0;
#X restore 217 336 pd collide;
#N canvas 685 126 450 300 collide 0;
#X obj 37 59 inlet;
#X obj 156 57 inlet;
#X obj 37 93 t l l;
#X obj 64 120 unpack f;
#X obj 64 153 == 0;
#X obj 37 200 spigot;
#X obj 37 244 outlet;
#X connect 0 0 2 0;
#X connect 1 0 4 1;
#X connect 2 0 5 0;
#X connect 2 1 3 0;
#X connect 3 0 4 0;
#X connect 4 0 5 1;
#X connect 5 0 6 0;
#X restore 373 343 pd collide;
#X msg 302 400 1;
#X msg 350 399 0;
#X obj 10 320 r idfigure-\$0;
#X obj 274 313 r idfigure-\$0;
#X obj 430 321 r idfigure-\$0;
#X obj 468 594 outlet;
#X obj -108 407 pack f f f;
#N canvas 685 126 450 300 collide 0;
#X obj 37 59 inlet;
#X obj 156 57 inlet;
#X obj 37 93 t l l;
#X obj 64 120 unpack f;
#X obj 64 153 == 0;
#X obj 37 200 spigot;
#X obj 37 244 outlet;
#X connect 0 0 2 0;
#X connect 1 0 4 1;
#X connect 2 0 5 0;
#X connect 2 1 3 0;
#X connect 3 0 4 0;
#X connect 4 0 5 1;
#X connect 5 0 6 0;
#X restore 587 367 pd collide;
#X obj 587 392 unpack f f f f;
#N canvas 685 126 450 300 collide 0;
#X obj 37 59 inlet;
#X obj 156 57 inlet;
#X obj 37 93 t l l;
#X obj 64 120 unpack f;
#X obj 64 153 == 0;
#X obj 37 200 spigot;
#X obj 37 244 outlet;
#X connect 0 0 2 0;
#X connect 1 0 4 1;
#X connect 2 0 5 0;
#X connect 2 1 3 0;
#X connect 3 0 4 0;
#X connect 4 0 5 1;
#X connect 5 0 6 0;
#X restore 751 392 pd collide;
#N canvas 685 126 450 300 collide 0;
#X obj 37 59 inlet;
#X obj 156 57 inlet;
#X obj 37 93 t l l;
#X obj 64 120 unpack f;
#X obj 64 153 == 0;
#X obj 37 200 spigot;
#X obj 37 244 outlet;
#X connect 0 0 2 0;
#X connect 1 0 4 1;
#X connect 2 0 5 0;
#X connect 2 1 3 0;
#X connect 3 0 4 0;
#X connect 4 0 5 1;
#X connect 5 0 6 0;
#X restore 845 391 pd collide;
#X msg 751 414 1;
#X msg 845 414 0;
#X obj 644 343 r idfigure-\$0;
#X obj 808 369 r idfigure-\$0;
#X obj 902 369 r idfigure-\$0;
#X msg 751 443 onObject \$1;
#X msg 614 444 coordObject \$1 \$2 \$3;
#X obj 614 419 pack f f f;
#X msg -108 432 coordFinger \$1 \$2 \$3;
#X obj -107 52 v polyIdGenerator;
#N canvas 67 288 1508 791 mtcf_basics 0;
#X obj 25 24 inlet;
#X obj -220 132 r idfigure-\$0;
#X msg -235 172 is \$1 rm;
#X obj -235 152 int;
#X obj -235 132 bng 15 250 50 0 empty empty empty 17 7 0 10 -262144
-1 -1;
#X obj 144 414 outlet;
#X obj -121 132 r idfigure-\$0;
#X obj -136 152 int;
#X obj -136 132 bng 15 250 50 0 empty empty empty 17 7 0 10 -262144
-1 -1;
#X obj -21 132 r idfigure-\$0;
#X obj -36 152 int;
#X obj -36 132 bng 15 250 50 0 empty empty empty 17 7 0 10 -262144
-1 -1;
#X msg -136 172 is \$1 hide;
#X msg -36 172 is \$1 unhide;
#X obj 86 106 t a a;
#X obj 126 156 == 3;
#X obj 126 128 list length;
#X obj 86 282 prepend color;
#X msg 94 246 set isiii \$1 color;
#X msg 212 245 set isiiii \$1 color;
#X obj 109 203 r idfigure-\$0;
#X obj 94 223 int;
#X obj 94 203 bng 15 250 50 0 empty empty empty 17 7 0 10 -262144 -1
-1;
#X obj 229 202 r idfigure-\$0;
#X obj 212 222 int;
#X obj 212 202 bng 15 250 50 0 empty empty empty 17 7 0 10 -262144
-1 -1;
#X obj 160 156 == 4;
#X obj 162 178 sel 1;
#X obj 126 178 sel 1;
#X obj -235 76 closebang;
#X obj 377 247 prepend position;
#X msg 387 219 set isfff \$1 position;
#X obj 387 192 r idfigure-\$0;
#X obj 530 174 l2s :;
#X obj 540 195 r idfigure-\$0;
#X obj 530 250 prepend transform;
#X msg 540 222 set iss \$1 transform;
#X obj 1202 78 outlet;
#X obj 25 47 route rm hide unhide color position transform matrix;
#X obj 809 173 mtcf-matrix;
#X obj 847 235 prepend matrix;
#X obj 925 172 r idfigure-\$0;
#X msg 925 200 set isffffffffffffffff \$1 matrix;
#X connect 0 0 38 0;
#X connect 1 0 3 1;
#X connect 2 0 5 0;
#X connect 3 0 2 0;
#X connect 4 0 3 0;
#X connect 6 0 7 1;
#X connect 7 0 12 0;
#X connect 8 0 7 0;
#X connect 9 0 10 1;
#X connect 10 0 13 0;
#X connect 11 0 10 0;
#X connect 12 0 5 0;
#X connect 13 0 5 0;
#X connect 14 0 17 0;
#X connect 14 1 16 0;
#X connect 15 0 28 0;
#X connect 16 0 15 0;
#X connect 16 0 26 0;
#X connect 17 0 5 0;
#X connect 18 0 17 0;
#X connect 19 0 17 0;
#X connect 20 0 21 1;
#X connect 21 0 18 0;
#X connect 22 0 21 0;
#X connect 23 0 24 1;
#X connect 24 0 19 0;
#X connect 25 0 24 0;
#X connect 26 0 27 0;
#X connect 27 0 25 0;
#X connect 28 0 22 0;
#X connect 29 0 4 0;
#X connect 30 0 5 0;
#X connect 31 0 30 0;
#X connect 32 0 31 0;
#X connect 33 0 35 0;
#X connect 34 0 36 0;
#X connect 35 0 5 0;
#X connect 36 0 35 0;
#X connect 38 0 4 0;
#X connect 38 1 8 0;
#X connect 38 2 11 0;
#X connect 38 3 14 0;
#X connect 38 4 30 0;
#X connect 38 5 33 0;
#X connect 38 6 39 0;
#X connect 38 7 37 0;
#X connect 39 0 40 0;
#X connect 40 0 5 0;
#X connect 41 0 42 0;
#X connect 42 0 40 0;
#X restore 70 32 pd mtcf_basics;
#X obj 70 107 prepend sendtyped /figure;
#N canvas 598 467 1138 523 mtcf_polygon 0;
#X obj 74 23 inlet;
#X obj 74 52 route addvertex clearvertex texture drawpolygon drawstroke
strokecolor strokewidth;
#X obj -382 58 r idfigure-\$0;
#X msg -382 82 set isff \$1 addvertex;
#X obj -400 105 prepend addvertex;
#X obj 190 466 outlet;
#X obj -274 125 r idfigure-\$0;
#X obj -289 145 int;
#X obj -289 125 bng 15 250 50 0 empty empty empty 17 7 0 10 -262144
-1 -1;
#X msg -289 165 is \$1 clearvertex;
#X obj -174 181 r idfigure-\$0;
#X msg -174 205 set iss \$1 texture;
#X obj -77 232 r idfigure-\$0;
#X msg -77 256 set isi \$1 drawpolygon;
#X obj -178 228 prepend texture;
#X obj -81 279 prepend drawpolygon;
#X obj 74 193 r idfigure-\$0;
#X msg 74 217 set isi \$1 drawstroke;
#X obj 70 240 prepend drawstroke;
#X obj 245 158 t a a;
#X obj 285 208 == 3;
#X obj 285 180 list length;
#X obj 268 255 r idfigure-\$0;
#X obj 253 275 int;
#X obj 253 255 bng 15 250 50 0 empty empty empty 17 7 0 10 -262144
-1 -1;
#X obj 388 254 r idfigure-\$0;
#X obj 371 274 int;
#X obj 371 254 bng 15 250 50 0 empty empty empty 17 7 0 10 -262144
-1 -1;
#X obj 319 208 == 4;
#X obj 321 230 sel 1;
#X obj 285 230 sel 1;
#X msg 371 297 set isiiii \$1 strokecolor;
#X msg 253 298 set isiii \$1 strokecolor;
#X obj 245 334 prepend strokecolor;
#X obj 564 214 r idfigure-\$0;
#X obj 560 261 prepend strokewidth;
#X obj 490 122 outlet;
#X msg 564 238 set isf \$1 strokewidth;
#X connect 0 0 1 0;
#X connect 1 0 4 0;
#X connect 1 1 8 0;
#X connect 1 2 14 0;
#X connect 1 3 15 0;
#X connect 1 4 18 0;
#X connect 1 5 19 0;
#X connect 1 6 35 0;
#X connect 1 7 36 0;
#X connect 2 0 3 0;
#X connect 3 0 4 0;
#X connect 4 0 5 0;
#X connect 6 0 7 1;
#X connect 7 0 9 0;
#X connect 8 0 7 0;
#X connect 9 0 5 0;
#X connect 10 0 11 0;
#X connect 11 0 14 0;
#X connect 12 0 13 0;
#X connect 13 0 15 0;
#X connect 14 0 5 0;
#X connect 15 0 5 0;
#X connect 16 0 17 0;
#X connect 17 0 18 0;
#X connect 18 0 5 0;
#X connect 19 0 33 0;
#X connect 19 1 21 0;
#X connect 20 0 30 0;
#X connect 21 0 20 0;
#X connect 21 0 28 0;
#X connect 22 0 23 1;
#X connect 23 0 32 0;
#X connect 24 0 23 0;
#X connect 25 0 26 1;
#X connect 26 0 31 0;
#X connect 27 0 26 0;
#X connect 28 0 29 0;
#X connect 29 0 27 0;
#X connect 30 0 24 0;
#X connect 31 0 33 0;
#X connect 32 0 33 0;
#X connect 33 0 5 0;
#X connect 34 0 37 0;
#X connect 35 0 5 0;
#X connect 37 0 35 0;
#X restore 151 75 pd mtcf_polygon;
#X obj 255 126 prepend /figure;
#X obj 266 77 r idfigure-\$0;
#X msg 266 101 set /figure \$1;
#X obj -89 25 bng 15 250 50 0 empty empty empty 17 7 0 10 -262144 -1
-1;
#X obj 152 370 unpack f f f f f;
#X obj 176 401 pack f f f f;
#X obj 9 373 unpack f f f f f;
#X obj 33 404 pack f f f f;
#X obj 637 277 route /figure/object /figure/addobject /figure/rmobject
;
#X obj 69 260 route /figure/finger /figure/addfinger /figure/rmfinger
;
#X obj 1050 359 route /figure/matrix;
#N canvas 685 126 450 300 collide 0;
#X obj 37 59 inlet;
#X obj 156 57 inlet;
#X obj 37 93 t l l;
#X obj 64 120 unpack f;
#X obj 64 153 == 0;
#X obj 37 200 spigot;
#X obj 37 244 outlet;
#X connect 0 0 2 0;
#X connect 1 0 4 1;
#X connect 2 0 5 0;
#X connect 2 1 3 0;
#X connect 3 0 4 0;
#X connect 4 0 5 1;
#X connect 5 0 6 0;
#X restore 1050 424 pd collide;
#X obj 1107 400 r idfigure-\$0;
#X obj 1036 462 list split 1;
#X msg 302 429 onFinger \$1;
#X obj 33 432 prepend finger /move;
#X obj 176 429 prepend finger /in;
#X obj 432 429 prepend finger /out;
#X obj 1044 496 prepend matrix;
#X obj 407 374 unpack f f f f f;
#X obj 431 405 pack f f f f;
#X connect 0 0 30 0;
#X connect 1 0 30 0;
#X connect 3 0 31 0;
#X connect 5 0 43 0;
#X connect 6 0 7 0;
#X connect 6 0 40 0;
#X connect 7 1 16 0;
#X connect 7 2 16 1;
#X connect 7 3 16 2;
#X connect 8 0 10 0;
#X connect 8 0 38 0;
#X connect 9 0 11 0;
#X connect 9 0 53 0;
#X connect 10 0 48 0;
#X connect 11 0 48 0;
#X connect 12 0 6 1;
#X connect 13 0 8 1;
#X connect 14 0 9 1;
#X connect 16 0 29 0;
#X connect 17 0 18 0;
#X connect 18 1 28 0;
#X connect 18 2 28 1;
#X connect 18 3 28 2;
#X connect 19 0 21 0;
#X connect 20 0 22 0;
#X connect 21 0 26 0;
#X connect 22 0 26 0;
#X connect 23 0 17 1;
#X connect 24 0 19 1;
#X connect 25 0 20 1;
#X connect 26 0 15 0;
#X connect 27 0 15 0;
#X connect 28 0 27 0;
#X connect 29 0 15 0;
#X connect 30 0 1 0;
#X connect 30 0 2 0;
#X connect 31 0 32 0;
#X connect 31 1 33 0;
#X connect 32 0 4 0;
#X connect 33 0 32 0;
#X connect 33 1 34 0;
#X connect 34 0 4 0;
#X connect 35 0 36 0;
#X connect 36 0 34 0;
#X connect 37 0 30 0;
#X connect 38 1 39 0;
#X connect 38 2 39 1;
#X connect 38 3 39 2;
#X connect 38 4 39 3;
#X connect 39 0 50 0;
#X connect 40 1 41 0;
#X connect 40 2 41 1;
#X connect 40 3 41 2;
#X connect 40 4 41 3;
#X connect 41 0 49 0;
#X connect 42 0 17 0;
#X connect 42 1 19 0;
#X connect 42 2 20 0;
#X connect 42 3 44 0;
#X connect 43 0 6 0;
#X connect 43 1 8 0;
#X connect 43 2 9 0;
#X connect 43 3 42 0;
#X connect 44 0 45 0;
#X connect 45 0 47 0;
#X connect 46 0 45 1;
#X connect 47 1 52 0;
#X connect 48 0 15 0;
#X connect 49 0 15 0;
#X connect 50 0 15 0;
#X connect 51 0 15 0;
#X connect 52 0 15 0;
#X connect 53 1 54 0;
#X connect 53 2 54 1;
#X connect 53 3 54 2;
#X connect 53 4 54 3;
#X connect 54 0 51 0;
