#N canvas 392 85 859 563 10;
#X obj -37 28 loadbang;
#X obj -68 57 + 1;
#X obj -37 91 s idfigure-\$0;
#X obj 86 29 closebang;
#X obj 86 81 int;
#X msg 86 112 /figure \$1 rm;
#X obj 212 31 inlet;
#X obj 101 52 r idfigure-\$0;
#X obj 250 31 r idfigure-\$0;
#X obj 86 263 s basicTangibleTabletop1234messageBus;
#X obj 85 295 r basicTangibleTabletop1235messageBus;
#N canvas 685 126 450 300 collide 0;
#X obj 37 59 inlet;
#X obj 156 57 inlet;
#X obj 37 93 t l l;
#X obj 64 120 unpack f;
#X obj 64 153 == 0;
#X obj 37 200 spigot;
#X obj 37 244 outlet;
#X connect 0 0 2 0;
#X connect 1 0 4 1;
#X connect 2 0 5 0;
#X connect 2 1 3 0;
#X connect 3 0 4 0;
#X connect 4 0 5 1;
#X connect 5 0 6 0;
#X restore -163 400 pd collide;
#X obj -163 425 unpack f f f f;
#N canvas 685 126 450 300 collide 0;
#X obj 37 59 inlet;
#X obj 156 57 inlet;
#X obj 37 93 t l l;
#X obj 64 120 unpack f;
#X obj 64 153 == 0;
#X obj 37 200 spigot;
#X obj 37 244 outlet;
#X connect 0 0 2 0;
#X connect 1 0 4 1;
#X connect 2 0 5 0;
#X connect 2 1 3 0;
#X connect 3 0 4 0;
#X connect 4 0 5 1;
#X connect 5 0 6 0;
#X restore 1 425 pd collide;
#N canvas 685 126 450 300 collide 0;
#X obj 37 59 inlet;
#X obj 156 57 inlet;
#X obj 37 93 t l l;
#X obj 64 120 unpack f;
#X obj 64 153 == 0;
#X obj 37 200 spigot;
#X obj 37 244 outlet;
#X connect 0 0 2 0;
#X connect 1 0 4 1;
#X connect 2 0 5 0;
#X connect 2 1 3 0;
#X connect 3 0 4 0;
#X connect 4 0 5 1;
#X connect 5 0 6 0;
#X restore 95 424 pd collide;
#X msg 1 447 1;
#X msg 95 447 0;
#X obj 85 320 route /figure/finger /figure/addfinger /figure/rmfinger
/figure/object /figure/addobject /figure/rmobject;
#X obj -106 376 r idfigure-\$0;
#X obj 58 402 r idfigure-\$0;
#X obj 152 402 r idfigure-\$0;
#X obj 61 524 outlet;
#X obj -136 452 pack f f f;
#N canvas 685 126 450 300 collide 0;
#X obj 37 59 inlet;
#X obj 156 57 inlet;
#X obj 37 93 t l l;
#X obj 64 120 unpack f;
#X obj 64 153 == 0;
#X obj 37 200 spigot;
#X obj 37 244 outlet;
#X connect 0 0 2 0;
#X connect 1 0 4 1;
#X connect 2 0 5 0;
#X connect 2 1 3 0;
#X connect 3 0 4 0;
#X connect 4 0 5 1;
#X connect 5 0 6 0;
#X restore 244 402 pd collide;
#X obj 244 427 unpack f f f f;
#N canvas 685 126 450 300 collide 0;
#X obj 37 59 inlet;
#X obj 156 57 inlet;
#X obj 37 93 t l l;
#X obj 64 120 unpack f;
#X obj 64 153 == 0;
#X obj 37 200 spigot;
#X obj 37 244 outlet;
#X connect 0 0 2 0;
#X connect 1 0 4 1;
#X connect 2 0 5 0;
#X connect 2 1 3 0;
#X connect 3 0 4 0;
#X connect 4 0 5 1;
#X connect 5 0 6 0;
#X restore 408 427 pd collide;
#N canvas 685 126 450 300 collide 0;
#X obj 37 59 inlet;
#X obj 156 57 inlet;
#X obj 37 93 t l l;
#X obj 64 120 unpack f;
#X obj 64 153 == 0;
#X obj 37 200 spigot;
#X obj 37 244 outlet;
#X connect 0 0 2 0;
#X connect 1 0 4 1;
#X connect 2 0 5 0;
#X connect 2 1 3 0;
#X connect 3 0 4 0;
#X connect 4 0 5 1;
#X connect 5 0 6 0;
#X restore 502 426 pd collide;
#X msg 408 449 1;
#X msg 502 449 0;
#X obj 301 378 r idfigure-\$0;
#X obj 465 404 r idfigure-\$0;
#X obj 559 404 r idfigure-\$0;
#X msg 408 478 onObject \$1;
#X msg 271 479 coordObject \$1 \$2 \$3;
#X obj 271 454 pack f f f;
#X msg 1 476 onFinger \$1;
#X msg -136 477 coordFinger \$1 \$2 \$3;
#X obj 212 80 prepend /figure;
#X msg 250 55 set /figure \$1;
#X obj -37 57 v polyIdGenerator;
#X connect 0 0 39 0;
#X connect 1 0 39 0;
#X connect 3 0 4 0;
#X connect 4 0 5 0;
#X connect 5 0 9 0;
#X connect 6 0 37 0;
#X connect 7 0 4 1;
#X connect 8 0 38 0;
#X connect 10 0 17 0;
#X connect 11 0 12 0;
#X connect 12 1 22 0;
#X connect 12 2 22 1;
#X connect 12 3 22 2;
#X connect 13 0 15 0;
#X connect 14 0 16 0;
#X connect 15 0 35 0;
#X connect 16 0 35 0;
#X connect 17 0 11 0;
#X connect 17 1 13 0;
#X connect 17 2 14 0;
#X connect 17 3 23 0;
#X connect 17 4 25 0;
#X connect 17 5 26 0;
#X connect 18 0 11 1;
#X connect 19 0 13 1;
#X connect 20 0 14 1;
#X connect 22 0 36 0;
#X connect 23 0 24 0;
#X connect 24 1 34 0;
#X connect 24 2 34 1;
#X connect 24 3 34 2;
#X connect 25 0 27 0;
#X connect 26 0 28 0;
#X connect 27 0 32 0;
#X connect 28 0 32 0;
#X connect 29 0 23 1;
#X connect 30 0 25 1;
#X connect 31 0 26 1;
#X connect 32 0 21 0;
#X connect 33 0 21 0;
#X connect 34 0 33 0;
#X connect 35 0 21 0;
#X connect 36 0 21 0;
#X connect 37 0 9 0;
#X connect 38 0 37 0;
#X connect 39 0 1 0;
#X connect 39 0 2 0;
