#N canvas 1054 317 450 300 10;
#X obj 57 21 inlet;
#X obj 57 262 outlet;
#X obj 183 18 inlet;
#X text 221 17 angle;
#X obj 57 48 route transform;
#X msg 145 197 r \$1;
#X obj 57 233 prepend transform;
#X obj 57 195 prepend set;
#X obj 145 158 float;
#X obj 57 73 l2s;
#X obj 57 100 t b s;
#X connect 0 0 4 0;
#X connect 2 0 8 0;
#X connect 4 0 9 0;
#X connect 5 0 6 0;
#X connect 6 0 1 0;
#X connect 7 0 6 0;
#X connect 8 0 5 0;
#X connect 9 0 10 0;
#X connect 10 0 8 0;
#X connect 10 1 7 0;
