#N canvas 1040 86 450 300 10;
#X obj 57 21 inlet;
#X obj 57 262 outlet;
#X obj 183 18 inlet;
#X text 221 17 angle;
#X obj 57 48 route transform;
#X msg 237 203 r \$1;
#X obj 57 233 prepend transform;
#X obj 57 100 t b a;
#X obj 57 195 prepend set transform;
#X obj 237 164 float \$1;
#X connect 0 0 4 0;
#X connect 2 0 9 0;
#X connect 4 0 7 0;
#X connect 5 0 6 0;
#X connect 6 0 1 0;
#X connect 7 0 9 0;
#X connect 7 1 8 0;
#X connect 8 0 6 0;
#X connect 9 0 5 0;
