#N canvas 946 358 450 300 10;
#X obj 41 28 inlet;
#X obj 68 271 outlet;
#X obj 244 27 inlet;
#X obj 41 55 route transform;
#X obj 68 242 prepend transform;
#X obj 244 80 float;
#X obj 41 107 t b a;
#X obj 68 140 prepend set transform;
#X text 282 26 XY;
#X obj 244 201 prepend S;
#X connect 0 0 3 0;
#X connect 2 0 5 0;
#X connect 3 0 6 0;
#X connect 4 0 1 0;
#X connect 5 0 9 0;
#X connect 6 0 5 0;
#X connect 6 1 7 0;
#X connect 7 0 4 0;
#X connect 9 0 4 0;
