#N canvas 1076 540 450 300 10;
#X obj 32 28 inlet;
#X obj 59 271 outlet;
#X obj 235 27 inlet;
#X obj 32 55 route transform;
#X obj 59 242 prepend transform;
#X obj 235 80 float;
#X text 273 26 X;
#X obj 302 26 inlet;
#X text 340 25 y;
#X obj 302 81 float;
#X obj 302 105 t b f;
#X obj 235 146 pack f f;
#X obj 32 107 t b a;
#X obj 59 140 prepend set transform;
#X obj 235 201 prepend s;
#X connect 0 0 3 0;
#X connect 2 0 5 0;
#X connect 3 0 12 0;
#X connect 4 0 1 0;
#X connect 5 0 11 0;
#X connect 7 0 9 0;
#X connect 9 0 10 0;
#X connect 10 0 5 0;
#X connect 10 1 11 1;
#X connect 11 0 14 0;
#X connect 12 0 5 0;
#X connect 12 1 13 0;
#X connect 13 0 4 0;
#X connect 14 0 4 0;
