#N canvas 707 390 450 300 10;
#X obj 32 28 inlet;
#X obj 59 271 outlet;
#X obj 235 -14 inlet;
#X obj 32 55 route transform;
#X obj 59 242 prepend transform;
#X text 273 -15 X;
#X obj 302 -15 inlet;
#X text 340 -16 y;
#X obj 235 146 pack f f;
#X obj 32 107 t b a;
#X obj 59 140 prepend set transform;
#X obj 235 201 prepend s;
#X obj 235 80 float \$1;
#X obj 302 81 float \$2;
#X obj 302 24 t b f;
#X obj 235 108 t f b;
#X connect 0 0 3 0;
#X connect 2 0 12 0;
#X connect 3 0 9 0;
#X connect 4 0 1 0;
#X connect 6 0 14 0;
#X connect 8 0 11 0;
#X connect 9 0 12 0;
#X connect 9 1 10 0;
#X connect 10 0 4 0;
#X connect 11 0 4 0;
#X connect 12 0 15 0;
#X connect 13 0 8 1;
#X connect 14 0 12 0;
#X connect 14 1 13 1;
#X connect 15 0 8 0;
#X connect 15 1 13 0;
