#N canvas 61 161 632 479 10;
#X obj 9 -256 tgl 15 0 empty empty empty 17 7 0 10 -262144 -1 -1 1
1;
#X obj 90 -177 tgl 15 0 empty empty empty 17 7 0 10 -262144 -1 -1 1
1;
#X obj 170 -179 tgl 15 0 empty empty empty 17 7 0 10 -262144 -1 -1
1 1;
#X obj 25 -391 inlet;
#X msg 246 -352 0;
#X obj 246 -383 loadbang;
#X obj 317 -385 inlet;
#X obj 388 -384 inlet;
#X obj 465 -379 inlet;
#X obj 231 -60 + 0;
#X obj 283 -57 + 0;
#X obj 456 -58 + 0;
#X obj 90 -207 delay 500;
#X msg 90 -231 bang;
#X msg 170 -227 bang;
#X obj 8 -357 == 1;
#X obj 8 -330 select 1;
#X obj 76 -331 select 1;
#X obj 76 -358 == 0;
#X msg 153 -297 stop;
#X obj 75 -305 t b b;
#X msg 34 -276 0;
#X obj 170 -203 delay 100;
#X floatatom 89 -375 5 0 0 0 - - -;
#X obj 18 -290 bng 15 250 50 0 empty empty empty 17 7 0 10 -262144
-1 -1;
#X obj 141 -352 bng 15 250 50 0 empty empty empty 17 7 0 10 -262144
-1 -1;
#X obj 176 -59 + -0.05;
#X obj 307 -57 + 0.05;
#X obj 413 -58 + 0.05;
#X msg 259 32 1;
#X msg 481 23 1.5;
#X obj 423 -15 Cloud 0 0;
#X obj 290 -14 Cloud 0 0;
#X obj 183 -13 Cloud 0 0;
#X obj 259 8 loadbang;
#X obj 360 4 loadbang;
#X obj 515 -2 loadbang;
#X msg 356 30 1.25;
#X connect 0 0 33 0;
#X connect 1 0 32 0;
#X connect 2 0 31 0;
#X connect 3 0 15 0;
#X connect 3 0 18 0;
#X connect 3 0 23 0;
#X connect 4 0 31 3;
#X connect 4 0 32 3;
#X connect 4 0 33 3;
#X connect 5 0 4 0;
#X connect 6 0 10 0;
#X connect 6 0 26 0;
#X connect 6 0 28 0;
#X connect 7 0 9 0;
#X connect 7 0 11 0;
#X connect 7 0 27 0;
#X connect 8 0 31 3;
#X connect 8 0 32 3;
#X connect 8 0 33 3;
#X connect 9 0 33 2;
#X connect 10 0 32 1;
#X connect 11 0 31 2;
#X connect 12 0 1 0;
#X connect 13 0 12 0;
#X connect 14 0 22 0;
#X connect 15 0 16 0;
#X connect 16 0 0 0;
#X connect 16 0 13 0;
#X connect 16 0 24 0;
#X connect 16 0 14 0;
#X connect 17 0 20 0;
#X connect 17 0 25 0;
#X connect 18 0 17 0;
#X connect 19 0 22 0;
#X connect 19 0 12 0;
#X connect 20 0 21 0;
#X connect 20 1 19 0;
#X connect 21 0 0 0;
#X connect 21 0 1 0;
#X connect 21 0 2 0;
#X connect 22 0 2 0;
#X connect 26 0 33 1;
#X connect 27 0 32 2;
#X connect 28 0 31 1;
#X connect 29 0 33 4;
#X connect 30 0 31 4;
#X connect 34 0 29 0;
#X connect 35 0 37 0;
#X connect 36 0 30 0;
#X connect 37 0 32 4;
