#N canvas 588 484 778 465 10;
#X text 58 25 Prova distancies;
#X obj 197 22 basicTangibleTabletop;
#X obj 480 45 tgl 15 0 empty empty empty 17 7 0 10 -262144 -1 -1 1
1;
#X floatatom 523 46 5 0 0 0 - - -;
#X floatatom 567 45 5 0 0 0 - - -;
#X obj 479 105 tgl 15 0 empty empty empty 17 7 0 10 -262144 -1 -1 0
1;
#X floatatom 522 106 5 0 0 0 - - -;
#X floatatom 566 105 5 0 0 0 - - -;
#X obj 345 106 tgl 15 0 empty empty empty 17 7 0 10 -262144 -1 -1 1
1;
#X floatatom 388 107 5 0 0 0 - - -;
#X floatatom 432 106 5 0 0 0 - - -;
#X obj 479 84 objDistance 0 4;
#X obj 480 24 objDistance 2 3;
#X obj 345 85 objDistance 1 3;
#X obj 157 211 tgl 15 0 empty empty empty 17 7 0 10 -262144 -1 -1 1
1;
#X floatatom 180 211 5 0 0 0 - - -;
#X floatatom 216 211 5 0 0 0 - - -;
#X floatatom 254 212 5 0 0 0 - - -;
#X floatatom 293 212 5 0 0 0 - - -;
#X obj 52 85 r basicTangibleTabletop1235messageBus;
#X obj 51 108 spigot;
#X obj 98 110 tgl 15 0 empty empty empty 17 7 0 10 -262144 -1 -1 0
1;
#X obj 52 132 print received;
#X floatatom 336 211 5 0 0 0 - - -;
#X obj 157 183 Object 2;
#X msg 157 158 param \$1;
#X msg 214 158 slider \$1;
#X obj 158 140 tgl 15 0 empty empty empty 17 7 0 10 -262144 -1 -1 1
1;
#X obj 214 140 tgl 15 0 empty empty empty 17 7 0 10 -262144 -1 -1 1
1;
#X obj 441 254 Object 2;
#X obj 802 308 osc~ 0.1;
#X obj 803 328 snapshot~;
#X obj 802 349 expr $f1 / 5 + 0.8;
#X obj 504 257 Object 3;
#X obj 428 187 osc~ 440;
#X obj 440 325 drawWave;
#X msg 57 179 \; dsp 1;
#X obj 57 157 loadbang;
#X connect 2 0 35 0;
#X connect 11 0 5 0;
#X connect 11 1 6 0;
#X connect 11 2 7 0;
#X connect 12 0 2 0;
#X connect 12 1 3 0;
#X connect 12 2 4 0;
#X connect 13 0 8 0;
#X connect 13 1 9 0;
#X connect 13 2 10 0;
#X connect 19 0 20 0;
#X connect 20 0 22 0;
#X connect 21 0 20 1;
#X connect 24 0 14 0;
#X connect 24 1 15 0;
#X connect 24 2 16 0;
#X connect 24 3 17 0;
#X connect 24 4 18 0;
#X connect 24 5 23 0;
#X connect 25 0 24 0;
#X connect 26 0 24 0;
#X connect 27 0 25 0;
#X connect 28 0 26 0;
#X connect 29 1 35 2;
#X connect 29 2 35 3;
#X connect 30 0 31 0;
#X connect 31 0 32 0;
#X connect 33 1 35 4;
#X connect 33 2 35 5;
#X connect 34 0 35 1;
#X connect 37 0 36 0;
