#N canvas 114 506 639 333 10;
#X text 58 25 Prova distancies;
#X obj 197 22 basicTangibleTabletop;
#X obj 351 44 tgl 15 0 empty empty empty 17 7 0 10 -262144 -1 -1 1
1;
#X floatatom 394 45 5 0 0 0 - - -;
#X floatatom 438 44 5 0 0 0 - - -;
#X obj 480 45 tgl 15 0 empty empty empty 17 7 0 10 -262144 -1 -1 1
1;
#X floatatom 523 46 5 0 0 0 - - -;
#X floatatom 567 45 5 0 0 0 - - -;
#X obj 479 105 tgl 15 0 empty empty empty 17 7 0 10 -262144 -1 -1 0
1;
#X floatatom 522 106 5 0 0 0 - - -;
#X floatatom 566 105 5 0 0 0 - - -;
#X obj 345 106 tgl 15 0 empty empty empty 17 7 0 10 -262144 -1 -1 1
1;
#X floatatom 388 107 5 0 0 0 - - -;
#X floatatom 432 106 5 0 0 0 - - -;
#X obj 351 23 objDistance 1 2;
#X obj 480 24 objDistance 2 3;
#X obj 345 85 objDistance 1 3;
#X obj 479 84 objDistance 0 4;
#X connect 14 0 2 0;
#X connect 14 1 3 0;
#X connect 14 2 4 0;
#X connect 15 0 5 0;
#X connect 15 1 6 0;
#X connect 15 2 7 0;
#X connect 16 0 11 0;
#X connect 16 1 12 0;
#X connect 16 2 13 0;
#X connect 17 0 8 0;
#X connect 17 1 9 0;
#X connect 17 2 10 0;
