#N canvas 124 222 822 748 10;
#X obj 106 127 bng 15 250 50 0 empty empty empty 17 7 0 10 -262144
-1 -1;
#X obj 106 174 tgl 15 0 sreuseip empty empty 17 7 0 10 -262144 -1 -1
0 1;
#X text 129 172 Reuse IP;
#X symbolatom 168 149 18 0 0 0 - - -;
#X obj 168 35 l2s;
#X obj 134 -35 inlet;
#X text 100 147 Server IP:;
#X obj 134 -8 route ip;
#X obj 213 -162 loadbang;
#X msg 199 -9 127.0.0.1;
#X text 222 179 Connected;
#X obj 281 180 tgl 15 0 sconnect-tgl rconnect-tgl empty 17 7 0 10 -258699
-258699 -258699 0 1;
#X msg 46 558 \; rconnect-tgl color \$1 \$2 \$3;
#X obj 46 534 pack 0 0 0;
#X msg 38 485 13;
#X msg 66 486 16;
#X obj 46 510 t f f f;
#X obj 42 423 mrpeach/udpsend;
#X obj 42 444 sel 0;
#X obj 42 215 r basicTangibleTabletop1234messageBus;
#X obj 42 258 mrpeach/packOSC;
#X obj 53 238 print msg:;
#X text 125 125 Reconnect;
#X text 218 125 Disconnect;
#X obj 199 127 bng 15 250 50 0 disconnect empty empty 17 7 0 10 -262144
-1 -1;
#X msg 209 390 disconnect;
#X obj 209 362 r disconnect;
#X obj 193 273 symbol;
#X msg 169 304 connect \$1 1234;
#X obj 169 331 t a b;
#X obj 152 423 print UDP status:;
#N canvas 1312 526 450 300 config 0;
#X text 33 136 wave FPS;
#X floatatom 33 115 5 0 0 0 - - -;
#X obj 33 16 loadbang;
#X obj 33 37 t b b b b b b b b b b b b b b b b b b b;
#X obj 33 266 s basicTangibleTabletopUpdateConfig;
#X obj 42 218 v basicTangibleTabletopWaveFps;
#X obj 33 165 expr 1000 / $f1;
#X msg 33 89 40;
#X obj 33 192 t b f;
#X connect 1 0 6 0;
#X connect 2 0 3 0;
#X connect 3 0 7 0;
#X connect 6 0 8 0;
#X connect 7 0 1 0;
#X connect 8 0 4 0;
#X connect 8 1 5 0;
#X restore 588 128 pd config;
#N canvas 162 548 450 300 debug 0;
#X obj 29 16 r basicTangibleTabletop1235messageBus;
#X obj 28 39 spigot;
#X obj 75 41 tgl 15 0 empty empty empty 17 7 0 10 -262144 -1 -1 0 1
;
#X obj 30 149 spigot;
#X obj 77 151 tgl 15 0 empty empty empty 17 7 0 10 -262144 -1 -1 0
1;
#X obj 31 173 print sent;
#X obj 30 101 r basicTangibleTabletop1234messageBus;
#X obj 29 63 print rcvd;
#X obj 30 124 route /wave;
#X connect 0 0 1 0;
#X connect 1 0 7 0;
#X connect 2 0 1 1;
#X connect 3 0 5 0;
#X connect 4 0 3 1;
#X connect 6 0 8 0;
#X connect 8 1 3 0;
#X restore 588 149 pd debug;
#X obj 570 99 bng 15 250 50 0 empty empty empty 17 7 0 10 -262144 -1
-1;
#X obj 654 114 bng 15 250 50 0 empty empty empty 17 7 0 10 -262144
-1 -1;
#X obj 654 186 bng 15 250 50 0 empty empty empty 17 7 0 10 -262144
-1 -1;
#X obj 570 171 bng 15 250 50 0 empty empty empty 17 7 0 10 -262144
-1 -1;
#X obj 168 71 symbol;
#X obj 343 -110 s2l .;
#X obj 316 -159 symbol \$1;
#X obj 343 -87 list length;
#X obj 343 -66 == 4;
#X obj 316 -132 t s s;
#X obj 315 -14 spigot;
#X obj 343 -40 select 0;
#N canvas 354 726 623 274 dumpOSC 0;
#X obj 101 11 outlet;
#X obj 101 -35 mrpeach/udpreceive 1235;
#X obj 101 -15 mrpeach/unpackOSC;
#X msg 236 26 \$1.\$2.\$3.\$4;
#X obj 236 56 outlet;
#X obj 236 -6 route from;
#X connect 1 0 2 0;
#X connect 1 1 5 0;
#X connect 2 0 0 0;
#X connect 3 0 4 0;
#X connect 5 0 3 0;
#X restore 475 -59 pd dumpOSC;
#X obj 435 -7 route /init;
#X msg 435 16 bang;
#X obj 435 65 t b b;
#X obj 462 99 symbol;
#X obj 435 40 spigot;
#X obj 532 -2 l2s;
#X obj 569 -54 r sreuseip;
#X obj 20 114 loadbang;
#X msg 41 153 0;
#X obj 23 -37 r sreuseip;
#X obj 24 -15 == 0;
#X obj 24 6 select 1;
#X obj 64 48 t b b;
#X obj 337 219 delay 100;
#X obj 567 -16 s basicTangibleTabletop1235messageBus;
#X obj 337 299 outlet;
#X obj 337 253 t b b;
#X text 383 289 this is a loadbang after initializing;
#X text 383 302 the tabletop externals;
#X obj 365 274 s basicTangibleTabletopInit;
#X obj 413 240 bng 15 250 50 0 empty empty empty 17 7 0 10 -262144
-1 -1;
#X obj 42 353 spigot;
#X connect 0 0 27 0;
#X connect 0 0 59 0;
#X connect 3 0 27 1;
#X connect 4 0 37 0;
#X connect 5 0 7 0;
#X connect 7 0 4 0;
#X connect 8 0 39 0;
#X connect 9 0 4 0;
#X connect 13 0 12 0;
#X connect 14 0 16 0;
#X connect 15 0 16 0;
#X connect 16 0 13 0;
#X connect 16 1 13 1;
#X connect 16 2 13 2;
#X connect 17 0 18 0;
#X connect 17 0 67 1;
#X connect 18 0 14 0;
#X connect 18 1 15 0;
#X connect 19 0 20 0;
#X connect 20 0 67 0;
#X connect 25 0 17 0;
#X connect 25 0 30 0;
#X connect 26 0 25 0;
#X connect 27 0 28 0;
#X connect 28 0 29 0;
#X connect 29 0 17 0;
#X connect 29 0 30 0;
#X connect 29 1 25 0;
#X connect 33 0 36 0;
#X connect 33 0 34 0;
#X connect 34 0 35 0;
#X connect 36 0 35 0;
#X connect 37 0 3 0;
#X connect 38 0 40 0;
#X connect 39 0 42 0;
#X connect 40 0 41 0;
#X connect 41 0 43 1;
#X connect 41 0 44 0;
#X connect 42 0 43 0;
#X connect 42 1 38 0;
#X connect 43 0 4 0;
#X connect 44 0 9 0;
#X connect 45 0 46 0;
#X connect 45 0 60 0;
#X connect 45 1 51 0;
#X connect 46 0 47 0;
#X connect 47 0 50 0;
#X connect 48 0 0 0;
#X connect 48 1 49 0;
#X connect 49 0 3 0;
#X connect 50 0 48 0;
#X connect 51 0 49 1;
#X connect 52 0 50 1;
#X connect 53 0 54 0;
#X connect 54 0 1 0;
#X connect 55 0 56 0;
#X connect 56 0 57 0;
#X connect 57 0 58 0;
#X connect 58 0 0 0;
#X connect 58 1 37 0;
#X connect 59 0 62 0;
#X connect 59 0 66 0;
#X connect 62 0 61 0;
#X connect 62 1 65 0;
#X connect 67 0 17 0;
#X coords 0 -1 1 1 200 100 1 100 100;
