#N canvas 31 626 639 333 10;
#X text 58 25 Prova distancies;
#X obj 197 22 basicTangibleTabletop;
#X obj 351 44 tgl 15 0 empty empty empty 17 7 0 10 -262144 -1 -1 1
1;
#X floatatom 394 45 5 0 0 0 - - -;
#X floatatom 438 44 5 0 0 0 - - -;
#X obj 480 45 tgl 15 0 empty empty empty 17 7 0 10 -262144 -1 -1 1
1;
#X floatatom 523 46 5 0 0 0 - - -;
#X floatatom 567 45 5 0 0 0 - - -;
#X obj 479 105 tgl 15 0 empty empty empty 17 7 0 10 -262144 -1 -1 0
1;
#X floatatom 522 106 5 0 0 0 - - -;
#X floatatom 566 105 5 0 0 0 - - -;
#X obj 345 106 tgl 15 0 empty empty empty 17 7 0 10 -262144 -1 -1 1
1;
#X floatatom 388 107 5 0 0 0 - - -;
#X floatatom 432 106 5 0 0 0 - - -;
#X obj 479 84 objDistance 0 4;
#X obj 351 23 objDistance 1 2;
#X obj 480 24 objDistance 2 3;
#X obj 345 85 objDistance 1 3;
#X obj 157 211 tgl 15 0 empty empty empty 17 7 0 10 -262144 -1 -1 1
1;
#X floatatom 180 211 5 0 0 0 - - -;
#X floatatom 216 211 5 0 0 0 - - -;
#X floatatom 254 212 5 0 0 0 - - -;
#X floatatom 293 212 5 0 0 0 - - -;
#X obj 52 85 r basicTangibleTabletop1235messageBus;
#X msg 157 158 param 1;
#X obj 157 183 Object 3;
#X obj 51 108 spigot;
#X obj 98 110 tgl 15 0 empty empty empty 17 7 0 10 -262144 -1 -1 0
1;
#X obj 52 132 print received;
#X connect 14 0 8 0;
#X connect 14 1 9 0;
#X connect 14 2 10 0;
#X connect 15 0 2 0;
#X connect 15 1 3 0;
#X connect 15 2 4 0;
#X connect 16 0 5 0;
#X connect 16 1 6 0;
#X connect 16 2 7 0;
#X connect 17 0 11 0;
#X connect 17 1 12 0;
#X connect 17 2 13 0;
#X connect 23 0 26 0;
#X connect 24 0 25 0;
#X connect 25 0 18 0;
#X connect 25 1 19 0;
#X connect 25 2 20 0;
#X connect 25 3 21 0;
#X connect 25 4 22 0;
#X connect 26 0 28 0;
#X connect 27 0 26 1;
