#N canvas 0 72 1920 1008 10;
#X obj -27 38 loadbang;
#X obj -58 67 + 1;
#X obj -27 67 v textIdGenerator;
#X obj 115 9 inlet;
#X obj -27 101 s idtext-\$0;
#N canvas 557 440 972 491 mtcf_basics 0;
#X obj 25 24 inlet;
#X msg -235 172 is \$1 rm;
#X obj -235 152 int;
#X obj -235 132 bng 15 250 50 0 empty empty empty 17 7 0 10 -262144
-1 -1;
#X obj 144 414 outlet;
#X obj -136 152 int;
#X obj -136 132 bng 15 250 50 0 empty empty empty 17 7 0 10 -262144
-1 -1;
#X obj -36 152 int;
#X obj -36 132 bng 15 250 50 0 empty empty empty 17 7 0 10 -262144
-1 -1;
#X msg -136 172 is \$1 hide;
#X msg -36 172 is \$1 unhide;
#X obj 25 47 route rm hide unhide color position transform;
#X obj 86 106 t a a;
#X obj 126 156 == 3;
#X obj 126 128 list length;
#X obj 86 282 prepend color;
#X msg 94 246 set isiii \$1 color;
#X msg 212 245 set isiiii \$1 color;
#X obj 94 223 int;
#X obj 94 203 bng 15 250 50 0 empty empty empty 17 7 0 10 -262144 -1
-1;
#X obj 212 222 int;
#X obj 212 202 bng 15 250 50 0 empty empty empty 17 7 0 10 -262144
-1 -1;
#X obj 160 156 == 4;
#X obj 162 178 sel 1;
#X obj 126 178 sel 1;
#X obj -235 76 closebang;
#X obj 377 247 prepend position;
#X msg 387 219 set isfff \$1 position;
#X obj 530 174 l2s :;
#X obj 530 250 prepend transform;
#X msg 540 222 set iss \$1 transform;
#X obj 455 99 outlet;
#X obj -220 132 r idtext-\$0;
#X obj -121 132 r idtext-\$0;
#X obj -21 132 r idtext-\$0;
#X obj 109 203 r idtext-\$0;
#X obj 229 202 r idtext-\$0;
#X obj 387 192 r idtext-\$0;
#X obj 540 195 r idtext-\$0;
#X connect 0 0 11 0;
#X connect 1 0 4 0;
#X connect 2 0 1 0;
#X connect 3 0 2 0;
#X connect 5 0 9 0;
#X connect 6 0 5 0;
#X connect 7 0 10 0;
#X connect 8 0 7 0;
#X connect 9 0 4 0;
#X connect 10 0 4 0;
#X connect 11 0 3 0;
#X connect 11 1 6 0;
#X connect 11 2 8 0;
#X connect 11 3 12 0;
#X connect 11 4 26 0;
#X connect 11 5 28 0;
#X connect 11 6 31 0;
#X connect 12 0 15 0;
#X connect 12 1 14 0;
#X connect 13 0 24 0;
#X connect 14 0 13 0;
#X connect 14 0 22 0;
#X connect 15 0 4 0;
#X connect 16 0 15 0;
#X connect 17 0 15 0;
#X connect 18 0 16 0;
#X connect 19 0 18 0;
#X connect 20 0 17 0;
#X connect 21 0 20 0;
#X connect 22 0 23 0;
#X connect 23 0 21 0;
#X connect 24 0 19 0;
#X connect 25 0 3 0;
#X connect 26 0 4 0;
#X connect 27 0 26 0;
#X connect 28 0 29 0;
#X connect 29 0 4 0;
#X connect 30 0 29 0;
#X connect 32 0 2 1;
#X connect 33 0 5 1;
#X connect 34 0 7 1;
#X connect 35 0 18 1;
#X connect 36 0 20 1;
#X connect 37 0 27 0;
#X connect 38 0 30 0;
#X restore 115 40 pd mtcf_basics;
#N canvas 800 382 450 300 mtcf_text 0;
#X obj 125 43 inlet;
#X obj 172 268 outlet;
#X obj 125 79 route write clear;
#X obj 347 257 outlet;
#X obj 55 155 r idtext-\$0;
#X obj 45 210 prepend write;
#X msg 55 182 set iss \$1 write;
#X obj 45 130 l2s %20;
#X obj 174 172 int;
#X obj 174 152 bng 15 250 50 0 empty empty empty 17 7 0 10 -262144
-1 -1;
#X obj 189 152 r idtext-\$0;
#X msg 174 192 is \$1 clear;
#X connect 0 0 2 0;
#X connect 2 0 7 0;
#X connect 2 1 9 0;
#X connect 2 2 3 0;
#X connect 4 0 6 0;
#X connect 5 0 1 0;
#X connect 6 0 5 0;
#X connect 7 0 5 0;
#X connect 8 0 11 0;
#X connect 9 0 8 0;
#X connect 10 0 8 1;
#X connect 11 0 1 0;
#X restore 196 74 pd mtcf_text;
#X obj 276 97 r idtext-\$0;
#X msg 276 121 set /text \$1;
#X obj 265 146 prepend /text;
#X obj 115 207 s basicTangibleTabletop1234messageBus;
#X obj -51 34 bng 15 250 50 0 empty empty empty 17 7 0 10 -262144 -1
-1;
#X obj 115 146 prepend sendtyped /text;
#X connect 0 0 2 0;
#X connect 1 0 2 0;
#X connect 2 0 1 0;
#X connect 2 0 4 0;
#X connect 3 0 5 0;
#X connect 5 0 12 0;
#X connect 5 1 6 0;
#X connect 6 0 12 0;
#X connect 6 1 9 0;
#X connect 7 0 8 0;
#X connect 8 0 9 0;
#X connect 9 0 10 0;
#X connect 11 0 2 0;
#X connect 12 0 10 0;
