#N canvas 809 106 724 451 10;
#X obj -27 38 loadbang;
#X obj -58 67 + 1;
#X obj -27 67 v textIdGenerator;
#X obj 99 19 closebang;
#X obj 99 71 int;
#X obj 225 21 inlet;
#X obj 99 359 s basicTangibleTabletop1234messageBus;
#X obj -27 101 s idtext-\$0;
#X obj 114 42 r idtext-\$0;
#X obj 152 194 r idtext-\$0;
#X msg 99 102 /text \$1 rm;
#X msg 152 218 set /text \$1;
#X obj 146 249 prepend /text;
#X obj 132 159 prepend write;
#X obj 365 101 route position color;
#X obj 250 198 r idtext-\$0;
#X obj 250 246 prepend /text;
#X msg 250 221 set sendtyped /text isfff \$1 position;
#X obj 359 252 r idtext-\$0;
#X obj 359 300 prepend /text;
#X msg 359 275 set sendtyped /text isiii \$1 color;
#X obj 227 130 l2s :;
#X obj 132 134 l2s %20;
#X obj 227 159 prepend transform;
#X obj 225 46 route write transform;
#X connect 0 0 2 0;
#X connect 1 0 2 0;
#X connect 2 0 1 0;
#X connect 2 0 7 0;
#X connect 3 0 4 0;
#X connect 4 0 10 0;
#X connect 5 0 24 0;
#X connect 8 0 4 1;
#X connect 9 0 11 0;
#X connect 10 0 6 0;
#X connect 11 0 12 0;
#X connect 12 0 6 0;
#X connect 13 0 12 0;
#X connect 14 0 16 0;
#X connect 14 1 19 0;
#X connect 14 2 12 0;
#X connect 15 0 17 0;
#X connect 16 0 6 0;
#X connect 17 0 16 0;
#X connect 18 0 20 0;
#X connect 19 0 6 0;
#X connect 20 0 19 0;
#X connect 21 0 23 0;
#X connect 22 0 13 0;
#X connect 23 0 12 0;
#X connect 24 0 22 0;
#X connect 24 1 21 0;
#X connect 24 2 14 0;
