#N canvas 809 106 1920 1008 10;
#X obj -27 38 loadbang;
#X obj -58 67 + 1;
#X obj -27 67 v textIdGenerator;
#X obj 99 19 closebang;
#X obj 99 71 int;
#X obj 225 21 inlet;
#X obj 138 691 s basicTangibleTabletop1234messageBus;
#X obj -27 101 s idtext-\$0;
#X obj 114 42 r idtext-\$0;
#X obj 191 526 r idtext-\$0;
#X msg 99 102 /text \$1 rm;
#X msg 191 550 set /text \$1;
#X obj 185 581 prepend /text;
#X obj 171 491 prepend write;
#X obj 365 101 route position color;
#X obj 289 530 r idtext-\$0;
#X obj 289 578 prepend /text;
#X msg 289 553 set sendtyped /text isfff \$1 position;
#X obj 398 584 r idtext-\$0;
#X obj 398 632 prepend /text;
#X msg 398 607 set sendtyped /text isiii \$1 color;
#X obj 266 462 l2s :;
#X obj 171 466 l2s %20;
#X obj 266 491 prepend transform;
#X obj 225 46 route write transform;
#N canvas 557 440 972 491 mtcf_basics 1;
#X obj 25 24 inlet;
#X obj -220 132 r idfigure-\$0;
#X msg -235 172 is \$1 rm;
#X obj -235 152 int;
#X obj -235 132 bng 15 250 50 0 empty empty empty 17 7 0 10 -262144
-1 -1;
#X obj 144 414 outlet;
#X obj -121 132 r idfigure-\$0;
#X obj -136 152 int;
#X obj -136 132 bng 15 250 50 0 empty empty empty 17 7 0 10 -262144
-1 -1;
#X obj -21 132 r idfigure-\$0;
#X obj -36 152 int;
#X obj -36 132 bng 15 250 50 0 empty empty empty 17 7 0 10 -262144
-1 -1;
#X msg -136 172 is \$1 hide;
#X msg -36 172 is \$1 unhide;
#X obj 25 47 route rm hide unhide color position transform;
#X obj 86 106 t a a;
#X obj 126 156 == 3;
#X obj 126 128 list length;
#X obj 86 282 prepend color;
#X msg 94 246 set isiii \$1 color;
#X msg 212 245 set isiiii \$1 color;
#X obj 109 203 r idfigure-\$0;
#X obj 94 223 int;
#X obj 94 203 bng 15 250 50 0 empty empty empty 17 7 0 10 -262144 -1
-1;
#X obj 229 202 r idfigure-\$0;
#X obj 212 222 int;
#X obj 212 202 bng 15 250 50 0 empty empty empty 17 7 0 10 -262144
-1 -1;
#X obj 160 156 == 4;
#X obj 162 178 sel 1;
#X obj 126 178 sel 1;
#X obj -235 76 closebang;
#X obj 377 247 prepend position;
#X msg 387 219 set isfff \$1 position;
#X obj 387 192 r idfigure-\$0;
#X obj 530 174 l2s :;
#X obj 540 195 r idfigure-\$0;
#X obj 530 250 prepend transform;
#X msg 540 222 set iss \$1 transform;
#X obj 455 99 outlet;
#X connect 0 0 14 0;
#X connect 1 0 3 1;
#X connect 2 0 5 0;
#X connect 3 0 2 0;
#X connect 4 0 3 0;
#X connect 6 0 7 1;
#X connect 7 0 12 0;
#X connect 8 0 7 0;
#X connect 9 0 10 1;
#X connect 10 0 13 0;
#X connect 11 0 10 0;
#X connect 12 0 5 0;
#X connect 13 0 5 0;
#X connect 14 0 4 0;
#X connect 14 1 8 0;
#X connect 14 2 11 0;
#X connect 14 3 15 0;
#X connect 14 4 31 0;
#X connect 14 5 34 0;
#X connect 14 6 38 0;
#X connect 15 0 18 0;
#X connect 15 1 17 0;
#X connect 16 0 29 0;
#X connect 17 0 16 0;
#X connect 17 0 27 0;
#X connect 18 0 5 0;
#X connect 19 0 18 0;
#X connect 20 0 18 0;
#X connect 21 0 22 1;
#X connect 22 0 19 0;
#X connect 23 0 22 0;
#X connect 24 0 25 1;
#X connect 25 0 20 0;
#X connect 26 0 25 0;
#X connect 27 0 28 0;
#X connect 28 0 26 0;
#X connect 29 0 23 0;
#X connect 30 0 4 0;
#X connect 31 0 5 0;
#X connect 32 0 31 0;
#X connect 33 0 32 0;
#X connect 34 0 36 0;
#X connect 35 0 37 0;
#X connect 36 0 5 0;
#X connect 37 0 36 0;
#X restore 731 167 pd mtcf_basics;
#X obj 745 278 prepend sendtyped / text;
#N canvas 1295 392 450 300 mtcf_text 1;
#X obj 50 44 inlet;
#X obj 90 255 outlet;
#X obj 125 79 route write clear;
#X obj 347 257 outlet;
#X connect 2 2 3 0;
#X restore 933 201 pd mtcf_text;
#X connect 0 0 2 0;
#X connect 1 0 2 0;
#X connect 2 0 1 0;
#X connect 2 0 7 0;
#X connect 3 0 4 0;
#X connect 4 0 10 0;
#X connect 5 0 24 0;
#X connect 8 0 4 1;
#X connect 9 0 11 0;
#X connect 10 0 6 0;
#X connect 11 0 12 0;
#X connect 12 0 6 0;
#X connect 13 0 12 0;
#X connect 14 0 16 0;
#X connect 14 1 19 0;
#X connect 14 2 12 0;
#X connect 15 0 17 0;
#X connect 16 0 6 0;
#X connect 17 0 16 0;
#X connect 18 0 20 0;
#X connect 19 0 6 0;
#X connect 20 0 19 0;
#X connect 21 0 23 0;
#X connect 22 0 13 0;
#X connect 23 0 12 0;
#X connect 24 0 22 0;
#X connect 24 1 21 0;
#X connect 24 2 14 0;
#X connect 25 0 26 0;
