#N canvas 407 24 743 474 10;
#X obj 338 57 v textIdGenerator;
#X obj 338 21 loadbang;
#X obj 367 85 + 1;
#X obj 281 143 int;
#X obj 24 10 inlet;
#X obj 96 426 s basicTangibleTabletop1234messageBus;
#X obj 129 16 inlet;
#X obj 172 17 inlet;
#X obj 219 17 inlet;
#X obj 129 83 t b f;
#X obj 172 84 t b f;
#X obj 219 84 t b f;
#X obj 382 120 closebang;
#X msg 359 311 /text \$1 rm;
#X obj 352 147 int;
#X obj 24 88 l2s;
#X msg 39 58 symbol %20;
#X obj 39 31 loadbang;
#X msg 29 300 /text \$1 write \$2;
#X msg 150 311 /text \$1 position \$2 \$3 \$4;
#X obj 78 165 int;
#X obj 24 131 t b s;
#X obj 150 262 pack f f f f;
#X obj 29 236 pack f s;
#X obj 529 21 inlet;
#X obj 492 193 int;
#X obj 529 77 t b f;
#X obj 581 21 inlet;
#X obj 581 77 t b f;
#X obj 639 21 inlet;
#X obj 639 77 t b f;
#X msg 512 306 /text \$1 color \$2 \$3 \$4;
#X obj 539 258 pack f f f f;
#X connect 0 0 2 0;
#X connect 0 0 3 1;
#X connect 0 0 20 1;
#X connect 0 0 14 1;
#X connect 0 0 25 1;
#X connect 1 0 0 0;
#X connect 2 0 0 0;
#X connect 3 0 22 0;
#X connect 4 0 15 0;
#X connect 6 0 9 0;
#X connect 7 0 10 0;
#X connect 8 0 11 0;
#X connect 9 0 3 0;
#X connect 9 1 22 1;
#X connect 10 0 3 0;
#X connect 10 1 22 2;
#X connect 11 0 3 0;
#X connect 11 1 22 3;
#X connect 12 0 14 0;
#X connect 13 0 5 0;
#X connect 14 0 13 0;
#X connect 15 0 21 0;
#X connect 16 0 15 1;
#X connect 17 0 16 0;
#X connect 18 0 5 0;
#X connect 19 0 5 0;
#X connect 20 0 23 0;
#X connect 21 0 20 0;
#X connect 21 1 23 1;
#X connect 22 0 19 0;
#X connect 23 0 18 0;
#X connect 24 0 26 0;
#X connect 25 0 32 0;
#X connect 26 0 25 0;
#X connect 26 1 32 1;
#X connect 27 0 28 0;
#X connect 28 0 25 0;
#X connect 28 1 32 2;
#X connect 29 0 30 0;
#X connect 30 0 25 0;
#X connect 30 1 32 3;
#X connect 31 0 5 0;
#X connect 32 0 31 0;
