#N canvas 291 134 475 359 10;
#X obj 24 10 inlet;
#X obj 129 16 inlet;
#X obj 172 17 inlet;
#X obj 219 17 inlet;
#X obj 172 84 t b f;
#X obj 219 84 t b f;
#X obj 179 287 Text2;
#X obj 47 228 prepend write;
#X obj 153 126 pack f f f;
#X msg 159 225 position \$1 \$2 \$3;
#X msg 290 224 color \$1 \$2 \$3;
#X obj 277 17 inlet;
#X obj 320 18 inlet;
#X obj 367 18 inlet;
#X obj 320 85 t b f;
#X obj 367 85 t b f;
#X obj 301 127 pack f f f;
#X connect 0 0 7 0;
#X connect 1 0 8 0;
#X connect 2 0 4 0;
#X connect 3 0 5 0;
#X connect 4 0 8 0;
#X connect 4 1 8 1;
#X connect 5 0 8 0;
#X connect 5 1 8 2;
#X connect 7 0 6 0;
#X connect 8 0 9 0;
#X connect 9 0 6 0;
#X connect 10 0 6 0;
#X connect 11 0 16 0;
#X connect 12 0 14 0;
#X connect 13 0 15 0;
#X connect 14 0 16 0;
#X connect 14 1 16 1;
#X connect 15 0 16 0;
#X connect 15 1 16 2;
#X connect 16 0 10 0;
