#N canvas 1193 304 724 451 10;
#X obj -27 38 loadbang;
#X obj -58 67 + 1;
#X obj -27 67 v textIdGenerator;
#X obj 99 19 closebang;
#X obj 99 71 int;
#X obj 225 21 inlet;
#X obj 99 359 s basicTangibleTabletop1234messageBus;
#X obj -27 101 s idtext-\$0;
#X obj 114 42 r idtext-\$0;
#X obj 410 265 r idtext-\$0;
#X msg 99 102 /text \$1 rm;
#X msg 410 289 set /text \$1;
#X obj 372 314 prepend /text;
#X obj 225 46 route write;
#X obj 225 129 l2s;
#X msg 240 99 symbol %20;
#X obj 240 72 loadbang;
#X obj 225 154 prepend write;
#X obj 395 346 print;
#X connect 0 0 2 0;
#X connect 1 0 2 0;
#X connect 2 0 1 0;
#X connect 2 0 7 0;
#X connect 3 0 4 0;
#X connect 4 0 10 0;
#X connect 5 0 13 0;
#X connect 8 0 4 1;
#X connect 9 0 11 0;
#X connect 10 0 6 0;
#X connect 11 0 12 0;
#X connect 12 0 6 0;
#X connect 12 0 18 0;
#X connect 13 0 14 0;
#X connect 13 1 12 0;
#X connect 14 0 17 0;
#X connect 15 0 14 1;
#X connect 16 0 15 0;
#X connect 17 0 12 0;
