#N canvas 94 336 547 531 10;
#X obj 22 20 inlet;
#X obj 49 261 outlet;
#X obj 260 -6 inlet;
#X obj 22 47 route transform;
#X obj 49 232 prepend transform;
#X obj 324 -7 inlet;
#X obj 260 136 pack f f;
#X obj 49 194 prepend set transform;
#X obj 22 99 t b a;
#X obj 260 188 prepend t;
#X obj 260 70 float \$1;
#X obj 327 71 float \$2;
#X text 363 -10 Y;
#X obj 324 21 t b f;
#X obj 260 100 t f b;
#X text 297 -7 X;
#X connect 0 0 3 0;
#X connect 2 0 10 0;
#X connect 3 0 8 0;
#X connect 4 0 1 0;
#X connect 5 0 13 0;
#X connect 6 0 9 0;
#X connect 7 0 4 0;
#X connect 8 0 10 0;
#X connect 8 1 7 0;
#X connect 9 0 4 0;
#X connect 10 0 14 0;
#X connect 11 0 6 1;
#X connect 13 0 10 0;
#X connect 13 1 11 1;
#X connect 14 0 6 0;
#X connect 14 1 11 0;
