#N canvas 736 536 502 442 10;
#X obj 37 -34 inlet;
#X obj 153 -34 inlet;
#X obj 37 8 route bang;
#X obj 49 86 float \$1;
#X obj 108 86 float \$2;
#X obj 28 196 list;
#X obj 37 40 t b b b;
#X obj 28 225 route list;
#X obj 28 254 outlet;
#X text 23 286 MTCF mobile PD Client;
#X text 21 301 (C) Daniel Gallardo Grassot daniel.gallardo@upf.edu
;
#X text 22 318 This software (client) is released under the MIT licence
;
#X text 18 -78 Sends a circle path to a [polygon2] object.;
#X text 18 -64 Inlets: radius \, vertex_resolution;
#X obj 213 -34 inlet;
#X obj 270 -34 inlet;
#X obj 168 86 float \$3;
#X obj 225 86 float \$4;
#X obj 49 136 pack f f f f;
#X obj 49 167 list prepend addcircle;
#X connect 0 0 2 0;
#X connect 1 0 4 1;
#X connect 2 0 6 0;
#X connect 2 1 3 1;
#X connect 3 0 18 0;
#X connect 4 0 18 1;
#X connect 5 0 7 0;
#X connect 6 0 5 0;
#X connect 6 1 3 0;
#X connect 6 2 4 0;
#X connect 7 0 8 0;
#X connect 14 0 16 1;
#X connect 15 0 17 1;
#X connect 16 0 18 2;
#X connect 17 0 18 3;
#X connect 18 0 19 0;
#X connect 19 0 5 1;
