#N canvas 533 86 957 927 10;
#X obj 110 123 bng 15 250 50 0 empty \$0_rconnect empty 17 7 0 10 -262144
-1 -1;
#X obj 105 215 tgl 15 0 \$0_sreuseip \$0_rreuseip empty 17 7 0 10 -262144
-1 -1 1 1;
#X obj 296 -307 inlet;
#X obj 154 -307 loadbang;
#X msg 154 -279 127.0.0.1;
#X text 221 220 Connected;
#X obj 280 221 tgl 15 0 sconnect-tgl rconnect-tgl 127.0.0.1 -109 -70
0 18 -24198 -24198 -24198 0 1;
#X obj -26 525 mrpeach/udpsend;
#X obj -120 366 r basicTangibleTabletop1234messageBus;
#X obj -26 489 mrpeach/packOSC;
#X text 202 122 Disconnect;
#X obj 183 122 bng 15 250 50 0 \$0_disconnect \$0_rdisconnect empty
17 7 0 10 -262144 -1 -1;
#X msg 150 481 disconnect;
#X obj 110 422 t a b;
#X obj 150 530 print UDP status:;
#N canvas 158 560 450 300 debug 0;
#X obj 29 16 r basicTangibleTabletop1235messageBus;
#X obj 28 39 spigot;
#X obj 75 41 tgl 15 0 empty empty empty 17 7 0 10 -262144 -1 -1 0 1
;
#X obj 30 149 spigot;
#X obj 77 151 tgl 15 0 empty empty empty 17 7 0 10 -262144 -1 -1 0
1;
#X obj 31 173 print sent;
#X obj 30 101 r basicTangibleTabletop1234messageBus;
#X obj 29 63 print rcvd;
#X obj 30 124 route /wave;
#X connect 0 0 1 0;
#X connect 1 0 7 0;
#X connect 2 0 1 1;
#X connect 3 0 5 0;
#X connect 4 0 3 1;
#X connect 6 0 8 0;
#X connect 8 1 3 0;
#X restore -42 -352 pd debug;
#N canvas 609 238 623 274 dumpOSC 0;
#X obj 101 11 outlet;
#X obj 101 -35 mrpeach/udpreceive 1235;
#X obj 101 -15 mrpeach/unpackOSC;
#X obj 236 151 outlet;
#X obj 101 -83 inlet;
#X msg 101 -59 port \$1;
#X obj 330 53 route from;
#X obj 358 -22 t a a;
#X obj 426 52 unpack f f f f;
#X obj 426 86 pack f f f f;
#X msg 423 119 \$1.\$2.\$3.\$4;
#X obj 426 21 spigot;
#X obj 458 -1 tgl 15 0 empty empty empty 17 7 0 10 -262144 -1 -1 0
1;
#X msg 356 81 0;
#X text 316 15 linux;
#X text 491 12 windows;
#X msg 330 119 \$1.\$2.\$3.\$4;
#X msg 494 -23 1;
#X obj 511 -55 loadbang;
#X connect 1 0 2 0;
#X connect 1 1 7 0;
#X connect 2 0 0 0;
#X connect 4 0 5 0;
#X connect 6 0 13 0;
#X connect 6 0 16 0;
#X connect 7 0 11 0;
#X connect 7 1 6 0;
#X connect 8 0 9 0;
#X connect 8 1 9 1;
#X connect 8 2 9 2;
#X connect 8 3 9 3;
#X connect 9 0 10 0;
#X connect 10 0 3 0;
#X connect 11 0 8 0;
#X connect 12 0 11 1;
#X connect 13 0 12 0;
#X connect 16 0 3 0;
#X connect 17 0 12 0;
#X connect 18 0 17 0;
#X restore 359 -109 pd dumpOSC;
#X msg 359 -40 bang;
#X obj 359 9 t b b;
#X obj 359 -16 spigot;
#X obj 157 602 delay 100;
#X obj 122 -64 s basicTangibleTabletop1235messageBus;
#X obj 157 682 outlet;
#X obj 157 636 t b b;
#X text 203 672 this is a loadbang after initializing;
#X text 203 685 the tabletop externals;
#X obj 185 657 s basicTangibleTabletopInit;
#X obj 203 639 bng 15 250 50 0 empty empty empty 17 7 0 10 -262144
-1 -1;
#X obj -120 412 spigot;
#X text 105 144 Device IP:;
#X text 121 213 Autodetect IP;
#X text 129 121 Connect;
#X obj 236 -242 t a b;
#X obj 269 -186 s \$0_rreuseip;
#X msg 269 -209 0;
#X msg 115 -279 1;
#X obj 392 -40 r \$0_sreuseip;
#N canvas 331 240 670 381 changeColor_toggle_connected 0;
#X msg 23 179 \; rconnect-tgl color \$1 \$2 \$3;
#X obj 23 155 pack 0 0 0;
#X msg 23 106 13;
#X msg 50 106 16;
#X obj 23 131 t f f f;
#X obj 23 65 sel 0;
#X obj 23 39 inlet;
#X obj -30 107 outlet;
#X obj 91 106 outlet;
#X obj -84 36 loadbang;
#X connect 1 0 0 0;
#X connect 2 0 4 0;
#X connect 3 0 4 0;
#X connect 4 0 1 0;
#X connect 4 1 1 1;
#X connect 4 2 1 2;
#X connect 5 0 2 0;
#X connect 5 0 7 0;
#X connect 5 1 3 0;
#X connect 5 1 8 0;
#X connect 6 0 5 0;
#X connect 9 0 2 0;
#X restore -26 554 pd changeColor_toggle_connected;
#X obj 157 577 t b b;
#X obj 232 392 r \$0_disconnect;
#X text 103 169 Control Port:;
#X obj 359 275 loadbang;
#X obj 420 195 t b f;
#X text 103 189 Interface Port:;
#X msg 110 343 connect \$1;
#X obj 110 366 list append;
#X obj 110 390 route list;
#X obj 296 -280 route ip controlPort interfacePort disconnect connect
;
#X obj 485 -241 bang;
#X obj 485 -185 s \$0_rdisconnect;
#X obj 548 -244 bang;
#X obj 548 -220 s \$0_rconnect;
#X msg 359 299 1234;
#X obj 359 -185 t a a;
#X obj 422 -184 t a a;
#X obj 232 421 t b b;
#X obj 386 37 list;
#X obj 110 317 list;
#X obj 154 -188 s \$0_ipaddr;
#X obj 154 -211 list;
#X obj 131 257 r \$0_ipaddr;
#X obj 386 62 s \$0_ipaddr;
#X obj 458 -140 s \$0_intport;
#X obj 372 -139 s \$0_ctrport;
#X obj 359 325 s \$0_intport;
#X obj 187 169 nbx 5 14 -1e+37 1e+37 0 0 empty \$0_ctrport empty 0
-8 0 10 -262144 -1 -1 1235 256;
#X obj 197 190 nbx 5 14 -1e+37 1e+37 0 0 empty \$0_intport empty 0
-8 0 10 -262144 -1 -1 1234 256;
#X obj 359 -63 route /connect;
#X obj 327 609 mtcf-reset;
#X obj 707 158 loadbang;
#X msg 707 186 1235;
#X obj 707 213 s \$0_ctrport;
#X text 696 -129 MTCF mobile PD Client;
#X text 694 -114 (C) Daniel Gallardo Grassot daniel.gallardo@upf.edu
;
#X text 695 -97 This software (client) is released under the MIT licence
;
#X obj 666 -313 bng 15 250 50 0 empty empty empty 17 7 0 10 -262144
-1 -1;
#X obj 666 682 bng 15 250 50 0 empty empty empty 17 7 0 10 -262144
-1 -1;
#X obj -102 -328 bng 15 250 50 0 empty empty empty 17 7 0 10 -262144
-1 -1;
#X text -103 -373 MTCF connection Manager:;
#X text -77 -330 OSC Connection Patch;
#X obj 709 -270 mtcf-receive;
#X obj 709 -235 route /init;
#X obj 709 -209 bng 15 250 50 0 empty empty empty 17 7 0 10 -262144
-1 -1;
#X obj 692 -172 s initparameters;
#X obj 749 -206 delay 1000;
#X obj 803 -172 print initialized;
#X text 689 -303 Reset everyting when conected.;
#X obj 707 40 r \$0_ipaddr;
#X obj 707 73 list prepend;
#X msg 707 102 \; rconnect-tgl label \$1;
#N canvas 1 86 450 300 maxmessages 0;
#X obj 211 89 l2s;
#X obj 213 205 s2l;
#X obj 238 144 pipe s 1;
#X obj 211 114 t b a;
#X floatatom 128 145 5 0 0 0 - - -;
#X obj 198 168 f;
#X obj 245 170 t b a;
#X obj 211 43 inlet;
#X obj 212 260 outlet;
#X obj 213 229 route list;
#X obj 167 144 + 2;
#X obj 168 169 f 2;
#X obj 197 144 - 2;
#X msg 130 117 0;
#X msg 257 111 clear;
#X obj 306 266 outlet;
#X connect 0 0 3 0;
#X connect 1 0 9 0;
#X connect 2 0 6 0;
#X connect 3 0 11 0;
#X connect 3 1 2 0;
#X connect 4 0 2 1;
#X connect 4 0 10 0;
#X connect 4 0 12 0;
#X connect 4 0 15 0;
#X connect 5 0 4 0;
#X connect 6 0 5 0;
#X connect 6 1 1 0;
#X connect 7 0 0 0;
#X connect 9 0 8 0;
#X connect 9 1 8 0;
#X connect 10 0 11 1;
#X connect 11 0 4 0;
#X connect 12 0 5 1;
#X connect 13 0 4 0;
#X connect 14 0 2 0;
#X restore -12 448 pd maxmessages;
#X floatatom 306 141 5 0 0 0 - - -;
#X obj 277 120 tgl 15 0 empty empty empty 17 7 0 10 -262144 -1 -1 0
1;
#X text 296 120 buffer;
#X obj -32 417 gate 2;
#X obj -38 330 loadbang;
#X obj -32 392 + 1;
#X msg -37 357 0;
#X connect 0 0 57 0;
#X connect 2 0 47 0;
#X connect 3 0 4 0;
#X connect 3 0 35 0;
#X connect 4 0 59 0;
#X connect 7 0 37 0;
#X connect 7 0 28 1;
#X connect 8 0 28 0;
#X connect 9 0 7 0;
#X connect 12 0 7 0;
#X connect 12 0 14 0;
#X connect 13 0 7 0;
#X connect 13 0 14 0;
#X connect 13 1 12 0;
#X connect 16 0 21 0;
#X connect 16 0 67 0;
#X connect 16 1 56 1;
#X connect 17 0 19 0;
#X connect 18 0 0 0;
#X connect 18 1 56 0;
#X connect 19 0 18 0;
#X connect 20 0 23 0;
#X connect 20 0 27 0;
#X connect 23 0 22 0;
#X connect 23 1 26 0;
#X connect 28 0 94 1;
#X connect 32 0 59 0;
#X connect 32 1 34 0;
#X connect 34 0 33 0;
#X connect 35 0 33 0;
#X connect 36 0 19 1;
#X connect 37 1 38 0;
#X connect 38 0 20 0;
#X connect 38 1 68 0;
#X connect 39 0 55 0;
#X connect 41 0 52 0;
#X connect 42 0 57 0;
#X connect 42 1 45 1;
#X connect 44 0 45 0;
#X connect 45 0 46 0;
#X connect 46 0 13 0;
#X connect 47 0 32 0;
#X connect 47 1 53 0;
#X connect 47 2 54 0;
#X connect 47 3 48 0;
#X connect 47 4 50 0;
#X connect 48 0 49 0;
#X connect 50 0 51 0;
#X connect 52 0 45 1;
#X connect 52 0 64 0;
#X connect 53 0 16 0;
#X connect 53 1 63 0;
#X connect 54 0 42 0;
#X connect 54 1 62 0;
#X connect 55 0 12 0;
#X connect 55 1 68 0;
#X connect 56 0 61 0;
#X connect 57 0 44 0;
#X connect 59 0 58 0;
#X connect 60 0 57 1;
#X connect 67 0 17 0;
#X connect 69 0 70 0;
#X connect 70 0 71 0;
#X connect 75 0 76 0;
#X connect 77 0 75 0;
#X connect 80 0 81 0;
#X connect 81 0 82 0;
#X connect 82 0 84 0;
#X connect 84 0 83 0;
#X connect 84 0 85 0;
#X connect 87 0 88 0;
#X connect 88 0 89 0;
#X connect 90 0 9 0;
#X connect 90 1 91 0;
#X connect 92 0 96 0;
#X connect 94 0 9 0;
#X connect 94 1 90 0;
#X connect 95 0 97 0;
#X connect 96 0 94 0;
#X connect 97 0 96 0;
#X coords 0 -1 1 1 250 140 1 100 100;
