#N canvas 16 121 362 314 10;
#X obj -33 231 outlet;
#X obj -102 34 inlet;
#X obj -102 67 route radius;
#X obj -123 160 mtcf-circle;
#X obj -120 105 t b f b;
#X msg -60 135 40;
#X text -137 258 MTCF mobile PD Client;
#X text -139 273 (C) Daniel Gallardo Grassot daniel.gallardo@upf.edu
;
#X text -138 290 This software (client) is released under the MIT licence
;
#X text -139 0 MTCF graphic object circle;
#X text -139 13 Inlet: radius and [polygon2] messages;
#X obj -116 209 print;
#X obj -33 202 mtcf-polygon;
#X connect 1 0 2 0;
#X connect 2 0 4 0;
#X connect 2 1 12 0;
#X connect 3 0 11 0;
#X connect 3 0 12 0;
#X connect 4 0 3 0;
#X connect 4 1 3 0;
#X connect 4 2 5 0;
#X connect 5 0 3 1;
#X connect 12 0 0 0;
