#N canvas 966 348 390 412 10;
#X obj -60 36 inlet;
#X obj -33 325 outlet;
#X obj 127 38 inlet;
#X obj 191 37 inlet;
#X obj 127 191 pack f f;
#X obj -60 139 t b a;
#X obj 127 125 float \$1;
#X obj 194 126 float \$2;
#X text 230 34 Y;
#X obj 191 65 t b f;
#X obj 127 155 t f b;
#X text 164 37 X;
#X obj 127 243 list prepend t;
#X obj -32 219 list prepend transform;
#X obj -33 272 list prepend transform;
#X obj -60 63 route transform bang;
#X obj -2 84 t b b;
#X msg 37 163 transform;
#X obj -33 298 route list;
#X text -60 354 MTCF mobile PD Client;
#X text -62 369 (C) Daniel Gallardo Grassot daniel.gallardo@upf.edu
;
#X text -61 386 This software (client) is released under the MIT licence
;
#X text -65 -6 Translates a graphic object. See [mtcf-transformations-help]
;
#X text -66 8 Inlets: Transformation chain \, X \, Y;
#X connect 0 0 15 0;
#X connect 2 0 6 0;
#X connect 3 0 9 0;
#X connect 4 0 12 0;
#X connect 5 0 6 0;
#X connect 5 1 13 0;
#X connect 6 0 10 0;
#X connect 7 0 4 1;
#X connect 9 0 6 0;
#X connect 9 1 7 1;
#X connect 10 0 4 0;
#X connect 10 1 7 0;
#X connect 12 0 14 0;
#X connect 13 0 14 1;
#X connect 14 0 18 0;
#X connect 15 0 5 0;
#X connect 15 1 16 0;
#X connect 16 0 6 0;
#X connect 16 1 17 0;
#X connect 17 0 14 1;
#X connect 18 0 1 0;
