#N canvas 76 353 377 450 10;
#X obj 25 46 inlet;
#X obj 120 46 inlet;
#X obj 25 198 int;
#X obj 25 174 clip 0 255;
#X obj 25 147 int \$1;
#X obj 114 147 int \$2;
#X obj 120 82 t b f;
#X obj 190 46 inlet;
#X obj 190 82 t b f;
#X obj 260 45 inlet;
#X obj 260 81 t b f;
#X obj 35 114 t b b b b;
#X obj 114 198 int;
#X obj 114 174 clip 0 255;
#X obj 184 198 int;
#X obj 184 174 clip 0 255;
#X obj 254 198 int;
#X obj 254 174 clip 0 255;
#X obj 104 355 outlet;
#X obj 35 79 loadbang;
#X obj 104 273 pack f f f f;
#X obj 184 147 int \$3;
#X obj 254 146 int \$4;
#X obj 104 303 list prepend color;
#X obj 104 330 route list;
#X text 20 393 MTCF mobile PD Client;
#X text 18 408 (C) Daniel Gallardo Grassot daniel.gallardo@upf.edu
;
#X text 19 425 This software (client) is released under the MIT licence
;
#X text 12 7 Receives a Red Green Blue Alpha values and outputs the
propper message for the MTCF objects;
#X connect 0 0 4 0;
#X connect 1 0 6 0;
#X connect 2 0 20 0;
#X connect 3 0 2 0;
#X connect 4 0 3 0;
#X connect 5 0 13 0;
#X connect 6 0 11 0;
#X connect 6 1 5 1;
#X connect 7 0 8 0;
#X connect 8 0 11 0;
#X connect 8 1 21 1;
#X connect 9 0 10 0;
#X connect 10 0 11 0;
#X connect 10 1 22 1;
#X connect 11 0 4 0;
#X connect 11 1 5 0;
#X connect 11 2 21 0;
#X connect 11 3 22 0;
#X connect 12 0 20 1;
#X connect 13 0 12 0;
#X connect 14 0 20 2;
#X connect 15 0 14 0;
#X connect 16 0 20 3;
#X connect 17 0 16 0;
#X connect 19 0 11 0;
#X connect 20 0 23 0;
#X connect 21 0 15 0;
#X connect 22 0 17 0;
#X connect 23 0 24 0;
#X connect 24 0 18 0;
