#N canvas 301 291 386 410 10;
#X obj 24 21 inlet;
#X obj 133 21 loadbang;
#X obj 24 299 outlet;
#X obj 51 107 list length;
#X obj 51 131 == 16;
#X obj 24 167 spigot;
#X obj 24 85 t a a;
#X obj 80 167 select 0;
#X msg 133 43 1 0 0 0 0 1 0 0 0 0 1 0 0 0 0 1;
#X obj 112 259 list;
#X text 21 330 MTCF mobile PD Client;
#X text 19 345 (C) Daniel Gallardo Grassot daniel.gallardo@upf.edu
;
#X text 20 362 This software (client) is released under the MIT licence
;
#X text 23 -22 Check the input list to verify that there are 16 elements
(4x4 matrix) it returns the input matrix or the indentity if the verification
is failed.;
#X connect 0 0 6 0;
#X connect 1 0 8 0;
#X connect 3 0 4 0;
#X connect 4 0 5 1;
#X connect 4 0 7 0;
#X connect 5 0 9 1;
#X connect 5 0 2 0;
#X connect 6 0 5 0;
#X connect 6 1 3 0;
#X connect 7 0 9 0;
#X connect 8 0 6 0;
#X connect 8 0 9 1;
#X connect 9 0 2 0;
