#N canvas 234 552 369 165 10;
#X obj 34 28 r basicTangibleTabletop1235messageBus;
#X obj 34 75 outlet;
#X text 33 7 Use this in combination with;
#X obj 34 53 route /finger;
#X text 11 95 MTCF mobile PD Client;
#X text 9 110 (C) Daniel Gallardo Grassot daniel.gallardo@upf.edu;
#X text 10 127 This software (client) is released under the MIT licence
;
#X obj 209 8 mtcf-finger;
#X connect 0 0 3 0;
#X connect 3 0 1 0;
