#N canvas 457 280 420 526 10;
#X obj -52 -211 inlet;
#X obj -23 175 outlet;
#X obj 151 -209 inlet;
#X text 189 -210 X;
#X obj 218 -210 inlet;
#X text 256 -211 y;
#X obj 151 0 pack f f;
#X obj -52 -39 t b a;
#X obj 151 -62 float \$1;
#X obj 215 -64 float \$2;
#X obj 218 -171 t b f;
#X obj 151 -34 t f b;
#X obj 151 55 list prepend s;
#X obj -23 119 list prepend transform;
#X obj -52 -149 route transform bang;
#X obj 6 -109 t b b;
#X msg 33 -17 transform;
#X obj -25 45 list prepend transform;
#X obj -23 146 route list;
#X text -68 211 MTCF mobile PD Client;
#X text -70 226 (C) Daniel Gallardo Grassot daniel.gallardo@upf.edu
;
#X text -69 243 This software (client) is released under the MIT licence
;
#X text -67 -242 Inlets: Transformation Chain \, Xfactor scale \, Yfactor
scale;
#X text -68 -258 Scales a graphic object. See [mtcf-transformations-help]
;
#X connect 0 0 14 0;
#X connect 2 0 8 0;
#X connect 4 0 10 0;
#X connect 6 0 12 0;
#X connect 7 0 8 0;
#X connect 7 1 17 0;
#X connect 8 0 11 0;
#X connect 9 0 6 1;
#X connect 10 0 8 0;
#X connect 10 1 9 1;
#X connect 11 0 6 0;
#X connect 11 1 9 0;
#X connect 12 0 13 0;
#X connect 13 0 18 0;
#X connect 14 0 7 0;
#X connect 14 1 15 0;
#X connect 15 0 8 0;
#X connect 15 1 16 0;
#X connect 16 0 13 1;
#X connect 17 0 13 1;
#X connect 18 0 1 0;
