#N canvas 1032 559 346 248 10;
#X obj 34 65 tgl 15 0 empty empty empty 17 7 0 10 -262144 -1 -1 0 1
;
#X floatatom 50 65 5 0 0 0 - - -;
#X floatatom 83 65 5 0 0 0 - - -;
#X floatatom 116 65 5 0 0 0 - - -;
#X obj 34 113 tgl 15 0 empty empty empty 17 7 0 10 -262144 -1 -1 0
1;
#X floatatom 50 113 5 0 0 0 - - -;
#X floatatom 83 113 5 0 0 0 - - -;
#X floatatom 116 113 5 0 0 0 - - -;
#X obj 34 159 tgl 15 0 empty empty empty 17 7 0 10 -262144 -1 -1 0
1;
#X floatatom 50 159 5 0 0 0 - - -;
#X floatatom 83 159 5 0 0 0 - - -;
#X floatatom 116 159 5 0 0 0 - - -;
#X text 15 206 MTCF mobile PD Client;
#X text 13 221 (C) Daniel Gallardo Grassot daniel.gallardo@upf.edu
;
#X text 14 238 This software (client) is released under the MIT licence
;
#X obj 17 10 mtcf-fingers;
#X obj 17 42 mtcf-finger 0 0 0;
#X obj 17 90 mtcf-finger 0 0 0;
#X obj 17 136 mtcf-finger 0 0 0;
#X connect 15 0 16 0;
#X connect 16 0 17 0;
#X connect 16 1 0 0;
#X connect 16 2 1 0;
#X connect 16 3 2 0;
#X connect 16 4 3 0;
#X connect 17 0 18 0;
#X connect 17 1 4 0;
#X connect 17 2 5 0;
#X connect 17 3 6 0;
#X connect 17 4 7 0;
#X connect 18 1 8 0;
#X connect 18 2 9 0;
#X connect 18 3 10 0;
#X connect 18 4 11 0;
