#N canvas 564 301 384 483 10;
#X obj 20 70 inlet;
#X obj 104 69 inlet;
#X obj 181 70 inlet;
#X obj 20 241 float \$1;
#X obj 104 242 float \$2;
#X obj 181 243 float \$3;
#X obj 61 317 pack \$1 \$2 \$3;
#X obj 20 203 t b b b;
#X obj 20 96 route bang;
#X obj 104 96 route bang;
#X obj 181 96 route bang;
#X obj 238 130 t b f;
#X obj 161 129 t b f;
#X obj 77 131 t b f;
#X obj 61 395 outlet;
#X obj 61 343 list prepend position;
#X obj 61 368 route list;
#X text 14 425 MTCF mobile PD Client;
#X text 12 440 (C) Daniel Gallardo Grassot daniel.gallardo@upf.edu
;
#X text 13 457 This software (client) is released under the MIT licence
;
#X text 7 15 Moves the drawed object to X \, Y position and rotates
it by an angle.;
#X text 7 42 Inlets: X \, Y \, Rotation angle;
#X text 8 1 DEPRECATED!!! see [mtcf-transformations-help];
#X connect 0 0 8 0;
#X connect 1 0 9 0;
#X connect 2 0 10 0;
#X connect 3 0 6 0;
#X connect 4 0 6 1;
#X connect 5 0 6 2;
#X connect 6 0 15 0;
#X connect 7 0 3 0;
#X connect 7 1 4 0;
#X connect 7 2 5 0;
#X connect 8 0 7 0;
#X connect 8 1 13 0;
#X connect 9 0 7 0;
#X connect 9 1 12 0;
#X connect 10 0 7 0;
#X connect 10 1 11 0;
#X connect 11 0 7 0;
#X connect 11 1 5 1;
#X connect 12 0 7 0;
#X connect 12 1 4 1;
#X connect 13 0 7 0;
#X connect 13 1 3 1;
#X connect 15 0 16 0;
#X connect 16 0 14 0;
