#N canvas 829 139 357 461 10;
#X obj 15 -24 inlet;
#X obj 131 -24 inlet;
#X obj 15 18 route bang;
#X obj 27 96 float \$1;
#X obj 86 96 float \$2;
#X obj 27 146 pack f f;
#X obj 6 206 list;
#X obj 15 50 t b b b;
#X obj 6 235 route list;
#X obj 6 264 outlet;
#X text 1 296 MTCF mobile PD Client;
#X text -1 311 (C) Daniel Gallardo Grassot daniel.gallardo@upf.edu
;
#X text 0 328 This software (client) is released under the MIT licence
;
#X text -2 -98 Sends a rectangle path to a [polygon2] object.;
#X obj 27 177 list prepend addrectangle 0 0;
#X text -2 -84 Inlets: Width \, Height;
#X connect 0 0 2 0;
#X connect 1 0 4 1;
#X connect 2 0 7 0;
#X connect 2 1 3 1;
#X connect 3 0 5 0;
#X connect 4 0 5 1;
#X connect 5 0 14 0;
#X connect 6 0 8 0;
#X connect 7 0 6 0;
#X connect 7 1 3 0;
#X connect 7 2 4 0;
#X connect 8 0 9 0;
#X connect 14 0 6 1;
