#N canvas 867 150 450 741 10;
#X obj -265 117 mtcf-square 0.1;
#X obj -148 204 route finger;
#X obj 90 490 outlet;
#X obj -66 418 list prepend pressed;
#X obj -66 446 route list;
#X msg -294 427 drawpolygon 1;
#X msg -202 427 drawpolygon 0;
#X obj -271 -107 inlet;
#X msg -49 61 strokecolor 0 255 0;
#X msg -32 82 drawstroke 1;
#X msg -17 102 strokewidth 5;
#X msg -5 122 drawpolygon 0;
#X obj -24 28 t b b b b;
#X obj -131 291 change;
#X obj -131 318 sel 1;
#X obj -271 -85 route bang drawstroke set;
#X text -286 534 MTCF mobile PD Client;
#X text -288 549 (C) Daniel Gallardo Grassot daniel.gallardo@upf.edu
;
#X text -287 566 This software (client) is released under the MIT licence
;
#X obj -148 165 mtcf-polygon;
#X obj -148 237 mtcf-finger 0 0 0;
#X obj -7 210 loadbang;
#X msg 6 250 0;
#X obj -130 349 tgl 15 0 empty empty empty 17 7 0 10 -262144 -1 -1
0 1;
#X obj -131 395 sel 1;
#X msg -260 224 0;
#X obj -271 -55 t b b b;
#X connect 0 0 19 0;
#X connect 1 0 20 0;
#X connect 1 1 2 0;
#X connect 3 0 4 0;
#X connect 4 0 2 0;
#X connect 5 0 19 0;
#X connect 6 0 19 0;
#X connect 7 0 15 0;
#X connect 8 0 19 0;
#X connect 9 0 19 0;
#X connect 10 0 19 0;
#X connect 11 0 19 0;
#X connect 12 0 8 0;
#X connect 12 1 9 0;
#X connect 12 2 10 0;
#X connect 12 3 11 0;
#X connect 13 0 14 0;
#X connect 14 0 23 0;
#X connect 15 0 26 0;
#X connect 15 2 23 0;
#X connect 15 3 19 0;
#X connect 19 0 1 0;
#X connect 20 1 13 0;
#X connect 21 0 22 0;
#X connect 22 0 13 0;
#X connect 23 0 24 0;
#X connect 24 0 5 0;
#X connect 24 1 6 0;
#X connect 25 0 23 0;
#X connect 26 0 12 0;
#X connect 26 1 0 0;
#X connect 26 2 25 0;
