#N canvas 238 269 351 300 10;
#X obj 118 45 inlet;
#X obj 180 45 inlet;
#X obj 180 72 bang;
#X obj 44 44 inlet;
#X msg 180 136 bring_top;
#X msg 118 137 layer \$1;
#X obj 140 219 outlet;
#X msg 44 138 hidden \$1;
#X text 7 240 MTCF mobile PD Client;
#X text 5 255 (C) Daniel Gallardo Grassot daniel.gallardo@upf.edu;
#X text 6 272 This software (client) is released under the MIT licence
;
#X text 7 15 Inlets: is_Hidden \, layer \, bring_top;
#X text 7 1 Modifies the graphic object visibility.;
#X connect 0 0 5 0;
#X connect 1 0 2 0;
#X connect 2 0 4 0;
#X connect 3 0 7 0;
#X connect 4 0 6 0;
#X connect 5 0 6 0;
#X connect 7 0 6 0;
