#N canvas 354 40 595 626 10;
#X obj 6 -2 inlet;
#X obj 6 145 unpack f f f f f f f f f f f f f f f f;
#X obj 71 258 *;
#X obj 116 258 *;
#X obj 173 258 *;
#X obj 127 413 +;
#X obj 54 5 loadbang;
#X obj 139 302 +;
#X obj 90 351 +;
#X obj 127 479 outlet;
#X obj 335 142 float \$1;
#X obj 400 142 float \$2;
#X obj 464 141 float \$3;
#X obj 251 257 *;
#X obj 296 257 *;
#X obj 353 257 *;
#X obj 307 412 +;
#X obj 319 301 +;
#X obj 270 350 +;
#X obj 307 478 outlet;
#X obj 453 257 *;
#X obj 498 257 *;
#X obj 555 257 *;
#X obj 509 412 +;
#X obj 521 301 +;
#X obj 472 350 +;
#X obj 509 478 outlet;
#X obj 335 101 t b b b;
#X obj 353 0 inlet;
#X obj 353 24 t b f;
#X obj 418 -1 inlet;
#X obj 418 23 t b f;
#X obj 482 -1 inlet;
#X obj 482 23 t b f;
#X obj 158 63 bang;
#X obj 6 33 mtcf-matrix;
#X text 12 511 MTCF mobile PD Client;
#X text 10 526 (C) Daniel Gallardo Grassot daniel.gallardo@upf.edu
;
#X text 11 543 This software (client) is released under the MIT licence
;
#X text 7 -62 Multiplies a point by a matrix.;
#X text 6 -47 Inlets: Matrix (16values list) \, X \, Y;
#X text 6 -31 Outlets: Xresult \, Yresult;
#X connect 0 0 35 0;
#X connect 1 0 2 1;
#X connect 1 1 13 1;
#X connect 1 2 20 1;
#X connect 1 4 3 1;
#X connect 1 5 14 1;
#X connect 1 6 21 1;
#X connect 1 8 4 1;
#X connect 1 9 15 1;
#X connect 1 10 22 1;
#X connect 1 12 5 1;
#X connect 1 13 16 1;
#X connect 1 14 23 1;
#X connect 2 0 8 0;
#X connect 3 0 7 0;
#X connect 4 0 7 1;
#X connect 5 0 9 0;
#X connect 6 0 35 0;
#X connect 7 0 8 1;
#X connect 8 0 5 0;
#X connect 10 0 2 0;
#X connect 10 0 13 0;
#X connect 10 0 20 0;
#X connect 11 0 3 0;
#X connect 11 0 14 0;
#X connect 11 0 21 0;
#X connect 12 0 4 0;
#X connect 12 0 15 0;
#X connect 12 0 22 0;
#X connect 13 0 18 0;
#X connect 14 0 17 0;
#X connect 15 0 17 1;
#X connect 16 0 19 0;
#X connect 17 0 18 1;
#X connect 18 0 16 0;
#X connect 20 0 25 0;
#X connect 21 0 24 0;
#X connect 22 0 24 1;
#X connect 23 0 26 0;
#X connect 24 0 25 1;
#X connect 25 0 23 0;
#X connect 27 0 10 0;
#X connect 27 1 11 0;
#X connect 27 2 12 0;
#X connect 28 0 29 0;
#X connect 29 0 27 0;
#X connect 29 1 10 1;
#X connect 30 0 31 0;
#X connect 31 0 27 0;
#X connect 31 1 11 1;
#X connect 32 0 33 0;
#X connect 33 0 27 0;
#X connect 33 1 12 1;
#X connect 34 0 27 0;
#X connect 35 0 1 0;
#X connect 35 0 34 0;
