#N canvas 642 23 435 675 10;
#X obj 30 111 mtcf-square 0.1;
#X obj 147 198 route finger;
#X obj 385 484 outlet;
#X obj 164 348 sel 1;
#X obj 229 412 list prepend pressed;
#X obj 229 440 route list;
#X msg 1 421 drawpolygon 1;
#X msg 93 421 drawpolygon 0;
#X obj 24 -113 inlet;
#X obj 24 -91 route bang drawstroke;
#X msg 246 55 strokecolor 0 255 0;
#X msg 263 76 drawstroke 1;
#X msg 278 96 strokewidth 5;
#X msg 290 116 drawpolygon 0;
#X obj 271 22 t b b b b;
#X obj 24 -61 t b b;
#X text 11 484 MTCF mobile PD Client;
#X text 9 499 (C) Daniel Gallardo Grassot daniel.gallardo@upf.edu;
#X text 10 516 This software (client) is released under the MIT licence
;
#X obj 147 159 mtcf-polygon;
#X obj 147 231 mtcf-finger 0 0 0;
#X connect 0 0 19 0;
#X connect 1 0 20 0;
#X connect 1 1 2 0;
#X connect 3 0 6 0;
#X connect 3 1 7 0;
#X connect 4 0 5 0;
#X connect 5 0 2 0;
#X connect 6 0 19 0;
#X connect 7 0 19 0;
#X connect 8 0 9 0;
#X connect 9 0 15 0;
#X connect 9 2 19 0;
#X connect 10 0 19 0;
#X connect 11 0 19 0;
#X connect 12 0 19 0;
#X connect 13 0 19 0;
#X connect 14 0 10 0;
#X connect 14 1 11 0;
#X connect 14 2 12 0;
#X connect 14 3 13 0;
#X connect 15 0 14 0;
#X connect 15 1 0 0;
#X connect 19 0 1 0;
#X connect 20 1 3 0;
#X connect 20 1 4 0;
