#N canvas 551 348 371 426 10;
#X obj 25 35 inlet;
#X obj 120 35 inlet;
#X obj 25 187 int;
#X obj 25 163 clip 0 255;
#X obj 25 136 int \$1;
#X obj 114 136 int \$2;
#X obj 120 71 t b f;
#X obj 190 35 inlet;
#X obj 190 71 t b f;
#X obj 114 187 int;
#X obj 114 163 clip 0 255;
#X obj 184 187 int;
#X obj 184 163 clip 0 255;
#X obj 104 344 outlet;
#X obj 35 68 loadbang;
#X obj 184 136 int \$3;
#X obj 35 103 t b b b;
#X obj 104 262 pack f f f;
#X obj 104 318 route list;
#X obj 104 292 list prepend color;
#X text 21 370 MTCF mobile PD Client;
#X text 19 385 (C) Daniel Gallardo Grassot daniel.gallardo@upf.edu
;
#X text 20 402 This software (client) is released under the MIT licence
;
#X text 9 -1 Receives a Red Green Blue color values and outputs the
propper message for the MTCF objects.;
#X connect 0 0 4 0;
#X connect 1 0 6 0;
#X connect 2 0 17 0;
#X connect 3 0 2 0;
#X connect 4 0 3 0;
#X connect 5 0 10 0;
#X connect 6 0 16 0;
#X connect 6 1 5 1;
#X connect 7 0 8 0;
#X connect 8 0 16 0;
#X connect 8 1 15 1;
#X connect 9 0 17 1;
#X connect 10 0 9 0;
#X connect 11 0 17 2;
#X connect 12 0 11 0;
#X connect 14 0 16 0;
#X connect 15 0 12 0;
#X connect 16 0 4 0;
#X connect 16 1 5 0;
#X connect 16 2 15 0;
#X connect 17 0 19 0;
#X connect 18 0 13 0;
#X connect 19 0 18 0;
