#N canvas 351 218 368 410 10;
#X obj -52 -8 inlet;
#X obj -57 271 outlet;
#X obj 104 -8 inlet;
#X text 142 -9 angle;
#X msg 104 174 r \$1;
#X obj -52 71 t b a;
#X obj 104 105 float \$1;
#X obj -57 215 list prepend transform;
#X obj -52 166 list prepend transform;
#X obj -52 19 route transform bang;
#X obj 6 58 t b b;
#X msg 33 127 transform;
#X obj -57 243 route list;
#X text -61 297 MTCF mobile PD Client;
#X text -63 312 (C) Daniel Gallardo Grassot daniel.gallardo@upf.edu
;
#X text -62 329 This software (client) is released under the MIT licence
;
#X text -63 -53 Rotates a graphic object. See [mtcf-transformations-help]
;
#X text -62 -37 Inlets: Transformation Chain \, Angle;
#X connect 0 0 9 0;
#X connect 2 0 6 0;
#X connect 4 0 7 0;
#X connect 5 0 6 0;
#X connect 5 1 8 0;
#X connect 6 0 4 0;
#X connect 7 0 12 0;
#X connect 8 0 7 1;
#X connect 9 0 5 0;
#X connect 9 1 10 0;
#X connect 10 0 6 0;
#X connect 10 1 11 0;
#X connect 11 0 7 1;
#X connect 12 0 1 0;
