#N canvas 75 137 1188 863 10;
#X obj 92 397 mtcf-stroke;
#X obj 92 292 t b b b;
#X msg 92 371 1;
#X msg 157 378 5;
#X floatatom 344 704 5 0 0 0 - - -;
#X floatatom 378 704 5 0 0 0 - - -;
#X floatatom 412 704 5 0 0 0 - - -;
#X obj 327 705 tgl 15 0 empty empty empty 17 7 0 10 -262144 -1 -1 0
1;
#X obj 503 775 mtcf-itransformpoint;
#X obj 307 641 route finger matrix;
#X msg 706 585 0;
#X obj 481 669 prepend matrix;
#X obj 555 620 mtcf-draw_position 0 -0.4 0;
#X obj 700 662 clip -0.4 0.4;
#X obj -31 -28 inlet;
#X obj -4 196 t b b;
#X obj -31 154 t b b;
#X obj 700 693 expr ( $f1 + 0.4 ) / 0.8;
#X obj 700 804 outlet;
#X msg 591 522 touchenable 0;
#X obj -31 17 route bang;
#X text -90 645 MTCF mobile PD Client;
#X text -92 660 (C) Daniel Gallardo Grassot daniel.gallardo@upf.edu
;
#X text -91 677 This software (client) is released under the MIT licence
;
#X obj 453 520 mtcf-rgbcolor 0 255 0;
#X obj 123 350 mtcf-rgbcolor 0 255 0;
#X obj 860 576 expr ( $f1 * 0.8 ) - 0.4;
#X obj 860 547 clip 0 1;
#X obj 860 367 route value;
#X obj -72 397 mtcf-rectangle 0.08 0.8;
#X obj 685 523 mtcf-rectangle 0.08 0.04;
#X obj 381 119 _mtcf-route color;
#X obj 480 142 _mtcf-route strokecolor;
#X obj 153 76 _mtcf-route matrix;
#X obj 258 98 _mtcf-route transform;
#X obj 480 171 t a a;
#X obj 507 198 route strokecolor;
#X obj 507 222 list prepend color;
#X obj 507 248 route list;
#X obj 572 483 t b b b;
#X obj 388 504 t a a;
#X obj 313 576 mtcf-polygon;
#X obj 421 574 mtcf-polygon;
#X obj 307 675 mtcf-finger 0 0 0 0;
#X connect 0 0 41 0;
#X connect 1 0 2 0;
#X connect 1 1 25 0;
#X connect 1 2 3 0;
#X connect 2 0 0 0;
#X connect 3 0 0 2;
#X connect 4 0 8 1;
#X connect 5 0 8 2;
#X connect 8 1 13 0;
#X connect 9 0 43 0;
#X connect 9 1 8 0;
#X connect 9 1 11 0;
#X connect 10 0 12 2;
#X connect 10 0 12 0;
#X connect 11 0 42 0;
#X connect 12 0 42 0;
#X connect 13 0 12 1;
#X connect 13 0 17 0;
#X connect 14 0 20 0;
#X connect 15 0 1 0;
#X connect 15 1 29 0;
#X connect 16 0 39 0;
#X connect 16 1 15 0;
#X connect 17 0 18 0;
#X connect 19 0 42 0;
#X connect 20 0 16 0;
#X connect 20 1 33 0;
#X connect 24 0 42 0;
#X connect 25 0 0 1;
#X connect 26 0 12 1;
#X connect 27 0 26 0;
#X connect 27 0 18 0;
#X connect 28 0 27 0;
#X connect 28 1 40 0;
#X connect 29 0 41 0;
#X connect 30 0 42 0;
#X connect 31 0 41 0;
#X connect 31 1 32 0;
#X connect 32 0 35 0;
#X connect 32 1 28 0;
#X connect 33 0 41 0;
#X connect 33 1 34 0;
#X connect 34 0 41 0;
#X connect 34 1 31 0;
#X connect 35 0 41 0;
#X connect 35 1 36 0;
#X connect 36 0 37 0;
#X connect 37 0 38 0;
#X connect 38 0 42 0;
#X connect 39 0 24 0;
#X connect 39 1 19 0;
#X connect 39 2 30 0;
#X connect 40 0 41 0;
#X connect 40 1 42 0;
#X connect 41 0 9 0;
#X connect 43 1 7 0;
#X connect 43 2 4 0;
#X connect 43 3 5 0;
#X connect 43 4 6 0;
