#N canvas 0 0 906 745 10;
#X obj 17 -10 inlet;
#X obj 93 264 unpack f f f f f f f f f f f f f f f f;
#X obj 65 15 loadbang;
#X obj 150 603 outlet;
#X obj 346 232 float \$1;
#X obj 411 232 float \$2;
#X obj 557 604 outlet;
#X obj 364 173 t b b b;
#X obj 364 -8 inlet;
#X obj 364 16 t b f;
#X obj 429 -9 inlet;
#X obj 429 15 t b f;
#X obj 76 87 bang;
#X obj 78 394 f;
#X obj 104 394 f;
#X obj 130 394 f;
#X obj 156 394 f;
#X obj 90 445 *;
#X obj 148 444 *;
#X obj 118 489 -;
#X obj -10 264 t b b b b;
#X obj -10 85 t b a;
#X obj 211 491 expr ( $f2 * ( $f1 - $f3 ) ) + ( $f4 * ( $f5 - $f6 )
);
#X obj 150 574 /;
#X obj 555 490 expr ( $f2 * ( $f1 - $f3 ) ) + ( $f4 * ( $f5 - $f6 )
);
#X obj 557 578 /;
#X obj 17 43 mtcf-matrix;
#X text 0 632 MTCF mobile PD Client;
#X text -2 647 (C) Daniel Gallardo Grassot daniel.gallardo@upf.edu
;
#X text -1 664 This software (client) is released under the MIT licence
;
#X text -6 -62 Multiplies a point by the inverse of a Matrix.;
#X text -7 -46 Inlets: matrix (16 values list) \, X \, Y;
#X text -7 -30 Outlets: Xresult \, Yresult;
#X connect 0 0 26 0;
#X connect 1 0 13 1;
#X connect 1 1 15 1;
#X connect 1 1 24 3;
#X connect 1 4 16 1;
#X connect 1 4 22 3;
#X connect 1 5 14 1;
#X connect 1 5 22 1;
#X connect 1 5 24 1;
#X connect 1 12 22 2;
#X connect 1 12 24 4;
#X connect 1 13 22 4;
#X connect 1 13 24 2;
#X connect 2 0 26 0;
#X connect 4 0 22 0;
#X connect 4 0 24 5;
#X connect 5 0 22 5;
#X connect 5 0 24 0;
#X connect 7 0 4 0;
#X connect 7 1 5 0;
#X connect 8 0 9 0;
#X connect 9 0 7 0;
#X connect 9 1 4 1;
#X connect 10 0 11 0;
#X connect 11 0 7 0;
#X connect 11 1 5 1;
#X connect 12 0 7 0;
#X connect 13 0 17 0;
#X connect 14 0 17 1;
#X connect 15 0 18 0;
#X connect 16 0 18 1;
#X connect 17 0 19 0;
#X connect 18 0 19 1;
#X connect 19 0 23 1;
#X connect 19 0 25 1;
#X connect 20 0 13 0;
#X connect 20 1 14 0;
#X connect 20 2 15 0;
#X connect 20 3 16 0;
#X connect 21 0 20 0;
#X connect 21 1 1 0;
#X connect 22 0 23 0;
#X connect 23 0 3 0;
#X connect 24 0 25 0;
#X connect 25 0 6 0;
#X connect 26 0 12 0;
#X connect 26 0 21 0;
