#N canvas 915 349 467 451 10;
#X obj 25 -14 inlet;
#X obj 141 -14 inlet;
#X obj 25 28 route bang;
#X obj 37 106 float \$1;
#X obj 96 106 float \$2;
#X obj 16 216 list;
#X obj 16 245 route list;
#X obj 16 274 outlet;
#X text 11 306 MTCF mobile PD Client;
#X text 9 321 (C) Daniel Gallardo Grassot daniel.gallardo@upf.edu;
#X text 10 338 This software (client) is released under the MIT licence
;
#X text 8 -88 Sends a rectangle path to a [polygon2] object.;
#X text 8 -74 Inlets: X \, Y \, Width \, Height;
#X obj 200 -14 inlet;
#X obj 258 -14 inlet;
#X obj 155 106 float \$3;
#X obj 213 106 float \$4;
#X obj 37 187 list prepend addrectangle;
#X obj 25 60 t b b b b b;
#X obj 37 156 pack f f f f;
#X connect 0 0 2 0;
#X connect 1 0 4 1;
#X connect 2 0 18 0;
#X connect 2 1 3 1;
#X connect 3 0 19 0;
#X connect 4 0 19 1;
#X connect 5 0 6 0;
#X connect 6 0 7 0;
#X connect 13 0 15 1;
#X connect 14 0 16 1;
#X connect 15 0 19 2;
#X connect 16 0 19 3;
#X connect 17 0 5 1;
#X connect 18 0 5 0;
#X connect 18 1 3 0;
#X connect 18 2 4 0;
#X connect 18 3 15 0;
#X connect 18 4 16 0;
#X connect 19 0 17 0;
